%TF.GenerationSoftware,KiCad,Pcbnew,(2015-04-23 BZR 5622)-product*%
%TF.CreationDate,2015-05-03T13:43:13+02:00*%
%TF.JobID,KIS-3R33S_breakout,4B49532D33523333535F627265616B6F,0.12.b*%
%TF.FileFunction,Copper,L2,Bot,Signal*%
%FSLAX46Y46*%
G04 Gerber Fmt 4.6, Leading zero omitted, Abs format (unit mm)*
G04 Created by KiCad (PCBNEW (2015-04-23 BZR 5622)-product) date Sun 03 May 2015 01:43:13 PM CEST*
%MOMM*%
G01*
G04 APERTURE LIST*
%ADD10C,0.100000*%
%ADD11C,0.300000*%
%ADD12C,2.000000*%
%ADD13C,1.500000*%
%ADD14C,0.500000*%
G04 APERTURE END LIST*
D10*
D11*
X152950001Y-91978571D02*
X152950001Y-90478571D01*
X152307144Y-91978571D02*
X152307144Y-91192857D01*
X152378573Y-91050000D01*
X152521430Y-90978571D01*
X152735715Y-90978571D01*
X152878573Y-91050000D01*
X152950001Y-91121429D01*
X151807144Y-90978571D02*
X151235715Y-90978571D01*
X151592858Y-90478571D02*
X151592858Y-91764286D01*
X151521430Y-91907143D01*
X151378572Y-91978571D01*
X151235715Y-91978571D01*
X150950001Y-90978571D02*
X150378572Y-90978571D01*
X150735715Y-90478571D02*
X150735715Y-91764286D01*
X150664287Y-91907143D01*
X150521429Y-91978571D01*
X150378572Y-91978571D01*
X149878572Y-90978571D02*
X149878572Y-92478571D01*
X149878572Y-91050000D02*
X149735715Y-90978571D01*
X149450001Y-90978571D01*
X149307144Y-91050000D01*
X149235715Y-91121429D01*
X149164286Y-91264286D01*
X149164286Y-91692857D01*
X149235715Y-91835714D01*
X149307144Y-91907143D01*
X149450001Y-91978571D01*
X149735715Y-91978571D01*
X149878572Y-91907143D01*
X148521429Y-91835714D02*
X148450001Y-91907143D01*
X148521429Y-91978571D01*
X148592858Y-91907143D01*
X148521429Y-91835714D01*
X148521429Y-91978571D01*
X148521429Y-91050000D02*
X148450001Y-91121429D01*
X148521429Y-91192857D01*
X148592858Y-91121429D01*
X148521429Y-91050000D01*
X148521429Y-91192857D01*
X146735715Y-90407143D02*
X148021429Y-92335714D01*
X145164286Y-90407143D02*
X146450000Y-92335714D01*
X144021428Y-90978571D02*
X144021428Y-92192857D01*
X144092857Y-92335714D01*
X144164285Y-92407143D01*
X144307142Y-92478571D01*
X144521428Y-92478571D01*
X144664285Y-92407143D01*
X144021428Y-91907143D02*
X144164285Y-91978571D01*
X144449999Y-91978571D01*
X144592857Y-91907143D01*
X144664285Y-91835714D01*
X144735714Y-91692857D01*
X144735714Y-91264286D01*
X144664285Y-91121429D01*
X144592857Y-91050000D01*
X144449999Y-90978571D01*
X144164285Y-90978571D01*
X144021428Y-91050000D01*
X143092856Y-91978571D02*
X143235714Y-91907143D01*
X143307142Y-91835714D01*
X143378571Y-91692857D01*
X143378571Y-91264286D01*
X143307142Y-91121429D01*
X143235714Y-91050000D01*
X143092856Y-90978571D01*
X142878571Y-90978571D01*
X142735714Y-91050000D01*
X142664285Y-91121429D01*
X142592856Y-91264286D01*
X142592856Y-91692857D01*
X142664285Y-91835714D01*
X142735714Y-91907143D01*
X142878571Y-91978571D01*
X143092856Y-91978571D01*
X141735713Y-91978571D02*
X141878571Y-91907143D01*
X141949999Y-91835714D01*
X142021428Y-91692857D01*
X142021428Y-91264286D01*
X141949999Y-91121429D01*
X141878571Y-91050000D01*
X141735713Y-90978571D01*
X141521428Y-90978571D01*
X141378571Y-91050000D01*
X141307142Y-91121429D01*
X141235713Y-91264286D01*
X141235713Y-91692857D01*
X141307142Y-91835714D01*
X141378571Y-91907143D01*
X141521428Y-91978571D01*
X141735713Y-91978571D01*
X140592856Y-91835714D02*
X140521428Y-91907143D01*
X140592856Y-91978571D01*
X140664285Y-91907143D01*
X140592856Y-91835714D01*
X140592856Y-91978571D01*
X139235713Y-90978571D02*
X139235713Y-92192857D01*
X139307142Y-92335714D01*
X139378570Y-92407143D01*
X139521427Y-92478571D01*
X139735713Y-92478571D01*
X139878570Y-92407143D01*
X139235713Y-91907143D02*
X139378570Y-91978571D01*
X139664284Y-91978571D01*
X139807142Y-91907143D01*
X139878570Y-91835714D01*
X139949999Y-91692857D01*
X139949999Y-91264286D01*
X139878570Y-91121429D01*
X139807142Y-91050000D01*
X139664284Y-90978571D01*
X139378570Y-90978571D01*
X139235713Y-91050000D01*
X138307141Y-91978571D02*
X138449999Y-91907143D01*
X138521427Y-91764286D01*
X138521427Y-90478571D01*
X136664285Y-90407143D02*
X137949999Y-92335714D01*
X136307141Y-90478571D02*
X135307141Y-90478571D01*
X135949998Y-91978571D01*
X134949999Y-90478571D02*
X134092856Y-90478571D01*
X134521427Y-91978571D02*
X134521427Y-90478571D01*
X133592856Y-91978571D02*
X133592856Y-90478571D01*
X132735713Y-91978571D01*
X132735713Y-90478571D01*
X131807141Y-91978571D02*
X131949999Y-91907143D01*
X132021427Y-91764286D01*
X132021427Y-90478571D01*
X130807142Y-90478571D02*
X130807142Y-91550000D01*
X130878570Y-91764286D01*
X131021427Y-91907143D01*
X131235713Y-91978571D01*
X131378570Y-91978571D01*
X129449999Y-91978571D02*
X129449999Y-90478571D01*
X129449999Y-91907143D02*
X129592856Y-91978571D01*
X129878570Y-91978571D01*
X130021428Y-91907143D01*
X130092856Y-91835714D01*
X130164285Y-91692857D01*
X130164285Y-91264286D01*
X130092856Y-91121429D01*
X130021428Y-91050000D01*
X129878570Y-90978571D01*
X129592856Y-90978571D01*
X129449999Y-91050000D01*
D12*
X181450000Y-97460000D03*
X181450000Y-102540000D03*
X132550000Y-102540000D03*
X132550000Y-97460000D03*
D13*
X166350000Y-90730000D03*
X173970000Y-93270000D03*
X179050000Y-90730000D03*
X164400000Y-90800000D03*
D14*
X179050000Y-100140000D02*
X179050000Y-90730000D01*
X181450000Y-102540000D02*
X179050000Y-100140000D01*
X173970000Y-93270000D02*
X164870000Y-93270000D01*
X164870000Y-93270000D02*
X164100000Y-92500000D01*
X164100000Y-91100000D02*
X164400000Y-90800000D01*
X164100000Y-92500000D02*
X164100000Y-91100000D01*
M02*
