%TF.GenerationSoftware,KiCad,Pcbnew,(2015-04-23 BZR 5622)-product*%
%TF.CreationDate,2015-05-03T00:41:32+02:00*%
%TF.JobID,KIS-3R33S_breakout,4B49532D33523333535F627265616B6F,0.10.a*%
%TF.FileFunction,Legend,Bot*%
%FSLAX46Y46*%
G04 Gerber Fmt 4.6, Leading zero omitted, Abs format (unit mm)*
G04 Created by KiCad (PCBNEW (2015-04-23 BZR 5622)-product) date Sun 03 May 2015 12:41:32 AM CEST*
%MOMM*%
G01*
G04 APERTURE LIST*
%ADD10C,0.100000*%
%ADD11C,0.300000*%
%ADD12C,0.002540*%
%ADD13C,2.000000*%
%ADD14C,1.500000*%
G04 APERTURE END LIST*
D10*
D11*
X161428570Y-93478571D02*
X161428570Y-91978571D01*
X160571427Y-93478571D02*
X161214284Y-92621429D01*
X160571427Y-91978571D02*
X161428570Y-92835714D01*
X159928570Y-93478571D02*
X159928570Y-91978571D01*
X159285713Y-93407143D02*
X159071427Y-93478571D01*
X158714284Y-93478571D01*
X158571427Y-93407143D01*
X158499998Y-93335714D01*
X158428570Y-93192857D01*
X158428570Y-93050000D01*
X158499998Y-92907143D01*
X158571427Y-92835714D01*
X158714284Y-92764286D01*
X158999998Y-92692857D01*
X159142856Y-92621429D01*
X159214284Y-92550000D01*
X159285713Y-92407143D01*
X159285713Y-92264286D01*
X159214284Y-92121429D01*
X159142856Y-92050000D01*
X158999998Y-91978571D01*
X158642856Y-91978571D01*
X158428570Y-92050000D01*
X157785713Y-92907143D02*
X156642856Y-92907143D01*
X156071427Y-91978571D02*
X155142856Y-91978571D01*
X155642856Y-92550000D01*
X155428570Y-92550000D01*
X155285713Y-92621429D01*
X155214284Y-92692857D01*
X155142856Y-92835714D01*
X155142856Y-93192857D01*
X155214284Y-93335714D01*
X155285713Y-93407143D01*
X155428570Y-93478571D01*
X155857142Y-93478571D01*
X155999999Y-93407143D01*
X156071427Y-93335714D01*
X153642856Y-93478571D02*
X154142856Y-92764286D01*
X154499999Y-93478571D02*
X154499999Y-91978571D01*
X153928571Y-91978571D01*
X153785713Y-92050000D01*
X153714285Y-92121429D01*
X153642856Y-92264286D01*
X153642856Y-92478571D01*
X153714285Y-92621429D01*
X153785713Y-92692857D01*
X153928571Y-92764286D01*
X154499999Y-92764286D01*
X153142856Y-91978571D02*
X152214285Y-91978571D01*
X152714285Y-92550000D01*
X152499999Y-92550000D01*
X152357142Y-92621429D01*
X152285713Y-92692857D01*
X152214285Y-92835714D01*
X152214285Y-93192857D01*
X152285713Y-93335714D01*
X152357142Y-93407143D01*
X152499999Y-93478571D01*
X152928571Y-93478571D01*
X153071428Y-93407143D01*
X153142856Y-93335714D01*
X151714285Y-91978571D02*
X150785714Y-91978571D01*
X151285714Y-92550000D01*
X151071428Y-92550000D01*
X150928571Y-92621429D01*
X150857142Y-92692857D01*
X150785714Y-92835714D01*
X150785714Y-93192857D01*
X150857142Y-93335714D01*
X150928571Y-93407143D01*
X151071428Y-93478571D01*
X151500000Y-93478571D01*
X151642857Y-93407143D01*
X151714285Y-93335714D01*
X150214286Y-93407143D02*
X150000000Y-93478571D01*
X149642857Y-93478571D01*
X149500000Y-93407143D01*
X149428571Y-93335714D01*
X149357143Y-93192857D01*
X149357143Y-93050000D01*
X149428571Y-92907143D01*
X149500000Y-92835714D01*
X149642857Y-92764286D01*
X149928571Y-92692857D01*
X150071429Y-92621429D01*
X150142857Y-92550000D01*
X150214286Y-92407143D01*
X150214286Y-92264286D01*
X150142857Y-92121429D01*
X150071429Y-92050000D01*
X149928571Y-91978571D01*
X149571429Y-91978571D01*
X149357143Y-92050000D01*
X149071429Y-93621429D02*
X147928572Y-93621429D01*
X147571429Y-93478571D02*
X147571429Y-91978571D01*
X147571429Y-92550000D02*
X147428572Y-92478571D01*
X147142858Y-92478571D01*
X147000001Y-92550000D01*
X146928572Y-92621429D01*
X146857143Y-92764286D01*
X146857143Y-93192857D01*
X146928572Y-93335714D01*
X147000001Y-93407143D01*
X147142858Y-93478571D01*
X147428572Y-93478571D01*
X147571429Y-93407143D01*
X146214286Y-93478571D02*
X146214286Y-92478571D01*
X146214286Y-92764286D02*
X146142858Y-92621429D01*
X146071429Y-92550000D01*
X145928572Y-92478571D01*
X145785715Y-92478571D01*
X144714287Y-93407143D02*
X144857144Y-93478571D01*
X145142858Y-93478571D01*
X145285715Y-93407143D01*
X145357144Y-93264286D01*
X145357144Y-92692857D01*
X145285715Y-92550000D01*
X145142858Y-92478571D01*
X144857144Y-92478571D01*
X144714287Y-92550000D01*
X144642858Y-92692857D01*
X144642858Y-92835714D01*
X145357144Y-92978571D01*
X143357144Y-93478571D02*
X143357144Y-92692857D01*
X143428573Y-92550000D01*
X143571430Y-92478571D01*
X143857144Y-92478571D01*
X144000001Y-92550000D01*
X143357144Y-93407143D02*
X143500001Y-93478571D01*
X143857144Y-93478571D01*
X144000001Y-93407143D01*
X144071430Y-93264286D01*
X144071430Y-93121429D01*
X144000001Y-92978571D01*
X143857144Y-92907143D01*
X143500001Y-92907143D01*
X143357144Y-92835714D01*
X142642858Y-93478571D02*
X142642858Y-91978571D01*
X142500001Y-92907143D02*
X142071430Y-93478571D01*
X142071430Y-92478571D02*
X142642858Y-93050000D01*
X141214286Y-93478571D02*
X141357144Y-93407143D01*
X141428572Y-93335714D01*
X141500001Y-93192857D01*
X141500001Y-92764286D01*
X141428572Y-92621429D01*
X141357144Y-92550000D01*
X141214286Y-92478571D01*
X141000001Y-92478571D01*
X140857144Y-92550000D01*
X140785715Y-92621429D01*
X140714286Y-92764286D01*
X140714286Y-93192857D01*
X140785715Y-93335714D01*
X140857144Y-93407143D01*
X141000001Y-93478571D01*
X141214286Y-93478571D01*
X139428572Y-92478571D02*
X139428572Y-93478571D01*
X140071429Y-92478571D02*
X140071429Y-93264286D01*
X140000001Y-93407143D01*
X139857143Y-93478571D01*
X139642858Y-93478571D01*
X139500001Y-93407143D01*
X139428572Y-93335714D01*
X138928572Y-92478571D02*
X138357143Y-92478571D01*
X138714286Y-91978571D02*
X138714286Y-93264286D01*
X138642858Y-93407143D01*
X138500000Y-93478571D01*
X138357143Y-93478571D01*
X166107143Y-94521429D02*
X166035714Y-94450000D01*
X165892857Y-94378571D01*
X165535714Y-94378571D01*
X165392857Y-94450000D01*
X165321428Y-94521429D01*
X165250000Y-94664286D01*
X165250000Y-94807143D01*
X165321428Y-95021429D01*
X166178571Y-95878571D01*
X165250000Y-95878571D01*
X164321429Y-94378571D02*
X164178572Y-94378571D01*
X164035715Y-94450000D01*
X163964286Y-94521429D01*
X163892857Y-94664286D01*
X163821429Y-94950000D01*
X163821429Y-95307143D01*
X163892857Y-95592857D01*
X163964286Y-95735714D01*
X164035715Y-95807143D01*
X164178572Y-95878571D01*
X164321429Y-95878571D01*
X164464286Y-95807143D01*
X164535715Y-95735714D01*
X164607143Y-95592857D01*
X164678572Y-95307143D01*
X164678572Y-94950000D01*
X164607143Y-94664286D01*
X164535715Y-94521429D01*
X164464286Y-94450000D01*
X164321429Y-94378571D01*
X162392858Y-95878571D02*
X163250001Y-95878571D01*
X162821429Y-95878571D02*
X162821429Y-94378571D01*
X162964286Y-94592857D01*
X163107144Y-94735714D01*
X163250001Y-94807143D01*
X161035715Y-94378571D02*
X161750001Y-94378571D01*
X161821430Y-95092857D01*
X161750001Y-95021429D01*
X161607144Y-94950000D01*
X161250001Y-94950000D01*
X161107144Y-95021429D01*
X161035715Y-95092857D01*
X160964287Y-95235714D01*
X160964287Y-95592857D01*
X161035715Y-95735714D01*
X161107144Y-95807143D01*
X161250001Y-95878571D01*
X161607144Y-95878571D01*
X161750001Y-95807143D01*
X161821430Y-95735714D01*
X159178573Y-95307143D02*
X158035716Y-95307143D01*
X156178573Y-95878571D02*
X156178573Y-94378571D01*
X156178573Y-94950000D02*
X156035716Y-94878571D01*
X155750002Y-94878571D01*
X155607145Y-94950000D01*
X155535716Y-95021429D01*
X155464287Y-95164286D01*
X155464287Y-95592857D01*
X155535716Y-95735714D01*
X155607145Y-95807143D01*
X155750002Y-95878571D01*
X156035716Y-95878571D01*
X156178573Y-95807143D01*
X154607144Y-95878571D02*
X154750002Y-95807143D01*
X154821430Y-95664286D01*
X154821430Y-94378571D01*
X153821430Y-95878571D02*
X153964288Y-95807143D01*
X154035716Y-95735714D01*
X154107145Y-95592857D01*
X154107145Y-95164286D01*
X154035716Y-95021429D01*
X153964288Y-94950000D01*
X153821430Y-94878571D01*
X153607145Y-94878571D01*
X153464288Y-94950000D01*
X153392859Y-95021429D01*
X153321430Y-95164286D01*
X153321430Y-95592857D01*
X153392859Y-95735714D01*
X153464288Y-95807143D01*
X153607145Y-95878571D01*
X153821430Y-95878571D01*
X152035716Y-94878571D02*
X152035716Y-96092857D01*
X152107145Y-96235714D01*
X152178573Y-96307143D01*
X152321430Y-96378571D01*
X152535716Y-96378571D01*
X152678573Y-96307143D01*
X152035716Y-95807143D02*
X152178573Y-95878571D01*
X152464287Y-95878571D01*
X152607145Y-95807143D01*
X152678573Y-95735714D01*
X152750002Y-95592857D01*
X152750002Y-95164286D01*
X152678573Y-95021429D01*
X152607145Y-94950000D01*
X152464287Y-94878571D01*
X152178573Y-94878571D01*
X152035716Y-94950000D01*
X151321430Y-95735714D02*
X151250002Y-95807143D01*
X151321430Y-95878571D01*
X151392859Y-95807143D01*
X151321430Y-95735714D01*
X151321430Y-95878571D01*
X150678573Y-95807143D02*
X150535716Y-95878571D01*
X150250001Y-95878571D01*
X150107144Y-95807143D01*
X150035716Y-95664286D01*
X150035716Y-95592857D01*
X150107144Y-95450000D01*
X150250001Y-95378571D01*
X150464287Y-95378571D01*
X150607144Y-95307143D01*
X150678573Y-95164286D01*
X150678573Y-95092857D01*
X150607144Y-94950000D01*
X150464287Y-94878571D01*
X150250001Y-94878571D01*
X150107144Y-94950000D01*
X149392858Y-94878571D02*
X149392858Y-96378571D01*
X149392858Y-94950000D02*
X149250001Y-94878571D01*
X148964287Y-94878571D01*
X148821430Y-94950000D01*
X148750001Y-95021429D01*
X148678572Y-95164286D01*
X148678572Y-95592857D01*
X148750001Y-95735714D01*
X148821430Y-95807143D01*
X148964287Y-95878571D01*
X149250001Y-95878571D01*
X149392858Y-95807143D01*
X148035715Y-95878571D02*
X148035715Y-94878571D01*
X148035715Y-94378571D02*
X148107144Y-94450000D01*
X148035715Y-94521429D01*
X147964287Y-94450000D01*
X148035715Y-94378571D01*
X148035715Y-94521429D01*
X147535715Y-94878571D02*
X146964286Y-94878571D01*
X147321429Y-94378571D02*
X147321429Y-95664286D01*
X147250001Y-95807143D01*
X147107143Y-95878571D01*
X146964286Y-95878571D01*
X146607143Y-94878571D02*
X145821429Y-94878571D01*
X146607143Y-95878571D01*
X145821429Y-95878571D01*
X144678572Y-95807143D02*
X144821429Y-95878571D01*
X145107143Y-95878571D01*
X145250000Y-95807143D01*
X145321429Y-95664286D01*
X145321429Y-95092857D01*
X145250000Y-94950000D01*
X145107143Y-94878571D01*
X144821429Y-94878571D01*
X144678572Y-94950000D01*
X144607143Y-95092857D01*
X144607143Y-95235714D01*
X145321429Y-95378571D01*
X143964286Y-94878571D02*
X143964286Y-95878571D01*
X143964286Y-95021429D02*
X143892858Y-94950000D01*
X143750000Y-94878571D01*
X143535715Y-94878571D01*
X143392858Y-94950000D01*
X143321429Y-95092857D01*
X143321429Y-95878571D01*
X142607143Y-94878571D02*
X142607143Y-96378571D01*
X142607143Y-94950000D02*
X142464286Y-94878571D01*
X142178572Y-94878571D01*
X142035715Y-94950000D01*
X141964286Y-95021429D01*
X141892857Y-95164286D01*
X141892857Y-95592857D01*
X141964286Y-95735714D01*
X142035715Y-95807143D01*
X142178572Y-95878571D01*
X142464286Y-95878571D01*
X142607143Y-95807143D01*
X141464286Y-94878571D02*
X140892857Y-94878571D01*
X141250000Y-95878571D02*
X141250000Y-94592857D01*
X141178572Y-94450000D01*
X141035714Y-94378571D01*
X140892857Y-94378571D01*
X139821429Y-95807143D02*
X139964286Y-95878571D01*
X140250000Y-95878571D01*
X140392857Y-95807143D01*
X140464286Y-95664286D01*
X140464286Y-95092857D01*
X140392857Y-94950000D01*
X140250000Y-94878571D01*
X139964286Y-94878571D01*
X139821429Y-94950000D01*
X139750000Y-95092857D01*
X139750000Y-95235714D01*
X140464286Y-95378571D01*
X139107143Y-95878571D02*
X139107143Y-94878571D01*
X139107143Y-94378571D02*
X139178572Y-94450000D01*
X139107143Y-94521429D01*
X139035715Y-94450000D01*
X139107143Y-94378571D01*
X139107143Y-94521429D01*
X138178571Y-95878571D02*
X138321429Y-95807143D01*
X138392857Y-95664286D01*
X138392857Y-94378571D01*
X137607143Y-95735714D02*
X137535715Y-95807143D01*
X137607143Y-95878571D01*
X137678572Y-95807143D01*
X137607143Y-95735714D01*
X137607143Y-95878571D01*
X136678571Y-95878571D02*
X136821429Y-95807143D01*
X136892857Y-95735714D01*
X136964286Y-95592857D01*
X136964286Y-95164286D01*
X136892857Y-95021429D01*
X136821429Y-94950000D01*
X136678571Y-94878571D01*
X136464286Y-94878571D01*
X136321429Y-94950000D01*
X136250000Y-95021429D01*
X136178571Y-95164286D01*
X136178571Y-95592857D01*
X136250000Y-95735714D01*
X136321429Y-95807143D01*
X136464286Y-95878571D01*
X136678571Y-95878571D01*
X135535714Y-95878571D02*
X135535714Y-94878571D01*
X135535714Y-95164286D02*
X135464286Y-95021429D01*
X135392857Y-94950000D01*
X135250000Y-94878571D01*
X135107143Y-94878571D01*
X133964286Y-94878571D02*
X133964286Y-96092857D01*
X134035715Y-96235714D01*
X134107143Y-96307143D01*
X134250000Y-96378571D01*
X134464286Y-96378571D01*
X134607143Y-96307143D01*
X133964286Y-95807143D02*
X134107143Y-95878571D01*
X134392857Y-95878571D01*
X134535715Y-95807143D01*
X134607143Y-95735714D01*
X134678572Y-95592857D01*
X134678572Y-95164286D01*
X134607143Y-95021429D01*
X134535715Y-94950000D01*
X134392857Y-94878571D01*
X134107143Y-94878571D01*
X133964286Y-94950000D01*
D12*
G36*
X158867160Y-102623820D02*
X158790960Y-102613660D01*
X158722380Y-102590800D01*
X158691900Y-102575560D01*
X158628400Y-102529840D01*
X158577600Y-102476500D01*
X158539500Y-102413000D01*
X158514100Y-102344420D01*
X158501400Y-102270760D01*
X158503940Y-102197100D01*
X158521720Y-102123440D01*
X158554740Y-102052320D01*
X158577600Y-102021840D01*
X158608080Y-101988820D01*
X158643640Y-101955800D01*
X158674120Y-101932940D01*
X158684280Y-101925320D01*
X158750320Y-101894840D01*
X158816360Y-101879600D01*
X158892560Y-101877060D01*
X158917960Y-101877060D01*
X158958600Y-101882140D01*
X158994160Y-101892300D01*
X159034800Y-101910080D01*
X159077980Y-101932940D01*
X159138940Y-101981200D01*
X159187200Y-102042160D01*
X159225300Y-102110740D01*
X159235460Y-102141220D01*
X159245620Y-102179320D01*
X159250700Y-102207260D01*
X159250700Y-102212340D01*
X159250700Y-102212340D01*
X159253240Y-102197100D01*
X159253240Y-102194560D01*
X159265940Y-102146300D01*
X159283720Y-102098040D01*
X159306580Y-102054860D01*
X159347220Y-101998980D01*
X159405640Y-101945640D01*
X159471680Y-101907540D01*
X159545340Y-101882140D01*
X159624080Y-101874520D01*
X159644400Y-101874520D01*
X159702820Y-101882140D01*
X159761240Y-101897380D01*
X159771400Y-101902460D01*
X159834900Y-101938020D01*
X159890780Y-101983740D01*
X159939040Y-102042160D01*
X159972060Y-102103120D01*
X159992380Y-102171700D01*
X159994920Y-102174240D01*
X159997460Y-102192020D01*
X160000000Y-102199640D01*
X160000000Y-102199640D01*
X160002540Y-102189480D01*
X160007620Y-102171700D01*
X160007620Y-102164080D01*
X160030480Y-102098040D01*
X160066040Y-102034540D01*
X160114300Y-101978660D01*
X160160020Y-101940560D01*
X160223520Y-101905000D01*
X160297180Y-101882140D01*
X160375920Y-101874520D01*
X160431800Y-101879600D01*
X160505460Y-101897380D01*
X160574040Y-101932940D01*
X160635000Y-101978660D01*
X160683260Y-102039620D01*
X160690880Y-102047240D01*
X160706120Y-102075180D01*
X160718820Y-102098040D01*
X160723900Y-102115820D01*
X160736600Y-102148840D01*
X160744220Y-102181860D01*
X160746760Y-102207260D01*
X160746760Y-102212340D01*
X160749300Y-102212340D01*
X160751840Y-102194560D01*
X160759460Y-102153920D01*
X160779780Y-102103120D01*
X160800100Y-102057400D01*
X160845820Y-101996440D01*
X160904240Y-101945640D01*
X160970280Y-101907540D01*
X161043940Y-101882140D01*
X161120140Y-101874520D01*
X161191260Y-101879600D01*
X161264920Y-101899920D01*
X161330960Y-101938020D01*
X161391920Y-101988820D01*
X161422400Y-102021840D01*
X161450340Y-102062480D01*
X161473200Y-102110740D01*
X161485900Y-102148840D01*
X161498600Y-102225040D01*
X161496060Y-102298700D01*
X161480820Y-102367280D01*
X161450340Y-102433320D01*
X161409700Y-102491740D01*
X161358900Y-102542540D01*
X161297940Y-102583180D01*
X161229360Y-102608580D01*
X161153160Y-102621280D01*
X161145540Y-102623820D01*
X161069340Y-102621280D01*
X160998220Y-102603500D01*
X160929640Y-102570480D01*
X160904240Y-102552700D01*
X160855980Y-102509520D01*
X160810260Y-102456180D01*
X160779780Y-102400300D01*
X160772160Y-102379980D01*
X160762000Y-102346960D01*
X160754380Y-102313940D01*
X160749300Y-102288540D01*
X160749300Y-102273300D01*
X160746760Y-102288540D01*
X160746760Y-102301240D01*
X160739140Y-102334260D01*
X160728980Y-102372360D01*
X160716280Y-102402840D01*
X160698500Y-102438400D01*
X160652780Y-102499360D01*
X160594360Y-102550160D01*
X160528320Y-102590800D01*
X160454660Y-102616200D01*
X160441960Y-102618740D01*
X160391160Y-102623820D01*
X160335280Y-102621280D01*
X160287020Y-102613660D01*
X160236220Y-102598420D01*
X160167640Y-102562860D01*
X160104140Y-102512060D01*
X160101600Y-102506980D01*
X160058420Y-102453640D01*
X160025400Y-102390140D01*
X160007620Y-102326640D01*
X160005080Y-102324100D01*
X160002540Y-102306320D01*
X160000000Y-102298700D01*
X159997460Y-102303780D01*
X159994920Y-102319020D01*
X159994920Y-102324100D01*
X159984760Y-102362200D01*
X159966980Y-102405380D01*
X159944120Y-102446020D01*
X159911100Y-102491740D01*
X159855220Y-102545080D01*
X159789180Y-102585720D01*
X159715520Y-102613660D01*
X159702820Y-102616200D01*
X159652020Y-102621280D01*
X159596140Y-102621280D01*
X159547880Y-102616200D01*
X159507240Y-102603500D01*
X159436120Y-102573020D01*
X159375160Y-102527300D01*
X159321820Y-102468880D01*
X159283720Y-102402840D01*
X159276100Y-102382520D01*
X159263400Y-102346960D01*
X159255780Y-102313940D01*
X159253240Y-102288540D01*
X159253240Y-102286000D01*
X159250700Y-102286000D01*
X159248160Y-102301240D01*
X159248160Y-102303780D01*
X159238000Y-102349500D01*
X159217680Y-102400300D01*
X159197360Y-102443480D01*
X159187200Y-102458720D01*
X159138940Y-102517140D01*
X159077980Y-102562860D01*
X159014480Y-102598420D01*
X158943360Y-102618740D01*
X158867160Y-102623820D01*
X158867160Y-102623820D01*
G37*
X158867160Y-102623820D02*
X158790960Y-102613660D01*
X158722380Y-102590800D01*
X158691900Y-102575560D01*
X158628400Y-102529840D01*
X158577600Y-102476500D01*
X158539500Y-102413000D01*
X158514100Y-102344420D01*
X158501400Y-102270760D01*
X158503940Y-102197100D01*
X158521720Y-102123440D01*
X158554740Y-102052320D01*
X158577600Y-102021840D01*
X158608080Y-101988820D01*
X158643640Y-101955800D01*
X158674120Y-101932940D01*
X158684280Y-101925320D01*
X158750320Y-101894840D01*
X158816360Y-101879600D01*
X158892560Y-101877060D01*
X158917960Y-101877060D01*
X158958600Y-101882140D01*
X158994160Y-101892300D01*
X159034800Y-101910080D01*
X159077980Y-101932940D01*
X159138940Y-101981200D01*
X159187200Y-102042160D01*
X159225300Y-102110740D01*
X159235460Y-102141220D01*
X159245620Y-102179320D01*
X159250700Y-102207260D01*
X159250700Y-102212340D01*
X159250700Y-102212340D01*
X159253240Y-102197100D01*
X159253240Y-102194560D01*
X159265940Y-102146300D01*
X159283720Y-102098040D01*
X159306580Y-102054860D01*
X159347220Y-101998980D01*
X159405640Y-101945640D01*
X159471680Y-101907540D01*
X159545340Y-101882140D01*
X159624080Y-101874520D01*
X159644400Y-101874520D01*
X159702820Y-101882140D01*
X159761240Y-101897380D01*
X159771400Y-101902460D01*
X159834900Y-101938020D01*
X159890780Y-101983740D01*
X159939040Y-102042160D01*
X159972060Y-102103120D01*
X159992380Y-102171700D01*
X159994920Y-102174240D01*
X159997460Y-102192020D01*
X160000000Y-102199640D01*
X160000000Y-102199640D01*
X160002540Y-102189480D01*
X160007620Y-102171700D01*
X160007620Y-102164080D01*
X160030480Y-102098040D01*
X160066040Y-102034540D01*
X160114300Y-101978660D01*
X160160020Y-101940560D01*
X160223520Y-101905000D01*
X160297180Y-101882140D01*
X160375920Y-101874520D01*
X160431800Y-101879600D01*
X160505460Y-101897380D01*
X160574040Y-101932940D01*
X160635000Y-101978660D01*
X160683260Y-102039620D01*
X160690880Y-102047240D01*
X160706120Y-102075180D01*
X160718820Y-102098040D01*
X160723900Y-102115820D01*
X160736600Y-102148840D01*
X160744220Y-102181860D01*
X160746760Y-102207260D01*
X160746760Y-102212340D01*
X160749300Y-102212340D01*
X160751840Y-102194560D01*
X160759460Y-102153920D01*
X160779780Y-102103120D01*
X160800100Y-102057400D01*
X160845820Y-101996440D01*
X160904240Y-101945640D01*
X160970280Y-101907540D01*
X161043940Y-101882140D01*
X161120140Y-101874520D01*
X161191260Y-101879600D01*
X161264920Y-101899920D01*
X161330960Y-101938020D01*
X161391920Y-101988820D01*
X161422400Y-102021840D01*
X161450340Y-102062480D01*
X161473200Y-102110740D01*
X161485900Y-102148840D01*
X161498600Y-102225040D01*
X161496060Y-102298700D01*
X161480820Y-102367280D01*
X161450340Y-102433320D01*
X161409700Y-102491740D01*
X161358900Y-102542540D01*
X161297940Y-102583180D01*
X161229360Y-102608580D01*
X161153160Y-102621280D01*
X161145540Y-102623820D01*
X161069340Y-102621280D01*
X160998220Y-102603500D01*
X160929640Y-102570480D01*
X160904240Y-102552700D01*
X160855980Y-102509520D01*
X160810260Y-102456180D01*
X160779780Y-102400300D01*
X160772160Y-102379980D01*
X160762000Y-102346960D01*
X160754380Y-102313940D01*
X160749300Y-102288540D01*
X160749300Y-102273300D01*
X160746760Y-102288540D01*
X160746760Y-102301240D01*
X160739140Y-102334260D01*
X160728980Y-102372360D01*
X160716280Y-102402840D01*
X160698500Y-102438400D01*
X160652780Y-102499360D01*
X160594360Y-102550160D01*
X160528320Y-102590800D01*
X160454660Y-102616200D01*
X160441960Y-102618740D01*
X160391160Y-102623820D01*
X160335280Y-102621280D01*
X160287020Y-102613660D01*
X160236220Y-102598420D01*
X160167640Y-102562860D01*
X160104140Y-102512060D01*
X160101600Y-102506980D01*
X160058420Y-102453640D01*
X160025400Y-102390140D01*
X160007620Y-102326640D01*
X160005080Y-102324100D01*
X160002540Y-102306320D01*
X160000000Y-102298700D01*
X159997460Y-102303780D01*
X159994920Y-102319020D01*
X159994920Y-102324100D01*
X159984760Y-102362200D01*
X159966980Y-102405380D01*
X159944120Y-102446020D01*
X159911100Y-102491740D01*
X159855220Y-102545080D01*
X159789180Y-102585720D01*
X159715520Y-102613660D01*
X159702820Y-102616200D01*
X159652020Y-102621280D01*
X159596140Y-102621280D01*
X159547880Y-102616200D01*
X159507240Y-102603500D01*
X159436120Y-102573020D01*
X159375160Y-102527300D01*
X159321820Y-102468880D01*
X159283720Y-102402840D01*
X159276100Y-102382520D01*
X159263400Y-102346960D01*
X159255780Y-102313940D01*
X159253240Y-102288540D01*
X159253240Y-102286000D01*
X159250700Y-102286000D01*
X159248160Y-102301240D01*
X159248160Y-102303780D01*
X159238000Y-102349500D01*
X159217680Y-102400300D01*
X159197360Y-102443480D01*
X159187200Y-102458720D01*
X159138940Y-102517140D01*
X159077980Y-102562860D01*
X159014480Y-102598420D01*
X158943360Y-102618740D01*
X158867160Y-102623820D01*
G36*
X161897380Y-101874520D02*
X161851660Y-101871980D01*
X161808480Y-101869440D01*
X161757680Y-101856740D01*
X161689100Y-101823720D01*
X161625600Y-101780540D01*
X161574800Y-101724660D01*
X161534160Y-101658620D01*
X161508760Y-101587500D01*
X161498600Y-101511300D01*
X161503680Y-101435100D01*
X161524000Y-101363980D01*
X161557020Y-101297940D01*
X161605280Y-101236980D01*
X161666240Y-101186180D01*
X161684020Y-101176020D01*
X161757680Y-101143000D01*
X161831340Y-101125220D01*
X161910080Y-101125220D01*
X161986280Y-101140460D01*
X162047240Y-101165860D01*
X162113280Y-101209040D01*
X162166620Y-101264920D01*
X162209800Y-101330960D01*
X162237740Y-101407160D01*
X162245360Y-101445260D01*
X162247900Y-101493520D01*
X162247900Y-101541780D01*
X162240280Y-101582420D01*
X162237740Y-101595120D01*
X162207260Y-101671320D01*
X162164080Y-101737360D01*
X162105660Y-101793240D01*
X162037080Y-101836420D01*
X162006600Y-101849120D01*
X161963420Y-101864360D01*
X161922780Y-101871980D01*
X161897380Y-101874520D01*
X161897380Y-101874520D01*
G37*
X161897380Y-101874520D02*
X161851660Y-101871980D01*
X161808480Y-101869440D01*
X161757680Y-101856740D01*
X161689100Y-101823720D01*
X161625600Y-101780540D01*
X161574800Y-101724660D01*
X161534160Y-101658620D01*
X161508760Y-101587500D01*
X161498600Y-101511300D01*
X161503680Y-101435100D01*
X161524000Y-101363980D01*
X161557020Y-101297940D01*
X161605280Y-101236980D01*
X161666240Y-101186180D01*
X161684020Y-101176020D01*
X161757680Y-101143000D01*
X161831340Y-101125220D01*
X161910080Y-101125220D01*
X161986280Y-101140460D01*
X162047240Y-101165860D01*
X162113280Y-101209040D01*
X162166620Y-101264920D01*
X162209800Y-101330960D01*
X162237740Y-101407160D01*
X162245360Y-101445260D01*
X162247900Y-101493520D01*
X162247900Y-101541780D01*
X162240280Y-101582420D01*
X162237740Y-101595120D01*
X162207260Y-101671320D01*
X162164080Y-101737360D01*
X162105660Y-101793240D01*
X162037080Y-101836420D01*
X162006600Y-101849120D01*
X161963420Y-101864360D01*
X161922780Y-101871980D01*
X161897380Y-101874520D01*
G36*
X158117860Y-101874520D02*
X158041660Y-101864360D01*
X157965460Y-101838960D01*
X157896880Y-101795780D01*
X157881640Y-101783080D01*
X157830840Y-101729740D01*
X157790200Y-101663700D01*
X157762260Y-101590040D01*
X157754640Y-101551940D01*
X157752100Y-101503680D01*
X157752100Y-101455420D01*
X157759720Y-101417320D01*
X157764800Y-101399540D01*
X157792740Y-101323340D01*
X157835920Y-101259840D01*
X157891800Y-101206500D01*
X157955300Y-101165860D01*
X158026420Y-101137920D01*
X158105160Y-101125220D01*
X158133100Y-101122680D01*
X158209300Y-101132840D01*
X158280420Y-101155700D01*
X158343920Y-101193800D01*
X158399800Y-101242060D01*
X158442980Y-101300480D01*
X158476000Y-101366520D01*
X158496320Y-101437640D01*
X158498860Y-101516380D01*
X158496320Y-101562100D01*
X158486160Y-101602740D01*
X158470920Y-101645920D01*
X158440440Y-101704340D01*
X158392180Y-101762760D01*
X158333760Y-101811020D01*
X158267720Y-101846580D01*
X158194060Y-101866900D01*
X158117860Y-101874520D01*
X158117860Y-101874520D01*
G37*
X158117860Y-101874520D02*
X158041660Y-101864360D01*
X157965460Y-101838960D01*
X157896880Y-101795780D01*
X157881640Y-101783080D01*
X157830840Y-101729740D01*
X157790200Y-101663700D01*
X157762260Y-101590040D01*
X157754640Y-101551940D01*
X157752100Y-101503680D01*
X157752100Y-101455420D01*
X157759720Y-101417320D01*
X157764800Y-101399540D01*
X157792740Y-101323340D01*
X157835920Y-101259840D01*
X157891800Y-101206500D01*
X157955300Y-101165860D01*
X158026420Y-101137920D01*
X158105160Y-101125220D01*
X158133100Y-101122680D01*
X158209300Y-101132840D01*
X158280420Y-101155700D01*
X158343920Y-101193800D01*
X158399800Y-101242060D01*
X158442980Y-101300480D01*
X158476000Y-101366520D01*
X158496320Y-101437640D01*
X158498860Y-101516380D01*
X158496320Y-101562100D01*
X158486160Y-101602740D01*
X158470920Y-101645920D01*
X158440440Y-101704340D01*
X158392180Y-101762760D01*
X158333760Y-101811020D01*
X158267720Y-101846580D01*
X158194060Y-101866900D01*
X158117860Y-101874520D01*
G36*
X162644140Y-101122680D02*
X162590800Y-101122680D01*
X162545080Y-101115060D01*
X162491740Y-101099820D01*
X162423160Y-101064260D01*
X162359660Y-101013460D01*
X162319020Y-100967740D01*
X162280920Y-100901700D01*
X162258060Y-100828040D01*
X162252980Y-100800100D01*
X162250440Y-100754380D01*
X162250440Y-100708660D01*
X162255520Y-100670560D01*
X162263140Y-100647700D01*
X162291080Y-100574040D01*
X162334260Y-100510540D01*
X162390140Y-100454660D01*
X162458720Y-100414020D01*
X162484120Y-100401320D01*
X162532380Y-100383540D01*
X162580640Y-100375920D01*
X162636520Y-100375920D01*
X162672080Y-100378460D01*
X162712720Y-100383540D01*
X162750820Y-100393700D01*
X162791460Y-100414020D01*
X162814320Y-100426720D01*
X162877820Y-100472440D01*
X162928620Y-100530860D01*
X162969260Y-100599440D01*
X162992120Y-100675640D01*
X162994660Y-100693420D01*
X162999740Y-100736600D01*
X162997200Y-100782320D01*
X162992120Y-100822960D01*
X162987040Y-100848360D01*
X162956560Y-100922020D01*
X162913380Y-100988060D01*
X162860040Y-101041400D01*
X162791460Y-101084580D01*
X162717800Y-101112520D01*
X162694940Y-101117600D01*
X162644140Y-101122680D01*
X162644140Y-101122680D01*
G37*
X162644140Y-101122680D02*
X162590800Y-101122680D01*
X162545080Y-101115060D01*
X162491740Y-101099820D01*
X162423160Y-101064260D01*
X162359660Y-101013460D01*
X162319020Y-100967740D01*
X162280920Y-100901700D01*
X162258060Y-100828040D01*
X162252980Y-100800100D01*
X162250440Y-100754380D01*
X162250440Y-100708660D01*
X162255520Y-100670560D01*
X162263140Y-100647700D01*
X162291080Y-100574040D01*
X162334260Y-100510540D01*
X162390140Y-100454660D01*
X162458720Y-100414020D01*
X162484120Y-100401320D01*
X162532380Y-100383540D01*
X162580640Y-100375920D01*
X162636520Y-100375920D01*
X162672080Y-100378460D01*
X162712720Y-100383540D01*
X162750820Y-100393700D01*
X162791460Y-100414020D01*
X162814320Y-100426720D01*
X162877820Y-100472440D01*
X162928620Y-100530860D01*
X162969260Y-100599440D01*
X162992120Y-100675640D01*
X162994660Y-100693420D01*
X162999740Y-100736600D01*
X162997200Y-100782320D01*
X162992120Y-100822960D01*
X162987040Y-100848360D01*
X162956560Y-100922020D01*
X162913380Y-100988060D01*
X162860040Y-101041400D01*
X162791460Y-101084580D01*
X162717800Y-101112520D01*
X162694940Y-101117600D01*
X162644140Y-101122680D01*
G36*
X159634240Y-101122680D02*
X159560580Y-101117600D01*
X159489460Y-101097280D01*
X159446280Y-101079500D01*
X159382780Y-101033780D01*
X159329440Y-100977900D01*
X159288800Y-100911860D01*
X159263400Y-100840740D01*
X159258320Y-100822960D01*
X159250700Y-100764540D01*
X159253240Y-100706120D01*
X159268480Y-100640080D01*
X159298960Y-100566420D01*
X159342140Y-100502920D01*
X159398020Y-100452120D01*
X159464060Y-100411480D01*
X159540260Y-100383540D01*
X159588520Y-100370840D01*
X159563120Y-100368300D01*
X159558040Y-100368300D01*
X159504700Y-100353060D01*
X159448820Y-100327660D01*
X159395480Y-100294640D01*
X159387860Y-100287020D01*
X159334520Y-100233680D01*
X159291340Y-100170180D01*
X159265940Y-100099060D01*
X159253240Y-100027940D01*
X159253240Y-99954280D01*
X159271020Y-99880620D01*
X159304040Y-99809500D01*
X159304040Y-99806960D01*
X159352300Y-99746000D01*
X159408180Y-99695200D01*
X159471680Y-99659640D01*
X159540260Y-99636780D01*
X159611380Y-99626620D01*
X159685040Y-99631700D01*
X159756160Y-99649480D01*
X159822200Y-99682500D01*
X159885700Y-99728220D01*
X159916180Y-99763780D01*
X159954280Y-99819660D01*
X159982220Y-99878080D01*
X159994920Y-99933960D01*
X159997460Y-99946660D01*
X160000000Y-99954280D01*
X160002540Y-99949200D01*
X160005080Y-99933960D01*
X160017780Y-99883160D01*
X160040640Y-99829820D01*
X160071120Y-99779020D01*
X160091440Y-99756160D01*
X160147320Y-99702820D01*
X160213360Y-99662180D01*
X160284480Y-99636780D01*
X160360680Y-99626620D01*
X160436880Y-99631700D01*
X160482600Y-99641860D01*
X160556260Y-99672340D01*
X160617220Y-99715520D01*
X160670560Y-99771400D01*
X160711200Y-99837440D01*
X160739140Y-99911100D01*
X160744220Y-99949200D01*
X160749300Y-100025400D01*
X160734060Y-100099060D01*
X160708660Y-100170180D01*
X160665480Y-100233680D01*
X160612140Y-100287020D01*
X160546100Y-100332740D01*
X160515620Y-100345440D01*
X160480060Y-100358140D01*
X160449580Y-100365760D01*
X160424180Y-100370840D01*
X160421640Y-100370840D01*
X160421640Y-100373380D01*
X160439420Y-100378460D01*
X160474980Y-100388620D01*
X160525780Y-100406400D01*
X160568960Y-100426720D01*
X160591820Y-100444500D01*
X160642620Y-100487680D01*
X160685800Y-100541020D01*
X160718820Y-100596900D01*
X160739140Y-100660400D01*
X160749300Y-100726440D01*
X160746760Y-100792480D01*
X160744220Y-100805180D01*
X160723900Y-100883920D01*
X160688340Y-100952500D01*
X160637540Y-101013460D01*
X160596900Y-101051560D01*
X160528320Y-101092200D01*
X160454660Y-101115060D01*
X160426720Y-101120140D01*
X160386080Y-101122680D01*
X160342900Y-101120140D01*
X160302260Y-101117600D01*
X160271780Y-101109980D01*
X160246380Y-101102360D01*
X160175260Y-101066800D01*
X160111760Y-101018540D01*
X160060960Y-100957580D01*
X160043180Y-100927100D01*
X160020320Y-100876300D01*
X160007620Y-100825500D01*
X160005080Y-100822960D01*
X160002540Y-100805180D01*
X160000000Y-100797560D01*
X160000000Y-100797560D01*
X160000000Y-100698500D01*
X160000000Y-100698500D01*
X160002540Y-100690880D01*
X160007620Y-100670560D01*
X160007620Y-100665480D01*
X160030480Y-100599440D01*
X160066040Y-100535940D01*
X160114300Y-100480060D01*
X160170180Y-100434340D01*
X160233680Y-100401320D01*
X160238760Y-100398780D01*
X160271780Y-100388620D01*
X160302260Y-100381000D01*
X160337820Y-100373380D01*
X160304800Y-100368300D01*
X160259080Y-100355600D01*
X160193040Y-100327660D01*
X160132080Y-100284480D01*
X160078740Y-100231140D01*
X160038100Y-100170180D01*
X160025400Y-100137160D01*
X160012700Y-100099060D01*
X160005080Y-100066040D01*
X160002540Y-100053340D01*
X160000000Y-100045720D01*
X159997460Y-100050800D01*
X159994920Y-100066040D01*
X159989840Y-100093980D01*
X159977140Y-100132080D01*
X159961900Y-100170180D01*
X159936500Y-100208280D01*
X159888240Y-100266700D01*
X159829820Y-100312420D01*
X159763780Y-100347980D01*
X159695200Y-100368300D01*
X159662180Y-100373380D01*
X159695200Y-100381000D01*
X159700280Y-100381000D01*
X159733300Y-100388620D01*
X159766320Y-100401320D01*
X159771400Y-100403860D01*
X159834900Y-100436880D01*
X159890780Y-100485140D01*
X159939040Y-100541020D01*
X159972060Y-100604520D01*
X159992380Y-100670560D01*
X159994920Y-100673100D01*
X159997460Y-100690880D01*
X160000000Y-100698500D01*
X160000000Y-100797560D01*
X160000000Y-100797560D01*
X159997460Y-100807720D01*
X159992380Y-100825500D01*
X159979680Y-100876300D01*
X159949200Y-100942340D01*
X159903480Y-101000760D01*
X159847600Y-101051560D01*
X159781560Y-101089660D01*
X159781560Y-101089660D01*
X159710440Y-101115060D01*
X159634240Y-101122680D01*
X159634240Y-101122680D01*
G37*
X159634240Y-101122680D02*
X159560580Y-101117600D01*
X159489460Y-101097280D01*
X159446280Y-101079500D01*
X159382780Y-101033780D01*
X159329440Y-100977900D01*
X159288800Y-100911860D01*
X159263400Y-100840740D01*
X159258320Y-100822960D01*
X159250700Y-100764540D01*
X159253240Y-100706120D01*
X159268480Y-100640080D01*
X159298960Y-100566420D01*
X159342140Y-100502920D01*
X159398020Y-100452120D01*
X159464060Y-100411480D01*
X159540260Y-100383540D01*
X159588520Y-100370840D01*
X159563120Y-100368300D01*
X159558040Y-100368300D01*
X159504700Y-100353060D01*
X159448820Y-100327660D01*
X159395480Y-100294640D01*
X159387860Y-100287020D01*
X159334520Y-100233680D01*
X159291340Y-100170180D01*
X159265940Y-100099060D01*
X159253240Y-100027940D01*
X159253240Y-99954280D01*
X159271020Y-99880620D01*
X159304040Y-99809500D01*
X159304040Y-99806960D01*
X159352300Y-99746000D01*
X159408180Y-99695200D01*
X159471680Y-99659640D01*
X159540260Y-99636780D01*
X159611380Y-99626620D01*
X159685040Y-99631700D01*
X159756160Y-99649480D01*
X159822200Y-99682500D01*
X159885700Y-99728220D01*
X159916180Y-99763780D01*
X159954280Y-99819660D01*
X159982220Y-99878080D01*
X159994920Y-99933960D01*
X159997460Y-99946660D01*
X160000000Y-99954280D01*
X160002540Y-99949200D01*
X160005080Y-99933960D01*
X160017780Y-99883160D01*
X160040640Y-99829820D01*
X160071120Y-99779020D01*
X160091440Y-99756160D01*
X160147320Y-99702820D01*
X160213360Y-99662180D01*
X160284480Y-99636780D01*
X160360680Y-99626620D01*
X160436880Y-99631700D01*
X160482600Y-99641860D01*
X160556260Y-99672340D01*
X160617220Y-99715520D01*
X160670560Y-99771400D01*
X160711200Y-99837440D01*
X160739140Y-99911100D01*
X160744220Y-99949200D01*
X160749300Y-100025400D01*
X160734060Y-100099060D01*
X160708660Y-100170180D01*
X160665480Y-100233680D01*
X160612140Y-100287020D01*
X160546100Y-100332740D01*
X160515620Y-100345440D01*
X160480060Y-100358140D01*
X160449580Y-100365760D01*
X160424180Y-100370840D01*
X160421640Y-100370840D01*
X160421640Y-100373380D01*
X160439420Y-100378460D01*
X160474980Y-100388620D01*
X160525780Y-100406400D01*
X160568960Y-100426720D01*
X160591820Y-100444500D01*
X160642620Y-100487680D01*
X160685800Y-100541020D01*
X160718820Y-100596900D01*
X160739140Y-100660400D01*
X160749300Y-100726440D01*
X160746760Y-100792480D01*
X160744220Y-100805180D01*
X160723900Y-100883920D01*
X160688340Y-100952500D01*
X160637540Y-101013460D01*
X160596900Y-101051560D01*
X160528320Y-101092200D01*
X160454660Y-101115060D01*
X160426720Y-101120140D01*
X160386080Y-101122680D01*
X160342900Y-101120140D01*
X160302260Y-101117600D01*
X160271780Y-101109980D01*
X160246380Y-101102360D01*
X160175260Y-101066800D01*
X160111760Y-101018540D01*
X160060960Y-100957580D01*
X160043180Y-100927100D01*
X160020320Y-100876300D01*
X160007620Y-100825500D01*
X160005080Y-100822960D01*
X160002540Y-100805180D01*
X160000000Y-100797560D01*
X160000000Y-100797560D01*
X160000000Y-100698500D01*
X160000000Y-100698500D01*
X160002540Y-100690880D01*
X160007620Y-100670560D01*
X160007620Y-100665480D01*
X160030480Y-100599440D01*
X160066040Y-100535940D01*
X160114300Y-100480060D01*
X160170180Y-100434340D01*
X160233680Y-100401320D01*
X160238760Y-100398780D01*
X160271780Y-100388620D01*
X160302260Y-100381000D01*
X160337820Y-100373380D01*
X160304800Y-100368300D01*
X160259080Y-100355600D01*
X160193040Y-100327660D01*
X160132080Y-100284480D01*
X160078740Y-100231140D01*
X160038100Y-100170180D01*
X160025400Y-100137160D01*
X160012700Y-100099060D01*
X160005080Y-100066040D01*
X160002540Y-100053340D01*
X160000000Y-100045720D01*
X159997460Y-100050800D01*
X159994920Y-100066040D01*
X159989840Y-100093980D01*
X159977140Y-100132080D01*
X159961900Y-100170180D01*
X159936500Y-100208280D01*
X159888240Y-100266700D01*
X159829820Y-100312420D01*
X159763780Y-100347980D01*
X159695200Y-100368300D01*
X159662180Y-100373380D01*
X159695200Y-100381000D01*
X159700280Y-100381000D01*
X159733300Y-100388620D01*
X159766320Y-100401320D01*
X159771400Y-100403860D01*
X159834900Y-100436880D01*
X159890780Y-100485140D01*
X159939040Y-100541020D01*
X159972060Y-100604520D01*
X159992380Y-100670560D01*
X159994920Y-100673100D01*
X159997460Y-100690880D01*
X160000000Y-100698500D01*
X160000000Y-100797560D01*
X160000000Y-100797560D01*
X159997460Y-100807720D01*
X159992380Y-100825500D01*
X159979680Y-100876300D01*
X159949200Y-100942340D01*
X159903480Y-101000760D01*
X159847600Y-101051560D01*
X159781560Y-101089660D01*
X159781560Y-101089660D01*
X159710440Y-101115060D01*
X159634240Y-101122680D01*
G36*
X157404120Y-101122680D02*
X157343160Y-101122680D01*
X157287280Y-101112520D01*
X157251720Y-101102360D01*
X157180600Y-101069340D01*
X157119640Y-101023620D01*
X157068840Y-100967740D01*
X157033280Y-100901700D01*
X157010420Y-100828040D01*
X157000260Y-100749300D01*
X157002800Y-100718820D01*
X157015500Y-100640080D01*
X157045980Y-100568960D01*
X157094240Y-100500380D01*
X157106940Y-100487680D01*
X157160280Y-100441960D01*
X157221240Y-100406400D01*
X157287280Y-100383540D01*
X157289820Y-100383540D01*
X157345700Y-100375920D01*
X157406660Y-100375920D01*
X157462540Y-100383540D01*
X157482860Y-100388620D01*
X157553980Y-100419100D01*
X157617480Y-100462280D01*
X157668280Y-100513080D01*
X157708920Y-100576580D01*
X157736860Y-100642620D01*
X157749560Y-100716280D01*
X157749560Y-100792480D01*
X157731780Y-100868680D01*
X157706380Y-100924560D01*
X157663200Y-100988060D01*
X157607320Y-101043940D01*
X157543820Y-101084580D01*
X157470160Y-101112520D01*
X157462540Y-101115060D01*
X157404120Y-101122680D01*
X157404120Y-101122680D01*
G37*
X157404120Y-101122680D02*
X157343160Y-101122680D01*
X157287280Y-101112520D01*
X157251720Y-101102360D01*
X157180600Y-101069340D01*
X157119640Y-101023620D01*
X157068840Y-100967740D01*
X157033280Y-100901700D01*
X157010420Y-100828040D01*
X157000260Y-100749300D01*
X157002800Y-100718820D01*
X157015500Y-100640080D01*
X157045980Y-100568960D01*
X157094240Y-100500380D01*
X157106940Y-100487680D01*
X157160280Y-100441960D01*
X157221240Y-100406400D01*
X157287280Y-100383540D01*
X157289820Y-100383540D01*
X157345700Y-100375920D01*
X157406660Y-100375920D01*
X157462540Y-100383540D01*
X157482860Y-100388620D01*
X157553980Y-100419100D01*
X157617480Y-100462280D01*
X157668280Y-100513080D01*
X157708920Y-100576580D01*
X157736860Y-100642620D01*
X157749560Y-100716280D01*
X157749560Y-100792480D01*
X157731780Y-100868680D01*
X157706380Y-100924560D01*
X157663200Y-100988060D01*
X157607320Y-101043940D01*
X157543820Y-101084580D01*
X157470160Y-101112520D01*
X157462540Y-101115060D01*
X157404120Y-101122680D01*
G36*
X161112520Y-98877320D02*
X161038860Y-98867160D01*
X160965200Y-98841760D01*
X160932180Y-98823980D01*
X160899160Y-98801120D01*
X160863600Y-98768100D01*
X160825500Y-98727460D01*
X160784860Y-98663960D01*
X160759460Y-98590300D01*
X160754380Y-98569980D01*
X160749300Y-98521720D01*
X160749300Y-98468380D01*
X160756920Y-98422660D01*
X160777240Y-98359160D01*
X160810260Y-98293120D01*
X160855980Y-98237240D01*
X160863600Y-98229620D01*
X160899160Y-98201680D01*
X160939800Y-98173740D01*
X160977900Y-98155960D01*
X160990600Y-98150880D01*
X161021080Y-98140720D01*
X161051560Y-98133100D01*
X161074420Y-98128020D01*
X161087120Y-98128020D01*
X161071880Y-98125480D01*
X161054100Y-98120400D01*
X161031240Y-98115320D01*
X161003300Y-98107700D01*
X160947420Y-98079760D01*
X160891540Y-98046740D01*
X160848360Y-98006100D01*
X160840740Y-97995940D01*
X160795020Y-97932440D01*
X160764540Y-97861320D01*
X160749300Y-97787660D01*
X160749300Y-97711460D01*
X160751840Y-97693680D01*
X160774700Y-97617480D01*
X160807720Y-97548900D01*
X160861060Y-97485400D01*
X160906780Y-97447300D01*
X160970280Y-97409200D01*
X161043940Y-97383800D01*
X161059180Y-97381260D01*
X161107440Y-97376180D01*
X161160780Y-97378720D01*
X161209040Y-97386340D01*
X161252220Y-97399040D01*
X161320800Y-97432060D01*
X161381760Y-97477780D01*
X161430020Y-97536200D01*
X161468120Y-97599700D01*
X161490980Y-97673360D01*
X161493520Y-97680980D01*
X161498600Y-97698760D01*
X161501140Y-97706380D01*
X161503680Y-97696220D01*
X161503680Y-97680980D01*
X161511300Y-97650500D01*
X161524000Y-97617480D01*
X161536700Y-97587000D01*
X161549400Y-97564140D01*
X161595120Y-97500640D01*
X161651000Y-97447300D01*
X161717040Y-97409200D01*
X161790700Y-97386340D01*
X161871980Y-97376180D01*
X161932940Y-97381260D01*
X162004060Y-97399040D01*
X162070100Y-97432060D01*
X162108200Y-97457460D01*
X162164080Y-97513340D01*
X162204720Y-97576840D01*
X162235200Y-97645420D01*
X162247900Y-97719080D01*
X162247900Y-97795280D01*
X162230120Y-97863860D01*
X162199640Y-97937520D01*
X162153920Y-97998480D01*
X162098040Y-98051820D01*
X162029460Y-98092460D01*
X161953260Y-98117860D01*
X161910080Y-98128020D01*
X161935480Y-98130560D01*
X161950720Y-98133100D01*
X162011680Y-98150880D01*
X162070100Y-98181360D01*
X162125980Y-98222000D01*
X162169160Y-98267720D01*
X162194560Y-98308360D01*
X162219960Y-98359160D01*
X162237740Y-98409960D01*
X162245360Y-98448060D01*
X162247900Y-98496320D01*
X162247900Y-98544580D01*
X162240280Y-98582680D01*
X162227580Y-98628400D01*
X162192020Y-98699520D01*
X162143760Y-98760480D01*
X162085340Y-98811280D01*
X162016760Y-98849380D01*
X161938020Y-98872240D01*
X161917700Y-98874780D01*
X161871980Y-98874780D01*
X161823720Y-98872240D01*
X161780540Y-98864620D01*
X161750060Y-98854460D01*
X161678940Y-98821440D01*
X161617980Y-98775720D01*
X161567180Y-98717300D01*
X161529080Y-98651260D01*
X161506220Y-98575060D01*
X161503680Y-98569980D01*
X161501140Y-98552200D01*
X161498600Y-98554740D01*
X161498600Y-98450600D01*
X161501140Y-98448060D01*
X161503680Y-98432820D01*
X161506220Y-98427740D01*
X161518920Y-98379480D01*
X161541780Y-98326140D01*
X161572260Y-98277880D01*
X161595120Y-98249940D01*
X161653540Y-98196600D01*
X161722120Y-98158500D01*
X161798320Y-98133100D01*
X161833880Y-98125480D01*
X161808480Y-98120400D01*
X161785620Y-98115320D01*
X161762760Y-98110240D01*
X161747520Y-98105160D01*
X161678940Y-98072140D01*
X161617980Y-98023880D01*
X161567180Y-97968000D01*
X161531620Y-97901960D01*
X161506220Y-97830840D01*
X161503680Y-97813060D01*
X161498600Y-97802900D01*
X161496060Y-97807980D01*
X161490980Y-97830840D01*
X161490980Y-97833380D01*
X161478280Y-97874020D01*
X161460500Y-97917200D01*
X161437640Y-97957840D01*
X161417320Y-97983240D01*
X161384300Y-98018800D01*
X161346200Y-98051820D01*
X161310640Y-98077220D01*
X161308100Y-98077220D01*
X161249680Y-98102620D01*
X161188720Y-98120400D01*
X161163320Y-98125480D01*
X161193800Y-98133100D01*
X161259840Y-98150880D01*
X161325880Y-98186440D01*
X161386840Y-98232160D01*
X161435100Y-98288040D01*
X161445260Y-98308360D01*
X161463040Y-98343920D01*
X161480820Y-98382020D01*
X161490980Y-98417580D01*
X161493520Y-98442980D01*
X161493520Y-98442980D01*
X161498600Y-98450600D01*
X161498600Y-98554740D01*
X161496060Y-98554740D01*
X161493520Y-98572520D01*
X161488440Y-98592840D01*
X161480820Y-98615700D01*
X161465580Y-98653800D01*
X161427480Y-98719840D01*
X161379220Y-98775720D01*
X161320800Y-98818900D01*
X161254760Y-98851920D01*
X161186180Y-98872240D01*
X161112520Y-98877320D01*
X161112520Y-98877320D01*
G37*
X161112520Y-98877320D02*
X161038860Y-98867160D01*
X160965200Y-98841760D01*
X160932180Y-98823980D01*
X160899160Y-98801120D01*
X160863600Y-98768100D01*
X160825500Y-98727460D01*
X160784860Y-98663960D01*
X160759460Y-98590300D01*
X160754380Y-98569980D01*
X160749300Y-98521720D01*
X160749300Y-98468380D01*
X160756920Y-98422660D01*
X160777240Y-98359160D01*
X160810260Y-98293120D01*
X160855980Y-98237240D01*
X160863600Y-98229620D01*
X160899160Y-98201680D01*
X160939800Y-98173740D01*
X160977900Y-98155960D01*
X160990600Y-98150880D01*
X161021080Y-98140720D01*
X161051560Y-98133100D01*
X161074420Y-98128020D01*
X161087120Y-98128020D01*
X161071880Y-98125480D01*
X161054100Y-98120400D01*
X161031240Y-98115320D01*
X161003300Y-98107700D01*
X160947420Y-98079760D01*
X160891540Y-98046740D01*
X160848360Y-98006100D01*
X160840740Y-97995940D01*
X160795020Y-97932440D01*
X160764540Y-97861320D01*
X160749300Y-97787660D01*
X160749300Y-97711460D01*
X160751840Y-97693680D01*
X160774700Y-97617480D01*
X160807720Y-97548900D01*
X160861060Y-97485400D01*
X160906780Y-97447300D01*
X160970280Y-97409200D01*
X161043940Y-97383800D01*
X161059180Y-97381260D01*
X161107440Y-97376180D01*
X161160780Y-97378720D01*
X161209040Y-97386340D01*
X161252220Y-97399040D01*
X161320800Y-97432060D01*
X161381760Y-97477780D01*
X161430020Y-97536200D01*
X161468120Y-97599700D01*
X161490980Y-97673360D01*
X161493520Y-97680980D01*
X161498600Y-97698760D01*
X161501140Y-97706380D01*
X161503680Y-97696220D01*
X161503680Y-97680980D01*
X161511300Y-97650500D01*
X161524000Y-97617480D01*
X161536700Y-97587000D01*
X161549400Y-97564140D01*
X161595120Y-97500640D01*
X161651000Y-97447300D01*
X161717040Y-97409200D01*
X161790700Y-97386340D01*
X161871980Y-97376180D01*
X161932940Y-97381260D01*
X162004060Y-97399040D01*
X162070100Y-97432060D01*
X162108200Y-97457460D01*
X162164080Y-97513340D01*
X162204720Y-97576840D01*
X162235200Y-97645420D01*
X162247900Y-97719080D01*
X162247900Y-97795280D01*
X162230120Y-97863860D01*
X162199640Y-97937520D01*
X162153920Y-97998480D01*
X162098040Y-98051820D01*
X162029460Y-98092460D01*
X161953260Y-98117860D01*
X161910080Y-98128020D01*
X161935480Y-98130560D01*
X161950720Y-98133100D01*
X162011680Y-98150880D01*
X162070100Y-98181360D01*
X162125980Y-98222000D01*
X162169160Y-98267720D01*
X162194560Y-98308360D01*
X162219960Y-98359160D01*
X162237740Y-98409960D01*
X162245360Y-98448060D01*
X162247900Y-98496320D01*
X162247900Y-98544580D01*
X162240280Y-98582680D01*
X162227580Y-98628400D01*
X162192020Y-98699520D01*
X162143760Y-98760480D01*
X162085340Y-98811280D01*
X162016760Y-98849380D01*
X161938020Y-98872240D01*
X161917700Y-98874780D01*
X161871980Y-98874780D01*
X161823720Y-98872240D01*
X161780540Y-98864620D01*
X161750060Y-98854460D01*
X161678940Y-98821440D01*
X161617980Y-98775720D01*
X161567180Y-98717300D01*
X161529080Y-98651260D01*
X161506220Y-98575060D01*
X161503680Y-98569980D01*
X161501140Y-98552200D01*
X161498600Y-98554740D01*
X161498600Y-98450600D01*
X161501140Y-98448060D01*
X161503680Y-98432820D01*
X161506220Y-98427740D01*
X161518920Y-98379480D01*
X161541780Y-98326140D01*
X161572260Y-98277880D01*
X161595120Y-98249940D01*
X161653540Y-98196600D01*
X161722120Y-98158500D01*
X161798320Y-98133100D01*
X161833880Y-98125480D01*
X161808480Y-98120400D01*
X161785620Y-98115320D01*
X161762760Y-98110240D01*
X161747520Y-98105160D01*
X161678940Y-98072140D01*
X161617980Y-98023880D01*
X161567180Y-97968000D01*
X161531620Y-97901960D01*
X161506220Y-97830840D01*
X161503680Y-97813060D01*
X161498600Y-97802900D01*
X161496060Y-97807980D01*
X161490980Y-97830840D01*
X161490980Y-97833380D01*
X161478280Y-97874020D01*
X161460500Y-97917200D01*
X161437640Y-97957840D01*
X161417320Y-97983240D01*
X161384300Y-98018800D01*
X161346200Y-98051820D01*
X161310640Y-98077220D01*
X161308100Y-98077220D01*
X161249680Y-98102620D01*
X161188720Y-98120400D01*
X161163320Y-98125480D01*
X161193800Y-98133100D01*
X161259840Y-98150880D01*
X161325880Y-98186440D01*
X161386840Y-98232160D01*
X161435100Y-98288040D01*
X161445260Y-98308360D01*
X161463040Y-98343920D01*
X161480820Y-98382020D01*
X161490980Y-98417580D01*
X161493520Y-98442980D01*
X161493520Y-98442980D01*
X161498600Y-98450600D01*
X161498600Y-98554740D01*
X161496060Y-98554740D01*
X161493520Y-98572520D01*
X161488440Y-98592840D01*
X161480820Y-98615700D01*
X161465580Y-98653800D01*
X161427480Y-98719840D01*
X161379220Y-98775720D01*
X161320800Y-98818900D01*
X161254760Y-98851920D01*
X161186180Y-98872240D01*
X161112520Y-98877320D01*
G36*
X158857000Y-98877320D02*
X158783340Y-98864620D01*
X158712220Y-98839220D01*
X158648720Y-98798580D01*
X158595380Y-98747780D01*
X158549660Y-98686820D01*
X158519180Y-98615700D01*
X158511560Y-98592840D01*
X158506480Y-98572520D01*
X158506480Y-98567440D01*
X158501400Y-98552200D01*
X158501400Y-98552200D01*
X158501400Y-98448060D01*
X158506480Y-98437900D01*
X158511560Y-98412500D01*
X158524260Y-98369320D01*
X158557280Y-98300740D01*
X158603000Y-98242320D01*
X158661420Y-98194060D01*
X158727460Y-98155960D01*
X158801120Y-98133100D01*
X158836680Y-98125480D01*
X158811280Y-98120400D01*
X158808740Y-98120400D01*
X158747780Y-98102620D01*
X158689360Y-98077220D01*
X158666500Y-98061980D01*
X158628400Y-98028960D01*
X158590300Y-97993400D01*
X158562360Y-97957840D01*
X158544580Y-97924820D01*
X158521720Y-97876560D01*
X158509020Y-97833380D01*
X158506480Y-97813060D01*
X158501400Y-97802900D01*
X158498860Y-97807980D01*
X158493780Y-97830840D01*
X158478540Y-97879100D01*
X158445520Y-97950220D01*
X158394720Y-98011180D01*
X158338840Y-98059440D01*
X158270260Y-98097540D01*
X158191520Y-98120400D01*
X158166120Y-98125480D01*
X158201680Y-98133100D01*
X158237240Y-98143260D01*
X158308360Y-98173740D01*
X158371860Y-98219460D01*
X158425200Y-98277880D01*
X158442980Y-98298200D01*
X158460760Y-98333760D01*
X158478540Y-98371860D01*
X158488700Y-98399800D01*
X158493780Y-98427740D01*
X158493780Y-98430280D01*
X158498860Y-98445520D01*
X158501400Y-98448060D01*
X158501400Y-98552200D01*
X158498860Y-98554740D01*
X158493780Y-98575060D01*
X158488700Y-98600460D01*
X158465840Y-98656340D01*
X158437900Y-98709680D01*
X158415040Y-98737620D01*
X158359160Y-98793500D01*
X158293120Y-98836680D01*
X158216920Y-98864620D01*
X158183900Y-98872240D01*
X158133100Y-98874780D01*
X158079760Y-98872240D01*
X158034040Y-98864620D01*
X158028960Y-98864620D01*
X157952760Y-98834140D01*
X157886720Y-98790960D01*
X157833380Y-98735080D01*
X157790200Y-98669040D01*
X157762260Y-98592840D01*
X157754640Y-98559820D01*
X157752100Y-98506480D01*
X157754640Y-98455680D01*
X157762260Y-98409960D01*
X157774960Y-98369320D01*
X157800360Y-98315980D01*
X157830840Y-98267720D01*
X157866400Y-98232160D01*
X157912120Y-98194060D01*
X157960380Y-98163580D01*
X157978160Y-98155960D01*
X158013720Y-98143260D01*
X158049280Y-98133100D01*
X158074680Y-98128020D01*
X158077220Y-98128020D01*
X158069600Y-98125480D01*
X158046740Y-98117860D01*
X158003560Y-98105160D01*
X157955300Y-98084840D01*
X157914660Y-98061980D01*
X157904500Y-98054360D01*
X157856240Y-98011180D01*
X157813060Y-97957840D01*
X157782580Y-97901960D01*
X157769880Y-97874020D01*
X157754640Y-97800360D01*
X157752100Y-97721620D01*
X157764800Y-97647960D01*
X157769880Y-97630180D01*
X157802900Y-97561600D01*
X157848620Y-97500640D01*
X157904500Y-97447300D01*
X157970540Y-97409200D01*
X158046740Y-97383800D01*
X158056900Y-97381260D01*
X158107700Y-97376180D01*
X158163580Y-97378720D01*
X158211840Y-97386340D01*
X158224540Y-97388880D01*
X158298200Y-97416820D01*
X158364240Y-97460000D01*
X158420120Y-97518420D01*
X158463300Y-97587000D01*
X158473460Y-97607320D01*
X158483620Y-97640340D01*
X158493780Y-97673360D01*
X158496320Y-97696220D01*
X158496320Y-97701300D01*
X158498860Y-97703840D01*
X158503940Y-97693680D01*
X158509020Y-97673360D01*
X158521720Y-97622560D01*
X158554740Y-97556520D01*
X158600460Y-97498100D01*
X158656340Y-97447300D01*
X158722380Y-97409200D01*
X158722380Y-97409200D01*
X158790960Y-97386340D01*
X158867160Y-97376180D01*
X158943360Y-97381260D01*
X159014480Y-97401580D01*
X159055120Y-97421900D01*
X159118620Y-97465080D01*
X159171960Y-97520960D01*
X159212600Y-97587000D01*
X159240540Y-97660660D01*
X159243080Y-97675900D01*
X159253240Y-97736860D01*
X159248160Y-97795280D01*
X159232920Y-97863860D01*
X159202440Y-97934980D01*
X159156720Y-97998480D01*
X159100840Y-98051820D01*
X159032260Y-98092460D01*
X158956060Y-98117860D01*
X158940820Y-98122940D01*
X158925580Y-98128020D01*
X158925580Y-98128020D01*
X158948440Y-98130560D01*
X158991620Y-98143260D01*
X159037340Y-98163580D01*
X159083060Y-98188980D01*
X159123700Y-98219460D01*
X159177040Y-98277880D01*
X159217680Y-98346460D01*
X159222760Y-98356620D01*
X159245620Y-98430280D01*
X159250700Y-98506480D01*
X159243080Y-98585220D01*
X159217680Y-98656340D01*
X159199900Y-98691900D01*
X159177040Y-98724920D01*
X159144020Y-98760480D01*
X159144020Y-98763020D01*
X159083060Y-98813820D01*
X159014480Y-98849380D01*
X158940820Y-98869700D01*
X158933200Y-98872240D01*
X158857000Y-98877320D01*
X158857000Y-98877320D01*
G37*
X158857000Y-98877320D02*
X158783340Y-98864620D01*
X158712220Y-98839220D01*
X158648720Y-98798580D01*
X158595380Y-98747780D01*
X158549660Y-98686820D01*
X158519180Y-98615700D01*
X158511560Y-98592840D01*
X158506480Y-98572520D01*
X158506480Y-98567440D01*
X158501400Y-98552200D01*
X158501400Y-98552200D01*
X158501400Y-98448060D01*
X158506480Y-98437900D01*
X158511560Y-98412500D01*
X158524260Y-98369320D01*
X158557280Y-98300740D01*
X158603000Y-98242320D01*
X158661420Y-98194060D01*
X158727460Y-98155960D01*
X158801120Y-98133100D01*
X158836680Y-98125480D01*
X158811280Y-98120400D01*
X158808740Y-98120400D01*
X158747780Y-98102620D01*
X158689360Y-98077220D01*
X158666500Y-98061980D01*
X158628400Y-98028960D01*
X158590300Y-97993400D01*
X158562360Y-97957840D01*
X158544580Y-97924820D01*
X158521720Y-97876560D01*
X158509020Y-97833380D01*
X158506480Y-97813060D01*
X158501400Y-97802900D01*
X158498860Y-97807980D01*
X158493780Y-97830840D01*
X158478540Y-97879100D01*
X158445520Y-97950220D01*
X158394720Y-98011180D01*
X158338840Y-98059440D01*
X158270260Y-98097540D01*
X158191520Y-98120400D01*
X158166120Y-98125480D01*
X158201680Y-98133100D01*
X158237240Y-98143260D01*
X158308360Y-98173740D01*
X158371860Y-98219460D01*
X158425200Y-98277880D01*
X158442980Y-98298200D01*
X158460760Y-98333760D01*
X158478540Y-98371860D01*
X158488700Y-98399800D01*
X158493780Y-98427740D01*
X158493780Y-98430280D01*
X158498860Y-98445520D01*
X158501400Y-98448060D01*
X158501400Y-98552200D01*
X158498860Y-98554740D01*
X158493780Y-98575060D01*
X158488700Y-98600460D01*
X158465840Y-98656340D01*
X158437900Y-98709680D01*
X158415040Y-98737620D01*
X158359160Y-98793500D01*
X158293120Y-98836680D01*
X158216920Y-98864620D01*
X158183900Y-98872240D01*
X158133100Y-98874780D01*
X158079760Y-98872240D01*
X158034040Y-98864620D01*
X158028960Y-98864620D01*
X157952760Y-98834140D01*
X157886720Y-98790960D01*
X157833380Y-98735080D01*
X157790200Y-98669040D01*
X157762260Y-98592840D01*
X157754640Y-98559820D01*
X157752100Y-98506480D01*
X157754640Y-98455680D01*
X157762260Y-98409960D01*
X157774960Y-98369320D01*
X157800360Y-98315980D01*
X157830840Y-98267720D01*
X157866400Y-98232160D01*
X157912120Y-98194060D01*
X157960380Y-98163580D01*
X157978160Y-98155960D01*
X158013720Y-98143260D01*
X158049280Y-98133100D01*
X158074680Y-98128020D01*
X158077220Y-98128020D01*
X158069600Y-98125480D01*
X158046740Y-98117860D01*
X158003560Y-98105160D01*
X157955300Y-98084840D01*
X157914660Y-98061980D01*
X157904500Y-98054360D01*
X157856240Y-98011180D01*
X157813060Y-97957840D01*
X157782580Y-97901960D01*
X157769880Y-97874020D01*
X157754640Y-97800360D01*
X157752100Y-97721620D01*
X157764800Y-97647960D01*
X157769880Y-97630180D01*
X157802900Y-97561600D01*
X157848620Y-97500640D01*
X157904500Y-97447300D01*
X157970540Y-97409200D01*
X158046740Y-97383800D01*
X158056900Y-97381260D01*
X158107700Y-97376180D01*
X158163580Y-97378720D01*
X158211840Y-97386340D01*
X158224540Y-97388880D01*
X158298200Y-97416820D01*
X158364240Y-97460000D01*
X158420120Y-97518420D01*
X158463300Y-97587000D01*
X158473460Y-97607320D01*
X158483620Y-97640340D01*
X158493780Y-97673360D01*
X158496320Y-97696220D01*
X158496320Y-97701300D01*
X158498860Y-97703840D01*
X158503940Y-97693680D01*
X158509020Y-97673360D01*
X158521720Y-97622560D01*
X158554740Y-97556520D01*
X158600460Y-97498100D01*
X158656340Y-97447300D01*
X158722380Y-97409200D01*
X158722380Y-97409200D01*
X158790960Y-97386340D01*
X158867160Y-97376180D01*
X158943360Y-97381260D01*
X159014480Y-97401580D01*
X159055120Y-97421900D01*
X159118620Y-97465080D01*
X159171960Y-97520960D01*
X159212600Y-97587000D01*
X159240540Y-97660660D01*
X159243080Y-97675900D01*
X159253240Y-97736860D01*
X159248160Y-97795280D01*
X159232920Y-97863860D01*
X159202440Y-97934980D01*
X159156720Y-97998480D01*
X159100840Y-98051820D01*
X159032260Y-98092460D01*
X158956060Y-98117860D01*
X158940820Y-98122940D01*
X158925580Y-98128020D01*
X158925580Y-98128020D01*
X158948440Y-98130560D01*
X158991620Y-98143260D01*
X159037340Y-98163580D01*
X159083060Y-98188980D01*
X159123700Y-98219460D01*
X159177040Y-98277880D01*
X159217680Y-98346460D01*
X159222760Y-98356620D01*
X159245620Y-98430280D01*
X159250700Y-98506480D01*
X159243080Y-98585220D01*
X159217680Y-98656340D01*
X159199900Y-98691900D01*
X159177040Y-98724920D01*
X159144020Y-98760480D01*
X159144020Y-98763020D01*
X159083060Y-98813820D01*
X159014480Y-98849380D01*
X158940820Y-98869700D01*
X158933200Y-98872240D01*
X158857000Y-98877320D01*
G36*
X141818640Y-102694940D02*
X141785620Y-102677160D01*
X141717040Y-102633980D01*
X141615440Y-102567940D01*
X141498600Y-102489200D01*
X141379220Y-102407920D01*
X141280160Y-102341880D01*
X141211580Y-102298700D01*
X141183640Y-102283460D01*
X141168400Y-102288540D01*
X141112520Y-102316480D01*
X141031240Y-102359660D01*
X140982980Y-102382520D01*
X140906780Y-102415540D01*
X140871220Y-102423160D01*
X140863600Y-102413000D01*
X140835660Y-102354580D01*
X140792480Y-102255520D01*
X140736600Y-102125980D01*
X140670560Y-101973580D01*
X140601980Y-101808480D01*
X140533400Y-101640840D01*
X140467360Y-101483360D01*
X140406400Y-101338580D01*
X140360680Y-101221740D01*
X140330200Y-101140460D01*
X140317500Y-101104900D01*
X140322580Y-101097280D01*
X140358140Y-101061720D01*
X140424180Y-101013460D01*
X140566420Y-100896620D01*
X140706120Y-100721360D01*
X140792480Y-100523240D01*
X140820420Y-100302260D01*
X140797560Y-100099060D01*
X140716280Y-99903480D01*
X140579120Y-99725680D01*
X140411480Y-99593600D01*
X140218440Y-99512320D01*
X140000000Y-99484380D01*
X139791720Y-99507240D01*
X139591060Y-99585980D01*
X139413260Y-99720600D01*
X139339600Y-99806960D01*
X139235460Y-99987300D01*
X139177040Y-100177800D01*
X139171960Y-100226060D01*
X139179580Y-100436880D01*
X139243080Y-100640080D01*
X139352300Y-100820420D01*
X139507240Y-100967740D01*
X139527560Y-100982980D01*
X139598680Y-101036320D01*
X139646940Y-101071880D01*
X139685040Y-101102360D01*
X139415800Y-101750060D01*
X139372620Y-101851660D01*
X139298960Y-102026920D01*
X139235460Y-102179320D01*
X139182120Y-102301240D01*
X139146560Y-102382520D01*
X139131320Y-102415540D01*
X139128780Y-102415540D01*
X139105920Y-102420620D01*
X139057660Y-102402840D01*
X138966220Y-102359660D01*
X138907800Y-102329180D01*
X138839220Y-102296160D01*
X138808740Y-102283460D01*
X138780800Y-102296160D01*
X138714760Y-102339340D01*
X138620780Y-102405380D01*
X138503940Y-102481580D01*
X138394720Y-102557780D01*
X138293120Y-102623820D01*
X138219460Y-102672080D01*
X138183900Y-102689860D01*
X138178820Y-102689860D01*
X138145800Y-102672080D01*
X138087380Y-102623820D01*
X138001020Y-102540000D01*
X137876560Y-102418080D01*
X137856240Y-102400300D01*
X137754640Y-102296160D01*
X137670820Y-102207260D01*
X137614940Y-102146300D01*
X137594620Y-102118360D01*
X137594620Y-102118360D01*
X137614940Y-102082800D01*
X137660660Y-102009140D01*
X137726700Y-101907540D01*
X137807980Y-101785620D01*
X138023880Y-101475740D01*
X137904500Y-101183640D01*
X137868940Y-101092200D01*
X137823220Y-100982980D01*
X137790200Y-100906780D01*
X137772420Y-100871220D01*
X137739400Y-100861060D01*
X137660660Y-100840740D01*
X137543820Y-100817880D01*
X137404120Y-100792480D01*
X137272040Y-100767080D01*
X137152660Y-100744220D01*
X137066300Y-100728980D01*
X137028200Y-100721360D01*
X137018040Y-100713740D01*
X137010420Y-100695960D01*
X137005340Y-100655320D01*
X137002800Y-100581660D01*
X137000260Y-100467360D01*
X137000260Y-100302260D01*
X137000260Y-100284480D01*
X137002800Y-100127000D01*
X137005340Y-100002540D01*
X137010420Y-99921260D01*
X137015500Y-99888240D01*
X137015500Y-99888240D01*
X137053600Y-99878080D01*
X137137420Y-99860300D01*
X137256800Y-99837440D01*
X137399040Y-99809500D01*
X137409200Y-99809500D01*
X137551440Y-99781560D01*
X137668280Y-99756160D01*
X137752100Y-99738380D01*
X137787660Y-99725680D01*
X137795280Y-99715520D01*
X137823220Y-99659640D01*
X137863860Y-99573280D01*
X137912120Y-99466600D01*
X137957840Y-99354840D01*
X137998480Y-99253240D01*
X138023880Y-99179580D01*
X138031500Y-99144020D01*
X138031500Y-99144020D01*
X138011180Y-99111000D01*
X137962920Y-99037340D01*
X137891800Y-98935740D01*
X137810520Y-98813820D01*
X137802900Y-98803660D01*
X137721620Y-98684280D01*
X137655580Y-98582680D01*
X137612400Y-98511560D01*
X137594620Y-98478540D01*
X137594620Y-98476000D01*
X137622560Y-98440440D01*
X137683520Y-98371860D01*
X137772420Y-98280420D01*
X137876560Y-98176280D01*
X137909580Y-98143260D01*
X138026420Y-98028960D01*
X138107700Y-97955300D01*
X138158500Y-97914660D01*
X138181360Y-97904500D01*
X138183900Y-97907040D01*
X138219460Y-97927360D01*
X138295660Y-97978160D01*
X138397260Y-98046740D01*
X138519180Y-98130560D01*
X138526800Y-98135640D01*
X138648720Y-98216920D01*
X138747780Y-98285500D01*
X138818900Y-98331220D01*
X138849380Y-98349000D01*
X138854460Y-98349000D01*
X138902720Y-98336300D01*
X138989080Y-98305820D01*
X139093220Y-98265180D01*
X139204980Y-98222000D01*
X139306580Y-98178820D01*
X139380240Y-98143260D01*
X139415800Y-98122940D01*
X139418340Y-98122940D01*
X139431040Y-98079760D01*
X139451360Y-97988320D01*
X139476760Y-97866400D01*
X139504700Y-97719080D01*
X139509780Y-97696220D01*
X139535180Y-97551440D01*
X139558040Y-97434600D01*
X139575820Y-97353320D01*
X139583440Y-97317760D01*
X139603760Y-97315220D01*
X139674880Y-97310140D01*
X139781560Y-97305060D01*
X139911100Y-97305060D01*
X140045720Y-97305060D01*
X140177800Y-97307600D01*
X140289560Y-97312680D01*
X140370840Y-97317760D01*
X140406400Y-97325380D01*
X140406400Y-97327920D01*
X140419100Y-97371100D01*
X140439420Y-97460000D01*
X140464820Y-97584460D01*
X140492760Y-97731780D01*
X140497840Y-97759720D01*
X140523240Y-97901960D01*
X140548640Y-98018800D01*
X140566420Y-98097540D01*
X140574040Y-98130560D01*
X140586740Y-98135640D01*
X140645160Y-98163580D01*
X140741680Y-98201680D01*
X140861060Y-98249940D01*
X141135380Y-98361700D01*
X141470660Y-98130560D01*
X141501140Y-98110240D01*
X141623060Y-98026420D01*
X141722120Y-97960380D01*
X141793240Y-97917200D01*
X141821180Y-97899420D01*
X141823720Y-97901960D01*
X141856740Y-97929900D01*
X141922780Y-97993400D01*
X142014220Y-98082300D01*
X142120900Y-98186440D01*
X142199640Y-98265180D01*
X142291080Y-98359160D01*
X142349500Y-98422660D01*
X142382520Y-98463300D01*
X142395220Y-98488700D01*
X142390140Y-98506480D01*
X142369820Y-98539500D01*
X142319020Y-98613160D01*
X142250440Y-98717300D01*
X142169160Y-98834140D01*
X142100580Y-98935740D01*
X142026920Y-99047500D01*
X141981200Y-99128780D01*
X141963420Y-99166880D01*
X141968500Y-99184660D01*
X141991360Y-99250700D01*
X142032000Y-99349760D01*
X142082800Y-99469140D01*
X142199640Y-99735840D01*
X142374900Y-99768860D01*
X142479040Y-99789180D01*
X142628900Y-99817120D01*
X142771140Y-99845060D01*
X142992120Y-99888240D01*
X142999740Y-100698500D01*
X142964180Y-100713740D01*
X142931160Y-100723900D01*
X142849880Y-100741680D01*
X142733040Y-100764540D01*
X142595880Y-100789940D01*
X142476500Y-100812800D01*
X142359660Y-100835660D01*
X142273300Y-100850900D01*
X142235200Y-100858520D01*
X142227580Y-100871220D01*
X142197100Y-100929640D01*
X142153920Y-101021080D01*
X142108200Y-101130300D01*
X142059940Y-101244600D01*
X142019300Y-101348740D01*
X141988820Y-101430020D01*
X141978660Y-101470660D01*
X141993900Y-101501140D01*
X142039620Y-101572260D01*
X142105660Y-101671320D01*
X142184400Y-101788160D01*
X142265680Y-101907540D01*
X142334260Y-102006600D01*
X142382520Y-102080260D01*
X142400300Y-102113280D01*
X142390140Y-102136140D01*
X142344420Y-102192020D01*
X142255520Y-102283460D01*
X142123440Y-102415540D01*
X142100580Y-102435860D01*
X141996440Y-102537460D01*
X141907540Y-102618740D01*
X141846580Y-102674620D01*
X141818640Y-102694940D01*
X141818640Y-102694940D01*
G37*
X141818640Y-102694940D02*
X141785620Y-102677160D01*
X141717040Y-102633980D01*
X141615440Y-102567940D01*
X141498600Y-102489200D01*
X141379220Y-102407920D01*
X141280160Y-102341880D01*
X141211580Y-102298700D01*
X141183640Y-102283460D01*
X141168400Y-102288540D01*
X141112520Y-102316480D01*
X141031240Y-102359660D01*
X140982980Y-102382520D01*
X140906780Y-102415540D01*
X140871220Y-102423160D01*
X140863600Y-102413000D01*
X140835660Y-102354580D01*
X140792480Y-102255520D01*
X140736600Y-102125980D01*
X140670560Y-101973580D01*
X140601980Y-101808480D01*
X140533400Y-101640840D01*
X140467360Y-101483360D01*
X140406400Y-101338580D01*
X140360680Y-101221740D01*
X140330200Y-101140460D01*
X140317500Y-101104900D01*
X140322580Y-101097280D01*
X140358140Y-101061720D01*
X140424180Y-101013460D01*
X140566420Y-100896620D01*
X140706120Y-100721360D01*
X140792480Y-100523240D01*
X140820420Y-100302260D01*
X140797560Y-100099060D01*
X140716280Y-99903480D01*
X140579120Y-99725680D01*
X140411480Y-99593600D01*
X140218440Y-99512320D01*
X140000000Y-99484380D01*
X139791720Y-99507240D01*
X139591060Y-99585980D01*
X139413260Y-99720600D01*
X139339600Y-99806960D01*
X139235460Y-99987300D01*
X139177040Y-100177800D01*
X139171960Y-100226060D01*
X139179580Y-100436880D01*
X139243080Y-100640080D01*
X139352300Y-100820420D01*
X139507240Y-100967740D01*
X139527560Y-100982980D01*
X139598680Y-101036320D01*
X139646940Y-101071880D01*
X139685040Y-101102360D01*
X139415800Y-101750060D01*
X139372620Y-101851660D01*
X139298960Y-102026920D01*
X139235460Y-102179320D01*
X139182120Y-102301240D01*
X139146560Y-102382520D01*
X139131320Y-102415540D01*
X139128780Y-102415540D01*
X139105920Y-102420620D01*
X139057660Y-102402840D01*
X138966220Y-102359660D01*
X138907800Y-102329180D01*
X138839220Y-102296160D01*
X138808740Y-102283460D01*
X138780800Y-102296160D01*
X138714760Y-102339340D01*
X138620780Y-102405380D01*
X138503940Y-102481580D01*
X138394720Y-102557780D01*
X138293120Y-102623820D01*
X138219460Y-102672080D01*
X138183900Y-102689860D01*
X138178820Y-102689860D01*
X138145800Y-102672080D01*
X138087380Y-102623820D01*
X138001020Y-102540000D01*
X137876560Y-102418080D01*
X137856240Y-102400300D01*
X137754640Y-102296160D01*
X137670820Y-102207260D01*
X137614940Y-102146300D01*
X137594620Y-102118360D01*
X137594620Y-102118360D01*
X137614940Y-102082800D01*
X137660660Y-102009140D01*
X137726700Y-101907540D01*
X137807980Y-101785620D01*
X138023880Y-101475740D01*
X137904500Y-101183640D01*
X137868940Y-101092200D01*
X137823220Y-100982980D01*
X137790200Y-100906780D01*
X137772420Y-100871220D01*
X137739400Y-100861060D01*
X137660660Y-100840740D01*
X137543820Y-100817880D01*
X137404120Y-100792480D01*
X137272040Y-100767080D01*
X137152660Y-100744220D01*
X137066300Y-100728980D01*
X137028200Y-100721360D01*
X137018040Y-100713740D01*
X137010420Y-100695960D01*
X137005340Y-100655320D01*
X137002800Y-100581660D01*
X137000260Y-100467360D01*
X137000260Y-100302260D01*
X137000260Y-100284480D01*
X137002800Y-100127000D01*
X137005340Y-100002540D01*
X137010420Y-99921260D01*
X137015500Y-99888240D01*
X137015500Y-99888240D01*
X137053600Y-99878080D01*
X137137420Y-99860300D01*
X137256800Y-99837440D01*
X137399040Y-99809500D01*
X137409200Y-99809500D01*
X137551440Y-99781560D01*
X137668280Y-99756160D01*
X137752100Y-99738380D01*
X137787660Y-99725680D01*
X137795280Y-99715520D01*
X137823220Y-99659640D01*
X137863860Y-99573280D01*
X137912120Y-99466600D01*
X137957840Y-99354840D01*
X137998480Y-99253240D01*
X138023880Y-99179580D01*
X138031500Y-99144020D01*
X138031500Y-99144020D01*
X138011180Y-99111000D01*
X137962920Y-99037340D01*
X137891800Y-98935740D01*
X137810520Y-98813820D01*
X137802900Y-98803660D01*
X137721620Y-98684280D01*
X137655580Y-98582680D01*
X137612400Y-98511560D01*
X137594620Y-98478540D01*
X137594620Y-98476000D01*
X137622560Y-98440440D01*
X137683520Y-98371860D01*
X137772420Y-98280420D01*
X137876560Y-98176280D01*
X137909580Y-98143260D01*
X138026420Y-98028960D01*
X138107700Y-97955300D01*
X138158500Y-97914660D01*
X138181360Y-97904500D01*
X138183900Y-97907040D01*
X138219460Y-97927360D01*
X138295660Y-97978160D01*
X138397260Y-98046740D01*
X138519180Y-98130560D01*
X138526800Y-98135640D01*
X138648720Y-98216920D01*
X138747780Y-98285500D01*
X138818900Y-98331220D01*
X138849380Y-98349000D01*
X138854460Y-98349000D01*
X138902720Y-98336300D01*
X138989080Y-98305820D01*
X139093220Y-98265180D01*
X139204980Y-98222000D01*
X139306580Y-98178820D01*
X139380240Y-98143260D01*
X139415800Y-98122940D01*
X139418340Y-98122940D01*
X139431040Y-98079760D01*
X139451360Y-97988320D01*
X139476760Y-97866400D01*
X139504700Y-97719080D01*
X139509780Y-97696220D01*
X139535180Y-97551440D01*
X139558040Y-97434600D01*
X139575820Y-97353320D01*
X139583440Y-97317760D01*
X139603760Y-97315220D01*
X139674880Y-97310140D01*
X139781560Y-97305060D01*
X139911100Y-97305060D01*
X140045720Y-97305060D01*
X140177800Y-97307600D01*
X140289560Y-97312680D01*
X140370840Y-97317760D01*
X140406400Y-97325380D01*
X140406400Y-97327920D01*
X140419100Y-97371100D01*
X140439420Y-97460000D01*
X140464820Y-97584460D01*
X140492760Y-97731780D01*
X140497840Y-97759720D01*
X140523240Y-97901960D01*
X140548640Y-98018800D01*
X140566420Y-98097540D01*
X140574040Y-98130560D01*
X140586740Y-98135640D01*
X140645160Y-98163580D01*
X140741680Y-98201680D01*
X140861060Y-98249940D01*
X141135380Y-98361700D01*
X141470660Y-98130560D01*
X141501140Y-98110240D01*
X141623060Y-98026420D01*
X141722120Y-97960380D01*
X141793240Y-97917200D01*
X141821180Y-97899420D01*
X141823720Y-97901960D01*
X141856740Y-97929900D01*
X141922780Y-97993400D01*
X142014220Y-98082300D01*
X142120900Y-98186440D01*
X142199640Y-98265180D01*
X142291080Y-98359160D01*
X142349500Y-98422660D01*
X142382520Y-98463300D01*
X142395220Y-98488700D01*
X142390140Y-98506480D01*
X142369820Y-98539500D01*
X142319020Y-98613160D01*
X142250440Y-98717300D01*
X142169160Y-98834140D01*
X142100580Y-98935740D01*
X142026920Y-99047500D01*
X141981200Y-99128780D01*
X141963420Y-99166880D01*
X141968500Y-99184660D01*
X141991360Y-99250700D01*
X142032000Y-99349760D01*
X142082800Y-99469140D01*
X142199640Y-99735840D01*
X142374900Y-99768860D01*
X142479040Y-99789180D01*
X142628900Y-99817120D01*
X142771140Y-99845060D01*
X142992120Y-99888240D01*
X142999740Y-100698500D01*
X142964180Y-100713740D01*
X142931160Y-100723900D01*
X142849880Y-100741680D01*
X142733040Y-100764540D01*
X142595880Y-100789940D01*
X142476500Y-100812800D01*
X142359660Y-100835660D01*
X142273300Y-100850900D01*
X142235200Y-100858520D01*
X142227580Y-100871220D01*
X142197100Y-100929640D01*
X142153920Y-101021080D01*
X142108200Y-101130300D01*
X142059940Y-101244600D01*
X142019300Y-101348740D01*
X141988820Y-101430020D01*
X141978660Y-101470660D01*
X141993900Y-101501140D01*
X142039620Y-101572260D01*
X142105660Y-101671320D01*
X142184400Y-101788160D01*
X142265680Y-101907540D01*
X142334260Y-102006600D01*
X142382520Y-102080260D01*
X142400300Y-102113280D01*
X142390140Y-102136140D01*
X142344420Y-102192020D01*
X142255520Y-102283460D01*
X142123440Y-102415540D01*
X142100580Y-102435860D01*
X141996440Y-102537460D01*
X141907540Y-102618740D01*
X141846580Y-102674620D01*
X141818640Y-102694940D01*
%LPC*%
D13*
X131550000Y-102540000D03*
X131550000Y-97460000D03*
X183700000Y-97460000D03*
X183700000Y-102540000D03*
D14*
X166850000Y-90730000D03*
X174470000Y-93270000D03*
X179550000Y-90730000D03*
M02*
