%TF.GenerationSoftware,KiCad,Pcbnew,(2015-07-20 BZR 5967, Git 8482637)-product*%
%TF.CreationDate,2015-07-23T15:05:17+02:00*%
%TF.JobID,KIS-3R33S_breakout,4B49532D33523333535F627265616B6F,0.12.d*%
%TF.FileFunction,Legend,Bot*%
%FSLAX46Y46*%
G04 Gerber Fmt 4.6, Leading zero omitted, Abs format (unit mm)*
G04 Created by KiCad (PCBNEW (2015-07-20 BZR 5967, Git 8482637)-product) date Thu 23 Jul 2015 03:05:17 PM CEST*
%MOMM*%
G01*
G04 APERTURE LIST*
%ADD10C,0.100000*%
%ADD11C,0.300000*%
%ADD12C,0.150000*%
%ADD13C,0.002540*%
%ADD14C,0.200000*%
%ADD15R,2.500000X2.500000*%
%ADD16R,2.500000X3.000000*%
%ADD17C,1.500000*%
%ADD18C,2.000000*%
G04 APERTURE END LIST*
D10*
D11*
X166642855Y-106478571D02*
X166642855Y-104978571D01*
X165785712Y-106478571D02*
X166428569Y-105621429D01*
X165785712Y-104978571D02*
X166642855Y-105835714D01*
X165142855Y-106478571D02*
X165142855Y-104978571D01*
X164499998Y-106407143D02*
X164285712Y-106478571D01*
X163928569Y-106478571D01*
X163785712Y-106407143D01*
X163714283Y-106335714D01*
X163642855Y-106192857D01*
X163642855Y-106050000D01*
X163714283Y-105907143D01*
X163785712Y-105835714D01*
X163928569Y-105764286D01*
X164214283Y-105692857D01*
X164357141Y-105621429D01*
X164428569Y-105550000D01*
X164499998Y-105407143D01*
X164499998Y-105264286D01*
X164428569Y-105121429D01*
X164357141Y-105050000D01*
X164214283Y-104978571D01*
X163857141Y-104978571D01*
X163642855Y-105050000D01*
X162999998Y-105907143D02*
X161857141Y-105907143D01*
X161285712Y-104978571D02*
X160357141Y-104978571D01*
X160857141Y-105550000D01*
X160642855Y-105550000D01*
X160499998Y-105621429D01*
X160428569Y-105692857D01*
X160357141Y-105835714D01*
X160357141Y-106192857D01*
X160428569Y-106335714D01*
X160499998Y-106407143D01*
X160642855Y-106478571D01*
X161071427Y-106478571D01*
X161214284Y-106407143D01*
X161285712Y-106335714D01*
X158857141Y-106478571D02*
X159357141Y-105764286D01*
X159714284Y-106478571D02*
X159714284Y-104978571D01*
X159142856Y-104978571D01*
X158999998Y-105050000D01*
X158928570Y-105121429D01*
X158857141Y-105264286D01*
X158857141Y-105478571D01*
X158928570Y-105621429D01*
X158999998Y-105692857D01*
X159142856Y-105764286D01*
X159714284Y-105764286D01*
X158357141Y-104978571D02*
X157428570Y-104978571D01*
X157928570Y-105550000D01*
X157714284Y-105550000D01*
X157571427Y-105621429D01*
X157499998Y-105692857D01*
X157428570Y-105835714D01*
X157428570Y-106192857D01*
X157499998Y-106335714D01*
X157571427Y-106407143D01*
X157714284Y-106478571D01*
X158142856Y-106478571D01*
X158285713Y-106407143D01*
X158357141Y-106335714D01*
X156928570Y-104978571D02*
X155999999Y-104978571D01*
X156499999Y-105550000D01*
X156285713Y-105550000D01*
X156142856Y-105621429D01*
X156071427Y-105692857D01*
X155999999Y-105835714D01*
X155999999Y-106192857D01*
X156071427Y-106335714D01*
X156142856Y-106407143D01*
X156285713Y-106478571D01*
X156714285Y-106478571D01*
X156857142Y-106407143D01*
X156928570Y-106335714D01*
X155428571Y-106407143D02*
X155214285Y-106478571D01*
X154857142Y-106478571D01*
X154714285Y-106407143D01*
X154642856Y-106335714D01*
X154571428Y-106192857D01*
X154571428Y-106050000D01*
X154642856Y-105907143D01*
X154714285Y-105835714D01*
X154857142Y-105764286D01*
X155142856Y-105692857D01*
X155285714Y-105621429D01*
X155357142Y-105550000D01*
X155428571Y-105407143D01*
X155428571Y-105264286D01*
X155357142Y-105121429D01*
X155285714Y-105050000D01*
X155142856Y-104978571D01*
X154785714Y-104978571D01*
X154571428Y-105050000D01*
X154285714Y-106621429D02*
X153142857Y-106621429D01*
X152785714Y-106478571D02*
X152785714Y-104978571D01*
X152785714Y-105550000D02*
X152642857Y-105478571D01*
X152357143Y-105478571D01*
X152214286Y-105550000D01*
X152142857Y-105621429D01*
X152071428Y-105764286D01*
X152071428Y-106192857D01*
X152142857Y-106335714D01*
X152214286Y-106407143D01*
X152357143Y-106478571D01*
X152642857Y-106478571D01*
X152785714Y-106407143D01*
X151428571Y-106478571D02*
X151428571Y-105478571D01*
X151428571Y-105764286D02*
X151357143Y-105621429D01*
X151285714Y-105550000D01*
X151142857Y-105478571D01*
X151000000Y-105478571D01*
X149928572Y-106407143D02*
X150071429Y-106478571D01*
X150357143Y-106478571D01*
X150500000Y-106407143D01*
X150571429Y-106264286D01*
X150571429Y-105692857D01*
X150500000Y-105550000D01*
X150357143Y-105478571D01*
X150071429Y-105478571D01*
X149928572Y-105550000D01*
X149857143Y-105692857D01*
X149857143Y-105835714D01*
X150571429Y-105978571D01*
X148571429Y-106478571D02*
X148571429Y-105692857D01*
X148642858Y-105550000D01*
X148785715Y-105478571D01*
X149071429Y-105478571D01*
X149214286Y-105550000D01*
X148571429Y-106407143D02*
X148714286Y-106478571D01*
X149071429Y-106478571D01*
X149214286Y-106407143D01*
X149285715Y-106264286D01*
X149285715Y-106121429D01*
X149214286Y-105978571D01*
X149071429Y-105907143D01*
X148714286Y-105907143D01*
X148571429Y-105835714D01*
X147857143Y-106478571D02*
X147857143Y-104978571D01*
X147714286Y-105907143D02*
X147285715Y-106478571D01*
X147285715Y-105478571D02*
X147857143Y-106050000D01*
X146428571Y-106478571D02*
X146571429Y-106407143D01*
X146642857Y-106335714D01*
X146714286Y-106192857D01*
X146714286Y-105764286D01*
X146642857Y-105621429D01*
X146571429Y-105550000D01*
X146428571Y-105478571D01*
X146214286Y-105478571D01*
X146071429Y-105550000D01*
X146000000Y-105621429D01*
X145928571Y-105764286D01*
X145928571Y-106192857D01*
X146000000Y-106335714D01*
X146071429Y-106407143D01*
X146214286Y-106478571D01*
X146428571Y-106478571D01*
X144642857Y-105478571D02*
X144642857Y-106478571D01*
X145285714Y-105478571D02*
X145285714Y-106264286D01*
X145214286Y-106407143D01*
X145071428Y-106478571D01*
X144857143Y-106478571D01*
X144714286Y-106407143D01*
X144642857Y-106335714D01*
X144142857Y-105478571D02*
X143571428Y-105478571D01*
X143928571Y-104978571D02*
X143928571Y-106264286D01*
X143857143Y-106407143D01*
X143714285Y-106478571D01*
X143571428Y-106478571D01*
X142142857Y-104978571D02*
X141642857Y-106478571D01*
X141142857Y-104978571D01*
X140357143Y-104978571D02*
X140214286Y-104978571D01*
X140071429Y-105050000D01*
X140000000Y-105121429D01*
X139928571Y-105264286D01*
X139857143Y-105550000D01*
X139857143Y-105907143D01*
X139928571Y-106192857D01*
X140000000Y-106335714D01*
X140071429Y-106407143D01*
X140214286Y-106478571D01*
X140357143Y-106478571D01*
X140500000Y-106407143D01*
X140571429Y-106335714D01*
X140642857Y-106192857D01*
X140714286Y-105907143D01*
X140714286Y-105550000D01*
X140642857Y-105264286D01*
X140571429Y-105121429D01*
X140500000Y-105050000D01*
X140357143Y-104978571D01*
X139214286Y-106335714D02*
X139142858Y-106407143D01*
X139214286Y-106478571D01*
X139285715Y-106407143D01*
X139214286Y-106335714D01*
X139214286Y-106478571D01*
X137714286Y-106478571D02*
X138571429Y-106478571D01*
X138142857Y-106478571D02*
X138142857Y-104978571D01*
X138285714Y-105192857D01*
X138428572Y-105335714D01*
X138571429Y-105407143D01*
X137142858Y-105121429D02*
X137071429Y-105050000D01*
X136928572Y-104978571D01*
X136571429Y-104978571D01*
X136428572Y-105050000D01*
X136357143Y-105121429D01*
X136285715Y-105264286D01*
X136285715Y-105407143D01*
X136357143Y-105621429D01*
X137214286Y-106478571D01*
X136285715Y-106478571D01*
X135642858Y-106335714D02*
X135571430Y-106407143D01*
X135642858Y-106478571D01*
X135714287Y-106407143D01*
X135642858Y-106335714D01*
X135642858Y-106478571D01*
X134357144Y-106407143D02*
X134500001Y-106478571D01*
X134785715Y-106478571D01*
X134928572Y-106407143D01*
X135000001Y-106264286D01*
X135000001Y-105692857D01*
X134928572Y-105550000D01*
X134785715Y-105478571D01*
X134500001Y-105478571D01*
X134357144Y-105550000D01*
X134285715Y-105692857D01*
X134285715Y-105835714D01*
X135000001Y-105978571D01*
X166607143Y-107521429D02*
X166535714Y-107450000D01*
X166392857Y-107378571D01*
X166035714Y-107378571D01*
X165892857Y-107450000D01*
X165821428Y-107521429D01*
X165750000Y-107664286D01*
X165750000Y-107807143D01*
X165821428Y-108021429D01*
X166678571Y-108878571D01*
X165750000Y-108878571D01*
X164821429Y-107378571D02*
X164678572Y-107378571D01*
X164535715Y-107450000D01*
X164464286Y-107521429D01*
X164392857Y-107664286D01*
X164321429Y-107950000D01*
X164321429Y-108307143D01*
X164392857Y-108592857D01*
X164464286Y-108735714D01*
X164535715Y-108807143D01*
X164678572Y-108878571D01*
X164821429Y-108878571D01*
X164964286Y-108807143D01*
X165035715Y-108735714D01*
X165107143Y-108592857D01*
X165178572Y-108307143D01*
X165178572Y-107950000D01*
X165107143Y-107664286D01*
X165035715Y-107521429D01*
X164964286Y-107450000D01*
X164821429Y-107378571D01*
X162892858Y-108878571D02*
X163750001Y-108878571D01*
X163321429Y-108878571D02*
X163321429Y-107378571D01*
X163464286Y-107592857D01*
X163607144Y-107735714D01*
X163750001Y-107807143D01*
X161535715Y-107378571D02*
X162250001Y-107378571D01*
X162321430Y-108092857D01*
X162250001Y-108021429D01*
X162107144Y-107950000D01*
X161750001Y-107950000D01*
X161607144Y-108021429D01*
X161535715Y-108092857D01*
X161464287Y-108235714D01*
X161464287Y-108592857D01*
X161535715Y-108735714D01*
X161607144Y-108807143D01*
X161750001Y-108878571D01*
X162107144Y-108878571D01*
X162250001Y-108807143D01*
X162321430Y-108735714D01*
X159678573Y-108307143D02*
X158535716Y-108307143D01*
X156678573Y-108878571D02*
X156678573Y-107378571D01*
X156678573Y-107950000D02*
X156535716Y-107878571D01*
X156250002Y-107878571D01*
X156107145Y-107950000D01*
X156035716Y-108021429D01*
X155964287Y-108164286D01*
X155964287Y-108592857D01*
X156035716Y-108735714D01*
X156107145Y-108807143D01*
X156250002Y-108878571D01*
X156535716Y-108878571D01*
X156678573Y-108807143D01*
X155107144Y-108878571D02*
X155250002Y-108807143D01*
X155321430Y-108664286D01*
X155321430Y-107378571D01*
X154321430Y-108878571D02*
X154464288Y-108807143D01*
X154535716Y-108735714D01*
X154607145Y-108592857D01*
X154607145Y-108164286D01*
X154535716Y-108021429D01*
X154464288Y-107950000D01*
X154321430Y-107878571D01*
X154107145Y-107878571D01*
X153964288Y-107950000D01*
X153892859Y-108021429D01*
X153821430Y-108164286D01*
X153821430Y-108592857D01*
X153892859Y-108735714D01*
X153964288Y-108807143D01*
X154107145Y-108878571D01*
X154321430Y-108878571D01*
X152535716Y-107878571D02*
X152535716Y-109092857D01*
X152607145Y-109235714D01*
X152678573Y-109307143D01*
X152821430Y-109378571D01*
X153035716Y-109378571D01*
X153178573Y-109307143D01*
X152535716Y-108807143D02*
X152678573Y-108878571D01*
X152964287Y-108878571D01*
X153107145Y-108807143D01*
X153178573Y-108735714D01*
X153250002Y-108592857D01*
X153250002Y-108164286D01*
X153178573Y-108021429D01*
X153107145Y-107950000D01*
X152964287Y-107878571D01*
X152678573Y-107878571D01*
X152535716Y-107950000D01*
X151821430Y-108735714D02*
X151750002Y-108807143D01*
X151821430Y-108878571D01*
X151892859Y-108807143D01*
X151821430Y-108735714D01*
X151821430Y-108878571D01*
X151178573Y-108807143D02*
X151035716Y-108878571D01*
X150750001Y-108878571D01*
X150607144Y-108807143D01*
X150535716Y-108664286D01*
X150535716Y-108592857D01*
X150607144Y-108450000D01*
X150750001Y-108378571D01*
X150964287Y-108378571D01*
X151107144Y-108307143D01*
X151178573Y-108164286D01*
X151178573Y-108092857D01*
X151107144Y-107950000D01*
X150964287Y-107878571D01*
X150750001Y-107878571D01*
X150607144Y-107950000D01*
X149892858Y-107878571D02*
X149892858Y-109378571D01*
X149892858Y-107950000D02*
X149750001Y-107878571D01*
X149464287Y-107878571D01*
X149321430Y-107950000D01*
X149250001Y-108021429D01*
X149178572Y-108164286D01*
X149178572Y-108592857D01*
X149250001Y-108735714D01*
X149321430Y-108807143D01*
X149464287Y-108878571D01*
X149750001Y-108878571D01*
X149892858Y-108807143D01*
X148535715Y-108878571D02*
X148535715Y-107878571D01*
X148535715Y-107378571D02*
X148607144Y-107450000D01*
X148535715Y-107521429D01*
X148464287Y-107450000D01*
X148535715Y-107378571D01*
X148535715Y-107521429D01*
X148035715Y-107878571D02*
X147464286Y-107878571D01*
X147821429Y-107378571D02*
X147821429Y-108664286D01*
X147750001Y-108807143D01*
X147607143Y-108878571D01*
X147464286Y-108878571D01*
X147107143Y-107878571D02*
X146321429Y-107878571D01*
X147107143Y-108878571D01*
X146321429Y-108878571D01*
X145178572Y-108807143D02*
X145321429Y-108878571D01*
X145607143Y-108878571D01*
X145750000Y-108807143D01*
X145821429Y-108664286D01*
X145821429Y-108092857D01*
X145750000Y-107950000D01*
X145607143Y-107878571D01*
X145321429Y-107878571D01*
X145178572Y-107950000D01*
X145107143Y-108092857D01*
X145107143Y-108235714D01*
X145821429Y-108378571D01*
X144464286Y-107878571D02*
X144464286Y-108878571D01*
X144464286Y-108021429D02*
X144392858Y-107950000D01*
X144250000Y-107878571D01*
X144035715Y-107878571D01*
X143892858Y-107950000D01*
X143821429Y-108092857D01*
X143821429Y-108878571D01*
X143107143Y-107878571D02*
X143107143Y-109378571D01*
X143107143Y-107950000D02*
X142964286Y-107878571D01*
X142678572Y-107878571D01*
X142535715Y-107950000D01*
X142464286Y-108021429D01*
X142392857Y-108164286D01*
X142392857Y-108592857D01*
X142464286Y-108735714D01*
X142535715Y-108807143D01*
X142678572Y-108878571D01*
X142964286Y-108878571D01*
X143107143Y-108807143D01*
X141964286Y-107878571D02*
X141392857Y-107878571D01*
X141750000Y-108878571D02*
X141750000Y-107592857D01*
X141678572Y-107450000D01*
X141535714Y-107378571D01*
X141392857Y-107378571D01*
X140321429Y-108807143D02*
X140464286Y-108878571D01*
X140750000Y-108878571D01*
X140892857Y-108807143D01*
X140964286Y-108664286D01*
X140964286Y-108092857D01*
X140892857Y-107950000D01*
X140750000Y-107878571D01*
X140464286Y-107878571D01*
X140321429Y-107950000D01*
X140250000Y-108092857D01*
X140250000Y-108235714D01*
X140964286Y-108378571D01*
X139607143Y-108878571D02*
X139607143Y-107878571D01*
X139607143Y-107378571D02*
X139678572Y-107450000D01*
X139607143Y-107521429D01*
X139535715Y-107450000D01*
X139607143Y-107378571D01*
X139607143Y-107521429D01*
X138678571Y-108878571D02*
X138821429Y-108807143D01*
X138892857Y-108664286D01*
X138892857Y-107378571D01*
X138107143Y-108735714D02*
X138035715Y-108807143D01*
X138107143Y-108878571D01*
X138178572Y-108807143D01*
X138107143Y-108735714D01*
X138107143Y-108878571D01*
X137178571Y-108878571D02*
X137321429Y-108807143D01*
X137392857Y-108735714D01*
X137464286Y-108592857D01*
X137464286Y-108164286D01*
X137392857Y-108021429D01*
X137321429Y-107950000D01*
X137178571Y-107878571D01*
X136964286Y-107878571D01*
X136821429Y-107950000D01*
X136750000Y-108021429D01*
X136678571Y-108164286D01*
X136678571Y-108592857D01*
X136750000Y-108735714D01*
X136821429Y-108807143D01*
X136964286Y-108878571D01*
X137178571Y-108878571D01*
X136035714Y-108878571D02*
X136035714Y-107878571D01*
X136035714Y-108164286D02*
X135964286Y-108021429D01*
X135892857Y-107950000D01*
X135750000Y-107878571D01*
X135607143Y-107878571D01*
X134464286Y-107878571D02*
X134464286Y-109092857D01*
X134535715Y-109235714D01*
X134607143Y-109307143D01*
X134750000Y-109378571D01*
X134964286Y-109378571D01*
X135107143Y-109307143D01*
X134464286Y-108807143D02*
X134607143Y-108878571D01*
X134892857Y-108878571D01*
X135035715Y-108807143D01*
X135107143Y-108735714D01*
X135178572Y-108592857D01*
X135178572Y-108164286D01*
X135107143Y-108021429D01*
X135035715Y-107950000D01*
X134892857Y-107878571D01*
X134607143Y-107878571D01*
X134464286Y-107950000D01*
D10*
G36*
X145508062Y-100334373D02*
X145510293Y-100448042D01*
X145513572Y-100557094D01*
X145520908Y-100720934D01*
X145531682Y-100871238D01*
X145545037Y-100998305D01*
X145560116Y-101092433D01*
X145561360Y-101098199D01*
X145657206Y-101439305D01*
X145789661Y-101767942D01*
X145955639Y-102078887D01*
X145973340Y-102104844D01*
X145973340Y-101794530D01*
X145976909Y-101788194D01*
X145998593Y-101814189D01*
X146034546Y-101867391D01*
X146066098Y-101918007D01*
X146119716Y-102004664D01*
X146169797Y-102080986D01*
X146222475Y-102155215D01*
X146283880Y-102235593D01*
X146360145Y-102330361D01*
X146457401Y-102447763D01*
X146483002Y-102478376D01*
X146549717Y-102558716D01*
X146589854Y-102609235D01*
X146605191Y-102632994D01*
X146597507Y-102633052D01*
X146568580Y-102612467D01*
X146554702Y-102601687D01*
X146501980Y-102553829D01*
X146433344Y-102482465D01*
X146359135Y-102398671D01*
X146311513Y-102341174D01*
X146225601Y-102228182D01*
X146143758Y-102109643D01*
X146071594Y-101994627D01*
X146014717Y-101892199D01*
X145978738Y-101811428D01*
X145973340Y-101794530D01*
X145973340Y-102104844D01*
X146152056Y-102366916D01*
X146375829Y-102626805D01*
X146572819Y-102811240D01*
X146652461Y-102881969D01*
X146702075Y-102933592D01*
X146719430Y-102963654D01*
X146716405Y-102969349D01*
X146685004Y-102978641D01*
X146620924Y-102992524D01*
X146534387Y-103008907D01*
X146462051Y-103021385D01*
X146320627Y-103046664D01*
X146220422Y-103069345D01*
X146159398Y-103090562D01*
X146135514Y-103111447D01*
X146146732Y-103133132D01*
X146191014Y-103156751D01*
X146206966Y-103163073D01*
X146253991Y-103172590D01*
X146337770Y-103180987D01*
X146451647Y-103188158D01*
X146588969Y-103193998D01*
X146743081Y-103198402D01*
X146852820Y-103200314D01*
X146852820Y-102804017D01*
X146863675Y-102793163D01*
X146874530Y-102804017D01*
X146863675Y-102814872D01*
X146852820Y-102804017D01*
X146852820Y-103200314D01*
X146907329Y-103201264D01*
X147075060Y-103202479D01*
X147122221Y-103202325D01*
X147122221Y-102909070D01*
X147135043Y-102904761D01*
X147181505Y-102913090D01*
X147211026Y-102923419D01*
X147234702Y-102937768D01*
X147221880Y-102942077D01*
X147175418Y-102933748D01*
X147145897Y-102923419D01*
X147122221Y-102909070D01*
X147122221Y-103202325D01*
X147239618Y-103201943D01*
X147394350Y-103199549D01*
X147532602Y-103195193D01*
X147647720Y-103188769D01*
X147677778Y-103186332D01*
X147867401Y-103168620D01*
X148032135Y-103151582D01*
X148168447Y-103135671D01*
X148272801Y-103121338D01*
X148341664Y-103109036D01*
X148371502Y-103099216D01*
X148372479Y-103097488D01*
X148352900Y-103086525D01*
X148301574Y-103071823D01*
X148229686Y-103056579D01*
X148113763Y-103030947D01*
X148018862Y-103001569D01*
X147951641Y-102971065D01*
X147918762Y-102942051D01*
X147916581Y-102933492D01*
X147933233Y-102900859D01*
X147972755Y-102861405D01*
X148019493Y-102828342D01*
X148057132Y-102814872D01*
X148081135Y-102801397D01*
X148132428Y-102763877D01*
X148205458Y-102706668D01*
X148294673Y-102634126D01*
X148394521Y-102550608D01*
X148401851Y-102544390D01*
X148583003Y-102392948D01*
X148738613Y-102268703D01*
X148873999Y-102168309D01*
X148994478Y-102088423D01*
X149105368Y-102025698D01*
X149211988Y-101976791D01*
X149319654Y-101938354D01*
X149402809Y-101914769D01*
X149526209Y-101889565D01*
X149645320Y-101880646D01*
X149764454Y-101889712D01*
X149887924Y-101918462D01*
X150020043Y-101968597D01*
X150165122Y-102041816D01*
X150327474Y-102139820D01*
X150511412Y-102264308D01*
X150721247Y-102416980D01*
X150770542Y-102453937D01*
X150939019Y-102578014D01*
X151083406Y-102677642D01*
X151211634Y-102757695D01*
X151331634Y-102823047D01*
X151451338Y-102878572D01*
X151483431Y-102892017D01*
X151560594Y-102925678D01*
X151619465Y-102955112D01*
X151650635Y-102975464D01*
X151653262Y-102979626D01*
X151633004Y-103000420D01*
X151574431Y-103024143D01*
X151482413Y-103049242D01*
X151361822Y-103074161D01*
X151350677Y-103076173D01*
X151250247Y-103097301D01*
X151192528Y-103117209D01*
X151177632Y-103135955D01*
X151205670Y-103153601D01*
X151276757Y-103170204D01*
X151391003Y-103185825D01*
X151548521Y-103200524D01*
X151591628Y-103203835D01*
X151783043Y-103214536D01*
X152004110Y-103221065D01*
X152243017Y-103223512D01*
X152487952Y-103221969D01*
X152727103Y-103216527D01*
X152948657Y-103207276D01*
X153140803Y-103194307D01*
X153170256Y-103191687D01*
X153355916Y-103173641D01*
X153502607Y-103157370D01*
X153614707Y-103142149D01*
X153696593Y-103127250D01*
X153752643Y-103111945D01*
X153787236Y-103095509D01*
X153796890Y-103087628D01*
X153816168Y-103051538D01*
X153795185Y-103021114D01*
X153733022Y-102995816D01*
X153628759Y-102975108D01*
X153597181Y-102970737D01*
X153504138Y-102958327D01*
X153443796Y-102946561D01*
X153416759Y-102931178D01*
X153423628Y-102907918D01*
X153465008Y-102872519D01*
X153541501Y-102820720D01*
X153626154Y-102766047D01*
X153794476Y-102640906D01*
X153962706Y-102485411D01*
X154123509Y-102308579D01*
X154269548Y-102119428D01*
X154393489Y-101926976D01*
X154487998Y-101740242D01*
X154514019Y-101674456D01*
X154555439Y-101551047D01*
X154585806Y-101435994D01*
X154606680Y-101318510D01*
X154619625Y-101187805D01*
X154626201Y-101033092D01*
X154627918Y-100887695D01*
X154626346Y-100735578D01*
X154619713Y-100595120D01*
X154606620Y-100460674D01*
X154585671Y-100326594D01*
X154555467Y-100187230D01*
X154514610Y-100036936D01*
X154461701Y-99870065D01*
X154395344Y-99680968D01*
X154314140Y-99463998D01*
X154216691Y-99213507D01*
X154208104Y-99191730D01*
X154130433Y-98990603D01*
X154063922Y-98809550D01*
X154010287Y-98653547D01*
X153971246Y-98527572D01*
X153949751Y-98442756D01*
X153924972Y-98288189D01*
X153912008Y-98129372D01*
X153911059Y-97978538D01*
X153922324Y-97847919D01*
X153938777Y-97771016D01*
X153969177Y-97670003D01*
X153911640Y-97683907D01*
X153831045Y-97705791D01*
X153785287Y-97726840D01*
X153766338Y-97753141D01*
X153766171Y-97790782D01*
X153766637Y-97793882D01*
X153771247Y-97838640D01*
X153776852Y-97915951D01*
X153782746Y-98014984D01*
X153788221Y-98124905D01*
X153788255Y-98125641D01*
X153801918Y-98313675D01*
X153824779Y-98492854D01*
X153855206Y-98654407D01*
X153891567Y-98789566D01*
X153929330Y-98883990D01*
X153958607Y-98947187D01*
X153999247Y-99042948D01*
X154048020Y-99162945D01*
X154101694Y-99298847D01*
X154157039Y-99442328D01*
X154210824Y-99585058D01*
X154259817Y-99718708D01*
X154300788Y-99834950D01*
X154317308Y-99884103D01*
X154415594Y-100228461D01*
X154476656Y-100551691D01*
X154500174Y-100855544D01*
X154485826Y-101141771D01*
X154433292Y-101412123D01*
X154342249Y-101668351D01*
X154212377Y-101912207D01*
X154043354Y-102145441D01*
X153866970Y-102338330D01*
X153642708Y-102533449D01*
X153400800Y-102691055D01*
X153144252Y-102809568D01*
X152876067Y-102887407D01*
X152794712Y-102902443D01*
X152660151Y-102916434D01*
X152497980Y-102921390D01*
X152321988Y-102917926D01*
X152145965Y-102906657D01*
X151983701Y-102888196D01*
X151848985Y-102863159D01*
X151835128Y-102859690D01*
X151633087Y-102791169D01*
X151410484Y-102685036D01*
X151167124Y-102541188D01*
X150902816Y-102359521D01*
X150901624Y-102358651D01*
X150701112Y-102212995D01*
X150530754Y-102091553D01*
X150386223Y-101992149D01*
X150263191Y-101912611D01*
X150157333Y-101850763D01*
X150064321Y-101804431D01*
X149979829Y-101771441D01*
X149899529Y-101749618D01*
X149819096Y-101736789D01*
X149734201Y-101730778D01*
X149649447Y-101729402D01*
X149521818Y-101733854D01*
X149414481Y-101749487D01*
X149305007Y-101779716D01*
X149293126Y-101783657D01*
X149210366Y-101814346D01*
X149128222Y-101851694D01*
X149042025Y-101898843D01*
X148947107Y-101958935D01*
X148838798Y-102035113D01*
X148712432Y-102130521D01*
X148563338Y-102248299D01*
X148386848Y-102391591D01*
X148372479Y-102403371D01*
X148206558Y-102536243D01*
X148057568Y-102649073D01*
X147929578Y-102738939D01*
X147826656Y-102802921D01*
X147786325Y-102824074D01*
X147710342Y-102860439D01*
X147764615Y-102814147D01*
X148007423Y-102607842D01*
X148221279Y-102428287D01*
X148409589Y-102273282D01*
X148575761Y-102140629D01*
X148723201Y-102028128D01*
X148855316Y-101933579D01*
X148975512Y-101854783D01*
X149087198Y-101789541D01*
X149193778Y-101735653D01*
X149298661Y-101690919D01*
X149405253Y-101653140D01*
X149516961Y-101620117D01*
X149637192Y-101589651D01*
X149675043Y-101580770D01*
X149723865Y-101569067D01*
X149738586Y-101563548D01*
X149716405Y-101563540D01*
X149654519Y-101568369D01*
X149631624Y-101570330D01*
X149498546Y-101588173D01*
X149355573Y-101617852D01*
X149219108Y-101655290D01*
X149105555Y-101696409D01*
X149082777Y-101706735D01*
X149005059Y-101752070D01*
X148897252Y-101827918D01*
X148759804Y-101933926D01*
X148593167Y-102069745D01*
X148397790Y-102235023D01*
X148326977Y-102296063D01*
X148168732Y-102430615D01*
X148034383Y-102538947D01*
X147917323Y-102625736D01*
X147810943Y-102695659D01*
X147708635Y-102753395D01*
X147620457Y-102796147D01*
X147536995Y-102831722D01*
X147472749Y-102850593D01*
X147408536Y-102856324D01*
X147325174Y-102852479D01*
X147319573Y-102852055D01*
X147115106Y-102815097D01*
X146915660Y-102735805D01*
X146720906Y-102613962D01*
X146530515Y-102449349D01*
X146344158Y-102241750D01*
X146288734Y-102170719D01*
X146230739Y-102084923D01*
X146161785Y-101968450D01*
X146086779Y-101831038D01*
X146010628Y-101682427D01*
X145938238Y-101532354D01*
X145874517Y-101390560D01*
X145824372Y-101266782D01*
X145803859Y-101208376D01*
X145777157Y-101121778D01*
X145755138Y-101043030D01*
X145739264Y-100978744D01*
X145730998Y-100935529D01*
X145731803Y-100919995D01*
X145743142Y-100938754D01*
X145745234Y-100943516D01*
X145781386Y-101011001D01*
X145841587Y-101100194D01*
X145927853Y-101213846D01*
X146042200Y-101354706D01*
X146079898Y-101399843D01*
X146171321Y-101510443D01*
X146238229Y-101597228D01*
X146285196Y-101668617D01*
X146316796Y-101733028D01*
X146337602Y-101798879D01*
X146352188Y-101874591D01*
X146357477Y-101910759D01*
X146377771Y-102025244D01*
X146405520Y-102110189D01*
X146446679Y-102179446D01*
X146498027Y-102237715D01*
X146616753Y-102327182D01*
X146679926Y-102351193D01*
X146679926Y-101983380D01*
X146687909Y-101937794D01*
X146720947Y-101907038D01*
X146754431Y-101891115D01*
X146852100Y-101866575D01*
X146966644Y-101861396D01*
X147076075Y-101875579D01*
X147124885Y-101891115D01*
X147175528Y-101917929D01*
X147196464Y-101952224D01*
X147200171Y-102000698D01*
X147180814Y-102081256D01*
X147128521Y-102145008D01*
X147051961Y-102187569D01*
X146959804Y-102204554D01*
X146860718Y-102191577D01*
X146837952Y-102183928D01*
X146766221Y-102139671D01*
X146710209Y-102073895D01*
X146681490Y-102001291D01*
X146679926Y-101983380D01*
X146679926Y-102351193D01*
X146761248Y-102382104D01*
X146930483Y-102402100D01*
X146941671Y-102402181D01*
X147089025Y-102389643D01*
X147208746Y-102349193D01*
X147309191Y-102277210D01*
X147361284Y-102220359D01*
X147394827Y-102176085D01*
X147414231Y-102137295D01*
X147422739Y-102090369D01*
X147423593Y-102021686D01*
X147421840Y-101965987D01*
X147419829Y-101877860D01*
X147423331Y-101821056D01*
X147434824Y-101783583D01*
X147456783Y-101753453D01*
X147468190Y-101741631D01*
X147556731Y-101682331D01*
X147667059Y-101653887D01*
X147790040Y-101656672D01*
X147916537Y-101691064D01*
X147960081Y-101711682D01*
X147960081Y-101383330D01*
X147978339Y-101320977D01*
X148026444Y-101249825D01*
X148094791Y-101179198D01*
X148173774Y-101118424D01*
X148253787Y-101076829D01*
X148285625Y-101067269D01*
X148347122Y-101065021D01*
X148392915Y-101077439D01*
X148428785Y-101117704D01*
X148435393Y-101177615D01*
X148416975Y-101249188D01*
X148377763Y-101324442D01*
X148321992Y-101395393D01*
X148253895Y-101454060D01*
X148177706Y-101492459D01*
X148171822Y-101494288D01*
X148096383Y-101501532D01*
X148026643Y-101483300D01*
X147987137Y-101452697D01*
X147964296Y-101407047D01*
X147960081Y-101383330D01*
X147960081Y-101711682D01*
X147979016Y-101720649D01*
X148099665Y-101764142D01*
X148222966Y-101765813D01*
X148344669Y-101726706D01*
X148460524Y-101647866D01*
X148520550Y-101587563D01*
X148603665Y-101464722D01*
X148654233Y-101327584D01*
X148672022Y-101184756D01*
X148656797Y-101044844D01*
X148608327Y-100916455D01*
X148541236Y-100823262D01*
X148511016Y-100787432D01*
X148510037Y-100762523D01*
X148537156Y-100728479D01*
X148593161Y-100679959D01*
X148669203Y-100630933D01*
X148750636Y-100589237D01*
X148822815Y-100562704D01*
X148857183Y-100557298D01*
X148920889Y-100575839D01*
X148984667Y-100623896D01*
X149035681Y-100689529D01*
X149058129Y-100744270D01*
X149099845Y-100830985D01*
X149175079Y-100901240D01*
X149181922Y-100904693D01*
X149181922Y-100482257D01*
X149193846Y-100419001D01*
X149243115Y-100366545D01*
X149262564Y-100355232D01*
X149331917Y-100333034D01*
X149424067Y-100321255D01*
X149525952Y-100319493D01*
X149624511Y-100327347D01*
X149706683Y-100344416D01*
X149759408Y-100370299D01*
X149759632Y-100370502D01*
X149798424Y-100425530D01*
X149797689Y-100488068D01*
X149758872Y-100561319D01*
X149678073Y-100643285D01*
X149580225Y-100693554D01*
X149475237Y-100709260D01*
X149373020Y-100687538D01*
X149353751Y-100678434D01*
X149263522Y-100617814D01*
X149205697Y-100550475D01*
X149181922Y-100482257D01*
X149181922Y-100904693D01*
X149276135Y-100952236D01*
X149395316Y-100981172D01*
X149524926Y-100985248D01*
X149656346Y-100961932D01*
X149804579Y-100899356D01*
X149925528Y-100807961D01*
X150015098Y-100692268D01*
X150069190Y-100556793D01*
X150080450Y-100494190D01*
X150090201Y-100428873D01*
X150103863Y-100396002D01*
X150128307Y-100384707D01*
X150150246Y-100383758D01*
X150224486Y-100391265D01*
X150315882Y-100410084D01*
X150407445Y-100435737D01*
X150482187Y-100463747D01*
X150510019Y-100478568D01*
X150555114Y-100530551D01*
X150562303Y-100600265D01*
X150531574Y-100684244D01*
X150510855Y-100717850D01*
X150466337Y-100819756D01*
X150458608Y-100933069D01*
X150484794Y-101051527D01*
X150542022Y-101168869D01*
X150627417Y-101278834D01*
X150721686Y-101360872D01*
X150721686Y-100936039D01*
X150732125Y-100840426D01*
X150747635Y-100799810D01*
X150796328Y-100737522D01*
X150857704Y-100716106D01*
X150933162Y-100735327D01*
X150978189Y-100761142D01*
X151028880Y-100798141D01*
X151059895Y-100827433D01*
X151064444Y-100836188D01*
X151083165Y-100852963D01*
X151130027Y-100873293D01*
X151150304Y-100879877D01*
X151255897Y-100925574D01*
X151327908Y-100987174D01*
X151363252Y-101060517D01*
X151358842Y-101141447D01*
X151354272Y-101154741D01*
X151317014Y-101196544D01*
X151248674Y-101227412D01*
X151160538Y-101245902D01*
X151063892Y-101250572D01*
X150970022Y-101239981D01*
X150892312Y-101213770D01*
X150829987Y-101172234D01*
X150778881Y-101122453D01*
X150775951Y-101118591D01*
X150736873Y-101035271D01*
X150721686Y-100936039D01*
X150721686Y-101360872D01*
X150738106Y-101375162D01*
X150841044Y-101437251D01*
X150915704Y-101471159D01*
X150982568Y-101490485D01*
X151059910Y-101499108D01*
X151140878Y-101500904D01*
X151240543Y-101498541D01*
X151313780Y-101488545D01*
X151377356Y-101467676D01*
X151421628Y-101446649D01*
X151492431Y-101401378D01*
X151547842Y-101349962D01*
X151563987Y-101327247D01*
X151606880Y-101271223D01*
X151656565Y-101230624D01*
X151694661Y-101213266D01*
X151730168Y-101212874D01*
X151779543Y-101231118D01*
X151811734Y-101246369D01*
X151919081Y-101321423D01*
X152003645Y-101426398D01*
X152059606Y-101551246D01*
X152081141Y-101685919D01*
X152080893Y-101710946D01*
X152098015Y-101803766D01*
X152152425Y-101886759D01*
X152238001Y-101951034D01*
X152250412Y-101957227D01*
X152264365Y-101962280D01*
X152264365Y-101520878D01*
X152272254Y-101445792D01*
X152276391Y-101435951D01*
X152318730Y-101386035D01*
X152393531Y-101338178D01*
X152489924Y-101297175D01*
X152597038Y-101267820D01*
X152684756Y-101255837D01*
X152817973Y-101247051D01*
X152844213Y-101326559D01*
X152857314Y-101431050D01*
X152831841Y-101533635D01*
X152772050Y-101625295D01*
X152682202Y-101697012D01*
X152664982Y-101706204D01*
X152587293Y-101735900D01*
X152518156Y-101737258D01*
X152444415Y-101708417D01*
X152377863Y-101665632D01*
X152299506Y-101594016D01*
X152264365Y-101520878D01*
X152264365Y-101962280D01*
X152306742Y-101977627D01*
X152373870Y-101987190D01*
X152465405Y-101987427D01*
X152505925Y-101985575D01*
X152679048Y-101960595D01*
X152831954Y-101907262D01*
X152871667Y-101882856D01*
X152871667Y-99935934D01*
X152884868Y-99839623D01*
X152886414Y-99834738D01*
X152918650Y-99768269D01*
X152959933Y-99740899D01*
X153012197Y-99752924D01*
X153077373Y-99804637D01*
X153138913Y-99873320D01*
X153185806Y-99935976D01*
X153206862Y-99982505D01*
X153207752Y-100026653D01*
X153206076Y-100036073D01*
X153164329Y-100142283D01*
X153090111Y-100228931D01*
X153054376Y-100254448D01*
X152993062Y-100281136D01*
X152950154Y-100271062D01*
X152919376Y-100221492D01*
X152909432Y-100191302D01*
X152880106Y-100057044D01*
X152871667Y-99935934D01*
X152871667Y-101882856D01*
X152959749Y-101828726D01*
X153057535Y-101728138D01*
X153120419Y-101608648D01*
X153127630Y-101585461D01*
X153146263Y-101446069D01*
X153131768Y-101294468D01*
X153087207Y-101142438D01*
X153015645Y-101001753D01*
X152954565Y-100920214D01*
X152911605Y-100865414D01*
X152894953Y-100822196D01*
X152898335Y-100773447D01*
X152899190Y-100769238D01*
X152920600Y-100697934D01*
X152956218Y-100641037D01*
X153013903Y-100590630D01*
X153101514Y-100538794D01*
X153154387Y-100512114D01*
X153277924Y-100447191D01*
X153365912Y-100386768D01*
X153424222Y-100322333D01*
X153458728Y-100245369D01*
X153475302Y-100147365D01*
X153479683Y-100040484D01*
X153471894Y-99914265D01*
X153441774Y-99809187D01*
X153383455Y-99710771D01*
X153311881Y-99626385D01*
X153180950Y-99517403D01*
X153027377Y-99444726D01*
X152881262Y-99412851D01*
X152803179Y-99399671D01*
X152759213Y-99377559D01*
X152740075Y-99338668D01*
X152736401Y-99290444D01*
X152745092Y-99228549D01*
X152775132Y-99169140D01*
X152831419Y-99106262D01*
X152918852Y-99033964D01*
X152989683Y-98982614D01*
X153107749Y-98895434D01*
X153190920Y-98820559D01*
X153242813Y-98750244D01*
X153267045Y-98676745D01*
X153267232Y-98592315D01*
X153246992Y-98489210D01*
X153237221Y-98452555D01*
X153202203Y-98348240D01*
X153157388Y-98265295D01*
X153095293Y-98195854D01*
X153008440Y-98132052D01*
X152889345Y-98066022D01*
X152851858Y-98047362D01*
X152737041Y-97987003D01*
X152658606Y-97934082D01*
X152611544Y-97882919D01*
X152590844Y-97827838D01*
X152591499Y-97763160D01*
X152592885Y-97753792D01*
X152598797Y-97699177D01*
X152590354Y-97675047D01*
X152564815Y-97669744D01*
X152532746Y-97684818D01*
X152507355Y-97731561D01*
X152488277Y-97812252D01*
X152475144Y-97929172D01*
X152467589Y-98084601D01*
X152465245Y-98280820D01*
X152465253Y-98288462D01*
X152466007Y-98409273D01*
X152468542Y-98516043D01*
X152473813Y-98614971D01*
X152482776Y-98712257D01*
X152496388Y-98814101D01*
X152515605Y-98926702D01*
X152541384Y-99056261D01*
X152574679Y-99208977D01*
X152585295Y-99255251D01*
X152585295Y-98398796D01*
X152593004Y-98312532D01*
X152609884Y-98253010D01*
X152613312Y-98247116D01*
X152650980Y-98210339D01*
X152695584Y-98209066D01*
X152750866Y-98244598D01*
X152820565Y-98318232D01*
X152821576Y-98319437D01*
X152885856Y-98405615D01*
X152917975Y-98477245D01*
X152920834Y-98545387D01*
X152899432Y-98616151D01*
X152848742Y-98710258D01*
X152791674Y-98771214D01*
X152732927Y-98796792D01*
X152677199Y-98784769D01*
X152634576Y-98741607D01*
X152611398Y-98683208D01*
X152595072Y-98597618D01*
X152586177Y-98498319D01*
X152585295Y-98398796D01*
X152585295Y-99255251D01*
X152616449Y-99391050D01*
X152667648Y-99608680D01*
X152671179Y-99623590D01*
X152726674Y-99860953D01*
X152771385Y-100060808D01*
X152805746Y-100227592D01*
X152830189Y-100365742D01*
X152845147Y-100479696D01*
X152851052Y-100573890D01*
X152848337Y-100652762D01*
X152837435Y-100720748D01*
X152818777Y-100782287D01*
X152792798Y-100841814D01*
X152790413Y-100846628D01*
X152711996Y-100970365D01*
X152612152Y-101077238D01*
X152498632Y-101162205D01*
X152379189Y-101220224D01*
X152261575Y-101246252D01*
X152182090Y-101242300D01*
X152105190Y-101220093D01*
X151997605Y-101177818D01*
X151865423Y-101118487D01*
X151714732Y-101045114D01*
X151551621Y-100960714D01*
X151382180Y-100868300D01*
X151212496Y-100770886D01*
X151129573Y-100721311D01*
X150910395Y-100590222D01*
X150721545Y-100481548D01*
X150557876Y-100392672D01*
X150414239Y-100320975D01*
X150285488Y-100263839D01*
X150166475Y-100218646D01*
X150096287Y-100195771D01*
X150009121Y-100170678D01*
X149933353Y-100153811D01*
X149856094Y-100143612D01*
X149764457Y-100138523D01*
X149645552Y-100136987D01*
X149609914Y-100136975D01*
X149466359Y-100140278D01*
X149335119Y-100151343D01*
X149212583Y-100172435D01*
X149095140Y-100205815D01*
X148979178Y-100253745D01*
X148861087Y-100318489D01*
X148737255Y-100402308D01*
X148604072Y-100507466D01*
X148457926Y-100636225D01*
X148295206Y-100790846D01*
X148112301Y-100973594D01*
X147905600Y-101186730D01*
X147862308Y-101231926D01*
X147762860Y-101334805D01*
X147684686Y-101411992D01*
X147619854Y-101469926D01*
X147560435Y-101515045D01*
X147498498Y-101553788D01*
X147426113Y-101592593D01*
X147404752Y-101603412D01*
X147196439Y-101690449D01*
X146998500Y-101736135D01*
X146808543Y-101740620D01*
X146624177Y-101704054D01*
X146508623Y-101659457D01*
X146418269Y-101604290D01*
X146316150Y-101519809D01*
X146210813Y-101415075D01*
X146110807Y-101299149D01*
X146024681Y-101181089D01*
X145970374Y-101088975D01*
X145883958Y-100903067D01*
X145816981Y-100716866D01*
X145767223Y-100520850D01*
X145732463Y-100305494D01*
X145710480Y-100061276D01*
X145704585Y-99949231D01*
X145688967Y-99591026D01*
X145651268Y-99673911D01*
X145629048Y-99731611D01*
X145600924Y-99817160D01*
X145571466Y-99916270D01*
X145557520Y-99966988D01*
X145537136Y-100046042D01*
X145522721Y-100112596D01*
X145513552Y-100176362D01*
X145508907Y-100247050D01*
X145508062Y-100334373D01*
X145508062Y-100334373D01*
X145508062Y-100334373D01*
G37*
X145508062Y-100334373D02*
X145510293Y-100448042D01*
X145513572Y-100557094D01*
X145520908Y-100720934D01*
X145531682Y-100871238D01*
X145545037Y-100998305D01*
X145560116Y-101092433D01*
X145561360Y-101098199D01*
X145657206Y-101439305D01*
X145789661Y-101767942D01*
X145955639Y-102078887D01*
X145973340Y-102104844D01*
X145973340Y-101794530D01*
X145976909Y-101788194D01*
X145998593Y-101814189D01*
X146034546Y-101867391D01*
X146066098Y-101918007D01*
X146119716Y-102004664D01*
X146169797Y-102080986D01*
X146222475Y-102155215D01*
X146283880Y-102235593D01*
X146360145Y-102330361D01*
X146457401Y-102447763D01*
X146483002Y-102478376D01*
X146549717Y-102558716D01*
X146589854Y-102609235D01*
X146605191Y-102632994D01*
X146597507Y-102633052D01*
X146568580Y-102612467D01*
X146554702Y-102601687D01*
X146501980Y-102553829D01*
X146433344Y-102482465D01*
X146359135Y-102398671D01*
X146311513Y-102341174D01*
X146225601Y-102228182D01*
X146143758Y-102109643D01*
X146071594Y-101994627D01*
X146014717Y-101892199D01*
X145978738Y-101811428D01*
X145973340Y-101794530D01*
X145973340Y-102104844D01*
X146152056Y-102366916D01*
X146375829Y-102626805D01*
X146572819Y-102811240D01*
X146652461Y-102881969D01*
X146702075Y-102933592D01*
X146719430Y-102963654D01*
X146716405Y-102969349D01*
X146685004Y-102978641D01*
X146620924Y-102992524D01*
X146534387Y-103008907D01*
X146462051Y-103021385D01*
X146320627Y-103046664D01*
X146220422Y-103069345D01*
X146159398Y-103090562D01*
X146135514Y-103111447D01*
X146146732Y-103133132D01*
X146191014Y-103156751D01*
X146206966Y-103163073D01*
X146253991Y-103172590D01*
X146337770Y-103180987D01*
X146451647Y-103188158D01*
X146588969Y-103193998D01*
X146743081Y-103198402D01*
X146852820Y-103200314D01*
X146852820Y-102804017D01*
X146863675Y-102793163D01*
X146874530Y-102804017D01*
X146863675Y-102814872D01*
X146852820Y-102804017D01*
X146852820Y-103200314D01*
X146907329Y-103201264D01*
X147075060Y-103202479D01*
X147122221Y-103202325D01*
X147122221Y-102909070D01*
X147135043Y-102904761D01*
X147181505Y-102913090D01*
X147211026Y-102923419D01*
X147234702Y-102937768D01*
X147221880Y-102942077D01*
X147175418Y-102933748D01*
X147145897Y-102923419D01*
X147122221Y-102909070D01*
X147122221Y-103202325D01*
X147239618Y-103201943D01*
X147394350Y-103199549D01*
X147532602Y-103195193D01*
X147647720Y-103188769D01*
X147677778Y-103186332D01*
X147867401Y-103168620D01*
X148032135Y-103151582D01*
X148168447Y-103135671D01*
X148272801Y-103121338D01*
X148341664Y-103109036D01*
X148371502Y-103099216D01*
X148372479Y-103097488D01*
X148352900Y-103086525D01*
X148301574Y-103071823D01*
X148229686Y-103056579D01*
X148113763Y-103030947D01*
X148018862Y-103001569D01*
X147951641Y-102971065D01*
X147918762Y-102942051D01*
X147916581Y-102933492D01*
X147933233Y-102900859D01*
X147972755Y-102861405D01*
X148019493Y-102828342D01*
X148057132Y-102814872D01*
X148081135Y-102801397D01*
X148132428Y-102763877D01*
X148205458Y-102706668D01*
X148294673Y-102634126D01*
X148394521Y-102550608D01*
X148401851Y-102544390D01*
X148583003Y-102392948D01*
X148738613Y-102268703D01*
X148873999Y-102168309D01*
X148994478Y-102088423D01*
X149105368Y-102025698D01*
X149211988Y-101976791D01*
X149319654Y-101938354D01*
X149402809Y-101914769D01*
X149526209Y-101889565D01*
X149645320Y-101880646D01*
X149764454Y-101889712D01*
X149887924Y-101918462D01*
X150020043Y-101968597D01*
X150165122Y-102041816D01*
X150327474Y-102139820D01*
X150511412Y-102264308D01*
X150721247Y-102416980D01*
X150770542Y-102453937D01*
X150939019Y-102578014D01*
X151083406Y-102677642D01*
X151211634Y-102757695D01*
X151331634Y-102823047D01*
X151451338Y-102878572D01*
X151483431Y-102892017D01*
X151560594Y-102925678D01*
X151619465Y-102955112D01*
X151650635Y-102975464D01*
X151653262Y-102979626D01*
X151633004Y-103000420D01*
X151574431Y-103024143D01*
X151482413Y-103049242D01*
X151361822Y-103074161D01*
X151350677Y-103076173D01*
X151250247Y-103097301D01*
X151192528Y-103117209D01*
X151177632Y-103135955D01*
X151205670Y-103153601D01*
X151276757Y-103170204D01*
X151391003Y-103185825D01*
X151548521Y-103200524D01*
X151591628Y-103203835D01*
X151783043Y-103214536D01*
X152004110Y-103221065D01*
X152243017Y-103223512D01*
X152487952Y-103221969D01*
X152727103Y-103216527D01*
X152948657Y-103207276D01*
X153140803Y-103194307D01*
X153170256Y-103191687D01*
X153355916Y-103173641D01*
X153502607Y-103157370D01*
X153614707Y-103142149D01*
X153696593Y-103127250D01*
X153752643Y-103111945D01*
X153787236Y-103095509D01*
X153796890Y-103087628D01*
X153816168Y-103051538D01*
X153795185Y-103021114D01*
X153733022Y-102995816D01*
X153628759Y-102975108D01*
X153597181Y-102970737D01*
X153504138Y-102958327D01*
X153443796Y-102946561D01*
X153416759Y-102931178D01*
X153423628Y-102907918D01*
X153465008Y-102872519D01*
X153541501Y-102820720D01*
X153626154Y-102766047D01*
X153794476Y-102640906D01*
X153962706Y-102485411D01*
X154123509Y-102308579D01*
X154269548Y-102119428D01*
X154393489Y-101926976D01*
X154487998Y-101740242D01*
X154514019Y-101674456D01*
X154555439Y-101551047D01*
X154585806Y-101435994D01*
X154606680Y-101318510D01*
X154619625Y-101187805D01*
X154626201Y-101033092D01*
X154627918Y-100887695D01*
X154626346Y-100735578D01*
X154619713Y-100595120D01*
X154606620Y-100460674D01*
X154585671Y-100326594D01*
X154555467Y-100187230D01*
X154514610Y-100036936D01*
X154461701Y-99870065D01*
X154395344Y-99680968D01*
X154314140Y-99463998D01*
X154216691Y-99213507D01*
X154208104Y-99191730D01*
X154130433Y-98990603D01*
X154063922Y-98809550D01*
X154010287Y-98653547D01*
X153971246Y-98527572D01*
X153949751Y-98442756D01*
X153924972Y-98288189D01*
X153912008Y-98129372D01*
X153911059Y-97978538D01*
X153922324Y-97847919D01*
X153938777Y-97771016D01*
X153969177Y-97670003D01*
X153911640Y-97683907D01*
X153831045Y-97705791D01*
X153785287Y-97726840D01*
X153766338Y-97753141D01*
X153766171Y-97790782D01*
X153766637Y-97793882D01*
X153771247Y-97838640D01*
X153776852Y-97915951D01*
X153782746Y-98014984D01*
X153788221Y-98124905D01*
X153788255Y-98125641D01*
X153801918Y-98313675D01*
X153824779Y-98492854D01*
X153855206Y-98654407D01*
X153891567Y-98789566D01*
X153929330Y-98883990D01*
X153958607Y-98947187D01*
X153999247Y-99042948D01*
X154048020Y-99162945D01*
X154101694Y-99298847D01*
X154157039Y-99442328D01*
X154210824Y-99585058D01*
X154259817Y-99718708D01*
X154300788Y-99834950D01*
X154317308Y-99884103D01*
X154415594Y-100228461D01*
X154476656Y-100551691D01*
X154500174Y-100855544D01*
X154485826Y-101141771D01*
X154433292Y-101412123D01*
X154342249Y-101668351D01*
X154212377Y-101912207D01*
X154043354Y-102145441D01*
X153866970Y-102338330D01*
X153642708Y-102533449D01*
X153400800Y-102691055D01*
X153144252Y-102809568D01*
X152876067Y-102887407D01*
X152794712Y-102902443D01*
X152660151Y-102916434D01*
X152497980Y-102921390D01*
X152321988Y-102917926D01*
X152145965Y-102906657D01*
X151983701Y-102888196D01*
X151848985Y-102863159D01*
X151835128Y-102859690D01*
X151633087Y-102791169D01*
X151410484Y-102685036D01*
X151167124Y-102541188D01*
X150902816Y-102359521D01*
X150901624Y-102358651D01*
X150701112Y-102212995D01*
X150530754Y-102091553D01*
X150386223Y-101992149D01*
X150263191Y-101912611D01*
X150157333Y-101850763D01*
X150064321Y-101804431D01*
X149979829Y-101771441D01*
X149899529Y-101749618D01*
X149819096Y-101736789D01*
X149734201Y-101730778D01*
X149649447Y-101729402D01*
X149521818Y-101733854D01*
X149414481Y-101749487D01*
X149305007Y-101779716D01*
X149293126Y-101783657D01*
X149210366Y-101814346D01*
X149128222Y-101851694D01*
X149042025Y-101898843D01*
X148947107Y-101958935D01*
X148838798Y-102035113D01*
X148712432Y-102130521D01*
X148563338Y-102248299D01*
X148386848Y-102391591D01*
X148372479Y-102403371D01*
X148206558Y-102536243D01*
X148057568Y-102649073D01*
X147929578Y-102738939D01*
X147826656Y-102802921D01*
X147786325Y-102824074D01*
X147710342Y-102860439D01*
X147764615Y-102814147D01*
X148007423Y-102607842D01*
X148221279Y-102428287D01*
X148409589Y-102273282D01*
X148575761Y-102140629D01*
X148723201Y-102028128D01*
X148855316Y-101933579D01*
X148975512Y-101854783D01*
X149087198Y-101789541D01*
X149193778Y-101735653D01*
X149298661Y-101690919D01*
X149405253Y-101653140D01*
X149516961Y-101620117D01*
X149637192Y-101589651D01*
X149675043Y-101580770D01*
X149723865Y-101569067D01*
X149738586Y-101563548D01*
X149716405Y-101563540D01*
X149654519Y-101568369D01*
X149631624Y-101570330D01*
X149498546Y-101588173D01*
X149355573Y-101617852D01*
X149219108Y-101655290D01*
X149105555Y-101696409D01*
X149082777Y-101706735D01*
X149005059Y-101752070D01*
X148897252Y-101827918D01*
X148759804Y-101933926D01*
X148593167Y-102069745D01*
X148397790Y-102235023D01*
X148326977Y-102296063D01*
X148168732Y-102430615D01*
X148034383Y-102538947D01*
X147917323Y-102625736D01*
X147810943Y-102695659D01*
X147708635Y-102753395D01*
X147620457Y-102796147D01*
X147536995Y-102831722D01*
X147472749Y-102850593D01*
X147408536Y-102856324D01*
X147325174Y-102852479D01*
X147319573Y-102852055D01*
X147115106Y-102815097D01*
X146915660Y-102735805D01*
X146720906Y-102613962D01*
X146530515Y-102449349D01*
X146344158Y-102241750D01*
X146288734Y-102170719D01*
X146230739Y-102084923D01*
X146161785Y-101968450D01*
X146086779Y-101831038D01*
X146010628Y-101682427D01*
X145938238Y-101532354D01*
X145874517Y-101390560D01*
X145824372Y-101266782D01*
X145803859Y-101208376D01*
X145777157Y-101121778D01*
X145755138Y-101043030D01*
X145739264Y-100978744D01*
X145730998Y-100935529D01*
X145731803Y-100919995D01*
X145743142Y-100938754D01*
X145745234Y-100943516D01*
X145781386Y-101011001D01*
X145841587Y-101100194D01*
X145927853Y-101213846D01*
X146042200Y-101354706D01*
X146079898Y-101399843D01*
X146171321Y-101510443D01*
X146238229Y-101597228D01*
X146285196Y-101668617D01*
X146316796Y-101733028D01*
X146337602Y-101798879D01*
X146352188Y-101874591D01*
X146357477Y-101910759D01*
X146377771Y-102025244D01*
X146405520Y-102110189D01*
X146446679Y-102179446D01*
X146498027Y-102237715D01*
X146616753Y-102327182D01*
X146679926Y-102351193D01*
X146679926Y-101983380D01*
X146687909Y-101937794D01*
X146720947Y-101907038D01*
X146754431Y-101891115D01*
X146852100Y-101866575D01*
X146966644Y-101861396D01*
X147076075Y-101875579D01*
X147124885Y-101891115D01*
X147175528Y-101917929D01*
X147196464Y-101952224D01*
X147200171Y-102000698D01*
X147180814Y-102081256D01*
X147128521Y-102145008D01*
X147051961Y-102187569D01*
X146959804Y-102204554D01*
X146860718Y-102191577D01*
X146837952Y-102183928D01*
X146766221Y-102139671D01*
X146710209Y-102073895D01*
X146681490Y-102001291D01*
X146679926Y-101983380D01*
X146679926Y-102351193D01*
X146761248Y-102382104D01*
X146930483Y-102402100D01*
X146941671Y-102402181D01*
X147089025Y-102389643D01*
X147208746Y-102349193D01*
X147309191Y-102277210D01*
X147361284Y-102220359D01*
X147394827Y-102176085D01*
X147414231Y-102137295D01*
X147422739Y-102090369D01*
X147423593Y-102021686D01*
X147421840Y-101965987D01*
X147419829Y-101877860D01*
X147423331Y-101821056D01*
X147434824Y-101783583D01*
X147456783Y-101753453D01*
X147468190Y-101741631D01*
X147556731Y-101682331D01*
X147667059Y-101653887D01*
X147790040Y-101656672D01*
X147916537Y-101691064D01*
X147960081Y-101711682D01*
X147960081Y-101383330D01*
X147978339Y-101320977D01*
X148026444Y-101249825D01*
X148094791Y-101179198D01*
X148173774Y-101118424D01*
X148253787Y-101076829D01*
X148285625Y-101067269D01*
X148347122Y-101065021D01*
X148392915Y-101077439D01*
X148428785Y-101117704D01*
X148435393Y-101177615D01*
X148416975Y-101249188D01*
X148377763Y-101324442D01*
X148321992Y-101395393D01*
X148253895Y-101454060D01*
X148177706Y-101492459D01*
X148171822Y-101494288D01*
X148096383Y-101501532D01*
X148026643Y-101483300D01*
X147987137Y-101452697D01*
X147964296Y-101407047D01*
X147960081Y-101383330D01*
X147960081Y-101711682D01*
X147979016Y-101720649D01*
X148099665Y-101764142D01*
X148222966Y-101765813D01*
X148344669Y-101726706D01*
X148460524Y-101647866D01*
X148520550Y-101587563D01*
X148603665Y-101464722D01*
X148654233Y-101327584D01*
X148672022Y-101184756D01*
X148656797Y-101044844D01*
X148608327Y-100916455D01*
X148541236Y-100823262D01*
X148511016Y-100787432D01*
X148510037Y-100762523D01*
X148537156Y-100728479D01*
X148593161Y-100679959D01*
X148669203Y-100630933D01*
X148750636Y-100589237D01*
X148822815Y-100562704D01*
X148857183Y-100557298D01*
X148920889Y-100575839D01*
X148984667Y-100623896D01*
X149035681Y-100689529D01*
X149058129Y-100744270D01*
X149099845Y-100830985D01*
X149175079Y-100901240D01*
X149181922Y-100904693D01*
X149181922Y-100482257D01*
X149193846Y-100419001D01*
X149243115Y-100366545D01*
X149262564Y-100355232D01*
X149331917Y-100333034D01*
X149424067Y-100321255D01*
X149525952Y-100319493D01*
X149624511Y-100327347D01*
X149706683Y-100344416D01*
X149759408Y-100370299D01*
X149759632Y-100370502D01*
X149798424Y-100425530D01*
X149797689Y-100488068D01*
X149758872Y-100561319D01*
X149678073Y-100643285D01*
X149580225Y-100693554D01*
X149475237Y-100709260D01*
X149373020Y-100687538D01*
X149353751Y-100678434D01*
X149263522Y-100617814D01*
X149205697Y-100550475D01*
X149181922Y-100482257D01*
X149181922Y-100904693D01*
X149276135Y-100952236D01*
X149395316Y-100981172D01*
X149524926Y-100985248D01*
X149656346Y-100961932D01*
X149804579Y-100899356D01*
X149925528Y-100807961D01*
X150015098Y-100692268D01*
X150069190Y-100556793D01*
X150080450Y-100494190D01*
X150090201Y-100428873D01*
X150103863Y-100396002D01*
X150128307Y-100384707D01*
X150150246Y-100383758D01*
X150224486Y-100391265D01*
X150315882Y-100410084D01*
X150407445Y-100435737D01*
X150482187Y-100463747D01*
X150510019Y-100478568D01*
X150555114Y-100530551D01*
X150562303Y-100600265D01*
X150531574Y-100684244D01*
X150510855Y-100717850D01*
X150466337Y-100819756D01*
X150458608Y-100933069D01*
X150484794Y-101051527D01*
X150542022Y-101168869D01*
X150627417Y-101278834D01*
X150721686Y-101360872D01*
X150721686Y-100936039D01*
X150732125Y-100840426D01*
X150747635Y-100799810D01*
X150796328Y-100737522D01*
X150857704Y-100716106D01*
X150933162Y-100735327D01*
X150978189Y-100761142D01*
X151028880Y-100798141D01*
X151059895Y-100827433D01*
X151064444Y-100836188D01*
X151083165Y-100852963D01*
X151130027Y-100873293D01*
X151150304Y-100879877D01*
X151255897Y-100925574D01*
X151327908Y-100987174D01*
X151363252Y-101060517D01*
X151358842Y-101141447D01*
X151354272Y-101154741D01*
X151317014Y-101196544D01*
X151248674Y-101227412D01*
X151160538Y-101245902D01*
X151063892Y-101250572D01*
X150970022Y-101239981D01*
X150892312Y-101213770D01*
X150829987Y-101172234D01*
X150778881Y-101122453D01*
X150775951Y-101118591D01*
X150736873Y-101035271D01*
X150721686Y-100936039D01*
X150721686Y-101360872D01*
X150738106Y-101375162D01*
X150841044Y-101437251D01*
X150915704Y-101471159D01*
X150982568Y-101490485D01*
X151059910Y-101499108D01*
X151140878Y-101500904D01*
X151240543Y-101498541D01*
X151313780Y-101488545D01*
X151377356Y-101467676D01*
X151421628Y-101446649D01*
X151492431Y-101401378D01*
X151547842Y-101349962D01*
X151563987Y-101327247D01*
X151606880Y-101271223D01*
X151656565Y-101230624D01*
X151694661Y-101213266D01*
X151730168Y-101212874D01*
X151779543Y-101231118D01*
X151811734Y-101246369D01*
X151919081Y-101321423D01*
X152003645Y-101426398D01*
X152059606Y-101551246D01*
X152081141Y-101685919D01*
X152080893Y-101710946D01*
X152098015Y-101803766D01*
X152152425Y-101886759D01*
X152238001Y-101951034D01*
X152250412Y-101957227D01*
X152264365Y-101962280D01*
X152264365Y-101520878D01*
X152272254Y-101445792D01*
X152276391Y-101435951D01*
X152318730Y-101386035D01*
X152393531Y-101338178D01*
X152489924Y-101297175D01*
X152597038Y-101267820D01*
X152684756Y-101255837D01*
X152817973Y-101247051D01*
X152844213Y-101326559D01*
X152857314Y-101431050D01*
X152831841Y-101533635D01*
X152772050Y-101625295D01*
X152682202Y-101697012D01*
X152664982Y-101706204D01*
X152587293Y-101735900D01*
X152518156Y-101737258D01*
X152444415Y-101708417D01*
X152377863Y-101665632D01*
X152299506Y-101594016D01*
X152264365Y-101520878D01*
X152264365Y-101962280D01*
X152306742Y-101977627D01*
X152373870Y-101987190D01*
X152465405Y-101987427D01*
X152505925Y-101985575D01*
X152679048Y-101960595D01*
X152831954Y-101907262D01*
X152871667Y-101882856D01*
X152871667Y-99935934D01*
X152884868Y-99839623D01*
X152886414Y-99834738D01*
X152918650Y-99768269D01*
X152959933Y-99740899D01*
X153012197Y-99752924D01*
X153077373Y-99804637D01*
X153138913Y-99873320D01*
X153185806Y-99935976D01*
X153206862Y-99982505D01*
X153207752Y-100026653D01*
X153206076Y-100036073D01*
X153164329Y-100142283D01*
X153090111Y-100228931D01*
X153054376Y-100254448D01*
X152993062Y-100281136D01*
X152950154Y-100271062D01*
X152919376Y-100221492D01*
X152909432Y-100191302D01*
X152880106Y-100057044D01*
X152871667Y-99935934D01*
X152871667Y-101882856D01*
X152959749Y-101828726D01*
X153057535Y-101728138D01*
X153120419Y-101608648D01*
X153127630Y-101585461D01*
X153146263Y-101446069D01*
X153131768Y-101294468D01*
X153087207Y-101142438D01*
X153015645Y-101001753D01*
X152954565Y-100920214D01*
X152911605Y-100865414D01*
X152894953Y-100822196D01*
X152898335Y-100773447D01*
X152899190Y-100769238D01*
X152920600Y-100697934D01*
X152956218Y-100641037D01*
X153013903Y-100590630D01*
X153101514Y-100538794D01*
X153154387Y-100512114D01*
X153277924Y-100447191D01*
X153365912Y-100386768D01*
X153424222Y-100322333D01*
X153458728Y-100245369D01*
X153475302Y-100147365D01*
X153479683Y-100040484D01*
X153471894Y-99914265D01*
X153441774Y-99809187D01*
X153383455Y-99710771D01*
X153311881Y-99626385D01*
X153180950Y-99517403D01*
X153027377Y-99444726D01*
X152881262Y-99412851D01*
X152803179Y-99399671D01*
X152759213Y-99377559D01*
X152740075Y-99338668D01*
X152736401Y-99290444D01*
X152745092Y-99228549D01*
X152775132Y-99169140D01*
X152831419Y-99106262D01*
X152918852Y-99033964D01*
X152989683Y-98982614D01*
X153107749Y-98895434D01*
X153190920Y-98820559D01*
X153242813Y-98750244D01*
X153267045Y-98676745D01*
X153267232Y-98592315D01*
X153246992Y-98489210D01*
X153237221Y-98452555D01*
X153202203Y-98348240D01*
X153157388Y-98265295D01*
X153095293Y-98195854D01*
X153008440Y-98132052D01*
X152889345Y-98066022D01*
X152851858Y-98047362D01*
X152737041Y-97987003D01*
X152658606Y-97934082D01*
X152611544Y-97882919D01*
X152590844Y-97827838D01*
X152591499Y-97763160D01*
X152592885Y-97753792D01*
X152598797Y-97699177D01*
X152590354Y-97675047D01*
X152564815Y-97669744D01*
X152532746Y-97684818D01*
X152507355Y-97731561D01*
X152488277Y-97812252D01*
X152475144Y-97929172D01*
X152467589Y-98084601D01*
X152465245Y-98280820D01*
X152465253Y-98288462D01*
X152466007Y-98409273D01*
X152468542Y-98516043D01*
X152473813Y-98614971D01*
X152482776Y-98712257D01*
X152496388Y-98814101D01*
X152515605Y-98926702D01*
X152541384Y-99056261D01*
X152574679Y-99208977D01*
X152585295Y-99255251D01*
X152585295Y-98398796D01*
X152593004Y-98312532D01*
X152609884Y-98253010D01*
X152613312Y-98247116D01*
X152650980Y-98210339D01*
X152695584Y-98209066D01*
X152750866Y-98244598D01*
X152820565Y-98318232D01*
X152821576Y-98319437D01*
X152885856Y-98405615D01*
X152917975Y-98477245D01*
X152920834Y-98545387D01*
X152899432Y-98616151D01*
X152848742Y-98710258D01*
X152791674Y-98771214D01*
X152732927Y-98796792D01*
X152677199Y-98784769D01*
X152634576Y-98741607D01*
X152611398Y-98683208D01*
X152595072Y-98597618D01*
X152586177Y-98498319D01*
X152585295Y-98398796D01*
X152585295Y-99255251D01*
X152616449Y-99391050D01*
X152667648Y-99608680D01*
X152671179Y-99623590D01*
X152726674Y-99860953D01*
X152771385Y-100060808D01*
X152805746Y-100227592D01*
X152830189Y-100365742D01*
X152845147Y-100479696D01*
X152851052Y-100573890D01*
X152848337Y-100652762D01*
X152837435Y-100720748D01*
X152818777Y-100782287D01*
X152792798Y-100841814D01*
X152790413Y-100846628D01*
X152711996Y-100970365D01*
X152612152Y-101077238D01*
X152498632Y-101162205D01*
X152379189Y-101220224D01*
X152261575Y-101246252D01*
X152182090Y-101242300D01*
X152105190Y-101220093D01*
X151997605Y-101177818D01*
X151865423Y-101118487D01*
X151714732Y-101045114D01*
X151551621Y-100960714D01*
X151382180Y-100868300D01*
X151212496Y-100770886D01*
X151129573Y-100721311D01*
X150910395Y-100590222D01*
X150721545Y-100481548D01*
X150557876Y-100392672D01*
X150414239Y-100320975D01*
X150285488Y-100263839D01*
X150166475Y-100218646D01*
X150096287Y-100195771D01*
X150009121Y-100170678D01*
X149933353Y-100153811D01*
X149856094Y-100143612D01*
X149764457Y-100138523D01*
X149645552Y-100136987D01*
X149609914Y-100136975D01*
X149466359Y-100140278D01*
X149335119Y-100151343D01*
X149212583Y-100172435D01*
X149095140Y-100205815D01*
X148979178Y-100253745D01*
X148861087Y-100318489D01*
X148737255Y-100402308D01*
X148604072Y-100507466D01*
X148457926Y-100636225D01*
X148295206Y-100790846D01*
X148112301Y-100973594D01*
X147905600Y-101186730D01*
X147862308Y-101231926D01*
X147762860Y-101334805D01*
X147684686Y-101411992D01*
X147619854Y-101469926D01*
X147560435Y-101515045D01*
X147498498Y-101553788D01*
X147426113Y-101592593D01*
X147404752Y-101603412D01*
X147196439Y-101690449D01*
X146998500Y-101736135D01*
X146808543Y-101740620D01*
X146624177Y-101704054D01*
X146508623Y-101659457D01*
X146418269Y-101604290D01*
X146316150Y-101519809D01*
X146210813Y-101415075D01*
X146110807Y-101299149D01*
X146024681Y-101181089D01*
X145970374Y-101088975D01*
X145883958Y-100903067D01*
X145816981Y-100716866D01*
X145767223Y-100520850D01*
X145732463Y-100305494D01*
X145710480Y-100061276D01*
X145704585Y-99949231D01*
X145688967Y-99591026D01*
X145651268Y-99673911D01*
X145629048Y-99731611D01*
X145600924Y-99817160D01*
X145571466Y-99916270D01*
X145557520Y-99966988D01*
X145537136Y-100046042D01*
X145522721Y-100112596D01*
X145513552Y-100176362D01*
X145508907Y-100247050D01*
X145508062Y-100334373D01*
X145508062Y-100334373D01*
G36*
X150072414Y-101648953D02*
X150078642Y-101658065D01*
X150114637Y-101684307D01*
X150182938Y-101729988D01*
X150250585Y-101774281D01*
X150328518Y-101827175D01*
X150430222Y-101899192D01*
X150545224Y-101982758D01*
X150663051Y-102070301D01*
X150727949Y-102119449D01*
X150942670Y-102280443D01*
X151131155Y-102414351D01*
X151298985Y-102523634D01*
X151451739Y-102610751D01*
X151594997Y-102678164D01*
X151734338Y-102728333D01*
X151875343Y-102763718D01*
X152023592Y-102786779D01*
X152184663Y-102799977D01*
X152280171Y-102803906D01*
X152402431Y-102805708D01*
X152521949Y-102804206D01*
X152625435Y-102799765D01*
X152699601Y-102792752D01*
X152702659Y-102792284D01*
X152986498Y-102727805D01*
X153246112Y-102627481D01*
X153482572Y-102490758D01*
X153696944Y-102317080D01*
X153780158Y-102233509D01*
X153984886Y-101987752D01*
X154147377Y-101732425D01*
X154267575Y-101467647D01*
X154345423Y-101193538D01*
X154377834Y-100959043D01*
X154378955Y-100761286D01*
X154355528Y-100529156D01*
X154307836Y-100263894D01*
X154236165Y-99966743D01*
X154140802Y-99638946D01*
X154022029Y-99281743D01*
X153941624Y-99059146D01*
X153922493Y-99001355D01*
X153895951Y-98912777D01*
X153865269Y-98804707D01*
X153833720Y-98688441D01*
X153828428Y-98668376D01*
X153796139Y-98540143D01*
X153773484Y-98433456D01*
X153758318Y-98333174D01*
X153748495Y-98224157D01*
X153741871Y-98091264D01*
X153740238Y-98046007D01*
X153735142Y-97916934D01*
X153729625Y-97825900D01*
X153722995Y-97767525D01*
X153714558Y-97736431D01*
X153703621Y-97727237D01*
X153699285Y-97728116D01*
X153683483Y-97755769D01*
X153673530Y-97820216D01*
X153669492Y-97915216D01*
X153671434Y-98034532D01*
X153679425Y-98171925D01*
X153693004Y-98316454D01*
X153701489Y-98380040D01*
X153713876Y-98447958D01*
X153731599Y-98525214D01*
X153756092Y-98616815D01*
X153788791Y-98727765D01*
X153831128Y-98863071D01*
X153884538Y-99027738D01*
X153950456Y-99226773D01*
X153974228Y-99297949D01*
X154056178Y-99544770D01*
X154124598Y-99755863D01*
X154180668Y-99936351D01*
X154225567Y-100091358D01*
X154260476Y-100226006D01*
X154286573Y-100345420D01*
X154305038Y-100454723D01*
X154317050Y-100559037D01*
X154323790Y-100663487D01*
X154326437Y-100773195D01*
X154326601Y-100828462D01*
X154322095Y-101016789D01*
X154307934Y-101174327D01*
X154281827Y-101313076D01*
X154241483Y-101445037D01*
X154184611Y-101582209D01*
X154181349Y-101589296D01*
X154075407Y-101785035D01*
X153942598Y-101977202D01*
X153790941Y-102156531D01*
X153628456Y-102313756D01*
X153463162Y-102439613D01*
X153424431Y-102463842D01*
X153188281Y-102587989D01*
X152952076Y-102675891D01*
X152705787Y-102730230D01*
X152439385Y-102753684D01*
X152334444Y-102755074D01*
X152177015Y-102750617D01*
X152032950Y-102737166D01*
X151896888Y-102712420D01*
X151763471Y-102674080D01*
X151627338Y-102619844D01*
X151483131Y-102547411D01*
X151325490Y-102454482D01*
X151149056Y-102338754D01*
X150948469Y-102197928D01*
X150821144Y-102105451D01*
X150635766Y-101972965D01*
X150467819Y-101859732D01*
X150321441Y-101768379D01*
X150200771Y-101701529D01*
X150139105Y-101672883D01*
X150093415Y-101654663D01*
X150072414Y-101648953D01*
X150072414Y-101648953D01*
X150072414Y-101648953D01*
G37*
X150072414Y-101648953D02*
X150078642Y-101658065D01*
X150114637Y-101684307D01*
X150182938Y-101729988D01*
X150250585Y-101774281D01*
X150328518Y-101827175D01*
X150430222Y-101899192D01*
X150545224Y-101982758D01*
X150663051Y-102070301D01*
X150727949Y-102119449D01*
X150942670Y-102280443D01*
X151131155Y-102414351D01*
X151298985Y-102523634D01*
X151451739Y-102610751D01*
X151594997Y-102678164D01*
X151734338Y-102728333D01*
X151875343Y-102763718D01*
X152023592Y-102786779D01*
X152184663Y-102799977D01*
X152280171Y-102803906D01*
X152402431Y-102805708D01*
X152521949Y-102804206D01*
X152625435Y-102799765D01*
X152699601Y-102792752D01*
X152702659Y-102792284D01*
X152986498Y-102727805D01*
X153246112Y-102627481D01*
X153482572Y-102490758D01*
X153696944Y-102317080D01*
X153780158Y-102233509D01*
X153984886Y-101987752D01*
X154147377Y-101732425D01*
X154267575Y-101467647D01*
X154345423Y-101193538D01*
X154377834Y-100959043D01*
X154378955Y-100761286D01*
X154355528Y-100529156D01*
X154307836Y-100263894D01*
X154236165Y-99966743D01*
X154140802Y-99638946D01*
X154022029Y-99281743D01*
X153941624Y-99059146D01*
X153922493Y-99001355D01*
X153895951Y-98912777D01*
X153865269Y-98804707D01*
X153833720Y-98688441D01*
X153828428Y-98668376D01*
X153796139Y-98540143D01*
X153773484Y-98433456D01*
X153758318Y-98333174D01*
X153748495Y-98224157D01*
X153741871Y-98091264D01*
X153740238Y-98046007D01*
X153735142Y-97916934D01*
X153729625Y-97825900D01*
X153722995Y-97767525D01*
X153714558Y-97736431D01*
X153703621Y-97727237D01*
X153699285Y-97728116D01*
X153683483Y-97755769D01*
X153673530Y-97820216D01*
X153669492Y-97915216D01*
X153671434Y-98034532D01*
X153679425Y-98171925D01*
X153693004Y-98316454D01*
X153701489Y-98380040D01*
X153713876Y-98447958D01*
X153731599Y-98525214D01*
X153756092Y-98616815D01*
X153788791Y-98727765D01*
X153831128Y-98863071D01*
X153884538Y-99027738D01*
X153950456Y-99226773D01*
X153974228Y-99297949D01*
X154056178Y-99544770D01*
X154124598Y-99755863D01*
X154180668Y-99936351D01*
X154225567Y-100091358D01*
X154260476Y-100226006D01*
X154286573Y-100345420D01*
X154305038Y-100454723D01*
X154317050Y-100559037D01*
X154323790Y-100663487D01*
X154326437Y-100773195D01*
X154326601Y-100828462D01*
X154322095Y-101016789D01*
X154307934Y-101174327D01*
X154281827Y-101313076D01*
X154241483Y-101445037D01*
X154184611Y-101582209D01*
X154181349Y-101589296D01*
X154075407Y-101785035D01*
X153942598Y-101977202D01*
X153790941Y-102156531D01*
X153628456Y-102313756D01*
X153463162Y-102439613D01*
X153424431Y-102463842D01*
X153188281Y-102587989D01*
X152952076Y-102675891D01*
X152705787Y-102730230D01*
X152439385Y-102753684D01*
X152334444Y-102755074D01*
X152177015Y-102750617D01*
X152032950Y-102737166D01*
X151896888Y-102712420D01*
X151763471Y-102674080D01*
X151627338Y-102619844D01*
X151483131Y-102547411D01*
X151325490Y-102454482D01*
X151149056Y-102338754D01*
X150948469Y-102197928D01*
X150821144Y-102105451D01*
X150635766Y-101972965D01*
X150467819Y-101859732D01*
X150321441Y-101768379D01*
X150200771Y-101701529D01*
X150139105Y-101672883D01*
X150093415Y-101654663D01*
X150072414Y-101648953D01*
X150072414Y-101648953D01*
G36*
X150022393Y-101631710D02*
X150033248Y-101642564D01*
X150044103Y-101631710D01*
X150033248Y-101620855D01*
X150022393Y-101631710D01*
X150022393Y-101631710D01*
X150022393Y-101631710D01*
G37*
X150022393Y-101631710D02*
X150033248Y-101642564D01*
X150044103Y-101631710D01*
X150033248Y-101620855D01*
X150022393Y-101631710D01*
X150022393Y-101631710D01*
G36*
X146115904Y-100084644D02*
X146122818Y-100138117D01*
X146133676Y-100153781D01*
X146152836Y-100149221D01*
X146158120Y-100116062D01*
X146172867Y-100027541D01*
X146215414Y-99914183D01*
X146283221Y-99782211D01*
X146319094Y-99721962D01*
X146394596Y-99596659D01*
X146447670Y-99499768D01*
X146481271Y-99424473D01*
X146498355Y-99363961D01*
X146501876Y-99311416D01*
X146501262Y-99301851D01*
X146491741Y-99250067D01*
X146476603Y-99223075D01*
X146472906Y-99221966D01*
X146445944Y-99240480D01*
X146406308Y-99290576D01*
X146358792Y-99364087D01*
X146308191Y-99452847D01*
X146259299Y-99548686D01*
X146216909Y-99643439D01*
X146200027Y-99686828D01*
X146164687Y-99796580D01*
X146138067Y-99905231D01*
X146121397Y-100004134D01*
X146115904Y-100084644D01*
X146115904Y-100084644D01*
X146115904Y-100084644D01*
G37*
X146115904Y-100084644D02*
X146122818Y-100138117D01*
X146133676Y-100153781D01*
X146152836Y-100149221D01*
X146158120Y-100116062D01*
X146172867Y-100027541D01*
X146215414Y-99914183D01*
X146283221Y-99782211D01*
X146319094Y-99721962D01*
X146394596Y-99596659D01*
X146447670Y-99499768D01*
X146481271Y-99424473D01*
X146498355Y-99363961D01*
X146501876Y-99311416D01*
X146501262Y-99301851D01*
X146491741Y-99250067D01*
X146476603Y-99223075D01*
X146472906Y-99221966D01*
X146445944Y-99240480D01*
X146406308Y-99290576D01*
X146358792Y-99364087D01*
X146308191Y-99452847D01*
X146259299Y-99548686D01*
X146216909Y-99643439D01*
X146200027Y-99686828D01*
X146164687Y-99796580D01*
X146138067Y-99905231D01*
X146121397Y-100004134D01*
X146115904Y-100084644D01*
X146115904Y-100084644D01*
G36*
X144952609Y-99237214D02*
X144953780Y-99262026D01*
X144972879Y-99288117D01*
X145012956Y-99335038D01*
X145044006Y-99390213D01*
X145068248Y-99461252D01*
X145087900Y-99555766D01*
X145105179Y-99681363D01*
X145115652Y-99777973D01*
X145128807Y-99896095D01*
X145141136Y-99976996D01*
X145154194Y-100026811D01*
X145169533Y-100051671D01*
X145186530Y-100057778D01*
X145197356Y-100036670D01*
X145201047Y-99974606D01*
X145197497Y-99873477D01*
X145197151Y-99867821D01*
X145165073Y-99644883D01*
X145125480Y-99510971D01*
X145085773Y-99412367D01*
X145044233Y-99329396D01*
X145005020Y-99268647D01*
X144972296Y-99236710D01*
X144952609Y-99237214D01*
X144952609Y-99237214D01*
X144952609Y-99237214D01*
G37*
X144952609Y-99237214D02*
X144953780Y-99262026D01*
X144972879Y-99288117D01*
X145012956Y-99335038D01*
X145044006Y-99390213D01*
X145068248Y-99461252D01*
X145087900Y-99555766D01*
X145105179Y-99681363D01*
X145115652Y-99777973D01*
X145128807Y-99896095D01*
X145141136Y-99976996D01*
X145154194Y-100026811D01*
X145169533Y-100051671D01*
X145186530Y-100057778D01*
X145197356Y-100036670D01*
X145201047Y-99974606D01*
X145197497Y-99873477D01*
X145197151Y-99867821D01*
X145165073Y-99644883D01*
X145125480Y-99510971D01*
X145085773Y-99412367D01*
X145044233Y-99329396D01*
X145005020Y-99268647D01*
X144972296Y-99236710D01*
X144952609Y-99237214D01*
X144952609Y-99237214D01*
G36*
X151246496Y-95187848D02*
X151249464Y-95195664D01*
X151277599Y-95209048D01*
X151331344Y-95216207D01*
X151347640Y-95216582D01*
X151405496Y-95221656D01*
X151444926Y-95243968D01*
X151484080Y-95294148D01*
X151486628Y-95297992D01*
X151530829Y-95383164D01*
X151567167Y-95494947D01*
X151596801Y-95638235D01*
X151620889Y-95817925D01*
X151629170Y-95900428D01*
X151647814Y-96061283D01*
X151672895Y-96218990D01*
X151702422Y-96364045D01*
X151734408Y-96486947D01*
X151762229Y-96565159D01*
X151762229Y-95988158D01*
X151764710Y-95785913D01*
X151785491Y-95586625D01*
X151824263Y-95400730D01*
X151880722Y-95238661D01*
X151906453Y-95186043D01*
X151961875Y-95104122D01*
X152027629Y-95038278D01*
X152094459Y-94995813D01*
X152153103Y-94984035D01*
X152160768Y-94985402D01*
X152204514Y-94996851D01*
X152273272Y-95015618D01*
X152334444Y-95032672D01*
X152422938Y-95052106D01*
X152520892Y-95061290D01*
X152642752Y-95061333D01*
X152686642Y-95059707D01*
X152793627Y-95053717D01*
X152872178Y-95044382D01*
X152937278Y-95028237D01*
X153003910Y-95001819D01*
X153066556Y-94971867D01*
X153156690Y-94921362D01*
X153244272Y-94862543D01*
X153311085Y-94807703D01*
X153313769Y-94805072D01*
X153345847Y-94773231D01*
X153345847Y-93858643D01*
X153357643Y-93804822D01*
X153402499Y-93739198D01*
X153402619Y-93739056D01*
X153494239Y-93662258D01*
X153608241Y-93619123D01*
X153739908Y-93609388D01*
X153884526Y-93632791D01*
X154037377Y-93689069D01*
X154193747Y-93777960D01*
X154201978Y-93783532D01*
X154281442Y-93844856D01*
X154372693Y-93926413D01*
X154467608Y-94019684D01*
X154558067Y-94116152D01*
X154635947Y-94207298D01*
X154693128Y-94284604D01*
X154714004Y-94320557D01*
X154757346Y-94444612D01*
X154773306Y-94572849D01*
X154760172Y-94689294D01*
X154755263Y-94705742D01*
X154711331Y-94794348D01*
X154644554Y-94879630D01*
X154568125Y-94946325D01*
X154527498Y-94969234D01*
X154423495Y-94995126D01*
X154296847Y-94996108D01*
X154159969Y-94972883D01*
X154066199Y-94943167D01*
X153960490Y-94902102D01*
X153888906Y-94871507D01*
X153844907Y-94846634D01*
X153821956Y-94822733D01*
X153813511Y-94795057D01*
X153813021Y-94759317D01*
X153829621Y-94689180D01*
X153873913Y-94595325D01*
X153909113Y-94535927D01*
X153964887Y-94438978D01*
X153997101Y-94358744D01*
X154011711Y-94280101D01*
X154012250Y-94274011D01*
X154015280Y-94203800D01*
X154005789Y-94157989D01*
X153977943Y-94118076D01*
X153955802Y-94095040D01*
X153920139Y-94063639D01*
X153880158Y-94041023D01*
X153825306Y-94023505D01*
X153745029Y-94007398D01*
X153670538Y-93995370D01*
X153529459Y-93969024D01*
X153429693Y-93938771D01*
X153369177Y-93902635D01*
X153345847Y-93858643D01*
X153345847Y-94773231D01*
X153387350Y-94732035D01*
X153387350Y-94210459D01*
X153402563Y-94151516D01*
X153430769Y-94109402D01*
X153493896Y-94073837D01*
X153571322Y-94070280D01*
X153655096Y-94093453D01*
X153737267Y-94138080D01*
X153809883Y-94198883D01*
X153864994Y-94270586D01*
X153894649Y-94347910D01*
X153893371Y-94416431D01*
X153870375Y-94462925D01*
X153826235Y-94520416D01*
X153771591Y-94577996D01*
X153717085Y-94624756D01*
X153673356Y-94649788D01*
X153664145Y-94651427D01*
X153631877Y-94647344D01*
X153626154Y-94642247D01*
X153637251Y-94619919D01*
X153665237Y-94575161D01*
X153680427Y-94552379D01*
X153726685Y-94455467D01*
X153729926Y-94364396D01*
X153690149Y-94279098D01*
X153672970Y-94258092D01*
X153602632Y-94204500D01*
X153526512Y-94188465D01*
X153453991Y-94211131D01*
X153431049Y-94228550D01*
X153399464Y-94254237D01*
X153388572Y-94245708D01*
X153387350Y-94210459D01*
X153387350Y-94732035D01*
X153403008Y-94716493D01*
X153641879Y-94876088D01*
X153748790Y-94943705D01*
X153860657Y-95008080D01*
X153963834Y-95061705D01*
X154041102Y-95095751D01*
X154211851Y-95144903D01*
X154386790Y-95168631D01*
X154552737Y-95165944D01*
X154673051Y-95143279D01*
X154755655Y-95125825D01*
X154826996Y-95127616D01*
X154890179Y-95152032D01*
X154948307Y-95202451D01*
X155004485Y-95282253D01*
X155061816Y-95394817D01*
X155123405Y-95543520D01*
X155178979Y-95693999D01*
X155214706Y-95796463D01*
X155237421Y-95872109D01*
X155249350Y-95934773D01*
X155252724Y-95998291D01*
X155249770Y-96076500D01*
X155247160Y-96117332D01*
X155217652Y-96371180D01*
X155163414Y-96592020D01*
X155081404Y-96784455D01*
X154968583Y-96953090D01*
X154821911Y-97102528D01*
X154638349Y-97237373D01*
X154430258Y-97354527D01*
X154174832Y-97459929D01*
X153900050Y-97530656D01*
X153613987Y-97565684D01*
X153324718Y-97563992D01*
X153057843Y-97528157D01*
X152834625Y-97466261D01*
X152632410Y-97372703D01*
X152444280Y-97243546D01*
X152265738Y-97077408D01*
X152069399Y-96841804D01*
X151908036Y-96586716D01*
X151867639Y-96508291D01*
X151813386Y-96359782D01*
X151778352Y-96182926D01*
X151762229Y-95988158D01*
X151762229Y-96565159D01*
X151766865Y-96578192D01*
X151774280Y-96593886D01*
X151800197Y-96637803D01*
X151845182Y-96706946D01*
X151902689Y-96791481D01*
X151960224Y-96873268D01*
X152048795Y-97002110D01*
X152111305Y-97109355D01*
X152150369Y-97206012D01*
X152168601Y-97303088D01*
X152168616Y-97411591D01*
X152153026Y-97542528D01*
X152139060Y-97626325D01*
X152116422Y-97780054D01*
X152107436Y-97902240D01*
X152111209Y-97991259D01*
X152126847Y-98045489D01*
X152153455Y-98063305D01*
X152190141Y-98043085D01*
X152236010Y-97983205D01*
X152263922Y-97931669D01*
X152263922Y-97636671D01*
X152264449Y-97569261D01*
X152265708Y-97557494D01*
X152280919Y-97487919D01*
X152306744Y-97421496D01*
X152337594Y-97367987D01*
X152367882Y-97337152D01*
X152391342Y-97338043D01*
X152395765Y-97367372D01*
X152389011Y-97424660D01*
X152373978Y-97496792D01*
X152353564Y-97570652D01*
X152330668Y-97633126D01*
X152322314Y-97650419D01*
X152295966Y-97682358D01*
X152275465Y-97676073D01*
X152263922Y-97636671D01*
X152263922Y-97931669D01*
X152285374Y-97892062D01*
X152329242Y-97806054D01*
X152373072Y-97728052D01*
X152408887Y-97672070D01*
X152415631Y-97663186D01*
X152442790Y-97631770D01*
X152468560Y-97615197D01*
X152505300Y-97611075D01*
X152565367Y-97617008D01*
X152616667Y-97624245D01*
X152870057Y-97656250D01*
X153112842Y-97678215D01*
X153338383Y-97689899D01*
X153540044Y-97691061D01*
X153711185Y-97681460D01*
X153812124Y-97667685D01*
X153910072Y-97644213D01*
X154014707Y-97611172D01*
X154062220Y-97592920D01*
X154215351Y-97540723D01*
X154343079Y-97523621D01*
X154445550Y-97541602D01*
X154479192Y-97558426D01*
X154538299Y-97604121D01*
X154538299Y-97475131D01*
X154594080Y-97438582D01*
X154663402Y-97415498D01*
X154732735Y-97434031D01*
X154797462Y-97492624D01*
X154811317Y-97511759D01*
X154845470Y-97571869D01*
X154887279Y-97659130D01*
X154931994Y-97761882D01*
X154974862Y-97868466D01*
X155011133Y-97967224D01*
X155036054Y-98046496D01*
X155044013Y-98082738D01*
X155055666Y-98131208D01*
X155080062Y-98209926D01*
X155113863Y-98308807D01*
X155153733Y-98417768D01*
X155162548Y-98440943D01*
X155203346Y-98549539D01*
X155239208Y-98648860D01*
X155266748Y-98729249D01*
X155282578Y-98781049D01*
X155284181Y-98787778D01*
X155297916Y-98852906D01*
X155262127Y-98787778D01*
X155218569Y-98725399D01*
X155176503Y-98702777D01*
X155133667Y-98720706D01*
X155087799Y-98779978D01*
X155044461Y-98864066D01*
X155004089Y-98944983D01*
X154975672Y-98984930D01*
X154958385Y-98984435D01*
X154951402Y-98944023D01*
X154951201Y-98923462D01*
X154956826Y-98863184D01*
X154970514Y-98782029D01*
X154983426Y-98722650D01*
X155010229Y-98520836D01*
X154996276Y-98312915D01*
X154942886Y-98103486D01*
X154851382Y-97897146D01*
X154723085Y-97698496D01*
X154670155Y-97632138D01*
X154538299Y-97475131D01*
X154538299Y-97604121D01*
X154569267Y-97628063D01*
X154662643Y-97723151D01*
X154746347Y-97828885D01*
X154807409Y-97930462D01*
X154810002Y-97935957D01*
X154849954Y-98032221D01*
X154877849Y-98127233D01*
X154894905Y-98230512D01*
X154902344Y-98351580D01*
X154901386Y-98499957D01*
X154896907Y-98614103D01*
X154889635Y-98771233D01*
X154884953Y-98891538D01*
X154883113Y-98981552D01*
X154884366Y-99047805D01*
X154888963Y-99096829D01*
X154897157Y-99135156D01*
X154909199Y-99169318D01*
X154919168Y-99192295D01*
X154955776Y-99249707D01*
X154995305Y-99275595D01*
X155029912Y-99266887D01*
X155045797Y-99241900D01*
X155053719Y-99200315D01*
X155058418Y-99135199D01*
X155058974Y-99104028D01*
X155065379Y-99013672D01*
X155082469Y-98936860D01*
X155107056Y-98883565D01*
X155135767Y-98863761D01*
X155156460Y-98883964D01*
X155183698Y-98940572D01*
X155214709Y-99027581D01*
X155221615Y-99049722D01*
X155253368Y-99143789D01*
X155280595Y-99204411D01*
X155301358Y-99227431D01*
X155304339Y-99227236D01*
X155324522Y-99201622D01*
X155346978Y-99143900D01*
X155368941Y-99065087D01*
X155387643Y-98976199D01*
X155400317Y-98888254D01*
X155404198Y-98829710D01*
X155389633Y-98677822D01*
X155343021Y-98535548D01*
X155271265Y-98419547D01*
X155202825Y-98303936D01*
X155175416Y-98213308D01*
X155149088Y-98113258D01*
X155103837Y-97976537D01*
X155040390Y-97805191D01*
X154959470Y-97601269D01*
X154954195Y-97588334D01*
X154930214Y-97526848D01*
X154916243Y-97485466D01*
X154914763Y-97474359D01*
X154931043Y-97489726D01*
X154933381Y-97492305D01*
X154933381Y-97254846D01*
X154933452Y-97199262D01*
X154952456Y-97165189D01*
X154971446Y-97159573D01*
X155004665Y-97178663D01*
X155040775Y-97227507D01*
X155073288Y-97293464D01*
X155095716Y-97363894D01*
X155102036Y-97413977D01*
X155096616Y-97467315D01*
X155078433Y-97482974D01*
X155045553Y-97460497D01*
X154996046Y-97399431D01*
X154987040Y-97386878D01*
X154951494Y-97321024D01*
X154933381Y-97254846D01*
X154933381Y-97492305D01*
X154968098Y-97530607D01*
X155018893Y-97589169D01*
X155036428Y-97609806D01*
X155114699Y-97699602D01*
X155175353Y-97761280D01*
X155219152Y-97793096D01*
X155246860Y-97793303D01*
X155259239Y-97760156D01*
X155257054Y-97691910D01*
X155241067Y-97586819D01*
X155212041Y-97443137D01*
X155177293Y-97287636D01*
X155148255Y-97151971D01*
X155132176Y-97048038D01*
X155129236Y-96966072D01*
X155139613Y-96896307D01*
X155163486Y-96828981D01*
X155186579Y-96781416D01*
X155233465Y-96679786D01*
X155269256Y-96572849D01*
X155295608Y-96452106D01*
X155314178Y-96309058D01*
X155326620Y-96135207D01*
X155330788Y-96041337D01*
X155340991Y-95833645D01*
X155354637Y-95664505D01*
X155372331Y-95529144D01*
X155394677Y-95422790D01*
X155418338Y-95350231D01*
X155443879Y-95298110D01*
X155475228Y-95275704D01*
X155529686Y-95270856D01*
X155531322Y-95270855D01*
X155585872Y-95266655D01*
X155608963Y-95249959D01*
X155612564Y-95227436D01*
X155594342Y-95191578D01*
X155546160Y-95144770D01*
X155477743Y-95093676D01*
X155398814Y-95044961D01*
X155319100Y-95005289D01*
X155256147Y-94983181D01*
X155187543Y-94973274D01*
X155153851Y-94987996D01*
X155154581Y-95028353D01*
X155189238Y-95095352D01*
X155196062Y-95105848D01*
X155235942Y-95179144D01*
X155261807Y-95252407D01*
X155270922Y-95314127D01*
X155260550Y-95352789D01*
X155255708Y-95356859D01*
X155223993Y-95352607D01*
X155179255Y-95314466D01*
X155126195Y-95248186D01*
X155069515Y-95159513D01*
X155022346Y-95071527D01*
X154983561Y-94988411D01*
X154958163Y-94917844D01*
X154942211Y-94843976D01*
X154931766Y-94750957D01*
X154927108Y-94688365D01*
X154905075Y-94497103D01*
X154863953Y-94334184D01*
X154798652Y-94188516D01*
X154704087Y-94049006D01*
X154575168Y-93904564D01*
X154561025Y-93890259D01*
X154458866Y-93794011D01*
X154364476Y-93721282D01*
X154261065Y-93659785D01*
X154212308Y-93635036D01*
X154052137Y-93564252D01*
X153908078Y-93515781D01*
X153785411Y-93490919D01*
X153689417Y-93490966D01*
X153658020Y-93498835D01*
X153554676Y-93529620D01*
X153445653Y-93547315D01*
X153321389Y-93552420D01*
X153172325Y-93545434D01*
X153030026Y-93531614D01*
X152841390Y-93513562D01*
X152685991Y-93506652D01*
X152554928Y-93511548D01*
X152439302Y-93528912D01*
X152330214Y-93559409D01*
X152251173Y-93589681D01*
X152083433Y-93676268D01*
X151953006Y-93780594D01*
X151856337Y-93905730D01*
X151830907Y-93952792D01*
X151802872Y-94014084D01*
X151785005Y-94068647D01*
X151775066Y-94129426D01*
X151770815Y-94209368D01*
X151770000Y-94304787D01*
X151771198Y-94412802D01*
X151776296Y-94490728D01*
X151787552Y-94551860D01*
X151807224Y-94609496D01*
X151830715Y-94662403D01*
X151866882Y-94735016D01*
X151899046Y-94792190D01*
X151899046Y-94332211D01*
X151902574Y-94198538D01*
X151926277Y-94075270D01*
X151946477Y-94021048D01*
X152028930Y-93892568D01*
X152146228Y-93788152D01*
X152296497Y-93708690D01*
X152477866Y-93655072D01*
X152688460Y-93628188D01*
X152779487Y-93625129D01*
X152936985Y-93635975D01*
X153059345Y-93671717D01*
X153146359Y-93732212D01*
X153197821Y-93817322D01*
X153213594Y-93918944D01*
X153202567Y-93984424D01*
X153165425Y-94030000D01*
X153096311Y-94060165D01*
X153007436Y-94077130D01*
X152871166Y-94100363D01*
X152772812Y-94130862D01*
X152706977Y-94172882D01*
X152668264Y-94230681D01*
X152651273Y-94308515D01*
X152649231Y-94359600D01*
X152652437Y-94425281D01*
X152666144Y-94478282D01*
X152696482Y-94534275D01*
X152736068Y-94590247D01*
X152736068Y-94432121D01*
X152744991Y-94397393D01*
X152767453Y-94341494D01*
X152779026Y-94316594D01*
X152838677Y-94230839D01*
X152915399Y-94174155D01*
X153000404Y-94148786D01*
X153084906Y-94156975D01*
X153160118Y-94200966D01*
X153174491Y-94215611D01*
X153217182Y-94274147D01*
X153245857Y-94332781D01*
X153248699Y-94342611D01*
X153268685Y-94399357D01*
X153289274Y-94435043D01*
X153329073Y-94510924D01*
X153326906Y-94583220D01*
X153284164Y-94645987D01*
X153231879Y-94680564D01*
X153124146Y-94713819D01*
X153017140Y-94705285D01*
X152906243Y-94654579D01*
X152904337Y-94653375D01*
X152827747Y-94592404D01*
X152769650Y-94522340D01*
X152738814Y-94454717D01*
X152736068Y-94432121D01*
X152736068Y-94590247D01*
X152743604Y-94600903D01*
X152797521Y-94670620D01*
X152848200Y-94731165D01*
X152884681Y-94769445D01*
X152884715Y-94769476D01*
X152921955Y-94817935D01*
X152928731Y-94863219D01*
X152904257Y-94893777D01*
X152893461Y-94897685D01*
X152832781Y-94906002D01*
X152742709Y-94909459D01*
X152636972Y-94908279D01*
X152529300Y-94902685D01*
X152433420Y-94892901D01*
X152413233Y-94889880D01*
X152259380Y-94851894D01*
X152137129Y-94790176D01*
X152038680Y-94699240D01*
X151956235Y-94573601D01*
X151951867Y-94565300D01*
X151915531Y-94459921D01*
X151899046Y-94332211D01*
X151899046Y-94792190D01*
X151900544Y-94794853D01*
X151921792Y-94825621D01*
X151932357Y-94844294D01*
X151932375Y-94871650D01*
X151919609Y-94914723D01*
X151891820Y-94980546D01*
X151846771Y-95076153D01*
X151833043Y-95104514D01*
X151781498Y-95205895D01*
X151737774Y-95282504D01*
X151705074Y-95329128D01*
X151687692Y-95341134D01*
X151668464Y-95316284D01*
X151649918Y-95263391D01*
X151643159Y-95232920D01*
X151634651Y-95165269D01*
X151642991Y-95117860D01*
X151672171Y-95069461D01*
X151674489Y-95066309D01*
X151705298Y-95016257D01*
X151706708Y-94984641D01*
X151698907Y-94973984D01*
X151661211Y-94962229D01*
X151600298Y-94970265D01*
X151525084Y-94993694D01*
X151444482Y-95028120D01*
X151367407Y-95069145D01*
X151302775Y-95112373D01*
X151259500Y-95153406D01*
X151246496Y-95187848D01*
X151246496Y-95187848D01*
X151246496Y-95187848D01*
G37*
X151246496Y-95187848D02*
X151249464Y-95195664D01*
X151277599Y-95209048D01*
X151331344Y-95216207D01*
X151347640Y-95216582D01*
X151405496Y-95221656D01*
X151444926Y-95243968D01*
X151484080Y-95294148D01*
X151486628Y-95297992D01*
X151530829Y-95383164D01*
X151567167Y-95494947D01*
X151596801Y-95638235D01*
X151620889Y-95817925D01*
X151629170Y-95900428D01*
X151647814Y-96061283D01*
X151672895Y-96218990D01*
X151702422Y-96364045D01*
X151734408Y-96486947D01*
X151762229Y-96565159D01*
X151762229Y-95988158D01*
X151764710Y-95785913D01*
X151785491Y-95586625D01*
X151824263Y-95400730D01*
X151880722Y-95238661D01*
X151906453Y-95186043D01*
X151961875Y-95104122D01*
X152027629Y-95038278D01*
X152094459Y-94995813D01*
X152153103Y-94984035D01*
X152160768Y-94985402D01*
X152204514Y-94996851D01*
X152273272Y-95015618D01*
X152334444Y-95032672D01*
X152422938Y-95052106D01*
X152520892Y-95061290D01*
X152642752Y-95061333D01*
X152686642Y-95059707D01*
X152793627Y-95053717D01*
X152872178Y-95044382D01*
X152937278Y-95028237D01*
X153003910Y-95001819D01*
X153066556Y-94971867D01*
X153156690Y-94921362D01*
X153244272Y-94862543D01*
X153311085Y-94807703D01*
X153313769Y-94805072D01*
X153345847Y-94773231D01*
X153345847Y-93858643D01*
X153357643Y-93804822D01*
X153402499Y-93739198D01*
X153402619Y-93739056D01*
X153494239Y-93662258D01*
X153608241Y-93619123D01*
X153739908Y-93609388D01*
X153884526Y-93632791D01*
X154037377Y-93689069D01*
X154193747Y-93777960D01*
X154201978Y-93783532D01*
X154281442Y-93844856D01*
X154372693Y-93926413D01*
X154467608Y-94019684D01*
X154558067Y-94116152D01*
X154635947Y-94207298D01*
X154693128Y-94284604D01*
X154714004Y-94320557D01*
X154757346Y-94444612D01*
X154773306Y-94572849D01*
X154760172Y-94689294D01*
X154755263Y-94705742D01*
X154711331Y-94794348D01*
X154644554Y-94879630D01*
X154568125Y-94946325D01*
X154527498Y-94969234D01*
X154423495Y-94995126D01*
X154296847Y-94996108D01*
X154159969Y-94972883D01*
X154066199Y-94943167D01*
X153960490Y-94902102D01*
X153888906Y-94871507D01*
X153844907Y-94846634D01*
X153821956Y-94822733D01*
X153813511Y-94795057D01*
X153813021Y-94759317D01*
X153829621Y-94689180D01*
X153873913Y-94595325D01*
X153909113Y-94535927D01*
X153964887Y-94438978D01*
X153997101Y-94358744D01*
X154011711Y-94280101D01*
X154012250Y-94274011D01*
X154015280Y-94203800D01*
X154005789Y-94157989D01*
X153977943Y-94118076D01*
X153955802Y-94095040D01*
X153920139Y-94063639D01*
X153880158Y-94041023D01*
X153825306Y-94023505D01*
X153745029Y-94007398D01*
X153670538Y-93995370D01*
X153529459Y-93969024D01*
X153429693Y-93938771D01*
X153369177Y-93902635D01*
X153345847Y-93858643D01*
X153345847Y-94773231D01*
X153387350Y-94732035D01*
X153387350Y-94210459D01*
X153402563Y-94151516D01*
X153430769Y-94109402D01*
X153493896Y-94073837D01*
X153571322Y-94070280D01*
X153655096Y-94093453D01*
X153737267Y-94138080D01*
X153809883Y-94198883D01*
X153864994Y-94270586D01*
X153894649Y-94347910D01*
X153893371Y-94416431D01*
X153870375Y-94462925D01*
X153826235Y-94520416D01*
X153771591Y-94577996D01*
X153717085Y-94624756D01*
X153673356Y-94649788D01*
X153664145Y-94651427D01*
X153631877Y-94647344D01*
X153626154Y-94642247D01*
X153637251Y-94619919D01*
X153665237Y-94575161D01*
X153680427Y-94552379D01*
X153726685Y-94455467D01*
X153729926Y-94364396D01*
X153690149Y-94279098D01*
X153672970Y-94258092D01*
X153602632Y-94204500D01*
X153526512Y-94188465D01*
X153453991Y-94211131D01*
X153431049Y-94228550D01*
X153399464Y-94254237D01*
X153388572Y-94245708D01*
X153387350Y-94210459D01*
X153387350Y-94732035D01*
X153403008Y-94716493D01*
X153641879Y-94876088D01*
X153748790Y-94943705D01*
X153860657Y-95008080D01*
X153963834Y-95061705D01*
X154041102Y-95095751D01*
X154211851Y-95144903D01*
X154386790Y-95168631D01*
X154552737Y-95165944D01*
X154673051Y-95143279D01*
X154755655Y-95125825D01*
X154826996Y-95127616D01*
X154890179Y-95152032D01*
X154948307Y-95202451D01*
X155004485Y-95282253D01*
X155061816Y-95394817D01*
X155123405Y-95543520D01*
X155178979Y-95693999D01*
X155214706Y-95796463D01*
X155237421Y-95872109D01*
X155249350Y-95934773D01*
X155252724Y-95998291D01*
X155249770Y-96076500D01*
X155247160Y-96117332D01*
X155217652Y-96371180D01*
X155163414Y-96592020D01*
X155081404Y-96784455D01*
X154968583Y-96953090D01*
X154821911Y-97102528D01*
X154638349Y-97237373D01*
X154430258Y-97354527D01*
X154174832Y-97459929D01*
X153900050Y-97530656D01*
X153613987Y-97565684D01*
X153324718Y-97563992D01*
X153057843Y-97528157D01*
X152834625Y-97466261D01*
X152632410Y-97372703D01*
X152444280Y-97243546D01*
X152265738Y-97077408D01*
X152069399Y-96841804D01*
X151908036Y-96586716D01*
X151867639Y-96508291D01*
X151813386Y-96359782D01*
X151778352Y-96182926D01*
X151762229Y-95988158D01*
X151762229Y-96565159D01*
X151766865Y-96578192D01*
X151774280Y-96593886D01*
X151800197Y-96637803D01*
X151845182Y-96706946D01*
X151902689Y-96791481D01*
X151960224Y-96873268D01*
X152048795Y-97002110D01*
X152111305Y-97109355D01*
X152150369Y-97206012D01*
X152168601Y-97303088D01*
X152168616Y-97411591D01*
X152153026Y-97542528D01*
X152139060Y-97626325D01*
X152116422Y-97780054D01*
X152107436Y-97902240D01*
X152111209Y-97991259D01*
X152126847Y-98045489D01*
X152153455Y-98063305D01*
X152190141Y-98043085D01*
X152236010Y-97983205D01*
X152263922Y-97931669D01*
X152263922Y-97636671D01*
X152264449Y-97569261D01*
X152265708Y-97557494D01*
X152280919Y-97487919D01*
X152306744Y-97421496D01*
X152337594Y-97367987D01*
X152367882Y-97337152D01*
X152391342Y-97338043D01*
X152395765Y-97367372D01*
X152389011Y-97424660D01*
X152373978Y-97496792D01*
X152353564Y-97570652D01*
X152330668Y-97633126D01*
X152322314Y-97650419D01*
X152295966Y-97682358D01*
X152275465Y-97676073D01*
X152263922Y-97636671D01*
X152263922Y-97931669D01*
X152285374Y-97892062D01*
X152329242Y-97806054D01*
X152373072Y-97728052D01*
X152408887Y-97672070D01*
X152415631Y-97663186D01*
X152442790Y-97631770D01*
X152468560Y-97615197D01*
X152505300Y-97611075D01*
X152565367Y-97617008D01*
X152616667Y-97624245D01*
X152870057Y-97656250D01*
X153112842Y-97678215D01*
X153338383Y-97689899D01*
X153540044Y-97691061D01*
X153711185Y-97681460D01*
X153812124Y-97667685D01*
X153910072Y-97644213D01*
X154014707Y-97611172D01*
X154062220Y-97592920D01*
X154215351Y-97540723D01*
X154343079Y-97523621D01*
X154445550Y-97541602D01*
X154479192Y-97558426D01*
X154538299Y-97604121D01*
X154538299Y-97475131D01*
X154594080Y-97438582D01*
X154663402Y-97415498D01*
X154732735Y-97434031D01*
X154797462Y-97492624D01*
X154811317Y-97511759D01*
X154845470Y-97571869D01*
X154887279Y-97659130D01*
X154931994Y-97761882D01*
X154974862Y-97868466D01*
X155011133Y-97967224D01*
X155036054Y-98046496D01*
X155044013Y-98082738D01*
X155055666Y-98131208D01*
X155080062Y-98209926D01*
X155113863Y-98308807D01*
X155153733Y-98417768D01*
X155162548Y-98440943D01*
X155203346Y-98549539D01*
X155239208Y-98648860D01*
X155266748Y-98729249D01*
X155282578Y-98781049D01*
X155284181Y-98787778D01*
X155297916Y-98852906D01*
X155262127Y-98787778D01*
X155218569Y-98725399D01*
X155176503Y-98702777D01*
X155133667Y-98720706D01*
X155087799Y-98779978D01*
X155044461Y-98864066D01*
X155004089Y-98944983D01*
X154975672Y-98984930D01*
X154958385Y-98984435D01*
X154951402Y-98944023D01*
X154951201Y-98923462D01*
X154956826Y-98863184D01*
X154970514Y-98782029D01*
X154983426Y-98722650D01*
X155010229Y-98520836D01*
X154996276Y-98312915D01*
X154942886Y-98103486D01*
X154851382Y-97897146D01*
X154723085Y-97698496D01*
X154670155Y-97632138D01*
X154538299Y-97475131D01*
X154538299Y-97604121D01*
X154569267Y-97628063D01*
X154662643Y-97723151D01*
X154746347Y-97828885D01*
X154807409Y-97930462D01*
X154810002Y-97935957D01*
X154849954Y-98032221D01*
X154877849Y-98127233D01*
X154894905Y-98230512D01*
X154902344Y-98351580D01*
X154901386Y-98499957D01*
X154896907Y-98614103D01*
X154889635Y-98771233D01*
X154884953Y-98891538D01*
X154883113Y-98981552D01*
X154884366Y-99047805D01*
X154888963Y-99096829D01*
X154897157Y-99135156D01*
X154909199Y-99169318D01*
X154919168Y-99192295D01*
X154955776Y-99249707D01*
X154995305Y-99275595D01*
X155029912Y-99266887D01*
X155045797Y-99241900D01*
X155053719Y-99200315D01*
X155058418Y-99135199D01*
X155058974Y-99104028D01*
X155065379Y-99013672D01*
X155082469Y-98936860D01*
X155107056Y-98883565D01*
X155135767Y-98863761D01*
X155156460Y-98883964D01*
X155183698Y-98940572D01*
X155214709Y-99027581D01*
X155221615Y-99049722D01*
X155253368Y-99143789D01*
X155280595Y-99204411D01*
X155301358Y-99227431D01*
X155304339Y-99227236D01*
X155324522Y-99201622D01*
X155346978Y-99143900D01*
X155368941Y-99065087D01*
X155387643Y-98976199D01*
X155400317Y-98888254D01*
X155404198Y-98829710D01*
X155389633Y-98677822D01*
X155343021Y-98535548D01*
X155271265Y-98419547D01*
X155202825Y-98303936D01*
X155175416Y-98213308D01*
X155149088Y-98113258D01*
X155103837Y-97976537D01*
X155040390Y-97805191D01*
X154959470Y-97601269D01*
X154954195Y-97588334D01*
X154930214Y-97526848D01*
X154916243Y-97485466D01*
X154914763Y-97474359D01*
X154931043Y-97489726D01*
X154933381Y-97492305D01*
X154933381Y-97254846D01*
X154933452Y-97199262D01*
X154952456Y-97165189D01*
X154971446Y-97159573D01*
X155004665Y-97178663D01*
X155040775Y-97227507D01*
X155073288Y-97293464D01*
X155095716Y-97363894D01*
X155102036Y-97413977D01*
X155096616Y-97467315D01*
X155078433Y-97482974D01*
X155045553Y-97460497D01*
X154996046Y-97399431D01*
X154987040Y-97386878D01*
X154951494Y-97321024D01*
X154933381Y-97254846D01*
X154933381Y-97492305D01*
X154968098Y-97530607D01*
X155018893Y-97589169D01*
X155036428Y-97609806D01*
X155114699Y-97699602D01*
X155175353Y-97761280D01*
X155219152Y-97793096D01*
X155246860Y-97793303D01*
X155259239Y-97760156D01*
X155257054Y-97691910D01*
X155241067Y-97586819D01*
X155212041Y-97443137D01*
X155177293Y-97287636D01*
X155148255Y-97151971D01*
X155132176Y-97048038D01*
X155129236Y-96966072D01*
X155139613Y-96896307D01*
X155163486Y-96828981D01*
X155186579Y-96781416D01*
X155233465Y-96679786D01*
X155269256Y-96572849D01*
X155295608Y-96452106D01*
X155314178Y-96309058D01*
X155326620Y-96135207D01*
X155330788Y-96041337D01*
X155340991Y-95833645D01*
X155354637Y-95664505D01*
X155372331Y-95529144D01*
X155394677Y-95422790D01*
X155418338Y-95350231D01*
X155443879Y-95298110D01*
X155475228Y-95275704D01*
X155529686Y-95270856D01*
X155531322Y-95270855D01*
X155585872Y-95266655D01*
X155608963Y-95249959D01*
X155612564Y-95227436D01*
X155594342Y-95191578D01*
X155546160Y-95144770D01*
X155477743Y-95093676D01*
X155398814Y-95044961D01*
X155319100Y-95005289D01*
X155256147Y-94983181D01*
X155187543Y-94973274D01*
X155153851Y-94987996D01*
X155154581Y-95028353D01*
X155189238Y-95095352D01*
X155196062Y-95105848D01*
X155235942Y-95179144D01*
X155261807Y-95252407D01*
X155270922Y-95314127D01*
X155260550Y-95352789D01*
X155255708Y-95356859D01*
X155223993Y-95352607D01*
X155179255Y-95314466D01*
X155126195Y-95248186D01*
X155069515Y-95159513D01*
X155022346Y-95071527D01*
X154983561Y-94988411D01*
X154958163Y-94917844D01*
X154942211Y-94843976D01*
X154931766Y-94750957D01*
X154927108Y-94688365D01*
X154905075Y-94497103D01*
X154863953Y-94334184D01*
X154798652Y-94188516D01*
X154704087Y-94049006D01*
X154575168Y-93904564D01*
X154561025Y-93890259D01*
X154458866Y-93794011D01*
X154364476Y-93721282D01*
X154261065Y-93659785D01*
X154212308Y-93635036D01*
X154052137Y-93564252D01*
X153908078Y-93515781D01*
X153785411Y-93490919D01*
X153689417Y-93490966D01*
X153658020Y-93498835D01*
X153554676Y-93529620D01*
X153445653Y-93547315D01*
X153321389Y-93552420D01*
X153172325Y-93545434D01*
X153030026Y-93531614D01*
X152841390Y-93513562D01*
X152685991Y-93506652D01*
X152554928Y-93511548D01*
X152439302Y-93528912D01*
X152330214Y-93559409D01*
X152251173Y-93589681D01*
X152083433Y-93676268D01*
X151953006Y-93780594D01*
X151856337Y-93905730D01*
X151830907Y-93952792D01*
X151802872Y-94014084D01*
X151785005Y-94068647D01*
X151775066Y-94129426D01*
X151770815Y-94209368D01*
X151770000Y-94304787D01*
X151771198Y-94412802D01*
X151776296Y-94490728D01*
X151787552Y-94551860D01*
X151807224Y-94609496D01*
X151830715Y-94662403D01*
X151866882Y-94735016D01*
X151899046Y-94792190D01*
X151899046Y-94332211D01*
X151902574Y-94198538D01*
X151926277Y-94075270D01*
X151946477Y-94021048D01*
X152028930Y-93892568D01*
X152146228Y-93788152D01*
X152296497Y-93708690D01*
X152477866Y-93655072D01*
X152688460Y-93628188D01*
X152779487Y-93625129D01*
X152936985Y-93635975D01*
X153059345Y-93671717D01*
X153146359Y-93732212D01*
X153197821Y-93817322D01*
X153213594Y-93918944D01*
X153202567Y-93984424D01*
X153165425Y-94030000D01*
X153096311Y-94060165D01*
X153007436Y-94077130D01*
X152871166Y-94100363D01*
X152772812Y-94130862D01*
X152706977Y-94172882D01*
X152668264Y-94230681D01*
X152651273Y-94308515D01*
X152649231Y-94359600D01*
X152652437Y-94425281D01*
X152666144Y-94478282D01*
X152696482Y-94534275D01*
X152736068Y-94590247D01*
X152736068Y-94432121D01*
X152744991Y-94397393D01*
X152767453Y-94341494D01*
X152779026Y-94316594D01*
X152838677Y-94230839D01*
X152915399Y-94174155D01*
X153000404Y-94148786D01*
X153084906Y-94156975D01*
X153160118Y-94200966D01*
X153174491Y-94215611D01*
X153217182Y-94274147D01*
X153245857Y-94332781D01*
X153248699Y-94342611D01*
X153268685Y-94399357D01*
X153289274Y-94435043D01*
X153329073Y-94510924D01*
X153326906Y-94583220D01*
X153284164Y-94645987D01*
X153231879Y-94680564D01*
X153124146Y-94713819D01*
X153017140Y-94705285D01*
X152906243Y-94654579D01*
X152904337Y-94653375D01*
X152827747Y-94592404D01*
X152769650Y-94522340D01*
X152738814Y-94454717D01*
X152736068Y-94432121D01*
X152736068Y-94590247D01*
X152743604Y-94600903D01*
X152797521Y-94670620D01*
X152848200Y-94731165D01*
X152884681Y-94769445D01*
X152884715Y-94769476D01*
X152921955Y-94817935D01*
X152928731Y-94863219D01*
X152904257Y-94893777D01*
X152893461Y-94897685D01*
X152832781Y-94906002D01*
X152742709Y-94909459D01*
X152636972Y-94908279D01*
X152529300Y-94902685D01*
X152433420Y-94892901D01*
X152413233Y-94889880D01*
X152259380Y-94851894D01*
X152137129Y-94790176D01*
X152038680Y-94699240D01*
X151956235Y-94573601D01*
X151951867Y-94565300D01*
X151915531Y-94459921D01*
X151899046Y-94332211D01*
X151899046Y-94792190D01*
X151900544Y-94794853D01*
X151921792Y-94825621D01*
X151932357Y-94844294D01*
X151932375Y-94871650D01*
X151919609Y-94914723D01*
X151891820Y-94980546D01*
X151846771Y-95076153D01*
X151833043Y-95104514D01*
X151781498Y-95205895D01*
X151737774Y-95282504D01*
X151705074Y-95329128D01*
X151687692Y-95341134D01*
X151668464Y-95316284D01*
X151649918Y-95263391D01*
X151643159Y-95232920D01*
X151634651Y-95165269D01*
X151642991Y-95117860D01*
X151672171Y-95069461D01*
X151674489Y-95066309D01*
X151705298Y-95016257D01*
X151706708Y-94984641D01*
X151698907Y-94973984D01*
X151661211Y-94962229D01*
X151600298Y-94970265D01*
X151525084Y-94993694D01*
X151444482Y-95028120D01*
X151367407Y-95069145D01*
X151302775Y-95112373D01*
X151259500Y-95153406D01*
X151246496Y-95187848D01*
X151246496Y-95187848D01*
G36*
X153760367Y-93031906D02*
X153765695Y-93055109D01*
X153809694Y-93093188D01*
X153877015Y-93136571D01*
X153954122Y-93184972D01*
X154047741Y-93247223D01*
X154139630Y-93311147D01*
X154153784Y-93321317D01*
X154253204Y-93390188D01*
X154323972Y-93431819D01*
X154369744Y-93447977D01*
X154394174Y-93440428D01*
X154395691Y-93438266D01*
X154393034Y-93405016D01*
X154363238Y-93354783D01*
X154313695Y-93296899D01*
X154251801Y-93240697D01*
X154221109Y-93217904D01*
X154148722Y-93173409D01*
X154060660Y-93126927D01*
X153968539Y-93083723D01*
X153883977Y-93049062D01*
X153818589Y-93028209D01*
X153794402Y-93024519D01*
X153760367Y-93031906D01*
X153760367Y-93031906D01*
X153760367Y-93031906D01*
G37*
X153760367Y-93031906D02*
X153765695Y-93055109D01*
X153809694Y-93093188D01*
X153877015Y-93136571D01*
X153954122Y-93184972D01*
X154047741Y-93247223D01*
X154139630Y-93311147D01*
X154153784Y-93321317D01*
X154253204Y-93390188D01*
X154323972Y-93431819D01*
X154369744Y-93447977D01*
X154394174Y-93440428D01*
X154395691Y-93438266D01*
X154393034Y-93405016D01*
X154363238Y-93354783D01*
X154313695Y-93296899D01*
X154251801Y-93240697D01*
X154221109Y-93217904D01*
X154148722Y-93173409D01*
X154060660Y-93126927D01*
X153968539Y-93083723D01*
X153883977Y-93049062D01*
X153818589Y-93028209D01*
X153794402Y-93024519D01*
X153760367Y-93031906D01*
X153760367Y-93031906D01*
G36*
X152388718Y-93427305D02*
X152394319Y-93450974D01*
X152414730Y-93453612D01*
X152455359Y-93433126D01*
X152521617Y-93387418D01*
X152554578Y-93363046D01*
X152633613Y-93300359D01*
X152710651Y-93232983D01*
X152780200Y-93166614D01*
X152836766Y-93106951D01*
X152874856Y-93059689D01*
X152888979Y-93030527D01*
X152881536Y-93023932D01*
X152826565Y-93038194D01*
X152753275Y-93076493D01*
X152669893Y-93132096D01*
X152584645Y-93198268D01*
X152505756Y-93268279D01*
X152441452Y-93335394D01*
X152399960Y-93392882D01*
X152388718Y-93427305D01*
X152388718Y-93427305D01*
X152388718Y-93427305D01*
G37*
X152388718Y-93427305D02*
X152394319Y-93450974D01*
X152414730Y-93453612D01*
X152455359Y-93433126D01*
X152521617Y-93387418D01*
X152554578Y-93363046D01*
X152633613Y-93300359D01*
X152710651Y-93232983D01*
X152780200Y-93166614D01*
X152836766Y-93106951D01*
X152874856Y-93059689D01*
X152888979Y-93030527D01*
X152881536Y-93023932D01*
X152826565Y-93038194D01*
X152753275Y-93076493D01*
X152669893Y-93132096D01*
X152584645Y-93198268D01*
X152505756Y-93268279D01*
X152441452Y-93335394D01*
X152399960Y-93392882D01*
X152388718Y-93427305D01*
X152388718Y-93427305D01*
G36*
X152977683Y-96492221D02*
X152978203Y-96534620D01*
X152994095Y-96592296D01*
X153021312Y-96654620D01*
X153055807Y-96710966D01*
X153093534Y-96750707D01*
X153103772Y-96757223D01*
X153156271Y-96776846D01*
X153206564Y-96770914D01*
X153271007Y-96737918D01*
X153331156Y-96696973D01*
X153351074Y-96671723D01*
X153330823Y-96661683D01*
X153280120Y-96665004D01*
X153173362Y-96666893D01*
X153090677Y-96642960D01*
X153037256Y-96595914D01*
X153018291Y-96528463D01*
X153018291Y-96528450D01*
X153010661Y-96488399D01*
X152996581Y-96475727D01*
X152977683Y-96492221D01*
X152977683Y-96492221D01*
X152977683Y-96492221D01*
G37*
X152977683Y-96492221D02*
X152978203Y-96534620D01*
X152994095Y-96592296D01*
X153021312Y-96654620D01*
X153055807Y-96710966D01*
X153093534Y-96750707D01*
X153103772Y-96757223D01*
X153156271Y-96776846D01*
X153206564Y-96770914D01*
X153271007Y-96737918D01*
X153331156Y-96696973D01*
X153351074Y-96671723D01*
X153330823Y-96661683D01*
X153280120Y-96665004D01*
X153173362Y-96666893D01*
X153090677Y-96642960D01*
X153037256Y-96595914D01*
X153018291Y-96528463D01*
X153018291Y-96528450D01*
X153010661Y-96488399D01*
X152996581Y-96475727D01*
X152977683Y-96492221D01*
X152977683Y-96492221D01*
G36*
X153913594Y-96664772D02*
X153929580Y-96672899D01*
X153966539Y-96683157D01*
X154043542Y-96694513D01*
X154119640Y-96692838D01*
X154125470Y-96691934D01*
X154243011Y-96656238D01*
X154324631Y-96596771D01*
X154369584Y-96515222D01*
X154377119Y-96413276D01*
X154346490Y-96292624D01*
X154324791Y-96242438D01*
X154298170Y-96195872D01*
X154276138Y-96172453D01*
X154273415Y-96171795D01*
X154259816Y-96177431D01*
X154257898Y-96199984D01*
X154268529Y-96247924D01*
X154288056Y-96314883D01*
X154314861Y-96423192D01*
X154316915Y-96502534D01*
X154290162Y-96558622D01*
X154230543Y-96597164D01*
X154134001Y-96623871D01*
X154059763Y-96636149D01*
X153974127Y-96648695D01*
X153926924Y-96657470D01*
X153913594Y-96664772D01*
X153913594Y-96664772D01*
X153913594Y-96664772D01*
G37*
X153913594Y-96664772D02*
X153929580Y-96672899D01*
X153966539Y-96683157D01*
X154043542Y-96694513D01*
X154119640Y-96692838D01*
X154125470Y-96691934D01*
X154243011Y-96656238D01*
X154324631Y-96596771D01*
X154369584Y-96515222D01*
X154377119Y-96413276D01*
X154346490Y-96292624D01*
X154324791Y-96242438D01*
X154298170Y-96195872D01*
X154276138Y-96172453D01*
X154273415Y-96171795D01*
X154259816Y-96177431D01*
X154257898Y-96199984D01*
X154268529Y-96247924D01*
X154288056Y-96314883D01*
X154314861Y-96423192D01*
X154316915Y-96502534D01*
X154290162Y-96558622D01*
X154230543Y-96597164D01*
X154134001Y-96623871D01*
X154059763Y-96636149D01*
X153974127Y-96648695D01*
X153926924Y-96657470D01*
X153913594Y-96664772D01*
X153913594Y-96664772D01*
G36*
X153096648Y-96425548D02*
X153119169Y-96498364D01*
X153169594Y-96572401D01*
X153175487Y-96578847D01*
X153210267Y-96611252D01*
X153242371Y-96622077D01*
X153284252Y-96610698D01*
X153348363Y-96576495D01*
X153360214Y-96569621D01*
X153427034Y-96519304D01*
X153451251Y-96469828D01*
X153433575Y-96419043D01*
X153416546Y-96399476D01*
X153354685Y-96356438D01*
X153279801Y-96330446D01*
X153204642Y-96322885D01*
X153141952Y-96335137D01*
X153105889Y-96365758D01*
X153096648Y-96425548D01*
X153096648Y-96425548D01*
X153096648Y-96425548D01*
G37*
X153096648Y-96425548D02*
X153119169Y-96498364D01*
X153169594Y-96572401D01*
X153175487Y-96578847D01*
X153210267Y-96611252D01*
X153242371Y-96622077D01*
X153284252Y-96610698D01*
X153348363Y-96576495D01*
X153360214Y-96569621D01*
X153427034Y-96519304D01*
X153451251Y-96469828D01*
X153433575Y-96419043D01*
X153416546Y-96399476D01*
X153354685Y-96356438D01*
X153279801Y-96330446D01*
X153204642Y-96322885D01*
X153141952Y-96335137D01*
X153105889Y-96365758D01*
X153096648Y-96425548D01*
X153096648Y-96425548D01*
G36*
X153870833Y-96407767D02*
X153905672Y-96455631D01*
X153978902Y-96491748D01*
X154034437Y-96505349D01*
X154082757Y-96510248D01*
X154110980Y-96494976D01*
X154134954Y-96449703D01*
X154138782Y-96440629D01*
X154163585Y-96346612D01*
X154155176Y-96275269D01*
X154119620Y-96230840D01*
X154062977Y-96217568D01*
X153991312Y-96239694D01*
X153922966Y-96289636D01*
X153876045Y-96351366D01*
X153870833Y-96407767D01*
X153870833Y-96407767D01*
X153870833Y-96407767D01*
G37*
X153870833Y-96407767D02*
X153905672Y-96455631D01*
X153978902Y-96491748D01*
X154034437Y-96505349D01*
X154082757Y-96510248D01*
X154110980Y-96494976D01*
X154134954Y-96449703D01*
X154138782Y-96440629D01*
X154163585Y-96346612D01*
X154155176Y-96275269D01*
X154119620Y-96230840D01*
X154062977Y-96217568D01*
X153991312Y-96239694D01*
X153922966Y-96289636D01*
X153876045Y-96351366D01*
X153870833Y-96407767D01*
X153870833Y-96407767D01*
G36*
X153018291Y-96294562D02*
X153030703Y-96300342D01*
X153064806Y-96274018D01*
X153071013Y-96267937D01*
X153100911Y-96232354D01*
X153100719Y-96220643D01*
X153072875Y-96238088D01*
X153061709Y-96247778D01*
X153029704Y-96279184D01*
X153018291Y-96294562D01*
X153018291Y-96294562D01*
X153018291Y-96294562D01*
G37*
X153018291Y-96294562D02*
X153030703Y-96300342D01*
X153064806Y-96274018D01*
X153071013Y-96267937D01*
X153100911Y-96232354D01*
X153100719Y-96220643D01*
X153072875Y-96238088D01*
X153061709Y-96247778D01*
X153029704Y-96279184D01*
X153018291Y-96294562D01*
X153018291Y-96294562D01*
G36*
X152536060Y-95383170D02*
X152566269Y-95387687D01*
X152584103Y-95387731D01*
X152653904Y-95381985D01*
X152714359Y-95369956D01*
X152774870Y-95347022D01*
X152843838Y-95314609D01*
X152907542Y-95279942D01*
X152952263Y-95250245D01*
X152963825Y-95238601D01*
X152971136Y-95225777D01*
X152968986Y-95219866D01*
X152950524Y-95222362D01*
X152908896Y-95234752D01*
X152837248Y-95258530D01*
X152774049Y-95279879D01*
X152656805Y-95320712D01*
X152579367Y-95350796D01*
X152539772Y-95371244D01*
X152536060Y-95383170D01*
X152536060Y-95383170D01*
X152536060Y-95383170D01*
G37*
X152536060Y-95383170D02*
X152566269Y-95387687D01*
X152584103Y-95387731D01*
X152653904Y-95381985D01*
X152714359Y-95369956D01*
X152774870Y-95347022D01*
X152843838Y-95314609D01*
X152907542Y-95279942D01*
X152952263Y-95250245D01*
X152963825Y-95238601D01*
X152971136Y-95225777D01*
X152968986Y-95219866D01*
X152950524Y-95222362D01*
X152908896Y-95234752D01*
X152837248Y-95258530D01*
X152774049Y-95279879D01*
X152656805Y-95320712D01*
X152579367Y-95350796D01*
X152539772Y-95371244D01*
X152536060Y-95383170D01*
X152536060Y-95383170D01*
G36*
X154075815Y-95213023D02*
X154092906Y-95217827D01*
X154151124Y-95225177D01*
X154239194Y-95230732D01*
X154343562Y-95233813D01*
X154418547Y-95234139D01*
X154517767Y-95232991D01*
X154576689Y-95230913D01*
X154598430Y-95227463D01*
X154586108Y-95222194D01*
X154548803Y-95215583D01*
X154485555Y-95208253D01*
X154408435Y-95203000D01*
X154324968Y-95199787D01*
X154242681Y-95198577D01*
X154169096Y-95199333D01*
X154111741Y-95202017D01*
X154078138Y-95206593D01*
X154075815Y-95213023D01*
X154075815Y-95213023D01*
X154075815Y-95213023D01*
G37*
X154075815Y-95213023D02*
X154092906Y-95217827D01*
X154151124Y-95225177D01*
X154239194Y-95230732D01*
X154343562Y-95233813D01*
X154418547Y-95234139D01*
X154517767Y-95232991D01*
X154576689Y-95230913D01*
X154598430Y-95227463D01*
X154586108Y-95222194D01*
X154548803Y-95215583D01*
X154485555Y-95208253D01*
X154408435Y-95203000D01*
X154324968Y-95199787D01*
X154242681Y-95198577D01*
X154169096Y-95199333D01*
X154111741Y-95202017D01*
X154078138Y-95206593D01*
X154075815Y-95213023D01*
X154075815Y-95213023D01*
G36*
X152399873Y-95211560D02*
X152401044Y-95218962D01*
X152432106Y-95232847D01*
X152494243Y-95236549D01*
X152576494Y-95230771D01*
X152667903Y-95216214D01*
X152746923Y-95196787D01*
X152836610Y-95168285D01*
X152913385Y-95140149D01*
X152970331Y-95115424D01*
X153000534Y-95097152D01*
X152997080Y-95088376D01*
X152993883Y-95088096D01*
X152951532Y-95093883D01*
X152890551Y-95110455D01*
X152874482Y-95115853D01*
X152804290Y-95135119D01*
X152715339Y-95152575D01*
X152660085Y-95160420D01*
X152542278Y-95175070D01*
X152462896Y-95187741D01*
X152417056Y-95199537D01*
X152399873Y-95211560D01*
X152399873Y-95211560D01*
X152399873Y-95211560D01*
G37*
X152399873Y-95211560D02*
X152401044Y-95218962D01*
X152432106Y-95232847D01*
X152494243Y-95236549D01*
X152576494Y-95230771D01*
X152667903Y-95216214D01*
X152746923Y-95196787D01*
X152836610Y-95168285D01*
X152913385Y-95140149D01*
X152970331Y-95115424D01*
X153000534Y-95097152D01*
X152997080Y-95088376D01*
X152993883Y-95088096D01*
X152951532Y-95093883D01*
X152890551Y-95110455D01*
X152874482Y-95115853D01*
X152804290Y-95135119D01*
X152715339Y-95152575D01*
X152660085Y-95160420D01*
X152542278Y-95175070D01*
X152462896Y-95187741D01*
X152417056Y-95199537D01*
X152399873Y-95211560D01*
X152399873Y-95211560D01*
G36*
X152866325Y-94436593D02*
X152885818Y-94482137D01*
X152935525Y-94521314D01*
X153002289Y-94549777D01*
X153072953Y-94563180D01*
X153134359Y-94557174D01*
X153167469Y-94536094D01*
X153189126Y-94494315D01*
X153205002Y-94440416D01*
X153207846Y-94387605D01*
X153182770Y-94351984D01*
X153161808Y-94336931D01*
X153098106Y-94314481D01*
X153024490Y-94315927D01*
X152953336Y-94337095D01*
X152897019Y-94373811D01*
X152867913Y-94421902D01*
X152866325Y-94436593D01*
X152866325Y-94436593D01*
X152866325Y-94436593D01*
G37*
X152866325Y-94436593D02*
X152885818Y-94482137D01*
X152935525Y-94521314D01*
X153002289Y-94549777D01*
X153072953Y-94563180D01*
X153134359Y-94557174D01*
X153167469Y-94536094D01*
X153189126Y-94494315D01*
X153205002Y-94440416D01*
X153207846Y-94387605D01*
X153182770Y-94351984D01*
X153161808Y-94336931D01*
X153098106Y-94314481D01*
X153024490Y-94315927D01*
X152953336Y-94337095D01*
X152897019Y-94373811D01*
X152867913Y-94421902D01*
X152866325Y-94436593D01*
X152866325Y-94436593D01*
D12*
X175240000Y-93270000D02*
G75*
G03X175240000Y-93270000I-1270000J0D01*
G01*
D13*
G36*
X162867160Y-102623820D02*
X162790960Y-102613660D01*
X162722380Y-102590800D01*
X162691900Y-102575560D01*
X162628400Y-102529840D01*
X162577600Y-102476500D01*
X162539500Y-102413000D01*
X162514100Y-102344420D01*
X162501400Y-102270760D01*
X162503940Y-102197100D01*
X162521720Y-102123440D01*
X162554740Y-102052320D01*
X162577600Y-102021840D01*
X162608080Y-101988820D01*
X162643640Y-101955800D01*
X162674120Y-101932940D01*
X162684280Y-101925320D01*
X162750320Y-101894840D01*
X162816360Y-101879600D01*
X162892560Y-101877060D01*
X162917960Y-101877060D01*
X162958600Y-101882140D01*
X162994160Y-101892300D01*
X163034800Y-101910080D01*
X163077980Y-101932940D01*
X163138940Y-101981200D01*
X163187200Y-102042160D01*
X163225300Y-102110740D01*
X163235460Y-102141220D01*
X163245620Y-102179320D01*
X163250700Y-102207260D01*
X163250700Y-102212340D01*
X163250700Y-102212340D01*
X163253240Y-102197100D01*
X163253240Y-102194560D01*
X163265940Y-102146300D01*
X163283720Y-102098040D01*
X163306580Y-102054860D01*
X163347220Y-101998980D01*
X163405640Y-101945640D01*
X163471680Y-101907540D01*
X163545340Y-101882140D01*
X163624080Y-101874520D01*
X163644400Y-101874520D01*
X163702820Y-101882140D01*
X163761240Y-101897380D01*
X163771400Y-101902460D01*
X163834900Y-101938020D01*
X163890780Y-101983740D01*
X163939040Y-102042160D01*
X163972060Y-102103120D01*
X163992380Y-102171700D01*
X163994920Y-102174240D01*
X163997460Y-102192020D01*
X164000000Y-102199640D01*
X164000000Y-102199640D01*
X164002540Y-102189480D01*
X164007620Y-102171700D01*
X164007620Y-102164080D01*
X164030480Y-102098040D01*
X164066040Y-102034540D01*
X164114300Y-101978660D01*
X164160020Y-101940560D01*
X164223520Y-101905000D01*
X164297180Y-101882140D01*
X164375920Y-101874520D01*
X164431800Y-101879600D01*
X164505460Y-101897380D01*
X164574040Y-101932940D01*
X164635000Y-101978660D01*
X164683260Y-102039620D01*
X164690880Y-102047240D01*
X164706120Y-102075180D01*
X164718820Y-102098040D01*
X164723900Y-102115820D01*
X164736600Y-102148840D01*
X164744220Y-102181860D01*
X164746760Y-102207260D01*
X164746760Y-102212340D01*
X164749300Y-102212340D01*
X164751840Y-102194560D01*
X164759460Y-102153920D01*
X164779780Y-102103120D01*
X164800100Y-102057400D01*
X164845820Y-101996440D01*
X164904240Y-101945640D01*
X164970280Y-101907540D01*
X165043940Y-101882140D01*
X165120140Y-101874520D01*
X165191260Y-101879600D01*
X165264920Y-101899920D01*
X165330960Y-101938020D01*
X165391920Y-101988820D01*
X165422400Y-102021840D01*
X165450340Y-102062480D01*
X165473200Y-102110740D01*
X165485900Y-102148840D01*
X165498600Y-102225040D01*
X165496060Y-102298700D01*
X165480820Y-102367280D01*
X165450340Y-102433320D01*
X165409700Y-102491740D01*
X165358900Y-102542540D01*
X165297940Y-102583180D01*
X165229360Y-102608580D01*
X165153160Y-102621280D01*
X165145540Y-102623820D01*
X165069340Y-102621280D01*
X164998220Y-102603500D01*
X164929640Y-102570480D01*
X164904240Y-102552700D01*
X164855980Y-102509520D01*
X164810260Y-102456180D01*
X164779780Y-102400300D01*
X164772160Y-102379980D01*
X164762000Y-102346960D01*
X164754380Y-102313940D01*
X164749300Y-102288540D01*
X164749300Y-102273300D01*
X164746760Y-102288540D01*
X164746760Y-102301240D01*
X164739140Y-102334260D01*
X164728980Y-102372360D01*
X164716280Y-102402840D01*
X164698500Y-102438400D01*
X164652780Y-102499360D01*
X164594360Y-102550160D01*
X164528320Y-102590800D01*
X164454660Y-102616200D01*
X164441960Y-102618740D01*
X164391160Y-102623820D01*
X164335280Y-102621280D01*
X164287020Y-102613660D01*
X164236220Y-102598420D01*
X164167640Y-102562860D01*
X164104140Y-102512060D01*
X164101600Y-102506980D01*
X164058420Y-102453640D01*
X164025400Y-102390140D01*
X164007620Y-102326640D01*
X164005080Y-102324100D01*
X164002540Y-102306320D01*
X164000000Y-102298700D01*
X163997460Y-102303780D01*
X163994920Y-102319020D01*
X163994920Y-102324100D01*
X163984760Y-102362200D01*
X163966980Y-102405380D01*
X163944120Y-102446020D01*
X163911100Y-102491740D01*
X163855220Y-102545080D01*
X163789180Y-102585720D01*
X163715520Y-102613660D01*
X163702820Y-102616200D01*
X163652020Y-102621280D01*
X163596140Y-102621280D01*
X163547880Y-102616200D01*
X163507240Y-102603500D01*
X163436120Y-102573020D01*
X163375160Y-102527300D01*
X163321820Y-102468880D01*
X163283720Y-102402840D01*
X163276100Y-102382520D01*
X163263400Y-102346960D01*
X163255780Y-102313940D01*
X163253240Y-102288540D01*
X163253240Y-102286000D01*
X163250700Y-102286000D01*
X163248160Y-102301240D01*
X163248160Y-102303780D01*
X163238000Y-102349500D01*
X163217680Y-102400300D01*
X163197360Y-102443480D01*
X163187200Y-102458720D01*
X163138940Y-102517140D01*
X163077980Y-102562860D01*
X163014480Y-102598420D01*
X162943360Y-102618740D01*
X162867160Y-102623820D01*
X162867160Y-102623820D01*
G37*
X162867160Y-102623820D02*
X162790960Y-102613660D01*
X162722380Y-102590800D01*
X162691900Y-102575560D01*
X162628400Y-102529840D01*
X162577600Y-102476500D01*
X162539500Y-102413000D01*
X162514100Y-102344420D01*
X162501400Y-102270760D01*
X162503940Y-102197100D01*
X162521720Y-102123440D01*
X162554740Y-102052320D01*
X162577600Y-102021840D01*
X162608080Y-101988820D01*
X162643640Y-101955800D01*
X162674120Y-101932940D01*
X162684280Y-101925320D01*
X162750320Y-101894840D01*
X162816360Y-101879600D01*
X162892560Y-101877060D01*
X162917960Y-101877060D01*
X162958600Y-101882140D01*
X162994160Y-101892300D01*
X163034800Y-101910080D01*
X163077980Y-101932940D01*
X163138940Y-101981200D01*
X163187200Y-102042160D01*
X163225300Y-102110740D01*
X163235460Y-102141220D01*
X163245620Y-102179320D01*
X163250700Y-102207260D01*
X163250700Y-102212340D01*
X163250700Y-102212340D01*
X163253240Y-102197100D01*
X163253240Y-102194560D01*
X163265940Y-102146300D01*
X163283720Y-102098040D01*
X163306580Y-102054860D01*
X163347220Y-101998980D01*
X163405640Y-101945640D01*
X163471680Y-101907540D01*
X163545340Y-101882140D01*
X163624080Y-101874520D01*
X163644400Y-101874520D01*
X163702820Y-101882140D01*
X163761240Y-101897380D01*
X163771400Y-101902460D01*
X163834900Y-101938020D01*
X163890780Y-101983740D01*
X163939040Y-102042160D01*
X163972060Y-102103120D01*
X163992380Y-102171700D01*
X163994920Y-102174240D01*
X163997460Y-102192020D01*
X164000000Y-102199640D01*
X164000000Y-102199640D01*
X164002540Y-102189480D01*
X164007620Y-102171700D01*
X164007620Y-102164080D01*
X164030480Y-102098040D01*
X164066040Y-102034540D01*
X164114300Y-101978660D01*
X164160020Y-101940560D01*
X164223520Y-101905000D01*
X164297180Y-101882140D01*
X164375920Y-101874520D01*
X164431800Y-101879600D01*
X164505460Y-101897380D01*
X164574040Y-101932940D01*
X164635000Y-101978660D01*
X164683260Y-102039620D01*
X164690880Y-102047240D01*
X164706120Y-102075180D01*
X164718820Y-102098040D01*
X164723900Y-102115820D01*
X164736600Y-102148840D01*
X164744220Y-102181860D01*
X164746760Y-102207260D01*
X164746760Y-102212340D01*
X164749300Y-102212340D01*
X164751840Y-102194560D01*
X164759460Y-102153920D01*
X164779780Y-102103120D01*
X164800100Y-102057400D01*
X164845820Y-101996440D01*
X164904240Y-101945640D01*
X164970280Y-101907540D01*
X165043940Y-101882140D01*
X165120140Y-101874520D01*
X165191260Y-101879600D01*
X165264920Y-101899920D01*
X165330960Y-101938020D01*
X165391920Y-101988820D01*
X165422400Y-102021840D01*
X165450340Y-102062480D01*
X165473200Y-102110740D01*
X165485900Y-102148840D01*
X165498600Y-102225040D01*
X165496060Y-102298700D01*
X165480820Y-102367280D01*
X165450340Y-102433320D01*
X165409700Y-102491740D01*
X165358900Y-102542540D01*
X165297940Y-102583180D01*
X165229360Y-102608580D01*
X165153160Y-102621280D01*
X165145540Y-102623820D01*
X165069340Y-102621280D01*
X164998220Y-102603500D01*
X164929640Y-102570480D01*
X164904240Y-102552700D01*
X164855980Y-102509520D01*
X164810260Y-102456180D01*
X164779780Y-102400300D01*
X164772160Y-102379980D01*
X164762000Y-102346960D01*
X164754380Y-102313940D01*
X164749300Y-102288540D01*
X164749300Y-102273300D01*
X164746760Y-102288540D01*
X164746760Y-102301240D01*
X164739140Y-102334260D01*
X164728980Y-102372360D01*
X164716280Y-102402840D01*
X164698500Y-102438400D01*
X164652780Y-102499360D01*
X164594360Y-102550160D01*
X164528320Y-102590800D01*
X164454660Y-102616200D01*
X164441960Y-102618740D01*
X164391160Y-102623820D01*
X164335280Y-102621280D01*
X164287020Y-102613660D01*
X164236220Y-102598420D01*
X164167640Y-102562860D01*
X164104140Y-102512060D01*
X164101600Y-102506980D01*
X164058420Y-102453640D01*
X164025400Y-102390140D01*
X164007620Y-102326640D01*
X164005080Y-102324100D01*
X164002540Y-102306320D01*
X164000000Y-102298700D01*
X163997460Y-102303780D01*
X163994920Y-102319020D01*
X163994920Y-102324100D01*
X163984760Y-102362200D01*
X163966980Y-102405380D01*
X163944120Y-102446020D01*
X163911100Y-102491740D01*
X163855220Y-102545080D01*
X163789180Y-102585720D01*
X163715520Y-102613660D01*
X163702820Y-102616200D01*
X163652020Y-102621280D01*
X163596140Y-102621280D01*
X163547880Y-102616200D01*
X163507240Y-102603500D01*
X163436120Y-102573020D01*
X163375160Y-102527300D01*
X163321820Y-102468880D01*
X163283720Y-102402840D01*
X163276100Y-102382520D01*
X163263400Y-102346960D01*
X163255780Y-102313940D01*
X163253240Y-102288540D01*
X163253240Y-102286000D01*
X163250700Y-102286000D01*
X163248160Y-102301240D01*
X163248160Y-102303780D01*
X163238000Y-102349500D01*
X163217680Y-102400300D01*
X163197360Y-102443480D01*
X163187200Y-102458720D01*
X163138940Y-102517140D01*
X163077980Y-102562860D01*
X163014480Y-102598420D01*
X162943360Y-102618740D01*
X162867160Y-102623820D01*
G36*
X165897380Y-101874520D02*
X165851660Y-101871980D01*
X165808480Y-101869440D01*
X165757680Y-101856740D01*
X165689100Y-101823720D01*
X165625600Y-101780540D01*
X165574800Y-101724660D01*
X165534160Y-101658620D01*
X165508760Y-101587500D01*
X165498600Y-101511300D01*
X165503680Y-101435100D01*
X165524000Y-101363980D01*
X165557020Y-101297940D01*
X165605280Y-101236980D01*
X165666240Y-101186180D01*
X165684020Y-101176020D01*
X165757680Y-101143000D01*
X165831340Y-101125220D01*
X165910080Y-101125220D01*
X165986280Y-101140460D01*
X166047240Y-101165860D01*
X166113280Y-101209040D01*
X166166620Y-101264920D01*
X166209800Y-101330960D01*
X166237740Y-101407160D01*
X166245360Y-101445260D01*
X166247900Y-101493520D01*
X166247900Y-101541780D01*
X166240280Y-101582420D01*
X166237740Y-101595120D01*
X166207260Y-101671320D01*
X166164080Y-101737360D01*
X166105660Y-101793240D01*
X166037080Y-101836420D01*
X166006600Y-101849120D01*
X165963420Y-101864360D01*
X165922780Y-101871980D01*
X165897380Y-101874520D01*
X165897380Y-101874520D01*
G37*
X165897380Y-101874520D02*
X165851660Y-101871980D01*
X165808480Y-101869440D01*
X165757680Y-101856740D01*
X165689100Y-101823720D01*
X165625600Y-101780540D01*
X165574800Y-101724660D01*
X165534160Y-101658620D01*
X165508760Y-101587500D01*
X165498600Y-101511300D01*
X165503680Y-101435100D01*
X165524000Y-101363980D01*
X165557020Y-101297940D01*
X165605280Y-101236980D01*
X165666240Y-101186180D01*
X165684020Y-101176020D01*
X165757680Y-101143000D01*
X165831340Y-101125220D01*
X165910080Y-101125220D01*
X165986280Y-101140460D01*
X166047240Y-101165860D01*
X166113280Y-101209040D01*
X166166620Y-101264920D01*
X166209800Y-101330960D01*
X166237740Y-101407160D01*
X166245360Y-101445260D01*
X166247900Y-101493520D01*
X166247900Y-101541780D01*
X166240280Y-101582420D01*
X166237740Y-101595120D01*
X166207260Y-101671320D01*
X166164080Y-101737360D01*
X166105660Y-101793240D01*
X166037080Y-101836420D01*
X166006600Y-101849120D01*
X165963420Y-101864360D01*
X165922780Y-101871980D01*
X165897380Y-101874520D01*
G36*
X162117860Y-101874520D02*
X162041660Y-101864360D01*
X161965460Y-101838960D01*
X161896880Y-101795780D01*
X161881640Y-101783080D01*
X161830840Y-101729740D01*
X161790200Y-101663700D01*
X161762260Y-101590040D01*
X161754640Y-101551940D01*
X161752100Y-101503680D01*
X161752100Y-101455420D01*
X161759720Y-101417320D01*
X161764800Y-101399540D01*
X161792740Y-101323340D01*
X161835920Y-101259840D01*
X161891800Y-101206500D01*
X161955300Y-101165860D01*
X162026420Y-101137920D01*
X162105160Y-101125220D01*
X162133100Y-101122680D01*
X162209300Y-101132840D01*
X162280420Y-101155700D01*
X162343920Y-101193800D01*
X162399800Y-101242060D01*
X162442980Y-101300480D01*
X162476000Y-101366520D01*
X162496320Y-101437640D01*
X162498860Y-101516380D01*
X162496320Y-101562100D01*
X162486160Y-101602740D01*
X162470920Y-101645920D01*
X162440440Y-101704340D01*
X162392180Y-101762760D01*
X162333760Y-101811020D01*
X162267720Y-101846580D01*
X162194060Y-101866900D01*
X162117860Y-101874520D01*
X162117860Y-101874520D01*
G37*
X162117860Y-101874520D02*
X162041660Y-101864360D01*
X161965460Y-101838960D01*
X161896880Y-101795780D01*
X161881640Y-101783080D01*
X161830840Y-101729740D01*
X161790200Y-101663700D01*
X161762260Y-101590040D01*
X161754640Y-101551940D01*
X161752100Y-101503680D01*
X161752100Y-101455420D01*
X161759720Y-101417320D01*
X161764800Y-101399540D01*
X161792740Y-101323340D01*
X161835920Y-101259840D01*
X161891800Y-101206500D01*
X161955300Y-101165860D01*
X162026420Y-101137920D01*
X162105160Y-101125220D01*
X162133100Y-101122680D01*
X162209300Y-101132840D01*
X162280420Y-101155700D01*
X162343920Y-101193800D01*
X162399800Y-101242060D01*
X162442980Y-101300480D01*
X162476000Y-101366520D01*
X162496320Y-101437640D01*
X162498860Y-101516380D01*
X162496320Y-101562100D01*
X162486160Y-101602740D01*
X162470920Y-101645920D01*
X162440440Y-101704340D01*
X162392180Y-101762760D01*
X162333760Y-101811020D01*
X162267720Y-101846580D01*
X162194060Y-101866900D01*
X162117860Y-101874520D01*
G36*
X166644140Y-101122680D02*
X166590800Y-101122680D01*
X166545080Y-101115060D01*
X166491740Y-101099820D01*
X166423160Y-101064260D01*
X166359660Y-101013460D01*
X166319020Y-100967740D01*
X166280920Y-100901700D01*
X166258060Y-100828040D01*
X166252980Y-100800100D01*
X166250440Y-100754380D01*
X166250440Y-100708660D01*
X166255520Y-100670560D01*
X166263140Y-100647700D01*
X166291080Y-100574040D01*
X166334260Y-100510540D01*
X166390140Y-100454660D01*
X166458720Y-100414020D01*
X166484120Y-100401320D01*
X166532380Y-100383540D01*
X166580640Y-100375920D01*
X166636520Y-100375920D01*
X166672080Y-100378460D01*
X166712720Y-100383540D01*
X166750820Y-100393700D01*
X166791460Y-100414020D01*
X166814320Y-100426720D01*
X166877820Y-100472440D01*
X166928620Y-100530860D01*
X166969260Y-100599440D01*
X166992120Y-100675640D01*
X166994660Y-100693420D01*
X166999740Y-100736600D01*
X166997200Y-100782320D01*
X166992120Y-100822960D01*
X166987040Y-100848360D01*
X166956560Y-100922020D01*
X166913380Y-100988060D01*
X166860040Y-101041400D01*
X166791460Y-101084580D01*
X166717800Y-101112520D01*
X166694940Y-101117600D01*
X166644140Y-101122680D01*
X166644140Y-101122680D01*
G37*
X166644140Y-101122680D02*
X166590800Y-101122680D01*
X166545080Y-101115060D01*
X166491740Y-101099820D01*
X166423160Y-101064260D01*
X166359660Y-101013460D01*
X166319020Y-100967740D01*
X166280920Y-100901700D01*
X166258060Y-100828040D01*
X166252980Y-100800100D01*
X166250440Y-100754380D01*
X166250440Y-100708660D01*
X166255520Y-100670560D01*
X166263140Y-100647700D01*
X166291080Y-100574040D01*
X166334260Y-100510540D01*
X166390140Y-100454660D01*
X166458720Y-100414020D01*
X166484120Y-100401320D01*
X166532380Y-100383540D01*
X166580640Y-100375920D01*
X166636520Y-100375920D01*
X166672080Y-100378460D01*
X166712720Y-100383540D01*
X166750820Y-100393700D01*
X166791460Y-100414020D01*
X166814320Y-100426720D01*
X166877820Y-100472440D01*
X166928620Y-100530860D01*
X166969260Y-100599440D01*
X166992120Y-100675640D01*
X166994660Y-100693420D01*
X166999740Y-100736600D01*
X166997200Y-100782320D01*
X166992120Y-100822960D01*
X166987040Y-100848360D01*
X166956560Y-100922020D01*
X166913380Y-100988060D01*
X166860040Y-101041400D01*
X166791460Y-101084580D01*
X166717800Y-101112520D01*
X166694940Y-101117600D01*
X166644140Y-101122680D01*
G36*
X163634240Y-101122680D02*
X163560580Y-101117600D01*
X163489460Y-101097280D01*
X163446280Y-101079500D01*
X163382780Y-101033780D01*
X163329440Y-100977900D01*
X163288800Y-100911860D01*
X163263400Y-100840740D01*
X163258320Y-100822960D01*
X163250700Y-100764540D01*
X163253240Y-100706120D01*
X163268480Y-100640080D01*
X163298960Y-100566420D01*
X163342140Y-100502920D01*
X163398020Y-100452120D01*
X163464060Y-100411480D01*
X163540260Y-100383540D01*
X163588520Y-100370840D01*
X163563120Y-100368300D01*
X163558040Y-100368300D01*
X163504700Y-100353060D01*
X163448820Y-100327660D01*
X163395480Y-100294640D01*
X163387860Y-100287020D01*
X163334520Y-100233680D01*
X163291340Y-100170180D01*
X163265940Y-100099060D01*
X163253240Y-100027940D01*
X163253240Y-99954280D01*
X163271020Y-99880620D01*
X163304040Y-99809500D01*
X163304040Y-99806960D01*
X163352300Y-99746000D01*
X163408180Y-99695200D01*
X163471680Y-99659640D01*
X163540260Y-99636780D01*
X163611380Y-99626620D01*
X163685040Y-99631700D01*
X163756160Y-99649480D01*
X163822200Y-99682500D01*
X163885700Y-99728220D01*
X163916180Y-99763780D01*
X163954280Y-99819660D01*
X163982220Y-99878080D01*
X163994920Y-99933960D01*
X163997460Y-99946660D01*
X164000000Y-99954280D01*
X164002540Y-99949200D01*
X164005080Y-99933960D01*
X164017780Y-99883160D01*
X164040640Y-99829820D01*
X164071120Y-99779020D01*
X164091440Y-99756160D01*
X164147320Y-99702820D01*
X164213360Y-99662180D01*
X164284480Y-99636780D01*
X164360680Y-99626620D01*
X164436880Y-99631700D01*
X164482600Y-99641860D01*
X164556260Y-99672340D01*
X164617220Y-99715520D01*
X164670560Y-99771400D01*
X164711200Y-99837440D01*
X164739140Y-99911100D01*
X164744220Y-99949200D01*
X164749300Y-100025400D01*
X164734060Y-100099060D01*
X164708660Y-100170180D01*
X164665480Y-100233680D01*
X164612140Y-100287020D01*
X164546100Y-100332740D01*
X164515620Y-100345440D01*
X164480060Y-100358140D01*
X164449580Y-100365760D01*
X164424180Y-100370840D01*
X164421640Y-100370840D01*
X164421640Y-100373380D01*
X164439420Y-100378460D01*
X164474980Y-100388620D01*
X164525780Y-100406400D01*
X164568960Y-100426720D01*
X164591820Y-100444500D01*
X164642620Y-100487680D01*
X164685800Y-100541020D01*
X164718820Y-100596900D01*
X164739140Y-100660400D01*
X164749300Y-100726440D01*
X164746760Y-100792480D01*
X164744220Y-100805180D01*
X164723900Y-100883920D01*
X164688340Y-100952500D01*
X164637540Y-101013460D01*
X164596900Y-101051560D01*
X164528320Y-101092200D01*
X164454660Y-101115060D01*
X164426720Y-101120140D01*
X164386080Y-101122680D01*
X164342900Y-101120140D01*
X164302260Y-101117600D01*
X164271780Y-101109980D01*
X164246380Y-101102360D01*
X164175260Y-101066800D01*
X164111760Y-101018540D01*
X164060960Y-100957580D01*
X164043180Y-100927100D01*
X164020320Y-100876300D01*
X164007620Y-100825500D01*
X164005080Y-100822960D01*
X164002540Y-100805180D01*
X164000000Y-100797560D01*
X164000000Y-100797560D01*
X164000000Y-100698500D01*
X164000000Y-100698500D01*
X164002540Y-100690880D01*
X164007620Y-100670560D01*
X164007620Y-100665480D01*
X164030480Y-100599440D01*
X164066040Y-100535940D01*
X164114300Y-100480060D01*
X164170180Y-100434340D01*
X164233680Y-100401320D01*
X164238760Y-100398780D01*
X164271780Y-100388620D01*
X164302260Y-100381000D01*
X164337820Y-100373380D01*
X164304800Y-100368300D01*
X164259080Y-100355600D01*
X164193040Y-100327660D01*
X164132080Y-100284480D01*
X164078740Y-100231140D01*
X164038100Y-100170180D01*
X164025400Y-100137160D01*
X164012700Y-100099060D01*
X164005080Y-100066040D01*
X164002540Y-100053340D01*
X164000000Y-100045720D01*
X163997460Y-100050800D01*
X163994920Y-100066040D01*
X163989840Y-100093980D01*
X163977140Y-100132080D01*
X163961900Y-100170180D01*
X163936500Y-100208280D01*
X163888240Y-100266700D01*
X163829820Y-100312420D01*
X163763780Y-100347980D01*
X163695200Y-100368300D01*
X163662180Y-100373380D01*
X163695200Y-100381000D01*
X163700280Y-100381000D01*
X163733300Y-100388620D01*
X163766320Y-100401320D01*
X163771400Y-100403860D01*
X163834900Y-100436880D01*
X163890780Y-100485140D01*
X163939040Y-100541020D01*
X163972060Y-100604520D01*
X163992380Y-100670560D01*
X163994920Y-100673100D01*
X163997460Y-100690880D01*
X164000000Y-100698500D01*
X164000000Y-100797560D01*
X164000000Y-100797560D01*
X163997460Y-100807720D01*
X163992380Y-100825500D01*
X163979680Y-100876300D01*
X163949200Y-100942340D01*
X163903480Y-101000760D01*
X163847600Y-101051560D01*
X163781560Y-101089660D01*
X163781560Y-101089660D01*
X163710440Y-101115060D01*
X163634240Y-101122680D01*
X163634240Y-101122680D01*
G37*
X163634240Y-101122680D02*
X163560580Y-101117600D01*
X163489460Y-101097280D01*
X163446280Y-101079500D01*
X163382780Y-101033780D01*
X163329440Y-100977900D01*
X163288800Y-100911860D01*
X163263400Y-100840740D01*
X163258320Y-100822960D01*
X163250700Y-100764540D01*
X163253240Y-100706120D01*
X163268480Y-100640080D01*
X163298960Y-100566420D01*
X163342140Y-100502920D01*
X163398020Y-100452120D01*
X163464060Y-100411480D01*
X163540260Y-100383540D01*
X163588520Y-100370840D01*
X163563120Y-100368300D01*
X163558040Y-100368300D01*
X163504700Y-100353060D01*
X163448820Y-100327660D01*
X163395480Y-100294640D01*
X163387860Y-100287020D01*
X163334520Y-100233680D01*
X163291340Y-100170180D01*
X163265940Y-100099060D01*
X163253240Y-100027940D01*
X163253240Y-99954280D01*
X163271020Y-99880620D01*
X163304040Y-99809500D01*
X163304040Y-99806960D01*
X163352300Y-99746000D01*
X163408180Y-99695200D01*
X163471680Y-99659640D01*
X163540260Y-99636780D01*
X163611380Y-99626620D01*
X163685040Y-99631700D01*
X163756160Y-99649480D01*
X163822200Y-99682500D01*
X163885700Y-99728220D01*
X163916180Y-99763780D01*
X163954280Y-99819660D01*
X163982220Y-99878080D01*
X163994920Y-99933960D01*
X163997460Y-99946660D01*
X164000000Y-99954280D01*
X164002540Y-99949200D01*
X164005080Y-99933960D01*
X164017780Y-99883160D01*
X164040640Y-99829820D01*
X164071120Y-99779020D01*
X164091440Y-99756160D01*
X164147320Y-99702820D01*
X164213360Y-99662180D01*
X164284480Y-99636780D01*
X164360680Y-99626620D01*
X164436880Y-99631700D01*
X164482600Y-99641860D01*
X164556260Y-99672340D01*
X164617220Y-99715520D01*
X164670560Y-99771400D01*
X164711200Y-99837440D01*
X164739140Y-99911100D01*
X164744220Y-99949200D01*
X164749300Y-100025400D01*
X164734060Y-100099060D01*
X164708660Y-100170180D01*
X164665480Y-100233680D01*
X164612140Y-100287020D01*
X164546100Y-100332740D01*
X164515620Y-100345440D01*
X164480060Y-100358140D01*
X164449580Y-100365760D01*
X164424180Y-100370840D01*
X164421640Y-100370840D01*
X164421640Y-100373380D01*
X164439420Y-100378460D01*
X164474980Y-100388620D01*
X164525780Y-100406400D01*
X164568960Y-100426720D01*
X164591820Y-100444500D01*
X164642620Y-100487680D01*
X164685800Y-100541020D01*
X164718820Y-100596900D01*
X164739140Y-100660400D01*
X164749300Y-100726440D01*
X164746760Y-100792480D01*
X164744220Y-100805180D01*
X164723900Y-100883920D01*
X164688340Y-100952500D01*
X164637540Y-101013460D01*
X164596900Y-101051560D01*
X164528320Y-101092200D01*
X164454660Y-101115060D01*
X164426720Y-101120140D01*
X164386080Y-101122680D01*
X164342900Y-101120140D01*
X164302260Y-101117600D01*
X164271780Y-101109980D01*
X164246380Y-101102360D01*
X164175260Y-101066800D01*
X164111760Y-101018540D01*
X164060960Y-100957580D01*
X164043180Y-100927100D01*
X164020320Y-100876300D01*
X164007620Y-100825500D01*
X164005080Y-100822960D01*
X164002540Y-100805180D01*
X164000000Y-100797560D01*
X164000000Y-100797560D01*
X164000000Y-100698500D01*
X164000000Y-100698500D01*
X164002540Y-100690880D01*
X164007620Y-100670560D01*
X164007620Y-100665480D01*
X164030480Y-100599440D01*
X164066040Y-100535940D01*
X164114300Y-100480060D01*
X164170180Y-100434340D01*
X164233680Y-100401320D01*
X164238760Y-100398780D01*
X164271780Y-100388620D01*
X164302260Y-100381000D01*
X164337820Y-100373380D01*
X164304800Y-100368300D01*
X164259080Y-100355600D01*
X164193040Y-100327660D01*
X164132080Y-100284480D01*
X164078740Y-100231140D01*
X164038100Y-100170180D01*
X164025400Y-100137160D01*
X164012700Y-100099060D01*
X164005080Y-100066040D01*
X164002540Y-100053340D01*
X164000000Y-100045720D01*
X163997460Y-100050800D01*
X163994920Y-100066040D01*
X163989840Y-100093980D01*
X163977140Y-100132080D01*
X163961900Y-100170180D01*
X163936500Y-100208280D01*
X163888240Y-100266700D01*
X163829820Y-100312420D01*
X163763780Y-100347980D01*
X163695200Y-100368300D01*
X163662180Y-100373380D01*
X163695200Y-100381000D01*
X163700280Y-100381000D01*
X163733300Y-100388620D01*
X163766320Y-100401320D01*
X163771400Y-100403860D01*
X163834900Y-100436880D01*
X163890780Y-100485140D01*
X163939040Y-100541020D01*
X163972060Y-100604520D01*
X163992380Y-100670560D01*
X163994920Y-100673100D01*
X163997460Y-100690880D01*
X164000000Y-100698500D01*
X164000000Y-100797560D01*
X164000000Y-100797560D01*
X163997460Y-100807720D01*
X163992380Y-100825500D01*
X163979680Y-100876300D01*
X163949200Y-100942340D01*
X163903480Y-101000760D01*
X163847600Y-101051560D01*
X163781560Y-101089660D01*
X163781560Y-101089660D01*
X163710440Y-101115060D01*
X163634240Y-101122680D01*
G36*
X161404120Y-101122680D02*
X161343160Y-101122680D01*
X161287280Y-101112520D01*
X161251720Y-101102360D01*
X161180600Y-101069340D01*
X161119640Y-101023620D01*
X161068840Y-100967740D01*
X161033280Y-100901700D01*
X161010420Y-100828040D01*
X161000260Y-100749300D01*
X161002800Y-100718820D01*
X161015500Y-100640080D01*
X161045980Y-100568960D01*
X161094240Y-100500380D01*
X161106940Y-100487680D01*
X161160280Y-100441960D01*
X161221240Y-100406400D01*
X161287280Y-100383540D01*
X161289820Y-100383540D01*
X161345700Y-100375920D01*
X161406660Y-100375920D01*
X161462540Y-100383540D01*
X161482860Y-100388620D01*
X161553980Y-100419100D01*
X161617480Y-100462280D01*
X161668280Y-100513080D01*
X161708920Y-100576580D01*
X161736860Y-100642620D01*
X161749560Y-100716280D01*
X161749560Y-100792480D01*
X161731780Y-100868680D01*
X161706380Y-100924560D01*
X161663200Y-100988060D01*
X161607320Y-101043940D01*
X161543820Y-101084580D01*
X161470160Y-101112520D01*
X161462540Y-101115060D01*
X161404120Y-101122680D01*
X161404120Y-101122680D01*
G37*
X161404120Y-101122680D02*
X161343160Y-101122680D01*
X161287280Y-101112520D01*
X161251720Y-101102360D01*
X161180600Y-101069340D01*
X161119640Y-101023620D01*
X161068840Y-100967740D01*
X161033280Y-100901700D01*
X161010420Y-100828040D01*
X161000260Y-100749300D01*
X161002800Y-100718820D01*
X161015500Y-100640080D01*
X161045980Y-100568960D01*
X161094240Y-100500380D01*
X161106940Y-100487680D01*
X161160280Y-100441960D01*
X161221240Y-100406400D01*
X161287280Y-100383540D01*
X161289820Y-100383540D01*
X161345700Y-100375920D01*
X161406660Y-100375920D01*
X161462540Y-100383540D01*
X161482860Y-100388620D01*
X161553980Y-100419100D01*
X161617480Y-100462280D01*
X161668280Y-100513080D01*
X161708920Y-100576580D01*
X161736860Y-100642620D01*
X161749560Y-100716280D01*
X161749560Y-100792480D01*
X161731780Y-100868680D01*
X161706380Y-100924560D01*
X161663200Y-100988060D01*
X161607320Y-101043940D01*
X161543820Y-101084580D01*
X161470160Y-101112520D01*
X161462540Y-101115060D01*
X161404120Y-101122680D01*
G36*
X165112520Y-98877320D02*
X165038860Y-98867160D01*
X164965200Y-98841760D01*
X164932180Y-98823980D01*
X164899160Y-98801120D01*
X164863600Y-98768100D01*
X164825500Y-98727460D01*
X164784860Y-98663960D01*
X164759460Y-98590300D01*
X164754380Y-98569980D01*
X164749300Y-98521720D01*
X164749300Y-98468380D01*
X164756920Y-98422660D01*
X164777240Y-98359160D01*
X164810260Y-98293120D01*
X164855980Y-98237240D01*
X164863600Y-98229620D01*
X164899160Y-98201680D01*
X164939800Y-98173740D01*
X164977900Y-98155960D01*
X164990600Y-98150880D01*
X165021080Y-98140720D01*
X165051560Y-98133100D01*
X165074420Y-98128020D01*
X165087120Y-98128020D01*
X165071880Y-98125480D01*
X165054100Y-98120400D01*
X165031240Y-98115320D01*
X165003300Y-98107700D01*
X164947420Y-98079760D01*
X164891540Y-98046740D01*
X164848360Y-98006100D01*
X164840740Y-97995940D01*
X164795020Y-97932440D01*
X164764540Y-97861320D01*
X164749300Y-97787660D01*
X164749300Y-97711460D01*
X164751840Y-97693680D01*
X164774700Y-97617480D01*
X164807720Y-97548900D01*
X164861060Y-97485400D01*
X164906780Y-97447300D01*
X164970280Y-97409200D01*
X165043940Y-97383800D01*
X165059180Y-97381260D01*
X165107440Y-97376180D01*
X165160780Y-97378720D01*
X165209040Y-97386340D01*
X165252220Y-97399040D01*
X165320800Y-97432060D01*
X165381760Y-97477780D01*
X165430020Y-97536200D01*
X165468120Y-97599700D01*
X165490980Y-97673360D01*
X165493520Y-97680980D01*
X165498600Y-97698760D01*
X165501140Y-97706380D01*
X165503680Y-97696220D01*
X165503680Y-97680980D01*
X165511300Y-97650500D01*
X165524000Y-97617480D01*
X165536700Y-97587000D01*
X165549400Y-97564140D01*
X165595120Y-97500640D01*
X165651000Y-97447300D01*
X165717040Y-97409200D01*
X165790700Y-97386340D01*
X165871980Y-97376180D01*
X165932940Y-97381260D01*
X166004060Y-97399040D01*
X166070100Y-97432060D01*
X166108200Y-97457460D01*
X166164080Y-97513340D01*
X166204720Y-97576840D01*
X166235200Y-97645420D01*
X166247900Y-97719080D01*
X166247900Y-97795280D01*
X166230120Y-97863860D01*
X166199640Y-97937520D01*
X166153920Y-97998480D01*
X166098040Y-98051820D01*
X166029460Y-98092460D01*
X165953260Y-98117860D01*
X165910080Y-98128020D01*
X165935480Y-98130560D01*
X165950720Y-98133100D01*
X166011680Y-98150880D01*
X166070100Y-98181360D01*
X166125980Y-98222000D01*
X166169160Y-98267720D01*
X166194560Y-98308360D01*
X166219960Y-98359160D01*
X166237740Y-98409960D01*
X166245360Y-98448060D01*
X166247900Y-98496320D01*
X166247900Y-98544580D01*
X166240280Y-98582680D01*
X166227580Y-98628400D01*
X166192020Y-98699520D01*
X166143760Y-98760480D01*
X166085340Y-98811280D01*
X166016760Y-98849380D01*
X165938020Y-98872240D01*
X165917700Y-98874780D01*
X165871980Y-98874780D01*
X165823720Y-98872240D01*
X165780540Y-98864620D01*
X165750060Y-98854460D01*
X165678940Y-98821440D01*
X165617980Y-98775720D01*
X165567180Y-98717300D01*
X165529080Y-98651260D01*
X165506220Y-98575060D01*
X165503680Y-98569980D01*
X165501140Y-98552200D01*
X165498600Y-98554740D01*
X165498600Y-98450600D01*
X165501140Y-98448060D01*
X165503680Y-98432820D01*
X165506220Y-98427740D01*
X165518920Y-98379480D01*
X165541780Y-98326140D01*
X165572260Y-98277880D01*
X165595120Y-98249940D01*
X165653540Y-98196600D01*
X165722120Y-98158500D01*
X165798320Y-98133100D01*
X165833880Y-98125480D01*
X165808480Y-98120400D01*
X165785620Y-98115320D01*
X165762760Y-98110240D01*
X165747520Y-98105160D01*
X165678940Y-98072140D01*
X165617980Y-98023880D01*
X165567180Y-97968000D01*
X165531620Y-97901960D01*
X165506220Y-97830840D01*
X165503680Y-97813060D01*
X165498600Y-97802900D01*
X165496060Y-97807980D01*
X165490980Y-97830840D01*
X165490980Y-97833380D01*
X165478280Y-97874020D01*
X165460500Y-97917200D01*
X165437640Y-97957840D01*
X165417320Y-97983240D01*
X165384300Y-98018800D01*
X165346200Y-98051820D01*
X165310640Y-98077220D01*
X165308100Y-98077220D01*
X165249680Y-98102620D01*
X165188720Y-98120400D01*
X165163320Y-98125480D01*
X165193800Y-98133100D01*
X165259840Y-98150880D01*
X165325880Y-98186440D01*
X165386840Y-98232160D01*
X165435100Y-98288040D01*
X165445260Y-98308360D01*
X165463040Y-98343920D01*
X165480820Y-98382020D01*
X165490980Y-98417580D01*
X165493520Y-98442980D01*
X165493520Y-98442980D01*
X165498600Y-98450600D01*
X165498600Y-98554740D01*
X165496060Y-98554740D01*
X165493520Y-98572520D01*
X165488440Y-98592840D01*
X165480820Y-98615700D01*
X165465580Y-98653800D01*
X165427480Y-98719840D01*
X165379220Y-98775720D01*
X165320800Y-98818900D01*
X165254760Y-98851920D01*
X165186180Y-98872240D01*
X165112520Y-98877320D01*
X165112520Y-98877320D01*
G37*
X165112520Y-98877320D02*
X165038860Y-98867160D01*
X164965200Y-98841760D01*
X164932180Y-98823980D01*
X164899160Y-98801120D01*
X164863600Y-98768100D01*
X164825500Y-98727460D01*
X164784860Y-98663960D01*
X164759460Y-98590300D01*
X164754380Y-98569980D01*
X164749300Y-98521720D01*
X164749300Y-98468380D01*
X164756920Y-98422660D01*
X164777240Y-98359160D01*
X164810260Y-98293120D01*
X164855980Y-98237240D01*
X164863600Y-98229620D01*
X164899160Y-98201680D01*
X164939800Y-98173740D01*
X164977900Y-98155960D01*
X164990600Y-98150880D01*
X165021080Y-98140720D01*
X165051560Y-98133100D01*
X165074420Y-98128020D01*
X165087120Y-98128020D01*
X165071880Y-98125480D01*
X165054100Y-98120400D01*
X165031240Y-98115320D01*
X165003300Y-98107700D01*
X164947420Y-98079760D01*
X164891540Y-98046740D01*
X164848360Y-98006100D01*
X164840740Y-97995940D01*
X164795020Y-97932440D01*
X164764540Y-97861320D01*
X164749300Y-97787660D01*
X164749300Y-97711460D01*
X164751840Y-97693680D01*
X164774700Y-97617480D01*
X164807720Y-97548900D01*
X164861060Y-97485400D01*
X164906780Y-97447300D01*
X164970280Y-97409200D01*
X165043940Y-97383800D01*
X165059180Y-97381260D01*
X165107440Y-97376180D01*
X165160780Y-97378720D01*
X165209040Y-97386340D01*
X165252220Y-97399040D01*
X165320800Y-97432060D01*
X165381760Y-97477780D01*
X165430020Y-97536200D01*
X165468120Y-97599700D01*
X165490980Y-97673360D01*
X165493520Y-97680980D01*
X165498600Y-97698760D01*
X165501140Y-97706380D01*
X165503680Y-97696220D01*
X165503680Y-97680980D01*
X165511300Y-97650500D01*
X165524000Y-97617480D01*
X165536700Y-97587000D01*
X165549400Y-97564140D01*
X165595120Y-97500640D01*
X165651000Y-97447300D01*
X165717040Y-97409200D01*
X165790700Y-97386340D01*
X165871980Y-97376180D01*
X165932940Y-97381260D01*
X166004060Y-97399040D01*
X166070100Y-97432060D01*
X166108200Y-97457460D01*
X166164080Y-97513340D01*
X166204720Y-97576840D01*
X166235200Y-97645420D01*
X166247900Y-97719080D01*
X166247900Y-97795280D01*
X166230120Y-97863860D01*
X166199640Y-97937520D01*
X166153920Y-97998480D01*
X166098040Y-98051820D01*
X166029460Y-98092460D01*
X165953260Y-98117860D01*
X165910080Y-98128020D01*
X165935480Y-98130560D01*
X165950720Y-98133100D01*
X166011680Y-98150880D01*
X166070100Y-98181360D01*
X166125980Y-98222000D01*
X166169160Y-98267720D01*
X166194560Y-98308360D01*
X166219960Y-98359160D01*
X166237740Y-98409960D01*
X166245360Y-98448060D01*
X166247900Y-98496320D01*
X166247900Y-98544580D01*
X166240280Y-98582680D01*
X166227580Y-98628400D01*
X166192020Y-98699520D01*
X166143760Y-98760480D01*
X166085340Y-98811280D01*
X166016760Y-98849380D01*
X165938020Y-98872240D01*
X165917700Y-98874780D01*
X165871980Y-98874780D01*
X165823720Y-98872240D01*
X165780540Y-98864620D01*
X165750060Y-98854460D01*
X165678940Y-98821440D01*
X165617980Y-98775720D01*
X165567180Y-98717300D01*
X165529080Y-98651260D01*
X165506220Y-98575060D01*
X165503680Y-98569980D01*
X165501140Y-98552200D01*
X165498600Y-98554740D01*
X165498600Y-98450600D01*
X165501140Y-98448060D01*
X165503680Y-98432820D01*
X165506220Y-98427740D01*
X165518920Y-98379480D01*
X165541780Y-98326140D01*
X165572260Y-98277880D01*
X165595120Y-98249940D01*
X165653540Y-98196600D01*
X165722120Y-98158500D01*
X165798320Y-98133100D01*
X165833880Y-98125480D01*
X165808480Y-98120400D01*
X165785620Y-98115320D01*
X165762760Y-98110240D01*
X165747520Y-98105160D01*
X165678940Y-98072140D01*
X165617980Y-98023880D01*
X165567180Y-97968000D01*
X165531620Y-97901960D01*
X165506220Y-97830840D01*
X165503680Y-97813060D01*
X165498600Y-97802900D01*
X165496060Y-97807980D01*
X165490980Y-97830840D01*
X165490980Y-97833380D01*
X165478280Y-97874020D01*
X165460500Y-97917200D01*
X165437640Y-97957840D01*
X165417320Y-97983240D01*
X165384300Y-98018800D01*
X165346200Y-98051820D01*
X165310640Y-98077220D01*
X165308100Y-98077220D01*
X165249680Y-98102620D01*
X165188720Y-98120400D01*
X165163320Y-98125480D01*
X165193800Y-98133100D01*
X165259840Y-98150880D01*
X165325880Y-98186440D01*
X165386840Y-98232160D01*
X165435100Y-98288040D01*
X165445260Y-98308360D01*
X165463040Y-98343920D01*
X165480820Y-98382020D01*
X165490980Y-98417580D01*
X165493520Y-98442980D01*
X165493520Y-98442980D01*
X165498600Y-98450600D01*
X165498600Y-98554740D01*
X165496060Y-98554740D01*
X165493520Y-98572520D01*
X165488440Y-98592840D01*
X165480820Y-98615700D01*
X165465580Y-98653800D01*
X165427480Y-98719840D01*
X165379220Y-98775720D01*
X165320800Y-98818900D01*
X165254760Y-98851920D01*
X165186180Y-98872240D01*
X165112520Y-98877320D01*
G36*
X162857000Y-98877320D02*
X162783340Y-98864620D01*
X162712220Y-98839220D01*
X162648720Y-98798580D01*
X162595380Y-98747780D01*
X162549660Y-98686820D01*
X162519180Y-98615700D01*
X162511560Y-98592840D01*
X162506480Y-98572520D01*
X162506480Y-98567440D01*
X162501400Y-98552200D01*
X162501400Y-98552200D01*
X162501400Y-98448060D01*
X162506480Y-98437900D01*
X162511560Y-98412500D01*
X162524260Y-98369320D01*
X162557280Y-98300740D01*
X162603000Y-98242320D01*
X162661420Y-98194060D01*
X162727460Y-98155960D01*
X162801120Y-98133100D01*
X162836680Y-98125480D01*
X162811280Y-98120400D01*
X162808740Y-98120400D01*
X162747780Y-98102620D01*
X162689360Y-98077220D01*
X162666500Y-98061980D01*
X162628400Y-98028960D01*
X162590300Y-97993400D01*
X162562360Y-97957840D01*
X162544580Y-97924820D01*
X162521720Y-97876560D01*
X162509020Y-97833380D01*
X162506480Y-97813060D01*
X162501400Y-97802900D01*
X162498860Y-97807980D01*
X162493780Y-97830840D01*
X162478540Y-97879100D01*
X162445520Y-97950220D01*
X162394720Y-98011180D01*
X162338840Y-98059440D01*
X162270260Y-98097540D01*
X162191520Y-98120400D01*
X162166120Y-98125480D01*
X162201680Y-98133100D01*
X162237240Y-98143260D01*
X162308360Y-98173740D01*
X162371860Y-98219460D01*
X162425200Y-98277880D01*
X162442980Y-98298200D01*
X162460760Y-98333760D01*
X162478540Y-98371860D01*
X162488700Y-98399800D01*
X162493780Y-98427740D01*
X162493780Y-98430280D01*
X162498860Y-98445520D01*
X162501400Y-98448060D01*
X162501400Y-98552200D01*
X162498860Y-98554740D01*
X162493780Y-98575060D01*
X162488700Y-98600460D01*
X162465840Y-98656340D01*
X162437900Y-98709680D01*
X162415040Y-98737620D01*
X162359160Y-98793500D01*
X162293120Y-98836680D01*
X162216920Y-98864620D01*
X162183900Y-98872240D01*
X162133100Y-98874780D01*
X162079760Y-98872240D01*
X162034040Y-98864620D01*
X162028960Y-98864620D01*
X161952760Y-98834140D01*
X161886720Y-98790960D01*
X161833380Y-98735080D01*
X161790200Y-98669040D01*
X161762260Y-98592840D01*
X161754640Y-98559820D01*
X161752100Y-98506480D01*
X161754640Y-98455680D01*
X161762260Y-98409960D01*
X161774960Y-98369320D01*
X161800360Y-98315980D01*
X161830840Y-98267720D01*
X161866400Y-98232160D01*
X161912120Y-98194060D01*
X161960380Y-98163580D01*
X161978160Y-98155960D01*
X162013720Y-98143260D01*
X162049280Y-98133100D01*
X162074680Y-98128020D01*
X162077220Y-98128020D01*
X162069600Y-98125480D01*
X162046740Y-98117860D01*
X162003560Y-98105160D01*
X161955300Y-98084840D01*
X161914660Y-98061980D01*
X161904500Y-98054360D01*
X161856240Y-98011180D01*
X161813060Y-97957840D01*
X161782580Y-97901960D01*
X161769880Y-97874020D01*
X161754640Y-97800360D01*
X161752100Y-97721620D01*
X161764800Y-97647960D01*
X161769880Y-97630180D01*
X161802900Y-97561600D01*
X161848620Y-97500640D01*
X161904500Y-97447300D01*
X161970540Y-97409200D01*
X162046740Y-97383800D01*
X162056900Y-97381260D01*
X162107700Y-97376180D01*
X162163580Y-97378720D01*
X162211840Y-97386340D01*
X162224540Y-97388880D01*
X162298200Y-97416820D01*
X162364240Y-97460000D01*
X162420120Y-97518420D01*
X162463300Y-97587000D01*
X162473460Y-97607320D01*
X162483620Y-97640340D01*
X162493780Y-97673360D01*
X162496320Y-97696220D01*
X162496320Y-97701300D01*
X162498860Y-97703840D01*
X162503940Y-97693680D01*
X162509020Y-97673360D01*
X162521720Y-97622560D01*
X162554740Y-97556520D01*
X162600460Y-97498100D01*
X162656340Y-97447300D01*
X162722380Y-97409200D01*
X162722380Y-97409200D01*
X162790960Y-97386340D01*
X162867160Y-97376180D01*
X162943360Y-97381260D01*
X163014480Y-97401580D01*
X163055120Y-97421900D01*
X163118620Y-97465080D01*
X163171960Y-97520960D01*
X163212600Y-97587000D01*
X163240540Y-97660660D01*
X163243080Y-97675900D01*
X163253240Y-97736860D01*
X163248160Y-97795280D01*
X163232920Y-97863860D01*
X163202440Y-97934980D01*
X163156720Y-97998480D01*
X163100840Y-98051820D01*
X163032260Y-98092460D01*
X162956060Y-98117860D01*
X162940820Y-98122940D01*
X162925580Y-98128020D01*
X162925580Y-98128020D01*
X162948440Y-98130560D01*
X162991620Y-98143260D01*
X163037340Y-98163580D01*
X163083060Y-98188980D01*
X163123700Y-98219460D01*
X163177040Y-98277880D01*
X163217680Y-98346460D01*
X163222760Y-98356620D01*
X163245620Y-98430280D01*
X163250700Y-98506480D01*
X163243080Y-98585220D01*
X163217680Y-98656340D01*
X163199900Y-98691900D01*
X163177040Y-98724920D01*
X163144020Y-98760480D01*
X163144020Y-98763020D01*
X163083060Y-98813820D01*
X163014480Y-98849380D01*
X162940820Y-98869700D01*
X162933200Y-98872240D01*
X162857000Y-98877320D01*
X162857000Y-98877320D01*
G37*
X162857000Y-98877320D02*
X162783340Y-98864620D01*
X162712220Y-98839220D01*
X162648720Y-98798580D01*
X162595380Y-98747780D01*
X162549660Y-98686820D01*
X162519180Y-98615700D01*
X162511560Y-98592840D01*
X162506480Y-98572520D01*
X162506480Y-98567440D01*
X162501400Y-98552200D01*
X162501400Y-98552200D01*
X162501400Y-98448060D01*
X162506480Y-98437900D01*
X162511560Y-98412500D01*
X162524260Y-98369320D01*
X162557280Y-98300740D01*
X162603000Y-98242320D01*
X162661420Y-98194060D01*
X162727460Y-98155960D01*
X162801120Y-98133100D01*
X162836680Y-98125480D01*
X162811280Y-98120400D01*
X162808740Y-98120400D01*
X162747780Y-98102620D01*
X162689360Y-98077220D01*
X162666500Y-98061980D01*
X162628400Y-98028960D01*
X162590300Y-97993400D01*
X162562360Y-97957840D01*
X162544580Y-97924820D01*
X162521720Y-97876560D01*
X162509020Y-97833380D01*
X162506480Y-97813060D01*
X162501400Y-97802900D01*
X162498860Y-97807980D01*
X162493780Y-97830840D01*
X162478540Y-97879100D01*
X162445520Y-97950220D01*
X162394720Y-98011180D01*
X162338840Y-98059440D01*
X162270260Y-98097540D01*
X162191520Y-98120400D01*
X162166120Y-98125480D01*
X162201680Y-98133100D01*
X162237240Y-98143260D01*
X162308360Y-98173740D01*
X162371860Y-98219460D01*
X162425200Y-98277880D01*
X162442980Y-98298200D01*
X162460760Y-98333760D01*
X162478540Y-98371860D01*
X162488700Y-98399800D01*
X162493780Y-98427740D01*
X162493780Y-98430280D01*
X162498860Y-98445520D01*
X162501400Y-98448060D01*
X162501400Y-98552200D01*
X162498860Y-98554740D01*
X162493780Y-98575060D01*
X162488700Y-98600460D01*
X162465840Y-98656340D01*
X162437900Y-98709680D01*
X162415040Y-98737620D01*
X162359160Y-98793500D01*
X162293120Y-98836680D01*
X162216920Y-98864620D01*
X162183900Y-98872240D01*
X162133100Y-98874780D01*
X162079760Y-98872240D01*
X162034040Y-98864620D01*
X162028960Y-98864620D01*
X161952760Y-98834140D01*
X161886720Y-98790960D01*
X161833380Y-98735080D01*
X161790200Y-98669040D01*
X161762260Y-98592840D01*
X161754640Y-98559820D01*
X161752100Y-98506480D01*
X161754640Y-98455680D01*
X161762260Y-98409960D01*
X161774960Y-98369320D01*
X161800360Y-98315980D01*
X161830840Y-98267720D01*
X161866400Y-98232160D01*
X161912120Y-98194060D01*
X161960380Y-98163580D01*
X161978160Y-98155960D01*
X162013720Y-98143260D01*
X162049280Y-98133100D01*
X162074680Y-98128020D01*
X162077220Y-98128020D01*
X162069600Y-98125480D01*
X162046740Y-98117860D01*
X162003560Y-98105160D01*
X161955300Y-98084840D01*
X161914660Y-98061980D01*
X161904500Y-98054360D01*
X161856240Y-98011180D01*
X161813060Y-97957840D01*
X161782580Y-97901960D01*
X161769880Y-97874020D01*
X161754640Y-97800360D01*
X161752100Y-97721620D01*
X161764800Y-97647960D01*
X161769880Y-97630180D01*
X161802900Y-97561600D01*
X161848620Y-97500640D01*
X161904500Y-97447300D01*
X161970540Y-97409200D01*
X162046740Y-97383800D01*
X162056900Y-97381260D01*
X162107700Y-97376180D01*
X162163580Y-97378720D01*
X162211840Y-97386340D01*
X162224540Y-97388880D01*
X162298200Y-97416820D01*
X162364240Y-97460000D01*
X162420120Y-97518420D01*
X162463300Y-97587000D01*
X162473460Y-97607320D01*
X162483620Y-97640340D01*
X162493780Y-97673360D01*
X162496320Y-97696220D01*
X162496320Y-97701300D01*
X162498860Y-97703840D01*
X162503940Y-97693680D01*
X162509020Y-97673360D01*
X162521720Y-97622560D01*
X162554740Y-97556520D01*
X162600460Y-97498100D01*
X162656340Y-97447300D01*
X162722380Y-97409200D01*
X162722380Y-97409200D01*
X162790960Y-97386340D01*
X162867160Y-97376180D01*
X162943360Y-97381260D01*
X163014480Y-97401580D01*
X163055120Y-97421900D01*
X163118620Y-97465080D01*
X163171960Y-97520960D01*
X163212600Y-97587000D01*
X163240540Y-97660660D01*
X163243080Y-97675900D01*
X163253240Y-97736860D01*
X163248160Y-97795280D01*
X163232920Y-97863860D01*
X163202440Y-97934980D01*
X163156720Y-97998480D01*
X163100840Y-98051820D01*
X163032260Y-98092460D01*
X162956060Y-98117860D01*
X162940820Y-98122940D01*
X162925580Y-98128020D01*
X162925580Y-98128020D01*
X162948440Y-98130560D01*
X162991620Y-98143260D01*
X163037340Y-98163580D01*
X163083060Y-98188980D01*
X163123700Y-98219460D01*
X163177040Y-98277880D01*
X163217680Y-98346460D01*
X163222760Y-98356620D01*
X163245620Y-98430280D01*
X163250700Y-98506480D01*
X163243080Y-98585220D01*
X163217680Y-98656340D01*
X163199900Y-98691900D01*
X163177040Y-98724920D01*
X163144020Y-98760480D01*
X163144020Y-98763020D01*
X163083060Y-98813820D01*
X163014480Y-98849380D01*
X162940820Y-98869700D01*
X162933200Y-98872240D01*
X162857000Y-98877320D01*
G36*
X139818640Y-102694940D02*
X139785620Y-102677160D01*
X139717040Y-102633980D01*
X139615440Y-102567940D01*
X139498600Y-102489200D01*
X139379220Y-102407920D01*
X139280160Y-102341880D01*
X139211580Y-102298700D01*
X139183640Y-102283460D01*
X139168400Y-102288540D01*
X139112520Y-102316480D01*
X139031240Y-102359660D01*
X138982980Y-102382520D01*
X138906780Y-102415540D01*
X138871220Y-102423160D01*
X138863600Y-102413000D01*
X138835660Y-102354580D01*
X138792480Y-102255520D01*
X138736600Y-102125980D01*
X138670560Y-101973580D01*
X138601980Y-101808480D01*
X138533400Y-101640840D01*
X138467360Y-101483360D01*
X138406400Y-101338580D01*
X138360680Y-101221740D01*
X138330200Y-101140460D01*
X138317500Y-101104900D01*
X138322580Y-101097280D01*
X138358140Y-101061720D01*
X138424180Y-101013460D01*
X138566420Y-100896620D01*
X138706120Y-100721360D01*
X138792480Y-100523240D01*
X138820420Y-100302260D01*
X138797560Y-100099060D01*
X138716280Y-99903480D01*
X138579120Y-99725680D01*
X138411480Y-99593600D01*
X138218440Y-99512320D01*
X138000000Y-99484380D01*
X137791720Y-99507240D01*
X137591060Y-99585980D01*
X137413260Y-99720600D01*
X137339600Y-99806960D01*
X137235460Y-99987300D01*
X137177040Y-100177800D01*
X137171960Y-100226060D01*
X137179580Y-100436880D01*
X137243080Y-100640080D01*
X137352300Y-100820420D01*
X137507240Y-100967740D01*
X137527560Y-100982980D01*
X137598680Y-101036320D01*
X137646940Y-101071880D01*
X137685040Y-101102360D01*
X137415800Y-101750060D01*
X137372620Y-101851660D01*
X137298960Y-102026920D01*
X137235460Y-102179320D01*
X137182120Y-102301240D01*
X137146560Y-102382520D01*
X137131320Y-102415540D01*
X137128780Y-102415540D01*
X137105920Y-102420620D01*
X137057660Y-102402840D01*
X136966220Y-102359660D01*
X136907800Y-102329180D01*
X136839220Y-102296160D01*
X136808740Y-102283460D01*
X136780800Y-102296160D01*
X136714760Y-102339340D01*
X136620780Y-102405380D01*
X136503940Y-102481580D01*
X136394720Y-102557780D01*
X136293120Y-102623820D01*
X136219460Y-102672080D01*
X136183900Y-102689860D01*
X136178820Y-102689860D01*
X136145800Y-102672080D01*
X136087380Y-102623820D01*
X136001020Y-102540000D01*
X135876560Y-102418080D01*
X135856240Y-102400300D01*
X135754640Y-102296160D01*
X135670820Y-102207260D01*
X135614940Y-102146300D01*
X135594620Y-102118360D01*
X135594620Y-102118360D01*
X135614940Y-102082800D01*
X135660660Y-102009140D01*
X135726700Y-101907540D01*
X135807980Y-101785620D01*
X136023880Y-101475740D01*
X135904500Y-101183640D01*
X135868940Y-101092200D01*
X135823220Y-100982980D01*
X135790200Y-100906780D01*
X135772420Y-100871220D01*
X135739400Y-100861060D01*
X135660660Y-100840740D01*
X135543820Y-100817880D01*
X135404120Y-100792480D01*
X135272040Y-100767080D01*
X135152660Y-100744220D01*
X135066300Y-100728980D01*
X135028200Y-100721360D01*
X135018040Y-100713740D01*
X135010420Y-100695960D01*
X135005340Y-100655320D01*
X135002800Y-100581660D01*
X135000260Y-100467360D01*
X135000260Y-100302260D01*
X135000260Y-100284480D01*
X135002800Y-100127000D01*
X135005340Y-100002540D01*
X135010420Y-99921260D01*
X135015500Y-99888240D01*
X135015500Y-99888240D01*
X135053600Y-99878080D01*
X135137420Y-99860300D01*
X135256800Y-99837440D01*
X135399040Y-99809500D01*
X135409200Y-99809500D01*
X135551440Y-99781560D01*
X135668280Y-99756160D01*
X135752100Y-99738380D01*
X135787660Y-99725680D01*
X135795280Y-99715520D01*
X135823220Y-99659640D01*
X135863860Y-99573280D01*
X135912120Y-99466600D01*
X135957840Y-99354840D01*
X135998480Y-99253240D01*
X136023880Y-99179580D01*
X136031500Y-99144020D01*
X136031500Y-99144020D01*
X136011180Y-99111000D01*
X135962920Y-99037340D01*
X135891800Y-98935740D01*
X135810520Y-98813820D01*
X135802900Y-98803660D01*
X135721620Y-98684280D01*
X135655580Y-98582680D01*
X135612400Y-98511560D01*
X135594620Y-98478540D01*
X135594620Y-98476000D01*
X135622560Y-98440440D01*
X135683520Y-98371860D01*
X135772420Y-98280420D01*
X135876560Y-98176280D01*
X135909580Y-98143260D01*
X136026420Y-98028960D01*
X136107700Y-97955300D01*
X136158500Y-97914660D01*
X136181360Y-97904500D01*
X136183900Y-97907040D01*
X136219460Y-97927360D01*
X136295660Y-97978160D01*
X136397260Y-98046740D01*
X136519180Y-98130560D01*
X136526800Y-98135640D01*
X136648720Y-98216920D01*
X136747780Y-98285500D01*
X136818900Y-98331220D01*
X136849380Y-98349000D01*
X136854460Y-98349000D01*
X136902720Y-98336300D01*
X136989080Y-98305820D01*
X137093220Y-98265180D01*
X137204980Y-98222000D01*
X137306580Y-98178820D01*
X137380240Y-98143260D01*
X137415800Y-98122940D01*
X137418340Y-98122940D01*
X137431040Y-98079760D01*
X137451360Y-97988320D01*
X137476760Y-97866400D01*
X137504700Y-97719080D01*
X137509780Y-97696220D01*
X137535180Y-97551440D01*
X137558040Y-97434600D01*
X137575820Y-97353320D01*
X137583440Y-97317760D01*
X137603760Y-97315220D01*
X137674880Y-97310140D01*
X137781560Y-97305060D01*
X137911100Y-97305060D01*
X138045720Y-97305060D01*
X138177800Y-97307600D01*
X138289560Y-97312680D01*
X138370840Y-97317760D01*
X138406400Y-97325380D01*
X138406400Y-97327920D01*
X138419100Y-97371100D01*
X138439420Y-97460000D01*
X138464820Y-97584460D01*
X138492760Y-97731780D01*
X138497840Y-97759720D01*
X138523240Y-97901960D01*
X138548640Y-98018800D01*
X138566420Y-98097540D01*
X138574040Y-98130560D01*
X138586740Y-98135640D01*
X138645160Y-98163580D01*
X138741680Y-98201680D01*
X138861060Y-98249940D01*
X139135380Y-98361700D01*
X139470660Y-98130560D01*
X139501140Y-98110240D01*
X139623060Y-98026420D01*
X139722120Y-97960380D01*
X139793240Y-97917200D01*
X139821180Y-97899420D01*
X139823720Y-97901960D01*
X139856740Y-97929900D01*
X139922780Y-97993400D01*
X140014220Y-98082300D01*
X140120900Y-98186440D01*
X140199640Y-98265180D01*
X140291080Y-98359160D01*
X140349500Y-98422660D01*
X140382520Y-98463300D01*
X140395220Y-98488700D01*
X140390140Y-98506480D01*
X140369820Y-98539500D01*
X140319020Y-98613160D01*
X140250440Y-98717300D01*
X140169160Y-98834140D01*
X140100580Y-98935740D01*
X140026920Y-99047500D01*
X139981200Y-99128780D01*
X139963420Y-99166880D01*
X139968500Y-99184660D01*
X139991360Y-99250700D01*
X140032000Y-99349760D01*
X140082800Y-99469140D01*
X140199640Y-99735840D01*
X140374900Y-99768860D01*
X140479040Y-99789180D01*
X140628900Y-99817120D01*
X140771140Y-99845060D01*
X140992120Y-99888240D01*
X140999740Y-100698500D01*
X140964180Y-100713740D01*
X140931160Y-100723900D01*
X140849880Y-100741680D01*
X140733040Y-100764540D01*
X140595880Y-100789940D01*
X140476500Y-100812800D01*
X140359660Y-100835660D01*
X140273300Y-100850900D01*
X140235200Y-100858520D01*
X140227580Y-100871220D01*
X140197100Y-100929640D01*
X140153920Y-101021080D01*
X140108200Y-101130300D01*
X140059940Y-101244600D01*
X140019300Y-101348740D01*
X139988820Y-101430020D01*
X139978660Y-101470660D01*
X139993900Y-101501140D01*
X140039620Y-101572260D01*
X140105660Y-101671320D01*
X140184400Y-101788160D01*
X140265680Y-101907540D01*
X140334260Y-102006600D01*
X140382520Y-102080260D01*
X140400300Y-102113280D01*
X140390140Y-102136140D01*
X140344420Y-102192020D01*
X140255520Y-102283460D01*
X140123440Y-102415540D01*
X140100580Y-102435860D01*
X139996440Y-102537460D01*
X139907540Y-102618740D01*
X139846580Y-102674620D01*
X139818640Y-102694940D01*
X139818640Y-102694940D01*
G37*
X139818640Y-102694940D02*
X139785620Y-102677160D01*
X139717040Y-102633980D01*
X139615440Y-102567940D01*
X139498600Y-102489200D01*
X139379220Y-102407920D01*
X139280160Y-102341880D01*
X139211580Y-102298700D01*
X139183640Y-102283460D01*
X139168400Y-102288540D01*
X139112520Y-102316480D01*
X139031240Y-102359660D01*
X138982980Y-102382520D01*
X138906780Y-102415540D01*
X138871220Y-102423160D01*
X138863600Y-102413000D01*
X138835660Y-102354580D01*
X138792480Y-102255520D01*
X138736600Y-102125980D01*
X138670560Y-101973580D01*
X138601980Y-101808480D01*
X138533400Y-101640840D01*
X138467360Y-101483360D01*
X138406400Y-101338580D01*
X138360680Y-101221740D01*
X138330200Y-101140460D01*
X138317500Y-101104900D01*
X138322580Y-101097280D01*
X138358140Y-101061720D01*
X138424180Y-101013460D01*
X138566420Y-100896620D01*
X138706120Y-100721360D01*
X138792480Y-100523240D01*
X138820420Y-100302260D01*
X138797560Y-100099060D01*
X138716280Y-99903480D01*
X138579120Y-99725680D01*
X138411480Y-99593600D01*
X138218440Y-99512320D01*
X138000000Y-99484380D01*
X137791720Y-99507240D01*
X137591060Y-99585980D01*
X137413260Y-99720600D01*
X137339600Y-99806960D01*
X137235460Y-99987300D01*
X137177040Y-100177800D01*
X137171960Y-100226060D01*
X137179580Y-100436880D01*
X137243080Y-100640080D01*
X137352300Y-100820420D01*
X137507240Y-100967740D01*
X137527560Y-100982980D01*
X137598680Y-101036320D01*
X137646940Y-101071880D01*
X137685040Y-101102360D01*
X137415800Y-101750060D01*
X137372620Y-101851660D01*
X137298960Y-102026920D01*
X137235460Y-102179320D01*
X137182120Y-102301240D01*
X137146560Y-102382520D01*
X137131320Y-102415540D01*
X137128780Y-102415540D01*
X137105920Y-102420620D01*
X137057660Y-102402840D01*
X136966220Y-102359660D01*
X136907800Y-102329180D01*
X136839220Y-102296160D01*
X136808740Y-102283460D01*
X136780800Y-102296160D01*
X136714760Y-102339340D01*
X136620780Y-102405380D01*
X136503940Y-102481580D01*
X136394720Y-102557780D01*
X136293120Y-102623820D01*
X136219460Y-102672080D01*
X136183900Y-102689860D01*
X136178820Y-102689860D01*
X136145800Y-102672080D01*
X136087380Y-102623820D01*
X136001020Y-102540000D01*
X135876560Y-102418080D01*
X135856240Y-102400300D01*
X135754640Y-102296160D01*
X135670820Y-102207260D01*
X135614940Y-102146300D01*
X135594620Y-102118360D01*
X135594620Y-102118360D01*
X135614940Y-102082800D01*
X135660660Y-102009140D01*
X135726700Y-101907540D01*
X135807980Y-101785620D01*
X136023880Y-101475740D01*
X135904500Y-101183640D01*
X135868940Y-101092200D01*
X135823220Y-100982980D01*
X135790200Y-100906780D01*
X135772420Y-100871220D01*
X135739400Y-100861060D01*
X135660660Y-100840740D01*
X135543820Y-100817880D01*
X135404120Y-100792480D01*
X135272040Y-100767080D01*
X135152660Y-100744220D01*
X135066300Y-100728980D01*
X135028200Y-100721360D01*
X135018040Y-100713740D01*
X135010420Y-100695960D01*
X135005340Y-100655320D01*
X135002800Y-100581660D01*
X135000260Y-100467360D01*
X135000260Y-100302260D01*
X135000260Y-100284480D01*
X135002800Y-100127000D01*
X135005340Y-100002540D01*
X135010420Y-99921260D01*
X135015500Y-99888240D01*
X135015500Y-99888240D01*
X135053600Y-99878080D01*
X135137420Y-99860300D01*
X135256800Y-99837440D01*
X135399040Y-99809500D01*
X135409200Y-99809500D01*
X135551440Y-99781560D01*
X135668280Y-99756160D01*
X135752100Y-99738380D01*
X135787660Y-99725680D01*
X135795280Y-99715520D01*
X135823220Y-99659640D01*
X135863860Y-99573280D01*
X135912120Y-99466600D01*
X135957840Y-99354840D01*
X135998480Y-99253240D01*
X136023880Y-99179580D01*
X136031500Y-99144020D01*
X136031500Y-99144020D01*
X136011180Y-99111000D01*
X135962920Y-99037340D01*
X135891800Y-98935740D01*
X135810520Y-98813820D01*
X135802900Y-98803660D01*
X135721620Y-98684280D01*
X135655580Y-98582680D01*
X135612400Y-98511560D01*
X135594620Y-98478540D01*
X135594620Y-98476000D01*
X135622560Y-98440440D01*
X135683520Y-98371860D01*
X135772420Y-98280420D01*
X135876560Y-98176280D01*
X135909580Y-98143260D01*
X136026420Y-98028960D01*
X136107700Y-97955300D01*
X136158500Y-97914660D01*
X136181360Y-97904500D01*
X136183900Y-97907040D01*
X136219460Y-97927360D01*
X136295660Y-97978160D01*
X136397260Y-98046740D01*
X136519180Y-98130560D01*
X136526800Y-98135640D01*
X136648720Y-98216920D01*
X136747780Y-98285500D01*
X136818900Y-98331220D01*
X136849380Y-98349000D01*
X136854460Y-98349000D01*
X136902720Y-98336300D01*
X136989080Y-98305820D01*
X137093220Y-98265180D01*
X137204980Y-98222000D01*
X137306580Y-98178820D01*
X137380240Y-98143260D01*
X137415800Y-98122940D01*
X137418340Y-98122940D01*
X137431040Y-98079760D01*
X137451360Y-97988320D01*
X137476760Y-97866400D01*
X137504700Y-97719080D01*
X137509780Y-97696220D01*
X137535180Y-97551440D01*
X137558040Y-97434600D01*
X137575820Y-97353320D01*
X137583440Y-97317760D01*
X137603760Y-97315220D01*
X137674880Y-97310140D01*
X137781560Y-97305060D01*
X137911100Y-97305060D01*
X138045720Y-97305060D01*
X138177800Y-97307600D01*
X138289560Y-97312680D01*
X138370840Y-97317760D01*
X138406400Y-97325380D01*
X138406400Y-97327920D01*
X138419100Y-97371100D01*
X138439420Y-97460000D01*
X138464820Y-97584460D01*
X138492760Y-97731780D01*
X138497840Y-97759720D01*
X138523240Y-97901960D01*
X138548640Y-98018800D01*
X138566420Y-98097540D01*
X138574040Y-98130560D01*
X138586740Y-98135640D01*
X138645160Y-98163580D01*
X138741680Y-98201680D01*
X138861060Y-98249940D01*
X139135380Y-98361700D01*
X139470660Y-98130560D01*
X139501140Y-98110240D01*
X139623060Y-98026420D01*
X139722120Y-97960380D01*
X139793240Y-97917200D01*
X139821180Y-97899420D01*
X139823720Y-97901960D01*
X139856740Y-97929900D01*
X139922780Y-97993400D01*
X140014220Y-98082300D01*
X140120900Y-98186440D01*
X140199640Y-98265180D01*
X140291080Y-98359160D01*
X140349500Y-98422660D01*
X140382520Y-98463300D01*
X140395220Y-98488700D01*
X140390140Y-98506480D01*
X140369820Y-98539500D01*
X140319020Y-98613160D01*
X140250440Y-98717300D01*
X140169160Y-98834140D01*
X140100580Y-98935740D01*
X140026920Y-99047500D01*
X139981200Y-99128780D01*
X139963420Y-99166880D01*
X139968500Y-99184660D01*
X139991360Y-99250700D01*
X140032000Y-99349760D01*
X140082800Y-99469140D01*
X140199640Y-99735840D01*
X140374900Y-99768860D01*
X140479040Y-99789180D01*
X140628900Y-99817120D01*
X140771140Y-99845060D01*
X140992120Y-99888240D01*
X140999740Y-100698500D01*
X140964180Y-100713740D01*
X140931160Y-100723900D01*
X140849880Y-100741680D01*
X140733040Y-100764540D01*
X140595880Y-100789940D01*
X140476500Y-100812800D01*
X140359660Y-100835660D01*
X140273300Y-100850900D01*
X140235200Y-100858520D01*
X140227580Y-100871220D01*
X140197100Y-100929640D01*
X140153920Y-101021080D01*
X140108200Y-101130300D01*
X140059940Y-101244600D01*
X140019300Y-101348740D01*
X139988820Y-101430020D01*
X139978660Y-101470660D01*
X139993900Y-101501140D01*
X140039620Y-101572260D01*
X140105660Y-101671320D01*
X140184400Y-101788160D01*
X140265680Y-101907540D01*
X140334260Y-102006600D01*
X140382520Y-102080260D01*
X140400300Y-102113280D01*
X140390140Y-102136140D01*
X140344420Y-102192020D01*
X140255520Y-102283460D01*
X140123440Y-102415540D01*
X140100580Y-102435860D01*
X139996440Y-102537460D01*
X139907540Y-102618740D01*
X139846580Y-102674620D01*
X139818640Y-102694940D01*
D14*
X167873810Y-92722381D02*
X167540477Y-93722381D01*
X167207143Y-92722381D01*
X166730953Y-93722381D02*
X166826191Y-93674762D01*
X166873810Y-93627143D01*
X166921429Y-93531905D01*
X166921429Y-93246190D01*
X166873810Y-93150952D01*
X166826191Y-93103333D01*
X166730953Y-93055714D01*
X166588095Y-93055714D01*
X166492857Y-93103333D01*
X166445238Y-93150952D01*
X166397619Y-93246190D01*
X166397619Y-93531905D01*
X166445238Y-93627143D01*
X166492857Y-93674762D01*
X166588095Y-93722381D01*
X166730953Y-93722381D01*
X165540476Y-93055714D02*
X165540476Y-93722381D01*
X165969048Y-93055714D02*
X165969048Y-93579524D01*
X165921429Y-93674762D01*
X165826191Y-93722381D01*
X165683333Y-93722381D01*
X165588095Y-93674762D01*
X165540476Y-93627143D01*
X165207143Y-93055714D02*
X164826191Y-93055714D01*
X165064286Y-92722381D02*
X165064286Y-93579524D01*
X165016667Y-93674762D01*
X164921429Y-93722381D01*
X164826191Y-93722381D01*
X179811904Y-92770000D02*
X179907142Y-92722381D01*
X180049999Y-92722381D01*
X180192857Y-92770000D01*
X180288095Y-92865238D01*
X180335714Y-92960476D01*
X180383333Y-93150952D01*
X180383333Y-93293810D01*
X180335714Y-93484286D01*
X180288095Y-93579524D01*
X180192857Y-93674762D01*
X180049999Y-93722381D01*
X179954761Y-93722381D01*
X179811904Y-93674762D01*
X179764285Y-93627143D01*
X179764285Y-93293810D01*
X179954761Y-93293810D01*
X179335714Y-93722381D02*
X179335714Y-92722381D01*
X178764285Y-93722381D01*
X178764285Y-92722381D01*
X178288095Y-93722381D02*
X178288095Y-92722381D01*
X178050000Y-92722381D01*
X177907142Y-92770000D01*
X177811904Y-92865238D01*
X177764285Y-92960476D01*
X177716666Y-93150952D01*
X177716666Y-93293810D01*
X177764285Y-93484286D01*
X177811904Y-93579524D01*
X177907142Y-93674762D01*
X178050000Y-93722381D01*
X178288095Y-93722381D01*
X176208095Y-91182381D02*
X176017619Y-91182381D01*
X175922380Y-91134762D01*
X175874761Y-91087143D01*
X175779523Y-90944286D01*
X175731904Y-90753810D01*
X175731904Y-90372857D01*
X175779523Y-90277619D01*
X175827142Y-90230000D01*
X175922380Y-90182381D01*
X176112857Y-90182381D01*
X176208095Y-90230000D01*
X176255714Y-90277619D01*
X176303333Y-90372857D01*
X176303333Y-90610952D01*
X176255714Y-90706190D01*
X176208095Y-90753810D01*
X176112857Y-90801429D01*
X175922380Y-90801429D01*
X175827142Y-90753810D01*
X175779523Y-90706190D01*
X175731904Y-90610952D01*
X175350952Y-90277619D02*
X175303333Y-90230000D01*
X175208095Y-90182381D01*
X174969999Y-90182381D01*
X174874761Y-90230000D01*
X174827142Y-90277619D01*
X174779523Y-90372857D01*
X174779523Y-90468095D01*
X174827142Y-90610952D01*
X175398571Y-91182381D01*
X174779523Y-91182381D01*
X173874761Y-90182381D02*
X174350952Y-90182381D01*
X174398571Y-90658571D01*
X174350952Y-90610952D01*
X174255714Y-90563333D01*
X174017618Y-90563333D01*
X173922380Y-90610952D01*
X173874761Y-90658571D01*
X173827142Y-90753810D01*
X173827142Y-90991905D01*
X173874761Y-91087143D01*
X173922380Y-91134762D01*
X174017618Y-91182381D01*
X174255714Y-91182381D01*
X174350952Y-91134762D01*
X174398571Y-91087143D01*
X173398571Y-91182381D02*
X173398571Y-90515714D01*
X173398571Y-90610952D02*
X173350952Y-90563333D01*
X173255714Y-90515714D01*
X173112856Y-90515714D01*
X173017618Y-90563333D01*
X172969999Y-90658571D01*
X172969999Y-91182381D01*
X172969999Y-90658571D02*
X172922380Y-90563333D01*
X172827142Y-90515714D01*
X172684285Y-90515714D01*
X172589047Y-90563333D01*
X172541428Y-90658571D01*
X172541428Y-91182381D01*
X172208095Y-90182381D02*
X171874762Y-91182381D01*
X171541428Y-90182381D01*
%LPC*%
D15*
X170150000Y-100160000D03*
X170150000Y-105240000D03*
D16*
X170150000Y-98890000D03*
X170150000Y-106510000D03*
D17*
X166350000Y-90730000D03*
X173970000Y-93270000D03*
X179050000Y-90730000D03*
D18*
X181450000Y-97460000D03*
X181450000Y-102540000D03*
X132550000Y-102540000D03*
X132550000Y-97460000D03*
M02*
