%TF.GenerationSoftware,KiCad,Pcbnew,(2015-04-23 BZR 5622)-product*%
%TF.CreationDate,2015-05-03T11:45:03+02:00*%
%TF.JobID,KIS-3R33S_breakout,4B49532D33523333535F627265616B6F,0.11.a*%
%TF.FileFunction,Copper,L1,Top,Signal*%
%FSLAX46Y46*%
G04 Gerber Fmt 4.6, Leading zero omitted, Abs format (unit mm)*
G04 Created by KiCad (PCBNEW (2015-04-23 BZR 5622)-product) date Sun 03 May 2015 11:45:03 AM CEST*
%MOMM*%
G01*
G04 APERTURE LIST*
%ADD10C,0.100000*%
%ADD11R,1.200000X0.900000*%
%ADD12C,2.000000*%
%ADD13R,6.000000X3.500000*%
%ADD14R,6.000000X5.000000*%
%ADD15R,1.198880X1.198880*%
%ADD16R,2.500000X6.000000*%
%ADD17C,1.500000*%
%ADD18C,0.500000*%
%ADD19C,4.000000*%
G04 APERTURE END LIST*
D10*
D11*
X177900000Y-93700000D03*
X175700000Y-93700000D03*
X177900000Y-92000000D03*
X175700000Y-92000000D03*
X177900000Y-90300000D03*
X175700000Y-90300000D03*
X171600000Y-93700000D03*
X169400000Y-93700000D03*
X171600000Y-92000000D03*
X169400000Y-92000000D03*
D12*
X181700000Y-97460000D03*
X181700000Y-102540000D03*
X132550000Y-102540000D03*
X132550000Y-97460000D03*
D13*
X140000000Y-92000000D03*
X140000000Y-102000000D03*
X140000000Y-108000000D03*
X160000000Y-108000000D03*
D14*
X160000000Y-99000000D03*
D13*
X160000000Y-92000000D03*
D15*
X183549020Y-109000000D03*
X181450980Y-109000000D03*
D11*
X181400000Y-107000000D03*
X183600000Y-107000000D03*
D16*
X170400000Y-98150000D03*
X170400000Y-107250000D03*
D17*
X166850000Y-90730000D03*
X174470000Y-93270000D03*
X179550000Y-90730000D03*
D11*
X171600000Y-90300000D03*
X169400000Y-90300000D03*
D17*
X164900000Y-90800000D03*
D18*
X177900000Y-90300000D02*
X179120000Y-90300000D01*
X179120000Y-90300000D02*
X179550000Y-90730000D01*
D19*
X170400000Y-98150000D02*
X178096881Y-98150000D01*
X171400000Y-98150000D02*
X160850000Y-98150000D01*
D18*
X178096881Y-98150000D02*
X179500000Y-96746881D01*
X179500000Y-96746881D02*
X179500000Y-90780000D01*
X179500000Y-90780000D02*
X179550000Y-90730000D01*
D19*
X160850000Y-98150000D02*
X160000000Y-99000000D01*
X181010000Y-98150000D02*
X181700000Y-97460000D01*
X178096881Y-98150000D02*
X181010000Y-98150000D01*
D18*
X184648460Y-109000000D02*
X185000000Y-108648460D01*
X183549020Y-109000000D02*
X184648460Y-109000000D01*
X185000000Y-100760000D02*
X181700000Y-97460000D01*
X185000000Y-108648460D02*
X185000000Y-100760000D01*
X177900000Y-92000000D02*
X177900000Y-93700000D01*
X177900000Y-92000000D02*
X177900000Y-90300000D01*
X181450980Y-107050980D02*
X181400000Y-107000000D01*
X181450980Y-109000000D02*
X181450980Y-107050980D01*
D19*
X135460000Y-97460000D02*
X140000000Y-102000000D01*
X135460000Y-97460000D02*
X132550000Y-97460000D01*
D18*
X166850000Y-90730000D02*
X168970000Y-90730000D01*
X168970000Y-90730000D02*
X169400000Y-90300000D01*
X166850000Y-90730000D02*
X166850000Y-92350000D01*
X166850000Y-92350000D02*
X164200000Y-95000000D01*
X164200000Y-95000000D02*
X156600000Y-95000000D01*
X156600000Y-95000000D02*
X155226657Y-96373343D01*
X155226657Y-96373343D02*
X155226657Y-108000000D01*
D19*
X140000000Y-108000000D02*
X155226657Y-108000000D01*
X155226657Y-108000000D02*
X160000000Y-108000000D01*
X170650000Y-108000000D02*
X176110000Y-102540000D01*
X163216496Y-108000000D02*
X170650000Y-108000000D01*
X160000000Y-108000000D02*
X163216496Y-108000000D01*
X132550000Y-105550000D02*
X132550000Y-102540000D01*
X135000000Y-108000000D02*
X132550000Y-105550000D01*
X140000000Y-108000000D02*
X135000000Y-108000000D01*
D18*
X183600000Y-104440000D02*
X181700000Y-102540000D01*
X183600000Y-107000000D02*
X183600000Y-104440000D01*
X163216496Y-108000000D02*
X162499996Y-107283500D01*
D19*
X176110000Y-102540000D02*
X181700000Y-102540000D01*
D18*
X169400000Y-93700000D02*
X169400000Y-92000000D01*
X169400000Y-92000000D02*
X169400000Y-90300000D01*
X171600000Y-93700000D02*
X174040000Y-93700000D01*
X174040000Y-93700000D02*
X174470000Y-93270000D01*
X174470000Y-93270000D02*
X175270000Y-93270000D01*
X175270000Y-93270000D02*
X175700000Y-93700000D01*
X175700000Y-93700000D02*
X175700000Y-92000000D01*
X175700000Y-92000000D02*
X175700000Y-90300000D01*
X171600000Y-92000000D02*
X171600000Y-93700000D01*
X171600000Y-92000000D02*
X171600000Y-90300000D01*
X164600000Y-90939340D02*
X164739340Y-90800000D01*
X164739340Y-90800000D02*
X164900000Y-90800000D01*
X164600000Y-92000000D02*
X164600000Y-90939340D01*
X160000000Y-92000000D02*
X164600000Y-92000000D01*
M02*
