%TF.GenerationSoftware,KiCad,Pcbnew,(2015-04-23 BZR 5622)-product*%
%TF.CreationDate,2015-05-03T00:41:32+02:00*%
%TF.JobID,KIS-3R33S_breakout,4B49532D33523333535F627265616B6F,0.10.a*%
%TF.FileFunction,Copper,L1,Top,Signal*%
%FSLAX46Y46*%
G04 Gerber Fmt 4.6, Leading zero omitted, Abs format (unit mm)*
G04 Created by KiCad (PCBNEW (2015-04-23 BZR 5622)-product) date Sun 03 May 2015 12:41:32 AM CEST*
%MOMM*%
G01*
G04 APERTURE LIST*
%ADD10C,0.100000*%
%ADD11C,2.000000*%
%ADD12R,6.000000X3.500000*%
%ADD13R,6.000000X5.000000*%
%ADD14R,1.198880X1.198880*%
%ADD15R,1.200000X0.900000*%
%ADD16R,2.500000X6.000000*%
%ADD17C,1.500000*%
%ADD18C,4.000000*%
%ADD19C,0.500000*%
G04 APERTURE END LIST*
D10*
D11*
X131550000Y-102540000D03*
X131550000Y-97460000D03*
D12*
X140000000Y-92000000D03*
X140000000Y-102000000D03*
X140000000Y-108000000D03*
X160000000Y-108000000D03*
D13*
X160000000Y-99000000D03*
D12*
X160000000Y-92000000D03*
D14*
X184549020Y-109000000D03*
X182450980Y-109000000D03*
D11*
X183700000Y-97460000D03*
X183700000Y-102540000D03*
D15*
X182400000Y-107000000D03*
X184600000Y-107000000D03*
D16*
X171400000Y-98150000D03*
X171400000Y-107250000D03*
D17*
X166850000Y-90730000D03*
X174470000Y-93270000D03*
X179550000Y-90730000D03*
X163000000Y-103500000D03*
D18*
X179684410Y-98150000D02*
X183010000Y-98150000D01*
X171400000Y-98150000D02*
X179684410Y-98150000D01*
D19*
X179684410Y-98150000D02*
X179550000Y-98015590D01*
X179550000Y-98015590D02*
X179550000Y-90730000D01*
X187000000Y-108500000D02*
X186500000Y-109000000D01*
X186500000Y-109000000D02*
X184549020Y-109000000D01*
X187000000Y-98000000D02*
X187000000Y-108500000D01*
X186460000Y-97460000D02*
X187000000Y-98000000D01*
X183700000Y-97460000D02*
X186460000Y-97460000D01*
D18*
X183010000Y-98150000D02*
X183700000Y-97460000D01*
X160850000Y-98150000D02*
X160000000Y-99000000D01*
X171400000Y-98150000D02*
X160850000Y-98150000D01*
D19*
X182400000Y-108949020D02*
X182450980Y-109000000D01*
X182400000Y-107000000D02*
X182400000Y-108949020D01*
D18*
X135460000Y-97460000D02*
X140000000Y-102000000D01*
X131550000Y-97460000D02*
X135460000Y-97460000D01*
X160000000Y-108000000D02*
X163216496Y-108000000D01*
X163216496Y-108000000D02*
X170650000Y-108000000D01*
D19*
X163000000Y-103500000D02*
X163000000Y-107783504D01*
X163000000Y-107783504D02*
X163216496Y-108000000D01*
X184600000Y-107000000D02*
X184600000Y-103440000D01*
X184600000Y-103440000D02*
X183700000Y-102540000D01*
D18*
X137010000Y-108000000D02*
X140000000Y-108000000D01*
X131550000Y-102540000D02*
X137010000Y-108000000D01*
X140000000Y-108000000D02*
X160000000Y-108000000D01*
X170650000Y-108000000D02*
X171400000Y-107250000D01*
X176110000Y-102540000D02*
X183700000Y-102540000D01*
X171400000Y-107250000D02*
X176110000Y-102540000D01*
D19*
X174470000Y-93270000D02*
X165270000Y-93270000D01*
X164000000Y-92000000D02*
X160000000Y-92000000D01*
X165270000Y-93270000D02*
X164000000Y-92000000D01*
M02*
