%TF.GenerationSoftware,KiCad,Pcbnew,(2015-04-23 BZR 5622)-product*%
%TF.CreationDate,2015-05-03T12:13:25+02:00*%
%TF.JobID,KIS-3R33S_breakout,4B49532D33523333535F627265616B6F,0.12.a*%
%TF.FileFunction,Legend,Top*%
%FSLAX46Y46*%
G04 Gerber Fmt 4.6, Leading zero omitted, Abs format (unit mm)*
G04 Created by KiCad (PCBNEW (2015-04-23 BZR 5622)-product) date Sun 03 May 2015 12:13:25 PM CEST*
%MOMM*%
G01*
G04 APERTURE LIST*
%ADD10C,0.100000*%
%ADD11C,0.200000*%
%ADD12C,0.300000*%
%ADD13C,0.150000*%
%ADD14R,1.200000X0.900000*%
%ADD15C,2.000000*%
%ADD16R,6.000000X3.500000*%
%ADD17R,6.000000X5.000000*%
%ADD18R,1.198880X1.198880*%
%ADD19R,2.500000X6.000000*%
%ADD20C,1.500000*%
G04 APERTURE END LIST*
D10*
D11*
X173866667Y-92219048D02*
X173866667Y-91742857D01*
X174152381Y-92314286D02*
X173152381Y-91980953D01*
X174152381Y-91647619D01*
X174152381Y-91314286D02*
X173152381Y-91314286D01*
X173152381Y-91076191D01*
X173200000Y-90933333D01*
X173295238Y-90838095D01*
X173390476Y-90790476D01*
X173580952Y-90742857D01*
X173723810Y-90742857D01*
X173914286Y-90790476D01*
X174009524Y-90838095D01*
X174104762Y-90933333D01*
X174152381Y-91076191D01*
X174152381Y-91314286D01*
X173152381Y-90028571D02*
X173866667Y-90028571D01*
X174009524Y-90076191D01*
X174104762Y-90171429D01*
X174152381Y-90314286D01*
X174152381Y-90409524D01*
X165176190Y-92752381D02*
X165509523Y-93752381D01*
X165842857Y-92752381D01*
X166319047Y-93752381D02*
X166223809Y-93704762D01*
X166176190Y-93657143D01*
X166128571Y-93561905D01*
X166128571Y-93276190D01*
X166176190Y-93180952D01*
X166223809Y-93133333D01*
X166319047Y-93085714D01*
X166461905Y-93085714D01*
X166557143Y-93133333D01*
X166604762Y-93180952D01*
X166652381Y-93276190D01*
X166652381Y-93561905D01*
X166604762Y-93657143D01*
X166557143Y-93704762D01*
X166461905Y-93752381D01*
X166319047Y-93752381D01*
X167509524Y-93085714D02*
X167509524Y-93752381D01*
X167080952Y-93085714D02*
X167080952Y-93609524D01*
X167128571Y-93704762D01*
X167223809Y-93752381D01*
X167366667Y-93752381D01*
X167461905Y-93704762D01*
X167509524Y-93657143D01*
X167842857Y-93085714D02*
X168223809Y-93085714D01*
X167985714Y-92752381D02*
X167985714Y-93609524D01*
X168033333Y-93704762D01*
X168128571Y-93752381D01*
X168223809Y-93752381D01*
X179938096Y-92800000D02*
X179842858Y-92752381D01*
X179700001Y-92752381D01*
X179557143Y-92800000D01*
X179461905Y-92895238D01*
X179414286Y-92990476D01*
X179366667Y-93180952D01*
X179366667Y-93323810D01*
X179414286Y-93514286D01*
X179461905Y-93609524D01*
X179557143Y-93704762D01*
X179700001Y-93752381D01*
X179795239Y-93752381D01*
X179938096Y-93704762D01*
X179985715Y-93657143D01*
X179985715Y-93323810D01*
X179795239Y-93323810D01*
X180414286Y-93752381D02*
X180414286Y-92752381D01*
X180985715Y-93752381D01*
X180985715Y-92752381D01*
X181461905Y-93752381D02*
X181461905Y-92752381D01*
X181700000Y-92752381D01*
X181842858Y-92800000D01*
X181938096Y-92895238D01*
X181985715Y-92990476D01*
X182033334Y-93180952D01*
X182033334Y-93323810D01*
X181985715Y-93514286D01*
X181938096Y-93609524D01*
X181842858Y-93704762D01*
X181700000Y-93752381D01*
X181461905Y-93752381D01*
D12*
X129714286Y-109535714D02*
X129785714Y-109607143D01*
X129714286Y-109678571D01*
X129642857Y-109607143D01*
X129714286Y-109535714D01*
X129714286Y-109678571D01*
X130428572Y-109535714D02*
X130500000Y-109607143D01*
X130428572Y-109678571D01*
X130357143Y-109607143D01*
X130428572Y-109535714D01*
X130428572Y-109678571D01*
X131142858Y-109535714D02*
X131214286Y-109607143D01*
X131142858Y-109678571D01*
X131071429Y-109607143D01*
X131142858Y-109535714D01*
X131142858Y-109678571D01*
X131785715Y-108321429D02*
X131857144Y-108250000D01*
X132000001Y-108178571D01*
X132357144Y-108178571D01*
X132500001Y-108250000D01*
X132571430Y-108321429D01*
X132642858Y-108464286D01*
X132642858Y-108607143D01*
X132571430Y-108821429D01*
X131714287Y-109678571D01*
X132642858Y-109678571D01*
X133214286Y-108321429D02*
X133285715Y-108250000D01*
X133428572Y-108178571D01*
X133785715Y-108178571D01*
X133928572Y-108250000D01*
X134000001Y-108321429D01*
X134071429Y-108464286D01*
X134071429Y-108607143D01*
X134000001Y-108821429D01*
X133142858Y-109678571D01*
X134071429Y-109678571D01*
X134500000Y-108178571D02*
X135000000Y-109678571D01*
X135500000Y-108178571D01*
X185607143Y-107071428D02*
X185607143Y-105928571D01*
X184928572Y-93607143D02*
X186071429Y-93607143D01*
X185500000Y-94178571D02*
X185500000Y-93035714D01*
X129607143Y-91678571D02*
X129607143Y-90178571D01*
X130321429Y-91678571D02*
X130321429Y-90178571D01*
X131178572Y-91678571D01*
X131178572Y-90178571D01*
X131892858Y-91678571D02*
X131892858Y-90178571D01*
X132464286Y-90178571D01*
X132607144Y-90250000D01*
X132678572Y-90321429D01*
X132750001Y-90464286D01*
X132750001Y-90678571D01*
X132678572Y-90821429D01*
X132607144Y-90892857D01*
X132464286Y-90964286D01*
X131892858Y-90964286D01*
X133392858Y-90178571D02*
X133392858Y-91392857D01*
X133464286Y-91535714D01*
X133535715Y-91607143D01*
X133678572Y-91678571D01*
X133964286Y-91678571D01*
X134107144Y-91607143D01*
X134178572Y-91535714D01*
X134250001Y-91392857D01*
X134250001Y-90178571D01*
X134750001Y-90178571D02*
X135607144Y-90178571D01*
X135178573Y-91678571D02*
X135178573Y-90178571D01*
X131928572Y-106607143D02*
X133071429Y-106607143D01*
X131928572Y-93607143D02*
X133071429Y-93607143D01*
X132500000Y-94178571D02*
X132500000Y-93035714D01*
D13*
X177300000Y-94375000D02*
X176300000Y-94375000D01*
X176300000Y-93025000D02*
X177300000Y-93025000D01*
X177300000Y-92675000D02*
X176300000Y-92675000D01*
X176300000Y-91325000D02*
X177300000Y-91325000D01*
X177300000Y-90975000D02*
X176300000Y-90975000D01*
X176300000Y-89625000D02*
X177300000Y-89625000D01*
X171000000Y-94375000D02*
X170000000Y-94375000D01*
X170000000Y-93025000D02*
X171000000Y-93025000D01*
X171000000Y-92675000D02*
X170000000Y-92675000D01*
X170000000Y-91325000D02*
X171000000Y-91325000D01*
D11*
X183732000Y-103962400D02*
X185713200Y-103962400D01*
X183732000Y-101117600D02*
X185713200Y-101117600D01*
X183732000Y-98882400D02*
X185713200Y-98882400D01*
X183732000Y-96037600D02*
X185713200Y-96037600D01*
X183732000Y-105130800D02*
X183732000Y-94869200D01*
X179668000Y-94869200D02*
X179668000Y-105130800D01*
X185713200Y-105130800D02*
X177686800Y-105130800D01*
X177686800Y-105130800D02*
X177686800Y-94869200D01*
X177686800Y-94869200D02*
X185713200Y-94869200D01*
X185713200Y-94869200D02*
X185713200Y-105130800D01*
X130518000Y-96037600D02*
X128536800Y-96037600D01*
X130518000Y-98882400D02*
X128536800Y-98882400D01*
X130518000Y-101117600D02*
X128536800Y-101117600D01*
X130518000Y-103962400D02*
X128536800Y-103962400D01*
X130518000Y-94869200D02*
X130518000Y-105130800D01*
X134582000Y-105130800D02*
X134582000Y-94869200D01*
X128536800Y-94869200D02*
X136563200Y-94869200D01*
X136563200Y-94869200D02*
X136563200Y-105130800D01*
X136563200Y-105130800D02*
X128536800Y-105130800D01*
X128536800Y-105130800D02*
X128536800Y-94869200D01*
X139000000Y-110500000D02*
X139000000Y-89500000D01*
X161000000Y-110500000D02*
X139000000Y-110500000D01*
X161000000Y-89500000D02*
X161000000Y-110500000D01*
X139000000Y-89500000D02*
X161000000Y-89500000D01*
D13*
X182002160Y-109299720D02*
X182002160Y-109624840D01*
X182002160Y-109624840D02*
X181501780Y-109624840D01*
X181501780Y-109299720D02*
X181501780Y-109624840D01*
X182002160Y-109299720D02*
X181501780Y-109299720D01*
X182002160Y-108677420D02*
X182002160Y-108827280D01*
X182002160Y-108827280D02*
X181750700Y-108827280D01*
X181750700Y-108677420D02*
X181750700Y-108827280D01*
X182002160Y-108677420D02*
X181750700Y-108677420D01*
X182002160Y-109172720D02*
X182002160Y-109322580D01*
X182002160Y-109322580D02*
X181750700Y-109322580D01*
X181750700Y-109172720D02*
X181750700Y-109322580D01*
X182002160Y-109172720D02*
X181750700Y-109172720D01*
X182002160Y-108801880D02*
X182002160Y-109198120D01*
X182002160Y-109198120D02*
X181826900Y-109198120D01*
X181826900Y-108801880D02*
X181826900Y-109198120D01*
X182002160Y-108801880D02*
X181826900Y-108801880D01*
X183498220Y-109299720D02*
X183498220Y-109624840D01*
X183498220Y-109624840D02*
X182997840Y-109624840D01*
X182997840Y-109299720D02*
X182997840Y-109624840D01*
X183498220Y-109299720D02*
X182997840Y-109299720D01*
X183498220Y-108375160D02*
X183498220Y-108700280D01*
X183498220Y-108700280D02*
X182997840Y-108700280D01*
X182997840Y-108375160D02*
X182997840Y-108700280D01*
X183498220Y-108375160D02*
X182997840Y-108375160D01*
X183249300Y-109172720D02*
X183249300Y-109322580D01*
X183249300Y-109322580D02*
X182997840Y-109322580D01*
X182997840Y-109172720D02*
X182997840Y-109322580D01*
X183249300Y-109172720D02*
X182997840Y-109172720D01*
X183249300Y-108677420D02*
X183249300Y-108827280D01*
X183249300Y-108827280D02*
X182997840Y-108827280D01*
X182997840Y-108677420D02*
X182997840Y-108827280D01*
X183249300Y-108677420D02*
X182997840Y-108677420D01*
X183173100Y-108801880D02*
X183173100Y-109198120D01*
X183173100Y-109198120D02*
X182997840Y-109198120D01*
X182997840Y-108801880D02*
X182997840Y-109198120D01*
X183173100Y-108801880D02*
X182997840Y-108801880D01*
X182500000Y-108900940D02*
X182500000Y-109099060D01*
X182500000Y-109099060D02*
X182301880Y-109099060D01*
X182301880Y-108900940D02*
X182301880Y-109099060D01*
X182500000Y-108900940D02*
X182301880Y-108900940D01*
X182002160Y-108400560D02*
X182002160Y-108700280D01*
X182002160Y-108700280D02*
X181702440Y-108700280D01*
X181702440Y-108400560D02*
X181702440Y-108700280D01*
X182002160Y-108400560D02*
X181702440Y-108400560D01*
X181575440Y-108375160D02*
X181575440Y-108601220D01*
X181575440Y-108601220D02*
X181501780Y-108601220D01*
X181501780Y-108375160D02*
X181501780Y-108601220D01*
X181575440Y-108375160D02*
X181501780Y-108375160D01*
X181976760Y-109574040D02*
X183023240Y-109574040D01*
X182997840Y-108425960D02*
X181575440Y-108425960D01*
X181723482Y-108550420D02*
G75*
G03X181723482Y-108550420I-71842J0D01*
G01*
X181501780Y-108652020D02*
G75*
G02X181501780Y-109347980I0J-347980D01*
G01*
X183498220Y-109347980D02*
G75*
G02X183498220Y-108652020I0J347980D01*
G01*
X183000000Y-107675000D02*
X182000000Y-107675000D01*
X182000000Y-106325000D02*
X183000000Y-106325000D01*
X163650000Y-98750000D02*
X166450000Y-95950000D01*
X174350000Y-95950000D02*
X177150000Y-98750000D01*
X171500000Y-108850000D02*
X169300000Y-108850000D01*
X171750000Y-108800000D02*
X169050000Y-108800000D01*
X168700000Y-108700000D02*
X172100000Y-108700000D01*
X172450000Y-108600000D02*
X168350000Y-108600000D01*
X168100000Y-108500000D02*
X172700000Y-108500000D01*
X172950000Y-108400000D02*
X167850000Y-108400000D01*
X173150000Y-108300000D02*
X167650000Y-108300000D01*
X167450000Y-108200000D02*
X173350000Y-108200000D01*
X173500000Y-108100000D02*
X167300000Y-108100000D01*
X167100000Y-108000000D02*
X173700000Y-108000000D01*
X166950000Y-107900000D02*
X173850000Y-107900000D01*
X166800000Y-107800000D02*
X174000000Y-107800000D01*
X177150000Y-109450000D02*
X163650000Y-109450000D01*
X177150000Y-98750000D02*
X177150000Y-109450000D01*
X166450000Y-95950000D02*
X174350000Y-95950000D01*
X163650000Y-109450000D02*
X163650000Y-98750000D01*
X176650000Y-102700000D02*
G75*
G03X176650000Y-102700000I-6250000J0D01*
G01*
X170400000Y-97750000D02*
X170400000Y-99250000D01*
X169650000Y-98500000D02*
X171150000Y-98500000D01*
X184450000Y-92350000D02*
X184450000Y-93200000D01*
X184450000Y-91650000D02*
X184450000Y-90800000D01*
X183650000Y-92350000D02*
X184450000Y-92350000D01*
X183650000Y-91650000D02*
X183650000Y-92350000D01*
X184450000Y-91650000D02*
X183650000Y-91650000D01*
X184450000Y-93200000D02*
X182850000Y-93200000D01*
X182850000Y-90800000D02*
X184450000Y-90800000D01*
X163800000Y-94450000D02*
X182850000Y-94450000D01*
X163800000Y-89550000D02*
X163800000Y-94450000D01*
X182850000Y-89550000D02*
X163800000Y-89550000D01*
X182850000Y-89550000D02*
X182850000Y-94450000D01*
X171000000Y-90975000D02*
X170000000Y-90975000D01*
X170000000Y-89625000D02*
X171000000Y-89625000D01*
D11*
X143523810Y-105452381D02*
X143523810Y-104452381D01*
X144095239Y-105452381D02*
X143666667Y-104880952D01*
X144095239Y-104452381D02*
X143523810Y-105023810D01*
X144523810Y-105452381D02*
X144523810Y-104452381D01*
X144952381Y-105404762D02*
X145095238Y-105452381D01*
X145333334Y-105452381D01*
X145428572Y-105404762D01*
X145476191Y-105357143D01*
X145523810Y-105261905D01*
X145523810Y-105166667D01*
X145476191Y-105071429D01*
X145428572Y-105023810D01*
X145333334Y-104976190D01*
X145142857Y-104928571D01*
X145047619Y-104880952D01*
X145000000Y-104833333D01*
X144952381Y-104738095D01*
X144952381Y-104642857D01*
X145000000Y-104547619D01*
X145047619Y-104500000D01*
X145142857Y-104452381D01*
X145380953Y-104452381D01*
X145523810Y-104500000D01*
X145952381Y-105071429D02*
X146714286Y-105071429D01*
X147095238Y-104452381D02*
X147714286Y-104452381D01*
X147380952Y-104833333D01*
X147523810Y-104833333D01*
X147619048Y-104880952D01*
X147666667Y-104928571D01*
X147714286Y-105023810D01*
X147714286Y-105261905D01*
X147666667Y-105357143D01*
X147619048Y-105404762D01*
X147523810Y-105452381D01*
X147238095Y-105452381D01*
X147142857Y-105404762D01*
X147095238Y-105357143D01*
X148714286Y-105452381D02*
X148380952Y-104976190D01*
X148142857Y-105452381D02*
X148142857Y-104452381D01*
X148523810Y-104452381D01*
X148619048Y-104500000D01*
X148666667Y-104547619D01*
X148714286Y-104642857D01*
X148714286Y-104785714D01*
X148666667Y-104880952D01*
X148619048Y-104928571D01*
X148523810Y-104976190D01*
X148142857Y-104976190D01*
X149047619Y-104452381D02*
X149666667Y-104452381D01*
X149333333Y-104833333D01*
X149476191Y-104833333D01*
X149571429Y-104880952D01*
X149619048Y-104928571D01*
X149666667Y-105023810D01*
X149666667Y-105261905D01*
X149619048Y-105357143D01*
X149571429Y-105404762D01*
X149476191Y-105452381D01*
X149190476Y-105452381D01*
X149095238Y-105404762D01*
X149047619Y-105357143D01*
X150000000Y-104452381D02*
X150619048Y-104452381D01*
X150285714Y-104833333D01*
X150428572Y-104833333D01*
X150523810Y-104880952D01*
X150571429Y-104928571D01*
X150619048Y-105023810D01*
X150619048Y-105261905D01*
X150571429Y-105357143D01*
X150523810Y-105404762D01*
X150428572Y-105452381D01*
X150142857Y-105452381D01*
X150047619Y-105404762D01*
X150000000Y-105357143D01*
X151000000Y-105404762D02*
X151142857Y-105452381D01*
X151380953Y-105452381D01*
X151476191Y-105404762D01*
X151523810Y-105357143D01*
X151571429Y-105261905D01*
X151571429Y-105166667D01*
X151523810Y-105071429D01*
X151476191Y-105023810D01*
X151380953Y-104976190D01*
X151190476Y-104928571D01*
X151095238Y-104880952D01*
X151047619Y-104833333D01*
X151000000Y-104738095D01*
X151000000Y-104642857D01*
X151047619Y-104547619D01*
X151095238Y-104500000D01*
X151190476Y-104452381D01*
X151428572Y-104452381D01*
X151571429Y-104500000D01*
X151761905Y-105547619D02*
X152523810Y-105547619D01*
X152761905Y-105452381D02*
X152761905Y-104785714D01*
X152761905Y-104880952D02*
X152809524Y-104833333D01*
X152904762Y-104785714D01*
X153047620Y-104785714D01*
X153142858Y-104833333D01*
X153190477Y-104928571D01*
X153190477Y-105452381D01*
X153190477Y-104928571D02*
X153238096Y-104833333D01*
X153333334Y-104785714D01*
X153476191Y-104785714D01*
X153571429Y-104833333D01*
X153619048Y-104928571D01*
X153619048Y-105452381D01*
X154238095Y-105452381D02*
X154142857Y-105404762D01*
X154095238Y-105357143D01*
X154047619Y-105261905D01*
X154047619Y-104976190D01*
X154095238Y-104880952D01*
X154142857Y-104833333D01*
X154238095Y-104785714D01*
X154380953Y-104785714D01*
X154476191Y-104833333D01*
X154523810Y-104880952D01*
X154571429Y-104976190D01*
X154571429Y-105261905D01*
X154523810Y-105357143D01*
X154476191Y-105404762D01*
X154380953Y-105452381D01*
X154238095Y-105452381D01*
X155428572Y-105452381D02*
X155428572Y-104452381D01*
X155428572Y-105404762D02*
X155333334Y-105452381D01*
X155142857Y-105452381D01*
X155047619Y-105404762D01*
X155000000Y-105357143D01*
X154952381Y-105261905D01*
X154952381Y-104976190D01*
X155000000Y-104880952D01*
X155047619Y-104833333D01*
X155142857Y-104785714D01*
X155333334Y-104785714D01*
X155428572Y-104833333D01*
X155904762Y-105452381D02*
X155904762Y-104785714D01*
X155904762Y-104452381D02*
X155857143Y-104500000D01*
X155904762Y-104547619D01*
X155952381Y-104500000D01*
X155904762Y-104452381D01*
X155904762Y-104547619D01*
X156238095Y-104785714D02*
X156619047Y-104785714D01*
X156380952Y-105452381D02*
X156380952Y-104595238D01*
X156428571Y-104500000D01*
X156523809Y-104452381D01*
X156619047Y-104452381D01*
D13*
X178261905Y-109452381D02*
X178261905Y-108452381D01*
X178500000Y-108452381D01*
X178642858Y-108500000D01*
X178738096Y-108595238D01*
X178785715Y-108690476D01*
X178833334Y-108880952D01*
X178833334Y-109023810D01*
X178785715Y-109214286D01*
X178738096Y-109309524D01*
X178642858Y-109404762D01*
X178500000Y-109452381D01*
X178261905Y-109452381D01*
X179785715Y-109452381D02*
X179214286Y-109452381D01*
X179500000Y-109452381D02*
X179500000Y-108452381D01*
X179404762Y-108595238D01*
X179309524Y-108690476D01*
X179214286Y-108738095D01*
X178833334Y-107452381D02*
X178500000Y-106976190D01*
X178261905Y-107452381D02*
X178261905Y-106452381D01*
X178642858Y-106452381D01*
X178738096Y-106500000D01*
X178785715Y-106547619D01*
X178833334Y-106642857D01*
X178833334Y-106785714D01*
X178785715Y-106880952D01*
X178738096Y-106928571D01*
X178642858Y-106976190D01*
X178261905Y-106976190D01*
X179785715Y-107452381D02*
X179214286Y-107452381D01*
X179500000Y-107452381D02*
X179500000Y-106452381D01*
X179404762Y-106595238D01*
X179309524Y-106690476D01*
X179214286Y-106738095D01*
%LPC*%
D14*
X175700000Y-93700000D03*
X177900000Y-93700000D03*
X175700000Y-92000000D03*
X177900000Y-92000000D03*
X175700000Y-90300000D03*
X177900000Y-90300000D03*
X169400000Y-93700000D03*
X171600000Y-93700000D03*
X169400000Y-92000000D03*
X171600000Y-92000000D03*
D15*
X181700000Y-97460000D03*
X181700000Y-102540000D03*
X132550000Y-102540000D03*
X132550000Y-97460000D03*
D16*
X140000000Y-92000000D03*
X140000000Y-102000000D03*
X140000000Y-108000000D03*
X160000000Y-108000000D03*
D17*
X160000000Y-99000000D03*
D16*
X160000000Y-92000000D03*
D18*
X183549020Y-109000000D03*
X181450980Y-109000000D03*
D14*
X181400000Y-107000000D03*
X183600000Y-107000000D03*
D19*
X170400000Y-98150000D03*
X170400000Y-107250000D03*
D20*
X166850000Y-90730000D03*
X174470000Y-93270000D03*
X179550000Y-90730000D03*
D14*
X169400000Y-90300000D03*
X171600000Y-90300000D03*
M02*
