%TF.GenerationSoftware,KiCad,Pcbnew,(2015-04-23 BZR 5622)-product*%
%TF.CreationDate,2015-05-03T12:13:25+02:00*%
%TF.JobID,KIS-3R33S_breakout,4B49532D33523333535F627265616B6F,0.12.a*%
%TF.FileFunction,Legend,Bot*%
%FSLAX46Y46*%
G04 Gerber Fmt 4.6, Leading zero omitted, Abs format (unit mm)*
G04 Created by KiCad (PCBNEW (2015-04-23 BZR 5622)-product) date Sun 03 May 2015 12:13:25 PM CEST*
%MOMM*%
G01*
G04 APERTURE LIST*
%ADD10C,0.100000*%
%ADD11C,0.300000*%
%ADD12C,0.002540*%
%ADD13C,2.000000*%
%ADD14C,1.500000*%
G04 APERTURE END LIST*
D10*
D11*
X174678570Y-97478571D02*
X174678570Y-95978571D01*
X173821427Y-97478571D02*
X174464284Y-96621429D01*
X173821427Y-95978571D02*
X174678570Y-96835714D01*
X173178570Y-97478571D02*
X173178570Y-95978571D01*
X172535713Y-97407143D02*
X172321427Y-97478571D01*
X171964284Y-97478571D01*
X171821427Y-97407143D01*
X171749998Y-97335714D01*
X171678570Y-97192857D01*
X171678570Y-97050000D01*
X171749998Y-96907143D01*
X171821427Y-96835714D01*
X171964284Y-96764286D01*
X172249998Y-96692857D01*
X172392856Y-96621429D01*
X172464284Y-96550000D01*
X172535713Y-96407143D01*
X172535713Y-96264286D01*
X172464284Y-96121429D01*
X172392856Y-96050000D01*
X172249998Y-95978571D01*
X171892856Y-95978571D01*
X171678570Y-96050000D01*
X171035713Y-96907143D02*
X169892856Y-96907143D01*
X169321427Y-95978571D02*
X168392856Y-95978571D01*
X168892856Y-96550000D01*
X168678570Y-96550000D01*
X168535713Y-96621429D01*
X168464284Y-96692857D01*
X168392856Y-96835714D01*
X168392856Y-97192857D01*
X168464284Y-97335714D01*
X168535713Y-97407143D01*
X168678570Y-97478571D01*
X169107142Y-97478571D01*
X169249999Y-97407143D01*
X169321427Y-97335714D01*
X166892856Y-97478571D02*
X167392856Y-96764286D01*
X167749999Y-97478571D02*
X167749999Y-95978571D01*
X167178571Y-95978571D01*
X167035713Y-96050000D01*
X166964285Y-96121429D01*
X166892856Y-96264286D01*
X166892856Y-96478571D01*
X166964285Y-96621429D01*
X167035713Y-96692857D01*
X167178571Y-96764286D01*
X167749999Y-96764286D01*
X166392856Y-95978571D02*
X165464285Y-95978571D01*
X165964285Y-96550000D01*
X165749999Y-96550000D01*
X165607142Y-96621429D01*
X165535713Y-96692857D01*
X165464285Y-96835714D01*
X165464285Y-97192857D01*
X165535713Y-97335714D01*
X165607142Y-97407143D01*
X165749999Y-97478571D01*
X166178571Y-97478571D01*
X166321428Y-97407143D01*
X166392856Y-97335714D01*
X164964285Y-95978571D02*
X164035714Y-95978571D01*
X164535714Y-96550000D01*
X164321428Y-96550000D01*
X164178571Y-96621429D01*
X164107142Y-96692857D01*
X164035714Y-96835714D01*
X164035714Y-97192857D01*
X164107142Y-97335714D01*
X164178571Y-97407143D01*
X164321428Y-97478571D01*
X164750000Y-97478571D01*
X164892857Y-97407143D01*
X164964285Y-97335714D01*
X163464286Y-97407143D02*
X163250000Y-97478571D01*
X162892857Y-97478571D01*
X162750000Y-97407143D01*
X162678571Y-97335714D01*
X162607143Y-97192857D01*
X162607143Y-97050000D01*
X162678571Y-96907143D01*
X162750000Y-96835714D01*
X162892857Y-96764286D01*
X163178571Y-96692857D01*
X163321429Y-96621429D01*
X163392857Y-96550000D01*
X163464286Y-96407143D01*
X163464286Y-96264286D01*
X163392857Y-96121429D01*
X163321429Y-96050000D01*
X163178571Y-95978571D01*
X162821429Y-95978571D01*
X162607143Y-96050000D01*
X162321429Y-97621429D02*
X161178572Y-97621429D01*
X160821429Y-97478571D02*
X160821429Y-95978571D01*
X160821429Y-96550000D02*
X160678572Y-96478571D01*
X160392858Y-96478571D01*
X160250001Y-96550000D01*
X160178572Y-96621429D01*
X160107143Y-96764286D01*
X160107143Y-97192857D01*
X160178572Y-97335714D01*
X160250001Y-97407143D01*
X160392858Y-97478571D01*
X160678572Y-97478571D01*
X160821429Y-97407143D01*
X159464286Y-97478571D02*
X159464286Y-96478571D01*
X159464286Y-96764286D02*
X159392858Y-96621429D01*
X159321429Y-96550000D01*
X159178572Y-96478571D01*
X159035715Y-96478571D01*
X157964287Y-97407143D02*
X158107144Y-97478571D01*
X158392858Y-97478571D01*
X158535715Y-97407143D01*
X158607144Y-97264286D01*
X158607144Y-96692857D01*
X158535715Y-96550000D01*
X158392858Y-96478571D01*
X158107144Y-96478571D01*
X157964287Y-96550000D01*
X157892858Y-96692857D01*
X157892858Y-96835714D01*
X158607144Y-96978571D01*
X156607144Y-97478571D02*
X156607144Y-96692857D01*
X156678573Y-96550000D01*
X156821430Y-96478571D01*
X157107144Y-96478571D01*
X157250001Y-96550000D01*
X156607144Y-97407143D02*
X156750001Y-97478571D01*
X157107144Y-97478571D01*
X157250001Y-97407143D01*
X157321430Y-97264286D01*
X157321430Y-97121429D01*
X157250001Y-96978571D01*
X157107144Y-96907143D01*
X156750001Y-96907143D01*
X156607144Y-96835714D01*
X155892858Y-97478571D02*
X155892858Y-95978571D01*
X155750001Y-96907143D02*
X155321430Y-97478571D01*
X155321430Y-96478571D02*
X155892858Y-97050000D01*
X154464286Y-97478571D02*
X154607144Y-97407143D01*
X154678572Y-97335714D01*
X154750001Y-97192857D01*
X154750001Y-96764286D01*
X154678572Y-96621429D01*
X154607144Y-96550000D01*
X154464286Y-96478571D01*
X154250001Y-96478571D01*
X154107144Y-96550000D01*
X154035715Y-96621429D01*
X153964286Y-96764286D01*
X153964286Y-97192857D01*
X154035715Y-97335714D01*
X154107144Y-97407143D01*
X154250001Y-97478571D01*
X154464286Y-97478571D01*
X152678572Y-96478571D02*
X152678572Y-97478571D01*
X153321429Y-96478571D02*
X153321429Y-97264286D01*
X153250001Y-97407143D01*
X153107143Y-97478571D01*
X152892858Y-97478571D01*
X152750001Y-97407143D01*
X152678572Y-97335714D01*
X152178572Y-96478571D02*
X151607143Y-96478571D01*
X151964286Y-95978571D02*
X151964286Y-97264286D01*
X151892858Y-97407143D01*
X151750000Y-97478571D01*
X151607143Y-97478571D01*
X150178572Y-95978571D02*
X149678572Y-97478571D01*
X149178572Y-95978571D01*
X148392858Y-95978571D02*
X148250001Y-95978571D01*
X148107144Y-96050000D01*
X148035715Y-96121429D01*
X147964286Y-96264286D01*
X147892858Y-96550000D01*
X147892858Y-96907143D01*
X147964286Y-97192857D01*
X148035715Y-97335714D01*
X148107144Y-97407143D01*
X148250001Y-97478571D01*
X148392858Y-97478571D01*
X148535715Y-97407143D01*
X148607144Y-97335714D01*
X148678572Y-97192857D01*
X148750001Y-96907143D01*
X148750001Y-96550000D01*
X148678572Y-96264286D01*
X148607144Y-96121429D01*
X148535715Y-96050000D01*
X148392858Y-95978571D01*
X147250001Y-97335714D02*
X147178573Y-97407143D01*
X147250001Y-97478571D01*
X147321430Y-97407143D01*
X147250001Y-97335714D01*
X147250001Y-97478571D01*
X145750001Y-97478571D02*
X146607144Y-97478571D01*
X146178572Y-97478571D02*
X146178572Y-95978571D01*
X146321429Y-96192857D01*
X146464287Y-96335714D01*
X146607144Y-96407143D01*
X145178573Y-96121429D02*
X145107144Y-96050000D01*
X144964287Y-95978571D01*
X144607144Y-95978571D01*
X144464287Y-96050000D01*
X144392858Y-96121429D01*
X144321430Y-96264286D01*
X144321430Y-96407143D01*
X144392858Y-96621429D01*
X145250001Y-97478571D01*
X144321430Y-97478571D01*
X143678573Y-97335714D02*
X143607145Y-97407143D01*
X143678573Y-97478571D01*
X143750002Y-97407143D01*
X143678573Y-97335714D01*
X143678573Y-97478571D01*
X142321430Y-97478571D02*
X142321430Y-96692857D01*
X142392859Y-96550000D01*
X142535716Y-96478571D01*
X142821430Y-96478571D01*
X142964287Y-96550000D01*
X142321430Y-97407143D02*
X142464287Y-97478571D01*
X142821430Y-97478571D01*
X142964287Y-97407143D01*
X143035716Y-97264286D01*
X143035716Y-97121429D01*
X142964287Y-96978571D01*
X142821430Y-96907143D01*
X142464287Y-96907143D01*
X142321430Y-96835714D01*
X174607143Y-98521429D02*
X174535714Y-98450000D01*
X174392857Y-98378571D01*
X174035714Y-98378571D01*
X173892857Y-98450000D01*
X173821428Y-98521429D01*
X173750000Y-98664286D01*
X173750000Y-98807143D01*
X173821428Y-99021429D01*
X174678571Y-99878571D01*
X173750000Y-99878571D01*
X172821429Y-98378571D02*
X172678572Y-98378571D01*
X172535715Y-98450000D01*
X172464286Y-98521429D01*
X172392857Y-98664286D01*
X172321429Y-98950000D01*
X172321429Y-99307143D01*
X172392857Y-99592857D01*
X172464286Y-99735714D01*
X172535715Y-99807143D01*
X172678572Y-99878571D01*
X172821429Y-99878571D01*
X172964286Y-99807143D01*
X173035715Y-99735714D01*
X173107143Y-99592857D01*
X173178572Y-99307143D01*
X173178572Y-98950000D01*
X173107143Y-98664286D01*
X173035715Y-98521429D01*
X172964286Y-98450000D01*
X172821429Y-98378571D01*
X170892858Y-99878571D02*
X171750001Y-99878571D01*
X171321429Y-99878571D02*
X171321429Y-98378571D01*
X171464286Y-98592857D01*
X171607144Y-98735714D01*
X171750001Y-98807143D01*
X169535715Y-98378571D02*
X170250001Y-98378571D01*
X170321430Y-99092857D01*
X170250001Y-99021429D01*
X170107144Y-98950000D01*
X169750001Y-98950000D01*
X169607144Y-99021429D01*
X169535715Y-99092857D01*
X169464287Y-99235714D01*
X169464287Y-99592857D01*
X169535715Y-99735714D01*
X169607144Y-99807143D01*
X169750001Y-99878571D01*
X170107144Y-99878571D01*
X170250001Y-99807143D01*
X170321430Y-99735714D01*
X167678573Y-99307143D02*
X166535716Y-99307143D01*
X164678573Y-99878571D02*
X164678573Y-98378571D01*
X164678573Y-98950000D02*
X164535716Y-98878571D01*
X164250002Y-98878571D01*
X164107145Y-98950000D01*
X164035716Y-99021429D01*
X163964287Y-99164286D01*
X163964287Y-99592857D01*
X164035716Y-99735714D01*
X164107145Y-99807143D01*
X164250002Y-99878571D01*
X164535716Y-99878571D01*
X164678573Y-99807143D01*
X163107144Y-99878571D02*
X163250002Y-99807143D01*
X163321430Y-99664286D01*
X163321430Y-98378571D01*
X162321430Y-99878571D02*
X162464288Y-99807143D01*
X162535716Y-99735714D01*
X162607145Y-99592857D01*
X162607145Y-99164286D01*
X162535716Y-99021429D01*
X162464288Y-98950000D01*
X162321430Y-98878571D01*
X162107145Y-98878571D01*
X161964288Y-98950000D01*
X161892859Y-99021429D01*
X161821430Y-99164286D01*
X161821430Y-99592857D01*
X161892859Y-99735714D01*
X161964288Y-99807143D01*
X162107145Y-99878571D01*
X162321430Y-99878571D01*
X160535716Y-98878571D02*
X160535716Y-100092857D01*
X160607145Y-100235714D01*
X160678573Y-100307143D01*
X160821430Y-100378571D01*
X161035716Y-100378571D01*
X161178573Y-100307143D01*
X160535716Y-99807143D02*
X160678573Y-99878571D01*
X160964287Y-99878571D01*
X161107145Y-99807143D01*
X161178573Y-99735714D01*
X161250002Y-99592857D01*
X161250002Y-99164286D01*
X161178573Y-99021429D01*
X161107145Y-98950000D01*
X160964287Y-98878571D01*
X160678573Y-98878571D01*
X160535716Y-98950000D01*
X159821430Y-99735714D02*
X159750002Y-99807143D01*
X159821430Y-99878571D01*
X159892859Y-99807143D01*
X159821430Y-99735714D01*
X159821430Y-99878571D01*
X159178573Y-99807143D02*
X159035716Y-99878571D01*
X158750001Y-99878571D01*
X158607144Y-99807143D01*
X158535716Y-99664286D01*
X158535716Y-99592857D01*
X158607144Y-99450000D01*
X158750001Y-99378571D01*
X158964287Y-99378571D01*
X159107144Y-99307143D01*
X159178573Y-99164286D01*
X159178573Y-99092857D01*
X159107144Y-98950000D01*
X158964287Y-98878571D01*
X158750001Y-98878571D01*
X158607144Y-98950000D01*
X157892858Y-98878571D02*
X157892858Y-100378571D01*
X157892858Y-98950000D02*
X157750001Y-98878571D01*
X157464287Y-98878571D01*
X157321430Y-98950000D01*
X157250001Y-99021429D01*
X157178572Y-99164286D01*
X157178572Y-99592857D01*
X157250001Y-99735714D01*
X157321430Y-99807143D01*
X157464287Y-99878571D01*
X157750001Y-99878571D01*
X157892858Y-99807143D01*
X156535715Y-99878571D02*
X156535715Y-98878571D01*
X156535715Y-98378571D02*
X156607144Y-98450000D01*
X156535715Y-98521429D01*
X156464287Y-98450000D01*
X156535715Y-98378571D01*
X156535715Y-98521429D01*
X156035715Y-98878571D02*
X155464286Y-98878571D01*
X155821429Y-98378571D02*
X155821429Y-99664286D01*
X155750001Y-99807143D01*
X155607143Y-99878571D01*
X155464286Y-99878571D01*
X155107143Y-98878571D02*
X154321429Y-98878571D01*
X155107143Y-99878571D01*
X154321429Y-99878571D01*
X153178572Y-99807143D02*
X153321429Y-99878571D01*
X153607143Y-99878571D01*
X153750000Y-99807143D01*
X153821429Y-99664286D01*
X153821429Y-99092857D01*
X153750000Y-98950000D01*
X153607143Y-98878571D01*
X153321429Y-98878571D01*
X153178572Y-98950000D01*
X153107143Y-99092857D01*
X153107143Y-99235714D01*
X153821429Y-99378571D01*
X152464286Y-98878571D02*
X152464286Y-99878571D01*
X152464286Y-99021429D02*
X152392858Y-98950000D01*
X152250000Y-98878571D01*
X152035715Y-98878571D01*
X151892858Y-98950000D01*
X151821429Y-99092857D01*
X151821429Y-99878571D01*
X151107143Y-98878571D02*
X151107143Y-100378571D01*
X151107143Y-98950000D02*
X150964286Y-98878571D01*
X150678572Y-98878571D01*
X150535715Y-98950000D01*
X150464286Y-99021429D01*
X150392857Y-99164286D01*
X150392857Y-99592857D01*
X150464286Y-99735714D01*
X150535715Y-99807143D01*
X150678572Y-99878571D01*
X150964286Y-99878571D01*
X151107143Y-99807143D01*
X149964286Y-98878571D02*
X149392857Y-98878571D01*
X149750000Y-99878571D02*
X149750000Y-98592857D01*
X149678572Y-98450000D01*
X149535714Y-98378571D01*
X149392857Y-98378571D01*
X148321429Y-99807143D02*
X148464286Y-99878571D01*
X148750000Y-99878571D01*
X148892857Y-99807143D01*
X148964286Y-99664286D01*
X148964286Y-99092857D01*
X148892857Y-98950000D01*
X148750000Y-98878571D01*
X148464286Y-98878571D01*
X148321429Y-98950000D01*
X148250000Y-99092857D01*
X148250000Y-99235714D01*
X148964286Y-99378571D01*
X147607143Y-99878571D02*
X147607143Y-98878571D01*
X147607143Y-98378571D02*
X147678572Y-98450000D01*
X147607143Y-98521429D01*
X147535715Y-98450000D01*
X147607143Y-98378571D01*
X147607143Y-98521429D01*
X146678571Y-99878571D02*
X146821429Y-99807143D01*
X146892857Y-99664286D01*
X146892857Y-98378571D01*
X146107143Y-99735714D02*
X146035715Y-99807143D01*
X146107143Y-99878571D01*
X146178572Y-99807143D01*
X146107143Y-99735714D01*
X146107143Y-99878571D01*
X145178571Y-99878571D02*
X145321429Y-99807143D01*
X145392857Y-99735714D01*
X145464286Y-99592857D01*
X145464286Y-99164286D01*
X145392857Y-99021429D01*
X145321429Y-98950000D01*
X145178571Y-98878571D01*
X144964286Y-98878571D01*
X144821429Y-98950000D01*
X144750000Y-99021429D01*
X144678571Y-99164286D01*
X144678571Y-99592857D01*
X144750000Y-99735714D01*
X144821429Y-99807143D01*
X144964286Y-99878571D01*
X145178571Y-99878571D01*
X144035714Y-99878571D02*
X144035714Y-98878571D01*
X144035714Y-99164286D02*
X143964286Y-99021429D01*
X143892857Y-98950000D01*
X143750000Y-98878571D01*
X143607143Y-98878571D01*
X142464286Y-98878571D02*
X142464286Y-100092857D01*
X142535715Y-100235714D01*
X142607143Y-100307143D01*
X142750000Y-100378571D01*
X142964286Y-100378571D01*
X143107143Y-100307143D01*
X142464286Y-99807143D02*
X142607143Y-99878571D01*
X142892857Y-99878571D01*
X143035715Y-99807143D01*
X143107143Y-99735714D01*
X143178572Y-99592857D01*
X143178572Y-99164286D01*
X143107143Y-99021429D01*
X143035715Y-98950000D01*
X142892857Y-98878571D01*
X142607143Y-98878571D01*
X142464286Y-98950000D01*
D12*
G36*
X167367160Y-106623820D02*
X167290960Y-106613660D01*
X167222380Y-106590800D01*
X167191900Y-106575560D01*
X167128400Y-106529840D01*
X167077600Y-106476500D01*
X167039500Y-106413000D01*
X167014100Y-106344420D01*
X167001400Y-106270760D01*
X167003940Y-106197100D01*
X167021720Y-106123440D01*
X167054740Y-106052320D01*
X167077600Y-106021840D01*
X167108080Y-105988820D01*
X167143640Y-105955800D01*
X167174120Y-105932940D01*
X167184280Y-105925320D01*
X167250320Y-105894840D01*
X167316360Y-105879600D01*
X167392560Y-105877060D01*
X167417960Y-105877060D01*
X167458600Y-105882140D01*
X167494160Y-105892300D01*
X167534800Y-105910080D01*
X167577980Y-105932940D01*
X167638940Y-105981200D01*
X167687200Y-106042160D01*
X167725300Y-106110740D01*
X167735460Y-106141220D01*
X167745620Y-106179320D01*
X167750700Y-106207260D01*
X167750700Y-106212340D01*
X167750700Y-106212340D01*
X167753240Y-106197100D01*
X167753240Y-106194560D01*
X167765940Y-106146300D01*
X167783720Y-106098040D01*
X167806580Y-106054860D01*
X167847220Y-105998980D01*
X167905640Y-105945640D01*
X167971680Y-105907540D01*
X168045340Y-105882140D01*
X168124080Y-105874520D01*
X168144400Y-105874520D01*
X168202820Y-105882140D01*
X168261240Y-105897380D01*
X168271400Y-105902460D01*
X168334900Y-105938020D01*
X168390780Y-105983740D01*
X168439040Y-106042160D01*
X168472060Y-106103120D01*
X168492380Y-106171700D01*
X168494920Y-106174240D01*
X168497460Y-106192020D01*
X168500000Y-106199640D01*
X168500000Y-106199640D01*
X168502540Y-106189480D01*
X168507620Y-106171700D01*
X168507620Y-106164080D01*
X168530480Y-106098040D01*
X168566040Y-106034540D01*
X168614300Y-105978660D01*
X168660020Y-105940560D01*
X168723520Y-105905000D01*
X168797180Y-105882140D01*
X168875920Y-105874520D01*
X168931800Y-105879600D01*
X169005460Y-105897380D01*
X169074040Y-105932940D01*
X169135000Y-105978660D01*
X169183260Y-106039620D01*
X169190880Y-106047240D01*
X169206120Y-106075180D01*
X169218820Y-106098040D01*
X169223900Y-106115820D01*
X169236600Y-106148840D01*
X169244220Y-106181860D01*
X169246760Y-106207260D01*
X169246760Y-106212340D01*
X169249300Y-106212340D01*
X169251840Y-106194560D01*
X169259460Y-106153920D01*
X169279780Y-106103120D01*
X169300100Y-106057400D01*
X169345820Y-105996440D01*
X169404240Y-105945640D01*
X169470280Y-105907540D01*
X169543940Y-105882140D01*
X169620140Y-105874520D01*
X169691260Y-105879600D01*
X169764920Y-105899920D01*
X169830960Y-105938020D01*
X169891920Y-105988820D01*
X169922400Y-106021840D01*
X169950340Y-106062480D01*
X169973200Y-106110740D01*
X169985900Y-106148840D01*
X169998600Y-106225040D01*
X169996060Y-106298700D01*
X169980820Y-106367280D01*
X169950340Y-106433320D01*
X169909700Y-106491740D01*
X169858900Y-106542540D01*
X169797940Y-106583180D01*
X169729360Y-106608580D01*
X169653160Y-106621280D01*
X169645540Y-106623820D01*
X169569340Y-106621280D01*
X169498220Y-106603500D01*
X169429640Y-106570480D01*
X169404240Y-106552700D01*
X169355980Y-106509520D01*
X169310260Y-106456180D01*
X169279780Y-106400300D01*
X169272160Y-106379980D01*
X169262000Y-106346960D01*
X169254380Y-106313940D01*
X169249300Y-106288540D01*
X169249300Y-106273300D01*
X169246760Y-106288540D01*
X169246760Y-106301240D01*
X169239140Y-106334260D01*
X169228980Y-106372360D01*
X169216280Y-106402840D01*
X169198500Y-106438400D01*
X169152780Y-106499360D01*
X169094360Y-106550160D01*
X169028320Y-106590800D01*
X168954660Y-106616200D01*
X168941960Y-106618740D01*
X168891160Y-106623820D01*
X168835280Y-106621280D01*
X168787020Y-106613660D01*
X168736220Y-106598420D01*
X168667640Y-106562860D01*
X168604140Y-106512060D01*
X168601600Y-106506980D01*
X168558420Y-106453640D01*
X168525400Y-106390140D01*
X168507620Y-106326640D01*
X168505080Y-106324100D01*
X168502540Y-106306320D01*
X168500000Y-106298700D01*
X168497460Y-106303780D01*
X168494920Y-106319020D01*
X168494920Y-106324100D01*
X168484760Y-106362200D01*
X168466980Y-106405380D01*
X168444120Y-106446020D01*
X168411100Y-106491740D01*
X168355220Y-106545080D01*
X168289180Y-106585720D01*
X168215520Y-106613660D01*
X168202820Y-106616200D01*
X168152020Y-106621280D01*
X168096140Y-106621280D01*
X168047880Y-106616200D01*
X168007240Y-106603500D01*
X167936120Y-106573020D01*
X167875160Y-106527300D01*
X167821820Y-106468880D01*
X167783720Y-106402840D01*
X167776100Y-106382520D01*
X167763400Y-106346960D01*
X167755780Y-106313940D01*
X167753240Y-106288540D01*
X167753240Y-106286000D01*
X167750700Y-106286000D01*
X167748160Y-106301240D01*
X167748160Y-106303780D01*
X167738000Y-106349500D01*
X167717680Y-106400300D01*
X167697360Y-106443480D01*
X167687200Y-106458720D01*
X167638940Y-106517140D01*
X167577980Y-106562860D01*
X167514480Y-106598420D01*
X167443360Y-106618740D01*
X167367160Y-106623820D01*
X167367160Y-106623820D01*
G37*
X167367160Y-106623820D02*
X167290960Y-106613660D01*
X167222380Y-106590800D01*
X167191900Y-106575560D01*
X167128400Y-106529840D01*
X167077600Y-106476500D01*
X167039500Y-106413000D01*
X167014100Y-106344420D01*
X167001400Y-106270760D01*
X167003940Y-106197100D01*
X167021720Y-106123440D01*
X167054740Y-106052320D01*
X167077600Y-106021840D01*
X167108080Y-105988820D01*
X167143640Y-105955800D01*
X167174120Y-105932940D01*
X167184280Y-105925320D01*
X167250320Y-105894840D01*
X167316360Y-105879600D01*
X167392560Y-105877060D01*
X167417960Y-105877060D01*
X167458600Y-105882140D01*
X167494160Y-105892300D01*
X167534800Y-105910080D01*
X167577980Y-105932940D01*
X167638940Y-105981200D01*
X167687200Y-106042160D01*
X167725300Y-106110740D01*
X167735460Y-106141220D01*
X167745620Y-106179320D01*
X167750700Y-106207260D01*
X167750700Y-106212340D01*
X167750700Y-106212340D01*
X167753240Y-106197100D01*
X167753240Y-106194560D01*
X167765940Y-106146300D01*
X167783720Y-106098040D01*
X167806580Y-106054860D01*
X167847220Y-105998980D01*
X167905640Y-105945640D01*
X167971680Y-105907540D01*
X168045340Y-105882140D01*
X168124080Y-105874520D01*
X168144400Y-105874520D01*
X168202820Y-105882140D01*
X168261240Y-105897380D01*
X168271400Y-105902460D01*
X168334900Y-105938020D01*
X168390780Y-105983740D01*
X168439040Y-106042160D01*
X168472060Y-106103120D01*
X168492380Y-106171700D01*
X168494920Y-106174240D01*
X168497460Y-106192020D01*
X168500000Y-106199640D01*
X168500000Y-106199640D01*
X168502540Y-106189480D01*
X168507620Y-106171700D01*
X168507620Y-106164080D01*
X168530480Y-106098040D01*
X168566040Y-106034540D01*
X168614300Y-105978660D01*
X168660020Y-105940560D01*
X168723520Y-105905000D01*
X168797180Y-105882140D01*
X168875920Y-105874520D01*
X168931800Y-105879600D01*
X169005460Y-105897380D01*
X169074040Y-105932940D01*
X169135000Y-105978660D01*
X169183260Y-106039620D01*
X169190880Y-106047240D01*
X169206120Y-106075180D01*
X169218820Y-106098040D01*
X169223900Y-106115820D01*
X169236600Y-106148840D01*
X169244220Y-106181860D01*
X169246760Y-106207260D01*
X169246760Y-106212340D01*
X169249300Y-106212340D01*
X169251840Y-106194560D01*
X169259460Y-106153920D01*
X169279780Y-106103120D01*
X169300100Y-106057400D01*
X169345820Y-105996440D01*
X169404240Y-105945640D01*
X169470280Y-105907540D01*
X169543940Y-105882140D01*
X169620140Y-105874520D01*
X169691260Y-105879600D01*
X169764920Y-105899920D01*
X169830960Y-105938020D01*
X169891920Y-105988820D01*
X169922400Y-106021840D01*
X169950340Y-106062480D01*
X169973200Y-106110740D01*
X169985900Y-106148840D01*
X169998600Y-106225040D01*
X169996060Y-106298700D01*
X169980820Y-106367280D01*
X169950340Y-106433320D01*
X169909700Y-106491740D01*
X169858900Y-106542540D01*
X169797940Y-106583180D01*
X169729360Y-106608580D01*
X169653160Y-106621280D01*
X169645540Y-106623820D01*
X169569340Y-106621280D01*
X169498220Y-106603500D01*
X169429640Y-106570480D01*
X169404240Y-106552700D01*
X169355980Y-106509520D01*
X169310260Y-106456180D01*
X169279780Y-106400300D01*
X169272160Y-106379980D01*
X169262000Y-106346960D01*
X169254380Y-106313940D01*
X169249300Y-106288540D01*
X169249300Y-106273300D01*
X169246760Y-106288540D01*
X169246760Y-106301240D01*
X169239140Y-106334260D01*
X169228980Y-106372360D01*
X169216280Y-106402840D01*
X169198500Y-106438400D01*
X169152780Y-106499360D01*
X169094360Y-106550160D01*
X169028320Y-106590800D01*
X168954660Y-106616200D01*
X168941960Y-106618740D01*
X168891160Y-106623820D01*
X168835280Y-106621280D01*
X168787020Y-106613660D01*
X168736220Y-106598420D01*
X168667640Y-106562860D01*
X168604140Y-106512060D01*
X168601600Y-106506980D01*
X168558420Y-106453640D01*
X168525400Y-106390140D01*
X168507620Y-106326640D01*
X168505080Y-106324100D01*
X168502540Y-106306320D01*
X168500000Y-106298700D01*
X168497460Y-106303780D01*
X168494920Y-106319020D01*
X168494920Y-106324100D01*
X168484760Y-106362200D01*
X168466980Y-106405380D01*
X168444120Y-106446020D01*
X168411100Y-106491740D01*
X168355220Y-106545080D01*
X168289180Y-106585720D01*
X168215520Y-106613660D01*
X168202820Y-106616200D01*
X168152020Y-106621280D01*
X168096140Y-106621280D01*
X168047880Y-106616200D01*
X168007240Y-106603500D01*
X167936120Y-106573020D01*
X167875160Y-106527300D01*
X167821820Y-106468880D01*
X167783720Y-106402840D01*
X167776100Y-106382520D01*
X167763400Y-106346960D01*
X167755780Y-106313940D01*
X167753240Y-106288540D01*
X167753240Y-106286000D01*
X167750700Y-106286000D01*
X167748160Y-106301240D01*
X167748160Y-106303780D01*
X167738000Y-106349500D01*
X167717680Y-106400300D01*
X167697360Y-106443480D01*
X167687200Y-106458720D01*
X167638940Y-106517140D01*
X167577980Y-106562860D01*
X167514480Y-106598420D01*
X167443360Y-106618740D01*
X167367160Y-106623820D01*
G36*
X170397380Y-105874520D02*
X170351660Y-105871980D01*
X170308480Y-105869440D01*
X170257680Y-105856740D01*
X170189100Y-105823720D01*
X170125600Y-105780540D01*
X170074800Y-105724660D01*
X170034160Y-105658620D01*
X170008760Y-105587500D01*
X169998600Y-105511300D01*
X170003680Y-105435100D01*
X170024000Y-105363980D01*
X170057020Y-105297940D01*
X170105280Y-105236980D01*
X170166240Y-105186180D01*
X170184020Y-105176020D01*
X170257680Y-105143000D01*
X170331340Y-105125220D01*
X170410080Y-105125220D01*
X170486280Y-105140460D01*
X170547240Y-105165860D01*
X170613280Y-105209040D01*
X170666620Y-105264920D01*
X170709800Y-105330960D01*
X170737740Y-105407160D01*
X170745360Y-105445260D01*
X170747900Y-105493520D01*
X170747900Y-105541780D01*
X170740280Y-105582420D01*
X170737740Y-105595120D01*
X170707260Y-105671320D01*
X170664080Y-105737360D01*
X170605660Y-105793240D01*
X170537080Y-105836420D01*
X170506600Y-105849120D01*
X170463420Y-105864360D01*
X170422780Y-105871980D01*
X170397380Y-105874520D01*
X170397380Y-105874520D01*
G37*
X170397380Y-105874520D02*
X170351660Y-105871980D01*
X170308480Y-105869440D01*
X170257680Y-105856740D01*
X170189100Y-105823720D01*
X170125600Y-105780540D01*
X170074800Y-105724660D01*
X170034160Y-105658620D01*
X170008760Y-105587500D01*
X169998600Y-105511300D01*
X170003680Y-105435100D01*
X170024000Y-105363980D01*
X170057020Y-105297940D01*
X170105280Y-105236980D01*
X170166240Y-105186180D01*
X170184020Y-105176020D01*
X170257680Y-105143000D01*
X170331340Y-105125220D01*
X170410080Y-105125220D01*
X170486280Y-105140460D01*
X170547240Y-105165860D01*
X170613280Y-105209040D01*
X170666620Y-105264920D01*
X170709800Y-105330960D01*
X170737740Y-105407160D01*
X170745360Y-105445260D01*
X170747900Y-105493520D01*
X170747900Y-105541780D01*
X170740280Y-105582420D01*
X170737740Y-105595120D01*
X170707260Y-105671320D01*
X170664080Y-105737360D01*
X170605660Y-105793240D01*
X170537080Y-105836420D01*
X170506600Y-105849120D01*
X170463420Y-105864360D01*
X170422780Y-105871980D01*
X170397380Y-105874520D01*
G36*
X166617860Y-105874520D02*
X166541660Y-105864360D01*
X166465460Y-105838960D01*
X166396880Y-105795780D01*
X166381640Y-105783080D01*
X166330840Y-105729740D01*
X166290200Y-105663700D01*
X166262260Y-105590040D01*
X166254640Y-105551940D01*
X166252100Y-105503680D01*
X166252100Y-105455420D01*
X166259720Y-105417320D01*
X166264800Y-105399540D01*
X166292740Y-105323340D01*
X166335920Y-105259840D01*
X166391800Y-105206500D01*
X166455300Y-105165860D01*
X166526420Y-105137920D01*
X166605160Y-105125220D01*
X166633100Y-105122680D01*
X166709300Y-105132840D01*
X166780420Y-105155700D01*
X166843920Y-105193800D01*
X166899800Y-105242060D01*
X166942980Y-105300480D01*
X166976000Y-105366520D01*
X166996320Y-105437640D01*
X166998860Y-105516380D01*
X166996320Y-105562100D01*
X166986160Y-105602740D01*
X166970920Y-105645920D01*
X166940440Y-105704340D01*
X166892180Y-105762760D01*
X166833760Y-105811020D01*
X166767720Y-105846580D01*
X166694060Y-105866900D01*
X166617860Y-105874520D01*
X166617860Y-105874520D01*
G37*
X166617860Y-105874520D02*
X166541660Y-105864360D01*
X166465460Y-105838960D01*
X166396880Y-105795780D01*
X166381640Y-105783080D01*
X166330840Y-105729740D01*
X166290200Y-105663700D01*
X166262260Y-105590040D01*
X166254640Y-105551940D01*
X166252100Y-105503680D01*
X166252100Y-105455420D01*
X166259720Y-105417320D01*
X166264800Y-105399540D01*
X166292740Y-105323340D01*
X166335920Y-105259840D01*
X166391800Y-105206500D01*
X166455300Y-105165860D01*
X166526420Y-105137920D01*
X166605160Y-105125220D01*
X166633100Y-105122680D01*
X166709300Y-105132840D01*
X166780420Y-105155700D01*
X166843920Y-105193800D01*
X166899800Y-105242060D01*
X166942980Y-105300480D01*
X166976000Y-105366520D01*
X166996320Y-105437640D01*
X166998860Y-105516380D01*
X166996320Y-105562100D01*
X166986160Y-105602740D01*
X166970920Y-105645920D01*
X166940440Y-105704340D01*
X166892180Y-105762760D01*
X166833760Y-105811020D01*
X166767720Y-105846580D01*
X166694060Y-105866900D01*
X166617860Y-105874520D01*
G36*
X171144140Y-105122680D02*
X171090800Y-105122680D01*
X171045080Y-105115060D01*
X170991740Y-105099820D01*
X170923160Y-105064260D01*
X170859660Y-105013460D01*
X170819020Y-104967740D01*
X170780920Y-104901700D01*
X170758060Y-104828040D01*
X170752980Y-104800100D01*
X170750440Y-104754380D01*
X170750440Y-104708660D01*
X170755520Y-104670560D01*
X170763140Y-104647700D01*
X170791080Y-104574040D01*
X170834260Y-104510540D01*
X170890140Y-104454660D01*
X170958720Y-104414020D01*
X170984120Y-104401320D01*
X171032380Y-104383540D01*
X171080640Y-104375920D01*
X171136520Y-104375920D01*
X171172080Y-104378460D01*
X171212720Y-104383540D01*
X171250820Y-104393700D01*
X171291460Y-104414020D01*
X171314320Y-104426720D01*
X171377820Y-104472440D01*
X171428620Y-104530860D01*
X171469260Y-104599440D01*
X171492120Y-104675640D01*
X171494660Y-104693420D01*
X171499740Y-104736600D01*
X171497200Y-104782320D01*
X171492120Y-104822960D01*
X171487040Y-104848360D01*
X171456560Y-104922020D01*
X171413380Y-104988060D01*
X171360040Y-105041400D01*
X171291460Y-105084580D01*
X171217800Y-105112520D01*
X171194940Y-105117600D01*
X171144140Y-105122680D01*
X171144140Y-105122680D01*
G37*
X171144140Y-105122680D02*
X171090800Y-105122680D01*
X171045080Y-105115060D01*
X170991740Y-105099820D01*
X170923160Y-105064260D01*
X170859660Y-105013460D01*
X170819020Y-104967740D01*
X170780920Y-104901700D01*
X170758060Y-104828040D01*
X170752980Y-104800100D01*
X170750440Y-104754380D01*
X170750440Y-104708660D01*
X170755520Y-104670560D01*
X170763140Y-104647700D01*
X170791080Y-104574040D01*
X170834260Y-104510540D01*
X170890140Y-104454660D01*
X170958720Y-104414020D01*
X170984120Y-104401320D01*
X171032380Y-104383540D01*
X171080640Y-104375920D01*
X171136520Y-104375920D01*
X171172080Y-104378460D01*
X171212720Y-104383540D01*
X171250820Y-104393700D01*
X171291460Y-104414020D01*
X171314320Y-104426720D01*
X171377820Y-104472440D01*
X171428620Y-104530860D01*
X171469260Y-104599440D01*
X171492120Y-104675640D01*
X171494660Y-104693420D01*
X171499740Y-104736600D01*
X171497200Y-104782320D01*
X171492120Y-104822960D01*
X171487040Y-104848360D01*
X171456560Y-104922020D01*
X171413380Y-104988060D01*
X171360040Y-105041400D01*
X171291460Y-105084580D01*
X171217800Y-105112520D01*
X171194940Y-105117600D01*
X171144140Y-105122680D01*
G36*
X168134240Y-105122680D02*
X168060580Y-105117600D01*
X167989460Y-105097280D01*
X167946280Y-105079500D01*
X167882780Y-105033780D01*
X167829440Y-104977900D01*
X167788800Y-104911860D01*
X167763400Y-104840740D01*
X167758320Y-104822960D01*
X167750700Y-104764540D01*
X167753240Y-104706120D01*
X167768480Y-104640080D01*
X167798960Y-104566420D01*
X167842140Y-104502920D01*
X167898020Y-104452120D01*
X167964060Y-104411480D01*
X168040260Y-104383540D01*
X168088520Y-104370840D01*
X168063120Y-104368300D01*
X168058040Y-104368300D01*
X168004700Y-104353060D01*
X167948820Y-104327660D01*
X167895480Y-104294640D01*
X167887860Y-104287020D01*
X167834520Y-104233680D01*
X167791340Y-104170180D01*
X167765940Y-104099060D01*
X167753240Y-104027940D01*
X167753240Y-103954280D01*
X167771020Y-103880620D01*
X167804040Y-103809500D01*
X167804040Y-103806960D01*
X167852300Y-103746000D01*
X167908180Y-103695200D01*
X167971680Y-103659640D01*
X168040260Y-103636780D01*
X168111380Y-103626620D01*
X168185040Y-103631700D01*
X168256160Y-103649480D01*
X168322200Y-103682500D01*
X168385700Y-103728220D01*
X168416180Y-103763780D01*
X168454280Y-103819660D01*
X168482220Y-103878080D01*
X168494920Y-103933960D01*
X168497460Y-103946660D01*
X168500000Y-103954280D01*
X168502540Y-103949200D01*
X168505080Y-103933960D01*
X168517780Y-103883160D01*
X168540640Y-103829820D01*
X168571120Y-103779020D01*
X168591440Y-103756160D01*
X168647320Y-103702820D01*
X168713360Y-103662180D01*
X168784480Y-103636780D01*
X168860680Y-103626620D01*
X168936880Y-103631700D01*
X168982600Y-103641860D01*
X169056260Y-103672340D01*
X169117220Y-103715520D01*
X169170560Y-103771400D01*
X169211200Y-103837440D01*
X169239140Y-103911100D01*
X169244220Y-103949200D01*
X169249300Y-104025400D01*
X169234060Y-104099060D01*
X169208660Y-104170180D01*
X169165480Y-104233680D01*
X169112140Y-104287020D01*
X169046100Y-104332740D01*
X169015620Y-104345440D01*
X168980060Y-104358140D01*
X168949580Y-104365760D01*
X168924180Y-104370840D01*
X168921640Y-104370840D01*
X168921640Y-104373380D01*
X168939420Y-104378460D01*
X168974980Y-104388620D01*
X169025780Y-104406400D01*
X169068960Y-104426720D01*
X169091820Y-104444500D01*
X169142620Y-104487680D01*
X169185800Y-104541020D01*
X169218820Y-104596900D01*
X169239140Y-104660400D01*
X169249300Y-104726440D01*
X169246760Y-104792480D01*
X169244220Y-104805180D01*
X169223900Y-104883920D01*
X169188340Y-104952500D01*
X169137540Y-105013460D01*
X169096900Y-105051560D01*
X169028320Y-105092200D01*
X168954660Y-105115060D01*
X168926720Y-105120140D01*
X168886080Y-105122680D01*
X168842900Y-105120140D01*
X168802260Y-105117600D01*
X168771780Y-105109980D01*
X168746380Y-105102360D01*
X168675260Y-105066800D01*
X168611760Y-105018540D01*
X168560960Y-104957580D01*
X168543180Y-104927100D01*
X168520320Y-104876300D01*
X168507620Y-104825500D01*
X168505080Y-104822960D01*
X168502540Y-104805180D01*
X168500000Y-104797560D01*
X168500000Y-104797560D01*
X168500000Y-104698500D01*
X168500000Y-104698500D01*
X168502540Y-104690880D01*
X168507620Y-104670560D01*
X168507620Y-104665480D01*
X168530480Y-104599440D01*
X168566040Y-104535940D01*
X168614300Y-104480060D01*
X168670180Y-104434340D01*
X168733680Y-104401320D01*
X168738760Y-104398780D01*
X168771780Y-104388620D01*
X168802260Y-104381000D01*
X168837820Y-104373380D01*
X168804800Y-104368300D01*
X168759080Y-104355600D01*
X168693040Y-104327660D01*
X168632080Y-104284480D01*
X168578740Y-104231140D01*
X168538100Y-104170180D01*
X168525400Y-104137160D01*
X168512700Y-104099060D01*
X168505080Y-104066040D01*
X168502540Y-104053340D01*
X168500000Y-104045720D01*
X168497460Y-104050800D01*
X168494920Y-104066040D01*
X168489840Y-104093980D01*
X168477140Y-104132080D01*
X168461900Y-104170180D01*
X168436500Y-104208280D01*
X168388240Y-104266700D01*
X168329820Y-104312420D01*
X168263780Y-104347980D01*
X168195200Y-104368300D01*
X168162180Y-104373380D01*
X168195200Y-104381000D01*
X168200280Y-104381000D01*
X168233300Y-104388620D01*
X168266320Y-104401320D01*
X168271400Y-104403860D01*
X168334900Y-104436880D01*
X168390780Y-104485140D01*
X168439040Y-104541020D01*
X168472060Y-104604520D01*
X168492380Y-104670560D01*
X168494920Y-104673100D01*
X168497460Y-104690880D01*
X168500000Y-104698500D01*
X168500000Y-104797560D01*
X168500000Y-104797560D01*
X168497460Y-104807720D01*
X168492380Y-104825500D01*
X168479680Y-104876300D01*
X168449200Y-104942340D01*
X168403480Y-105000760D01*
X168347600Y-105051560D01*
X168281560Y-105089660D01*
X168281560Y-105089660D01*
X168210440Y-105115060D01*
X168134240Y-105122680D01*
X168134240Y-105122680D01*
G37*
X168134240Y-105122680D02*
X168060580Y-105117600D01*
X167989460Y-105097280D01*
X167946280Y-105079500D01*
X167882780Y-105033780D01*
X167829440Y-104977900D01*
X167788800Y-104911860D01*
X167763400Y-104840740D01*
X167758320Y-104822960D01*
X167750700Y-104764540D01*
X167753240Y-104706120D01*
X167768480Y-104640080D01*
X167798960Y-104566420D01*
X167842140Y-104502920D01*
X167898020Y-104452120D01*
X167964060Y-104411480D01*
X168040260Y-104383540D01*
X168088520Y-104370840D01*
X168063120Y-104368300D01*
X168058040Y-104368300D01*
X168004700Y-104353060D01*
X167948820Y-104327660D01*
X167895480Y-104294640D01*
X167887860Y-104287020D01*
X167834520Y-104233680D01*
X167791340Y-104170180D01*
X167765940Y-104099060D01*
X167753240Y-104027940D01*
X167753240Y-103954280D01*
X167771020Y-103880620D01*
X167804040Y-103809500D01*
X167804040Y-103806960D01*
X167852300Y-103746000D01*
X167908180Y-103695200D01*
X167971680Y-103659640D01*
X168040260Y-103636780D01*
X168111380Y-103626620D01*
X168185040Y-103631700D01*
X168256160Y-103649480D01*
X168322200Y-103682500D01*
X168385700Y-103728220D01*
X168416180Y-103763780D01*
X168454280Y-103819660D01*
X168482220Y-103878080D01*
X168494920Y-103933960D01*
X168497460Y-103946660D01*
X168500000Y-103954280D01*
X168502540Y-103949200D01*
X168505080Y-103933960D01*
X168517780Y-103883160D01*
X168540640Y-103829820D01*
X168571120Y-103779020D01*
X168591440Y-103756160D01*
X168647320Y-103702820D01*
X168713360Y-103662180D01*
X168784480Y-103636780D01*
X168860680Y-103626620D01*
X168936880Y-103631700D01*
X168982600Y-103641860D01*
X169056260Y-103672340D01*
X169117220Y-103715520D01*
X169170560Y-103771400D01*
X169211200Y-103837440D01*
X169239140Y-103911100D01*
X169244220Y-103949200D01*
X169249300Y-104025400D01*
X169234060Y-104099060D01*
X169208660Y-104170180D01*
X169165480Y-104233680D01*
X169112140Y-104287020D01*
X169046100Y-104332740D01*
X169015620Y-104345440D01*
X168980060Y-104358140D01*
X168949580Y-104365760D01*
X168924180Y-104370840D01*
X168921640Y-104370840D01*
X168921640Y-104373380D01*
X168939420Y-104378460D01*
X168974980Y-104388620D01*
X169025780Y-104406400D01*
X169068960Y-104426720D01*
X169091820Y-104444500D01*
X169142620Y-104487680D01*
X169185800Y-104541020D01*
X169218820Y-104596900D01*
X169239140Y-104660400D01*
X169249300Y-104726440D01*
X169246760Y-104792480D01*
X169244220Y-104805180D01*
X169223900Y-104883920D01*
X169188340Y-104952500D01*
X169137540Y-105013460D01*
X169096900Y-105051560D01*
X169028320Y-105092200D01*
X168954660Y-105115060D01*
X168926720Y-105120140D01*
X168886080Y-105122680D01*
X168842900Y-105120140D01*
X168802260Y-105117600D01*
X168771780Y-105109980D01*
X168746380Y-105102360D01*
X168675260Y-105066800D01*
X168611760Y-105018540D01*
X168560960Y-104957580D01*
X168543180Y-104927100D01*
X168520320Y-104876300D01*
X168507620Y-104825500D01*
X168505080Y-104822960D01*
X168502540Y-104805180D01*
X168500000Y-104797560D01*
X168500000Y-104797560D01*
X168500000Y-104698500D01*
X168500000Y-104698500D01*
X168502540Y-104690880D01*
X168507620Y-104670560D01*
X168507620Y-104665480D01*
X168530480Y-104599440D01*
X168566040Y-104535940D01*
X168614300Y-104480060D01*
X168670180Y-104434340D01*
X168733680Y-104401320D01*
X168738760Y-104398780D01*
X168771780Y-104388620D01*
X168802260Y-104381000D01*
X168837820Y-104373380D01*
X168804800Y-104368300D01*
X168759080Y-104355600D01*
X168693040Y-104327660D01*
X168632080Y-104284480D01*
X168578740Y-104231140D01*
X168538100Y-104170180D01*
X168525400Y-104137160D01*
X168512700Y-104099060D01*
X168505080Y-104066040D01*
X168502540Y-104053340D01*
X168500000Y-104045720D01*
X168497460Y-104050800D01*
X168494920Y-104066040D01*
X168489840Y-104093980D01*
X168477140Y-104132080D01*
X168461900Y-104170180D01*
X168436500Y-104208280D01*
X168388240Y-104266700D01*
X168329820Y-104312420D01*
X168263780Y-104347980D01*
X168195200Y-104368300D01*
X168162180Y-104373380D01*
X168195200Y-104381000D01*
X168200280Y-104381000D01*
X168233300Y-104388620D01*
X168266320Y-104401320D01*
X168271400Y-104403860D01*
X168334900Y-104436880D01*
X168390780Y-104485140D01*
X168439040Y-104541020D01*
X168472060Y-104604520D01*
X168492380Y-104670560D01*
X168494920Y-104673100D01*
X168497460Y-104690880D01*
X168500000Y-104698500D01*
X168500000Y-104797560D01*
X168500000Y-104797560D01*
X168497460Y-104807720D01*
X168492380Y-104825500D01*
X168479680Y-104876300D01*
X168449200Y-104942340D01*
X168403480Y-105000760D01*
X168347600Y-105051560D01*
X168281560Y-105089660D01*
X168281560Y-105089660D01*
X168210440Y-105115060D01*
X168134240Y-105122680D01*
G36*
X165904120Y-105122680D02*
X165843160Y-105122680D01*
X165787280Y-105112520D01*
X165751720Y-105102360D01*
X165680600Y-105069340D01*
X165619640Y-105023620D01*
X165568840Y-104967740D01*
X165533280Y-104901700D01*
X165510420Y-104828040D01*
X165500260Y-104749300D01*
X165502800Y-104718820D01*
X165515500Y-104640080D01*
X165545980Y-104568960D01*
X165594240Y-104500380D01*
X165606940Y-104487680D01*
X165660280Y-104441960D01*
X165721240Y-104406400D01*
X165787280Y-104383540D01*
X165789820Y-104383540D01*
X165845700Y-104375920D01*
X165906660Y-104375920D01*
X165962540Y-104383540D01*
X165982860Y-104388620D01*
X166053980Y-104419100D01*
X166117480Y-104462280D01*
X166168280Y-104513080D01*
X166208920Y-104576580D01*
X166236860Y-104642620D01*
X166249560Y-104716280D01*
X166249560Y-104792480D01*
X166231780Y-104868680D01*
X166206380Y-104924560D01*
X166163200Y-104988060D01*
X166107320Y-105043940D01*
X166043820Y-105084580D01*
X165970160Y-105112520D01*
X165962540Y-105115060D01*
X165904120Y-105122680D01*
X165904120Y-105122680D01*
G37*
X165904120Y-105122680D02*
X165843160Y-105122680D01*
X165787280Y-105112520D01*
X165751720Y-105102360D01*
X165680600Y-105069340D01*
X165619640Y-105023620D01*
X165568840Y-104967740D01*
X165533280Y-104901700D01*
X165510420Y-104828040D01*
X165500260Y-104749300D01*
X165502800Y-104718820D01*
X165515500Y-104640080D01*
X165545980Y-104568960D01*
X165594240Y-104500380D01*
X165606940Y-104487680D01*
X165660280Y-104441960D01*
X165721240Y-104406400D01*
X165787280Y-104383540D01*
X165789820Y-104383540D01*
X165845700Y-104375920D01*
X165906660Y-104375920D01*
X165962540Y-104383540D01*
X165982860Y-104388620D01*
X166053980Y-104419100D01*
X166117480Y-104462280D01*
X166168280Y-104513080D01*
X166208920Y-104576580D01*
X166236860Y-104642620D01*
X166249560Y-104716280D01*
X166249560Y-104792480D01*
X166231780Y-104868680D01*
X166206380Y-104924560D01*
X166163200Y-104988060D01*
X166107320Y-105043940D01*
X166043820Y-105084580D01*
X165970160Y-105112520D01*
X165962540Y-105115060D01*
X165904120Y-105122680D01*
G36*
X169612520Y-102877320D02*
X169538860Y-102867160D01*
X169465200Y-102841760D01*
X169432180Y-102823980D01*
X169399160Y-102801120D01*
X169363600Y-102768100D01*
X169325500Y-102727460D01*
X169284860Y-102663960D01*
X169259460Y-102590300D01*
X169254380Y-102569980D01*
X169249300Y-102521720D01*
X169249300Y-102468380D01*
X169256920Y-102422660D01*
X169277240Y-102359160D01*
X169310260Y-102293120D01*
X169355980Y-102237240D01*
X169363600Y-102229620D01*
X169399160Y-102201680D01*
X169439800Y-102173740D01*
X169477900Y-102155960D01*
X169490600Y-102150880D01*
X169521080Y-102140720D01*
X169551560Y-102133100D01*
X169574420Y-102128020D01*
X169587120Y-102128020D01*
X169571880Y-102125480D01*
X169554100Y-102120400D01*
X169531240Y-102115320D01*
X169503300Y-102107700D01*
X169447420Y-102079760D01*
X169391540Y-102046740D01*
X169348360Y-102006100D01*
X169340740Y-101995940D01*
X169295020Y-101932440D01*
X169264540Y-101861320D01*
X169249300Y-101787660D01*
X169249300Y-101711460D01*
X169251840Y-101693680D01*
X169274700Y-101617480D01*
X169307720Y-101548900D01*
X169361060Y-101485400D01*
X169406780Y-101447300D01*
X169470280Y-101409200D01*
X169543940Y-101383800D01*
X169559180Y-101381260D01*
X169607440Y-101376180D01*
X169660780Y-101378720D01*
X169709040Y-101386340D01*
X169752220Y-101399040D01*
X169820800Y-101432060D01*
X169881760Y-101477780D01*
X169930020Y-101536200D01*
X169968120Y-101599700D01*
X169990980Y-101673360D01*
X169993520Y-101680980D01*
X169998600Y-101698760D01*
X170001140Y-101706380D01*
X170003680Y-101696220D01*
X170003680Y-101680980D01*
X170011300Y-101650500D01*
X170024000Y-101617480D01*
X170036700Y-101587000D01*
X170049400Y-101564140D01*
X170095120Y-101500640D01*
X170151000Y-101447300D01*
X170217040Y-101409200D01*
X170290700Y-101386340D01*
X170371980Y-101376180D01*
X170432940Y-101381260D01*
X170504060Y-101399040D01*
X170570100Y-101432060D01*
X170608200Y-101457460D01*
X170664080Y-101513340D01*
X170704720Y-101576840D01*
X170735200Y-101645420D01*
X170747900Y-101719080D01*
X170747900Y-101795280D01*
X170730120Y-101863860D01*
X170699640Y-101937520D01*
X170653920Y-101998480D01*
X170598040Y-102051820D01*
X170529460Y-102092460D01*
X170453260Y-102117860D01*
X170410080Y-102128020D01*
X170435480Y-102130560D01*
X170450720Y-102133100D01*
X170511680Y-102150880D01*
X170570100Y-102181360D01*
X170625980Y-102222000D01*
X170669160Y-102267720D01*
X170694560Y-102308360D01*
X170719960Y-102359160D01*
X170737740Y-102409960D01*
X170745360Y-102448060D01*
X170747900Y-102496320D01*
X170747900Y-102544580D01*
X170740280Y-102582680D01*
X170727580Y-102628400D01*
X170692020Y-102699520D01*
X170643760Y-102760480D01*
X170585340Y-102811280D01*
X170516760Y-102849380D01*
X170438020Y-102872240D01*
X170417700Y-102874780D01*
X170371980Y-102874780D01*
X170323720Y-102872240D01*
X170280540Y-102864620D01*
X170250060Y-102854460D01*
X170178940Y-102821440D01*
X170117980Y-102775720D01*
X170067180Y-102717300D01*
X170029080Y-102651260D01*
X170006220Y-102575060D01*
X170003680Y-102569980D01*
X170001140Y-102552200D01*
X169998600Y-102554740D01*
X169998600Y-102450600D01*
X170001140Y-102448060D01*
X170003680Y-102432820D01*
X170006220Y-102427740D01*
X170018920Y-102379480D01*
X170041780Y-102326140D01*
X170072260Y-102277880D01*
X170095120Y-102249940D01*
X170153540Y-102196600D01*
X170222120Y-102158500D01*
X170298320Y-102133100D01*
X170333880Y-102125480D01*
X170308480Y-102120400D01*
X170285620Y-102115320D01*
X170262760Y-102110240D01*
X170247520Y-102105160D01*
X170178940Y-102072140D01*
X170117980Y-102023880D01*
X170067180Y-101968000D01*
X170031620Y-101901960D01*
X170006220Y-101830840D01*
X170003680Y-101813060D01*
X169998600Y-101802900D01*
X169996060Y-101807980D01*
X169990980Y-101830840D01*
X169990980Y-101833380D01*
X169978280Y-101874020D01*
X169960500Y-101917200D01*
X169937640Y-101957840D01*
X169917320Y-101983240D01*
X169884300Y-102018800D01*
X169846200Y-102051820D01*
X169810640Y-102077220D01*
X169808100Y-102077220D01*
X169749680Y-102102620D01*
X169688720Y-102120400D01*
X169663320Y-102125480D01*
X169693800Y-102133100D01*
X169759840Y-102150880D01*
X169825880Y-102186440D01*
X169886840Y-102232160D01*
X169935100Y-102288040D01*
X169945260Y-102308360D01*
X169963040Y-102343920D01*
X169980820Y-102382020D01*
X169990980Y-102417580D01*
X169993520Y-102442980D01*
X169993520Y-102442980D01*
X169998600Y-102450600D01*
X169998600Y-102554740D01*
X169996060Y-102554740D01*
X169993520Y-102572520D01*
X169988440Y-102592840D01*
X169980820Y-102615700D01*
X169965580Y-102653800D01*
X169927480Y-102719840D01*
X169879220Y-102775720D01*
X169820800Y-102818900D01*
X169754760Y-102851920D01*
X169686180Y-102872240D01*
X169612520Y-102877320D01*
X169612520Y-102877320D01*
G37*
X169612520Y-102877320D02*
X169538860Y-102867160D01*
X169465200Y-102841760D01*
X169432180Y-102823980D01*
X169399160Y-102801120D01*
X169363600Y-102768100D01*
X169325500Y-102727460D01*
X169284860Y-102663960D01*
X169259460Y-102590300D01*
X169254380Y-102569980D01*
X169249300Y-102521720D01*
X169249300Y-102468380D01*
X169256920Y-102422660D01*
X169277240Y-102359160D01*
X169310260Y-102293120D01*
X169355980Y-102237240D01*
X169363600Y-102229620D01*
X169399160Y-102201680D01*
X169439800Y-102173740D01*
X169477900Y-102155960D01*
X169490600Y-102150880D01*
X169521080Y-102140720D01*
X169551560Y-102133100D01*
X169574420Y-102128020D01*
X169587120Y-102128020D01*
X169571880Y-102125480D01*
X169554100Y-102120400D01*
X169531240Y-102115320D01*
X169503300Y-102107700D01*
X169447420Y-102079760D01*
X169391540Y-102046740D01*
X169348360Y-102006100D01*
X169340740Y-101995940D01*
X169295020Y-101932440D01*
X169264540Y-101861320D01*
X169249300Y-101787660D01*
X169249300Y-101711460D01*
X169251840Y-101693680D01*
X169274700Y-101617480D01*
X169307720Y-101548900D01*
X169361060Y-101485400D01*
X169406780Y-101447300D01*
X169470280Y-101409200D01*
X169543940Y-101383800D01*
X169559180Y-101381260D01*
X169607440Y-101376180D01*
X169660780Y-101378720D01*
X169709040Y-101386340D01*
X169752220Y-101399040D01*
X169820800Y-101432060D01*
X169881760Y-101477780D01*
X169930020Y-101536200D01*
X169968120Y-101599700D01*
X169990980Y-101673360D01*
X169993520Y-101680980D01*
X169998600Y-101698760D01*
X170001140Y-101706380D01*
X170003680Y-101696220D01*
X170003680Y-101680980D01*
X170011300Y-101650500D01*
X170024000Y-101617480D01*
X170036700Y-101587000D01*
X170049400Y-101564140D01*
X170095120Y-101500640D01*
X170151000Y-101447300D01*
X170217040Y-101409200D01*
X170290700Y-101386340D01*
X170371980Y-101376180D01*
X170432940Y-101381260D01*
X170504060Y-101399040D01*
X170570100Y-101432060D01*
X170608200Y-101457460D01*
X170664080Y-101513340D01*
X170704720Y-101576840D01*
X170735200Y-101645420D01*
X170747900Y-101719080D01*
X170747900Y-101795280D01*
X170730120Y-101863860D01*
X170699640Y-101937520D01*
X170653920Y-101998480D01*
X170598040Y-102051820D01*
X170529460Y-102092460D01*
X170453260Y-102117860D01*
X170410080Y-102128020D01*
X170435480Y-102130560D01*
X170450720Y-102133100D01*
X170511680Y-102150880D01*
X170570100Y-102181360D01*
X170625980Y-102222000D01*
X170669160Y-102267720D01*
X170694560Y-102308360D01*
X170719960Y-102359160D01*
X170737740Y-102409960D01*
X170745360Y-102448060D01*
X170747900Y-102496320D01*
X170747900Y-102544580D01*
X170740280Y-102582680D01*
X170727580Y-102628400D01*
X170692020Y-102699520D01*
X170643760Y-102760480D01*
X170585340Y-102811280D01*
X170516760Y-102849380D01*
X170438020Y-102872240D01*
X170417700Y-102874780D01*
X170371980Y-102874780D01*
X170323720Y-102872240D01*
X170280540Y-102864620D01*
X170250060Y-102854460D01*
X170178940Y-102821440D01*
X170117980Y-102775720D01*
X170067180Y-102717300D01*
X170029080Y-102651260D01*
X170006220Y-102575060D01*
X170003680Y-102569980D01*
X170001140Y-102552200D01*
X169998600Y-102554740D01*
X169998600Y-102450600D01*
X170001140Y-102448060D01*
X170003680Y-102432820D01*
X170006220Y-102427740D01*
X170018920Y-102379480D01*
X170041780Y-102326140D01*
X170072260Y-102277880D01*
X170095120Y-102249940D01*
X170153540Y-102196600D01*
X170222120Y-102158500D01*
X170298320Y-102133100D01*
X170333880Y-102125480D01*
X170308480Y-102120400D01*
X170285620Y-102115320D01*
X170262760Y-102110240D01*
X170247520Y-102105160D01*
X170178940Y-102072140D01*
X170117980Y-102023880D01*
X170067180Y-101968000D01*
X170031620Y-101901960D01*
X170006220Y-101830840D01*
X170003680Y-101813060D01*
X169998600Y-101802900D01*
X169996060Y-101807980D01*
X169990980Y-101830840D01*
X169990980Y-101833380D01*
X169978280Y-101874020D01*
X169960500Y-101917200D01*
X169937640Y-101957840D01*
X169917320Y-101983240D01*
X169884300Y-102018800D01*
X169846200Y-102051820D01*
X169810640Y-102077220D01*
X169808100Y-102077220D01*
X169749680Y-102102620D01*
X169688720Y-102120400D01*
X169663320Y-102125480D01*
X169693800Y-102133100D01*
X169759840Y-102150880D01*
X169825880Y-102186440D01*
X169886840Y-102232160D01*
X169935100Y-102288040D01*
X169945260Y-102308360D01*
X169963040Y-102343920D01*
X169980820Y-102382020D01*
X169990980Y-102417580D01*
X169993520Y-102442980D01*
X169993520Y-102442980D01*
X169998600Y-102450600D01*
X169998600Y-102554740D01*
X169996060Y-102554740D01*
X169993520Y-102572520D01*
X169988440Y-102592840D01*
X169980820Y-102615700D01*
X169965580Y-102653800D01*
X169927480Y-102719840D01*
X169879220Y-102775720D01*
X169820800Y-102818900D01*
X169754760Y-102851920D01*
X169686180Y-102872240D01*
X169612520Y-102877320D01*
G36*
X167357000Y-102877320D02*
X167283340Y-102864620D01*
X167212220Y-102839220D01*
X167148720Y-102798580D01*
X167095380Y-102747780D01*
X167049660Y-102686820D01*
X167019180Y-102615700D01*
X167011560Y-102592840D01*
X167006480Y-102572520D01*
X167006480Y-102567440D01*
X167001400Y-102552200D01*
X167001400Y-102552200D01*
X167001400Y-102448060D01*
X167006480Y-102437900D01*
X167011560Y-102412500D01*
X167024260Y-102369320D01*
X167057280Y-102300740D01*
X167103000Y-102242320D01*
X167161420Y-102194060D01*
X167227460Y-102155960D01*
X167301120Y-102133100D01*
X167336680Y-102125480D01*
X167311280Y-102120400D01*
X167308740Y-102120400D01*
X167247780Y-102102620D01*
X167189360Y-102077220D01*
X167166500Y-102061980D01*
X167128400Y-102028960D01*
X167090300Y-101993400D01*
X167062360Y-101957840D01*
X167044580Y-101924820D01*
X167021720Y-101876560D01*
X167009020Y-101833380D01*
X167006480Y-101813060D01*
X167001400Y-101802900D01*
X166998860Y-101807980D01*
X166993780Y-101830840D01*
X166978540Y-101879100D01*
X166945520Y-101950220D01*
X166894720Y-102011180D01*
X166838840Y-102059440D01*
X166770260Y-102097540D01*
X166691520Y-102120400D01*
X166666120Y-102125480D01*
X166701680Y-102133100D01*
X166737240Y-102143260D01*
X166808360Y-102173740D01*
X166871860Y-102219460D01*
X166925200Y-102277880D01*
X166942980Y-102298200D01*
X166960760Y-102333760D01*
X166978540Y-102371860D01*
X166988700Y-102399800D01*
X166993780Y-102427740D01*
X166993780Y-102430280D01*
X166998860Y-102445520D01*
X167001400Y-102448060D01*
X167001400Y-102552200D01*
X166998860Y-102554740D01*
X166993780Y-102575060D01*
X166988700Y-102600460D01*
X166965840Y-102656340D01*
X166937900Y-102709680D01*
X166915040Y-102737620D01*
X166859160Y-102793500D01*
X166793120Y-102836680D01*
X166716920Y-102864620D01*
X166683900Y-102872240D01*
X166633100Y-102874780D01*
X166579760Y-102872240D01*
X166534040Y-102864620D01*
X166528960Y-102864620D01*
X166452760Y-102834140D01*
X166386720Y-102790960D01*
X166333380Y-102735080D01*
X166290200Y-102669040D01*
X166262260Y-102592840D01*
X166254640Y-102559820D01*
X166252100Y-102506480D01*
X166254640Y-102455680D01*
X166262260Y-102409960D01*
X166274960Y-102369320D01*
X166300360Y-102315980D01*
X166330840Y-102267720D01*
X166366400Y-102232160D01*
X166412120Y-102194060D01*
X166460380Y-102163580D01*
X166478160Y-102155960D01*
X166513720Y-102143260D01*
X166549280Y-102133100D01*
X166574680Y-102128020D01*
X166577220Y-102128020D01*
X166569600Y-102125480D01*
X166546740Y-102117860D01*
X166503560Y-102105160D01*
X166455300Y-102084840D01*
X166414660Y-102061980D01*
X166404500Y-102054360D01*
X166356240Y-102011180D01*
X166313060Y-101957840D01*
X166282580Y-101901960D01*
X166269880Y-101874020D01*
X166254640Y-101800360D01*
X166252100Y-101721620D01*
X166264800Y-101647960D01*
X166269880Y-101630180D01*
X166302900Y-101561600D01*
X166348620Y-101500640D01*
X166404500Y-101447300D01*
X166470540Y-101409200D01*
X166546740Y-101383800D01*
X166556900Y-101381260D01*
X166607700Y-101376180D01*
X166663580Y-101378720D01*
X166711840Y-101386340D01*
X166724540Y-101388880D01*
X166798200Y-101416820D01*
X166864240Y-101460000D01*
X166920120Y-101518420D01*
X166963300Y-101587000D01*
X166973460Y-101607320D01*
X166983620Y-101640340D01*
X166993780Y-101673360D01*
X166996320Y-101696220D01*
X166996320Y-101701300D01*
X166998860Y-101703840D01*
X167003940Y-101693680D01*
X167009020Y-101673360D01*
X167021720Y-101622560D01*
X167054740Y-101556520D01*
X167100460Y-101498100D01*
X167156340Y-101447300D01*
X167222380Y-101409200D01*
X167222380Y-101409200D01*
X167290960Y-101386340D01*
X167367160Y-101376180D01*
X167443360Y-101381260D01*
X167514480Y-101401580D01*
X167555120Y-101421900D01*
X167618620Y-101465080D01*
X167671960Y-101520960D01*
X167712600Y-101587000D01*
X167740540Y-101660660D01*
X167743080Y-101675900D01*
X167753240Y-101736860D01*
X167748160Y-101795280D01*
X167732920Y-101863860D01*
X167702440Y-101934980D01*
X167656720Y-101998480D01*
X167600840Y-102051820D01*
X167532260Y-102092460D01*
X167456060Y-102117860D01*
X167440820Y-102122940D01*
X167425580Y-102128020D01*
X167425580Y-102128020D01*
X167448440Y-102130560D01*
X167491620Y-102143260D01*
X167537340Y-102163580D01*
X167583060Y-102188980D01*
X167623700Y-102219460D01*
X167677040Y-102277880D01*
X167717680Y-102346460D01*
X167722760Y-102356620D01*
X167745620Y-102430280D01*
X167750700Y-102506480D01*
X167743080Y-102585220D01*
X167717680Y-102656340D01*
X167699900Y-102691900D01*
X167677040Y-102724920D01*
X167644020Y-102760480D01*
X167644020Y-102763020D01*
X167583060Y-102813820D01*
X167514480Y-102849380D01*
X167440820Y-102869700D01*
X167433200Y-102872240D01*
X167357000Y-102877320D01*
X167357000Y-102877320D01*
G37*
X167357000Y-102877320D02*
X167283340Y-102864620D01*
X167212220Y-102839220D01*
X167148720Y-102798580D01*
X167095380Y-102747780D01*
X167049660Y-102686820D01*
X167019180Y-102615700D01*
X167011560Y-102592840D01*
X167006480Y-102572520D01*
X167006480Y-102567440D01*
X167001400Y-102552200D01*
X167001400Y-102552200D01*
X167001400Y-102448060D01*
X167006480Y-102437900D01*
X167011560Y-102412500D01*
X167024260Y-102369320D01*
X167057280Y-102300740D01*
X167103000Y-102242320D01*
X167161420Y-102194060D01*
X167227460Y-102155960D01*
X167301120Y-102133100D01*
X167336680Y-102125480D01*
X167311280Y-102120400D01*
X167308740Y-102120400D01*
X167247780Y-102102620D01*
X167189360Y-102077220D01*
X167166500Y-102061980D01*
X167128400Y-102028960D01*
X167090300Y-101993400D01*
X167062360Y-101957840D01*
X167044580Y-101924820D01*
X167021720Y-101876560D01*
X167009020Y-101833380D01*
X167006480Y-101813060D01*
X167001400Y-101802900D01*
X166998860Y-101807980D01*
X166993780Y-101830840D01*
X166978540Y-101879100D01*
X166945520Y-101950220D01*
X166894720Y-102011180D01*
X166838840Y-102059440D01*
X166770260Y-102097540D01*
X166691520Y-102120400D01*
X166666120Y-102125480D01*
X166701680Y-102133100D01*
X166737240Y-102143260D01*
X166808360Y-102173740D01*
X166871860Y-102219460D01*
X166925200Y-102277880D01*
X166942980Y-102298200D01*
X166960760Y-102333760D01*
X166978540Y-102371860D01*
X166988700Y-102399800D01*
X166993780Y-102427740D01*
X166993780Y-102430280D01*
X166998860Y-102445520D01*
X167001400Y-102448060D01*
X167001400Y-102552200D01*
X166998860Y-102554740D01*
X166993780Y-102575060D01*
X166988700Y-102600460D01*
X166965840Y-102656340D01*
X166937900Y-102709680D01*
X166915040Y-102737620D01*
X166859160Y-102793500D01*
X166793120Y-102836680D01*
X166716920Y-102864620D01*
X166683900Y-102872240D01*
X166633100Y-102874780D01*
X166579760Y-102872240D01*
X166534040Y-102864620D01*
X166528960Y-102864620D01*
X166452760Y-102834140D01*
X166386720Y-102790960D01*
X166333380Y-102735080D01*
X166290200Y-102669040D01*
X166262260Y-102592840D01*
X166254640Y-102559820D01*
X166252100Y-102506480D01*
X166254640Y-102455680D01*
X166262260Y-102409960D01*
X166274960Y-102369320D01*
X166300360Y-102315980D01*
X166330840Y-102267720D01*
X166366400Y-102232160D01*
X166412120Y-102194060D01*
X166460380Y-102163580D01*
X166478160Y-102155960D01*
X166513720Y-102143260D01*
X166549280Y-102133100D01*
X166574680Y-102128020D01*
X166577220Y-102128020D01*
X166569600Y-102125480D01*
X166546740Y-102117860D01*
X166503560Y-102105160D01*
X166455300Y-102084840D01*
X166414660Y-102061980D01*
X166404500Y-102054360D01*
X166356240Y-102011180D01*
X166313060Y-101957840D01*
X166282580Y-101901960D01*
X166269880Y-101874020D01*
X166254640Y-101800360D01*
X166252100Y-101721620D01*
X166264800Y-101647960D01*
X166269880Y-101630180D01*
X166302900Y-101561600D01*
X166348620Y-101500640D01*
X166404500Y-101447300D01*
X166470540Y-101409200D01*
X166546740Y-101383800D01*
X166556900Y-101381260D01*
X166607700Y-101376180D01*
X166663580Y-101378720D01*
X166711840Y-101386340D01*
X166724540Y-101388880D01*
X166798200Y-101416820D01*
X166864240Y-101460000D01*
X166920120Y-101518420D01*
X166963300Y-101587000D01*
X166973460Y-101607320D01*
X166983620Y-101640340D01*
X166993780Y-101673360D01*
X166996320Y-101696220D01*
X166996320Y-101701300D01*
X166998860Y-101703840D01*
X167003940Y-101693680D01*
X167009020Y-101673360D01*
X167021720Y-101622560D01*
X167054740Y-101556520D01*
X167100460Y-101498100D01*
X167156340Y-101447300D01*
X167222380Y-101409200D01*
X167222380Y-101409200D01*
X167290960Y-101386340D01*
X167367160Y-101376180D01*
X167443360Y-101381260D01*
X167514480Y-101401580D01*
X167555120Y-101421900D01*
X167618620Y-101465080D01*
X167671960Y-101520960D01*
X167712600Y-101587000D01*
X167740540Y-101660660D01*
X167743080Y-101675900D01*
X167753240Y-101736860D01*
X167748160Y-101795280D01*
X167732920Y-101863860D01*
X167702440Y-101934980D01*
X167656720Y-101998480D01*
X167600840Y-102051820D01*
X167532260Y-102092460D01*
X167456060Y-102117860D01*
X167440820Y-102122940D01*
X167425580Y-102128020D01*
X167425580Y-102128020D01*
X167448440Y-102130560D01*
X167491620Y-102143260D01*
X167537340Y-102163580D01*
X167583060Y-102188980D01*
X167623700Y-102219460D01*
X167677040Y-102277880D01*
X167717680Y-102346460D01*
X167722760Y-102356620D01*
X167745620Y-102430280D01*
X167750700Y-102506480D01*
X167743080Y-102585220D01*
X167717680Y-102656340D01*
X167699900Y-102691900D01*
X167677040Y-102724920D01*
X167644020Y-102760480D01*
X167644020Y-102763020D01*
X167583060Y-102813820D01*
X167514480Y-102849380D01*
X167440820Y-102869700D01*
X167433200Y-102872240D01*
X167357000Y-102877320D01*
G36*
X150318640Y-106694940D02*
X150285620Y-106677160D01*
X150217040Y-106633980D01*
X150115440Y-106567940D01*
X149998600Y-106489200D01*
X149879220Y-106407920D01*
X149780160Y-106341880D01*
X149711580Y-106298700D01*
X149683640Y-106283460D01*
X149668400Y-106288540D01*
X149612520Y-106316480D01*
X149531240Y-106359660D01*
X149482980Y-106382520D01*
X149406780Y-106415540D01*
X149371220Y-106423160D01*
X149363600Y-106413000D01*
X149335660Y-106354580D01*
X149292480Y-106255520D01*
X149236600Y-106125980D01*
X149170560Y-105973580D01*
X149101980Y-105808480D01*
X149033400Y-105640840D01*
X148967360Y-105483360D01*
X148906400Y-105338580D01*
X148860680Y-105221740D01*
X148830200Y-105140460D01*
X148817500Y-105104900D01*
X148822580Y-105097280D01*
X148858140Y-105061720D01*
X148924180Y-105013460D01*
X149066420Y-104896620D01*
X149206120Y-104721360D01*
X149292480Y-104523240D01*
X149320420Y-104302260D01*
X149297560Y-104099060D01*
X149216280Y-103903480D01*
X149079120Y-103725680D01*
X148911480Y-103593600D01*
X148718440Y-103512320D01*
X148500000Y-103484380D01*
X148291720Y-103507240D01*
X148091060Y-103585980D01*
X147913260Y-103720600D01*
X147839600Y-103806960D01*
X147735460Y-103987300D01*
X147677040Y-104177800D01*
X147671960Y-104226060D01*
X147679580Y-104436880D01*
X147743080Y-104640080D01*
X147852300Y-104820420D01*
X148007240Y-104967740D01*
X148027560Y-104982980D01*
X148098680Y-105036320D01*
X148146940Y-105071880D01*
X148185040Y-105102360D01*
X147915800Y-105750060D01*
X147872620Y-105851660D01*
X147798960Y-106026920D01*
X147735460Y-106179320D01*
X147682120Y-106301240D01*
X147646560Y-106382520D01*
X147631320Y-106415540D01*
X147628780Y-106415540D01*
X147605920Y-106420620D01*
X147557660Y-106402840D01*
X147466220Y-106359660D01*
X147407800Y-106329180D01*
X147339220Y-106296160D01*
X147308740Y-106283460D01*
X147280800Y-106296160D01*
X147214760Y-106339340D01*
X147120780Y-106405380D01*
X147003940Y-106481580D01*
X146894720Y-106557780D01*
X146793120Y-106623820D01*
X146719460Y-106672080D01*
X146683900Y-106689860D01*
X146678820Y-106689860D01*
X146645800Y-106672080D01*
X146587380Y-106623820D01*
X146501020Y-106540000D01*
X146376560Y-106418080D01*
X146356240Y-106400300D01*
X146254640Y-106296160D01*
X146170820Y-106207260D01*
X146114940Y-106146300D01*
X146094620Y-106118360D01*
X146094620Y-106118360D01*
X146114940Y-106082800D01*
X146160660Y-106009140D01*
X146226700Y-105907540D01*
X146307980Y-105785620D01*
X146523880Y-105475740D01*
X146404500Y-105183640D01*
X146368940Y-105092200D01*
X146323220Y-104982980D01*
X146290200Y-104906780D01*
X146272420Y-104871220D01*
X146239400Y-104861060D01*
X146160660Y-104840740D01*
X146043820Y-104817880D01*
X145904120Y-104792480D01*
X145772040Y-104767080D01*
X145652660Y-104744220D01*
X145566300Y-104728980D01*
X145528200Y-104721360D01*
X145518040Y-104713740D01*
X145510420Y-104695960D01*
X145505340Y-104655320D01*
X145502800Y-104581660D01*
X145500260Y-104467360D01*
X145500260Y-104302260D01*
X145500260Y-104284480D01*
X145502800Y-104127000D01*
X145505340Y-104002540D01*
X145510420Y-103921260D01*
X145515500Y-103888240D01*
X145515500Y-103888240D01*
X145553600Y-103878080D01*
X145637420Y-103860300D01*
X145756800Y-103837440D01*
X145899040Y-103809500D01*
X145909200Y-103809500D01*
X146051440Y-103781560D01*
X146168280Y-103756160D01*
X146252100Y-103738380D01*
X146287660Y-103725680D01*
X146295280Y-103715520D01*
X146323220Y-103659640D01*
X146363860Y-103573280D01*
X146412120Y-103466600D01*
X146457840Y-103354840D01*
X146498480Y-103253240D01*
X146523880Y-103179580D01*
X146531500Y-103144020D01*
X146531500Y-103144020D01*
X146511180Y-103111000D01*
X146462920Y-103037340D01*
X146391800Y-102935740D01*
X146310520Y-102813820D01*
X146302900Y-102803660D01*
X146221620Y-102684280D01*
X146155580Y-102582680D01*
X146112400Y-102511560D01*
X146094620Y-102478540D01*
X146094620Y-102476000D01*
X146122560Y-102440440D01*
X146183520Y-102371860D01*
X146272420Y-102280420D01*
X146376560Y-102176280D01*
X146409580Y-102143260D01*
X146526420Y-102028960D01*
X146607700Y-101955300D01*
X146658500Y-101914660D01*
X146681360Y-101904500D01*
X146683900Y-101907040D01*
X146719460Y-101927360D01*
X146795660Y-101978160D01*
X146897260Y-102046740D01*
X147019180Y-102130560D01*
X147026800Y-102135640D01*
X147148720Y-102216920D01*
X147247780Y-102285500D01*
X147318900Y-102331220D01*
X147349380Y-102349000D01*
X147354460Y-102349000D01*
X147402720Y-102336300D01*
X147489080Y-102305820D01*
X147593220Y-102265180D01*
X147704980Y-102222000D01*
X147806580Y-102178820D01*
X147880240Y-102143260D01*
X147915800Y-102122940D01*
X147918340Y-102122940D01*
X147931040Y-102079760D01*
X147951360Y-101988320D01*
X147976760Y-101866400D01*
X148004700Y-101719080D01*
X148009780Y-101696220D01*
X148035180Y-101551440D01*
X148058040Y-101434600D01*
X148075820Y-101353320D01*
X148083440Y-101317760D01*
X148103760Y-101315220D01*
X148174880Y-101310140D01*
X148281560Y-101305060D01*
X148411100Y-101305060D01*
X148545720Y-101305060D01*
X148677800Y-101307600D01*
X148789560Y-101312680D01*
X148870840Y-101317760D01*
X148906400Y-101325380D01*
X148906400Y-101327920D01*
X148919100Y-101371100D01*
X148939420Y-101460000D01*
X148964820Y-101584460D01*
X148992760Y-101731780D01*
X148997840Y-101759720D01*
X149023240Y-101901960D01*
X149048640Y-102018800D01*
X149066420Y-102097540D01*
X149074040Y-102130560D01*
X149086740Y-102135640D01*
X149145160Y-102163580D01*
X149241680Y-102201680D01*
X149361060Y-102249940D01*
X149635380Y-102361700D01*
X149970660Y-102130560D01*
X150001140Y-102110240D01*
X150123060Y-102026420D01*
X150222120Y-101960380D01*
X150293240Y-101917200D01*
X150321180Y-101899420D01*
X150323720Y-101901960D01*
X150356740Y-101929900D01*
X150422780Y-101993400D01*
X150514220Y-102082300D01*
X150620900Y-102186440D01*
X150699640Y-102265180D01*
X150791080Y-102359160D01*
X150849500Y-102422660D01*
X150882520Y-102463300D01*
X150895220Y-102488700D01*
X150890140Y-102506480D01*
X150869820Y-102539500D01*
X150819020Y-102613160D01*
X150750440Y-102717300D01*
X150669160Y-102834140D01*
X150600580Y-102935740D01*
X150526920Y-103047500D01*
X150481200Y-103128780D01*
X150463420Y-103166880D01*
X150468500Y-103184660D01*
X150491360Y-103250700D01*
X150532000Y-103349760D01*
X150582800Y-103469140D01*
X150699640Y-103735840D01*
X150874900Y-103768860D01*
X150979040Y-103789180D01*
X151128900Y-103817120D01*
X151271140Y-103845060D01*
X151492120Y-103888240D01*
X151499740Y-104698500D01*
X151464180Y-104713740D01*
X151431160Y-104723900D01*
X151349880Y-104741680D01*
X151233040Y-104764540D01*
X151095880Y-104789940D01*
X150976500Y-104812800D01*
X150859660Y-104835660D01*
X150773300Y-104850900D01*
X150735200Y-104858520D01*
X150727580Y-104871220D01*
X150697100Y-104929640D01*
X150653920Y-105021080D01*
X150608200Y-105130300D01*
X150559940Y-105244600D01*
X150519300Y-105348740D01*
X150488820Y-105430020D01*
X150478660Y-105470660D01*
X150493900Y-105501140D01*
X150539620Y-105572260D01*
X150605660Y-105671320D01*
X150684400Y-105788160D01*
X150765680Y-105907540D01*
X150834260Y-106006600D01*
X150882520Y-106080260D01*
X150900300Y-106113280D01*
X150890140Y-106136140D01*
X150844420Y-106192020D01*
X150755520Y-106283460D01*
X150623440Y-106415540D01*
X150600580Y-106435860D01*
X150496440Y-106537460D01*
X150407540Y-106618740D01*
X150346580Y-106674620D01*
X150318640Y-106694940D01*
X150318640Y-106694940D01*
G37*
X150318640Y-106694940D02*
X150285620Y-106677160D01*
X150217040Y-106633980D01*
X150115440Y-106567940D01*
X149998600Y-106489200D01*
X149879220Y-106407920D01*
X149780160Y-106341880D01*
X149711580Y-106298700D01*
X149683640Y-106283460D01*
X149668400Y-106288540D01*
X149612520Y-106316480D01*
X149531240Y-106359660D01*
X149482980Y-106382520D01*
X149406780Y-106415540D01*
X149371220Y-106423160D01*
X149363600Y-106413000D01*
X149335660Y-106354580D01*
X149292480Y-106255520D01*
X149236600Y-106125980D01*
X149170560Y-105973580D01*
X149101980Y-105808480D01*
X149033400Y-105640840D01*
X148967360Y-105483360D01*
X148906400Y-105338580D01*
X148860680Y-105221740D01*
X148830200Y-105140460D01*
X148817500Y-105104900D01*
X148822580Y-105097280D01*
X148858140Y-105061720D01*
X148924180Y-105013460D01*
X149066420Y-104896620D01*
X149206120Y-104721360D01*
X149292480Y-104523240D01*
X149320420Y-104302260D01*
X149297560Y-104099060D01*
X149216280Y-103903480D01*
X149079120Y-103725680D01*
X148911480Y-103593600D01*
X148718440Y-103512320D01*
X148500000Y-103484380D01*
X148291720Y-103507240D01*
X148091060Y-103585980D01*
X147913260Y-103720600D01*
X147839600Y-103806960D01*
X147735460Y-103987300D01*
X147677040Y-104177800D01*
X147671960Y-104226060D01*
X147679580Y-104436880D01*
X147743080Y-104640080D01*
X147852300Y-104820420D01*
X148007240Y-104967740D01*
X148027560Y-104982980D01*
X148098680Y-105036320D01*
X148146940Y-105071880D01*
X148185040Y-105102360D01*
X147915800Y-105750060D01*
X147872620Y-105851660D01*
X147798960Y-106026920D01*
X147735460Y-106179320D01*
X147682120Y-106301240D01*
X147646560Y-106382520D01*
X147631320Y-106415540D01*
X147628780Y-106415540D01*
X147605920Y-106420620D01*
X147557660Y-106402840D01*
X147466220Y-106359660D01*
X147407800Y-106329180D01*
X147339220Y-106296160D01*
X147308740Y-106283460D01*
X147280800Y-106296160D01*
X147214760Y-106339340D01*
X147120780Y-106405380D01*
X147003940Y-106481580D01*
X146894720Y-106557780D01*
X146793120Y-106623820D01*
X146719460Y-106672080D01*
X146683900Y-106689860D01*
X146678820Y-106689860D01*
X146645800Y-106672080D01*
X146587380Y-106623820D01*
X146501020Y-106540000D01*
X146376560Y-106418080D01*
X146356240Y-106400300D01*
X146254640Y-106296160D01*
X146170820Y-106207260D01*
X146114940Y-106146300D01*
X146094620Y-106118360D01*
X146094620Y-106118360D01*
X146114940Y-106082800D01*
X146160660Y-106009140D01*
X146226700Y-105907540D01*
X146307980Y-105785620D01*
X146523880Y-105475740D01*
X146404500Y-105183640D01*
X146368940Y-105092200D01*
X146323220Y-104982980D01*
X146290200Y-104906780D01*
X146272420Y-104871220D01*
X146239400Y-104861060D01*
X146160660Y-104840740D01*
X146043820Y-104817880D01*
X145904120Y-104792480D01*
X145772040Y-104767080D01*
X145652660Y-104744220D01*
X145566300Y-104728980D01*
X145528200Y-104721360D01*
X145518040Y-104713740D01*
X145510420Y-104695960D01*
X145505340Y-104655320D01*
X145502800Y-104581660D01*
X145500260Y-104467360D01*
X145500260Y-104302260D01*
X145500260Y-104284480D01*
X145502800Y-104127000D01*
X145505340Y-104002540D01*
X145510420Y-103921260D01*
X145515500Y-103888240D01*
X145515500Y-103888240D01*
X145553600Y-103878080D01*
X145637420Y-103860300D01*
X145756800Y-103837440D01*
X145899040Y-103809500D01*
X145909200Y-103809500D01*
X146051440Y-103781560D01*
X146168280Y-103756160D01*
X146252100Y-103738380D01*
X146287660Y-103725680D01*
X146295280Y-103715520D01*
X146323220Y-103659640D01*
X146363860Y-103573280D01*
X146412120Y-103466600D01*
X146457840Y-103354840D01*
X146498480Y-103253240D01*
X146523880Y-103179580D01*
X146531500Y-103144020D01*
X146531500Y-103144020D01*
X146511180Y-103111000D01*
X146462920Y-103037340D01*
X146391800Y-102935740D01*
X146310520Y-102813820D01*
X146302900Y-102803660D01*
X146221620Y-102684280D01*
X146155580Y-102582680D01*
X146112400Y-102511560D01*
X146094620Y-102478540D01*
X146094620Y-102476000D01*
X146122560Y-102440440D01*
X146183520Y-102371860D01*
X146272420Y-102280420D01*
X146376560Y-102176280D01*
X146409580Y-102143260D01*
X146526420Y-102028960D01*
X146607700Y-101955300D01*
X146658500Y-101914660D01*
X146681360Y-101904500D01*
X146683900Y-101907040D01*
X146719460Y-101927360D01*
X146795660Y-101978160D01*
X146897260Y-102046740D01*
X147019180Y-102130560D01*
X147026800Y-102135640D01*
X147148720Y-102216920D01*
X147247780Y-102285500D01*
X147318900Y-102331220D01*
X147349380Y-102349000D01*
X147354460Y-102349000D01*
X147402720Y-102336300D01*
X147489080Y-102305820D01*
X147593220Y-102265180D01*
X147704980Y-102222000D01*
X147806580Y-102178820D01*
X147880240Y-102143260D01*
X147915800Y-102122940D01*
X147918340Y-102122940D01*
X147931040Y-102079760D01*
X147951360Y-101988320D01*
X147976760Y-101866400D01*
X148004700Y-101719080D01*
X148009780Y-101696220D01*
X148035180Y-101551440D01*
X148058040Y-101434600D01*
X148075820Y-101353320D01*
X148083440Y-101317760D01*
X148103760Y-101315220D01*
X148174880Y-101310140D01*
X148281560Y-101305060D01*
X148411100Y-101305060D01*
X148545720Y-101305060D01*
X148677800Y-101307600D01*
X148789560Y-101312680D01*
X148870840Y-101317760D01*
X148906400Y-101325380D01*
X148906400Y-101327920D01*
X148919100Y-101371100D01*
X148939420Y-101460000D01*
X148964820Y-101584460D01*
X148992760Y-101731780D01*
X148997840Y-101759720D01*
X149023240Y-101901960D01*
X149048640Y-102018800D01*
X149066420Y-102097540D01*
X149074040Y-102130560D01*
X149086740Y-102135640D01*
X149145160Y-102163580D01*
X149241680Y-102201680D01*
X149361060Y-102249940D01*
X149635380Y-102361700D01*
X149970660Y-102130560D01*
X150001140Y-102110240D01*
X150123060Y-102026420D01*
X150222120Y-101960380D01*
X150293240Y-101917200D01*
X150321180Y-101899420D01*
X150323720Y-101901960D01*
X150356740Y-101929900D01*
X150422780Y-101993400D01*
X150514220Y-102082300D01*
X150620900Y-102186440D01*
X150699640Y-102265180D01*
X150791080Y-102359160D01*
X150849500Y-102422660D01*
X150882520Y-102463300D01*
X150895220Y-102488700D01*
X150890140Y-102506480D01*
X150869820Y-102539500D01*
X150819020Y-102613160D01*
X150750440Y-102717300D01*
X150669160Y-102834140D01*
X150600580Y-102935740D01*
X150526920Y-103047500D01*
X150481200Y-103128780D01*
X150463420Y-103166880D01*
X150468500Y-103184660D01*
X150491360Y-103250700D01*
X150532000Y-103349760D01*
X150582800Y-103469140D01*
X150699640Y-103735840D01*
X150874900Y-103768860D01*
X150979040Y-103789180D01*
X151128900Y-103817120D01*
X151271140Y-103845060D01*
X151492120Y-103888240D01*
X151499740Y-104698500D01*
X151464180Y-104713740D01*
X151431160Y-104723900D01*
X151349880Y-104741680D01*
X151233040Y-104764540D01*
X151095880Y-104789940D01*
X150976500Y-104812800D01*
X150859660Y-104835660D01*
X150773300Y-104850900D01*
X150735200Y-104858520D01*
X150727580Y-104871220D01*
X150697100Y-104929640D01*
X150653920Y-105021080D01*
X150608200Y-105130300D01*
X150559940Y-105244600D01*
X150519300Y-105348740D01*
X150488820Y-105430020D01*
X150478660Y-105470660D01*
X150493900Y-105501140D01*
X150539620Y-105572260D01*
X150605660Y-105671320D01*
X150684400Y-105788160D01*
X150765680Y-105907540D01*
X150834260Y-106006600D01*
X150882520Y-106080260D01*
X150900300Y-106113280D01*
X150890140Y-106136140D01*
X150844420Y-106192020D01*
X150755520Y-106283460D01*
X150623440Y-106415540D01*
X150600580Y-106435860D01*
X150496440Y-106537460D01*
X150407540Y-106618740D01*
X150346580Y-106674620D01*
X150318640Y-106694940D01*
%LPC*%
D13*
X181700000Y-97460000D03*
X181700000Y-102540000D03*
X132550000Y-102540000D03*
X132550000Y-97460000D03*
D14*
X166850000Y-90730000D03*
X174470000Y-93270000D03*
X179550000Y-90730000D03*
M02*
