%TF.GenerationSoftware,KiCad,Pcbnew,(2015-04-23 BZR 5622)-product*%
%TF.CreationDate,2015-05-03T00:41:32+02:00*%
%TF.JobID,KIS-3R33S_breakout,4B49532D33523333535F627265616B6F,0.10.a*%
%TF.FileFunction,Legend,Top*%
%FSLAX46Y46*%
G04 Gerber Fmt 4.6, Leading zero omitted, Abs format (unit mm)*
G04 Created by KiCad (PCBNEW (2015-04-23 BZR 5622)-product) date Sun 03 May 2015 12:41:32 AM CEST*
%MOMM*%
G01*
G04 APERTURE LIST*
%ADD10C,0.100000*%
%ADD11C,0.300000*%
%ADD12C,0.200000*%
%ADD13C,0.150000*%
%ADD14C,2.000000*%
%ADD15R,6.000000X3.500000*%
%ADD16R,6.000000X5.000000*%
%ADD17R,1.198880X1.198880*%
%ADD18R,1.200000X0.900000*%
%ADD19R,2.500000X6.000000*%
%ADD20C,1.500000*%
G04 APERTURE END LIST*
D10*
D11*
X128714286Y-109535714D02*
X128785714Y-109607143D01*
X128714286Y-109678571D01*
X128642857Y-109607143D01*
X128714286Y-109535714D01*
X128714286Y-109678571D01*
X129428572Y-109535714D02*
X129500000Y-109607143D01*
X129428572Y-109678571D01*
X129357143Y-109607143D01*
X129428572Y-109535714D01*
X129428572Y-109678571D01*
X130142858Y-109535714D02*
X130214286Y-109607143D01*
X130142858Y-109678571D01*
X130071429Y-109607143D01*
X130142858Y-109535714D01*
X130142858Y-109678571D01*
X130785715Y-108321429D02*
X130857144Y-108250000D01*
X131000001Y-108178571D01*
X131357144Y-108178571D01*
X131500001Y-108250000D01*
X131571430Y-108321429D01*
X131642858Y-108464286D01*
X131642858Y-108607143D01*
X131571430Y-108821429D01*
X130714287Y-109678571D01*
X131642858Y-109678571D01*
X132214286Y-108321429D02*
X132285715Y-108250000D01*
X132428572Y-108178571D01*
X132785715Y-108178571D01*
X132928572Y-108250000D01*
X133000001Y-108321429D01*
X133071429Y-108464286D01*
X133071429Y-108607143D01*
X133000001Y-108821429D01*
X132142858Y-109678571D01*
X133071429Y-109678571D01*
X133500000Y-108178571D02*
X134000000Y-109678571D01*
X134500000Y-108178571D01*
X185928572Y-106107143D02*
X187071429Y-106107143D01*
X185928572Y-93607143D02*
X187071429Y-93607143D01*
X186500000Y-94178571D02*
X186500000Y-93035714D01*
X128607143Y-91678571D02*
X128607143Y-90178571D01*
X129321429Y-91678571D02*
X129321429Y-90178571D01*
X130178572Y-91678571D01*
X130178572Y-90178571D01*
X130892858Y-91678571D02*
X130892858Y-90178571D01*
X131464286Y-90178571D01*
X131607144Y-90250000D01*
X131678572Y-90321429D01*
X131750001Y-90464286D01*
X131750001Y-90678571D01*
X131678572Y-90821429D01*
X131607144Y-90892857D01*
X131464286Y-90964286D01*
X130892858Y-90964286D01*
X132392858Y-90178571D02*
X132392858Y-91392857D01*
X132464286Y-91535714D01*
X132535715Y-91607143D01*
X132678572Y-91678571D01*
X132964286Y-91678571D01*
X133107144Y-91607143D01*
X133178572Y-91535714D01*
X133250001Y-91392857D01*
X133250001Y-90178571D01*
X133750001Y-90178571D02*
X134607144Y-90178571D01*
X134178573Y-91678571D02*
X134178573Y-90178571D01*
X130928572Y-106607143D02*
X132071429Y-106607143D01*
X130928572Y-93607143D02*
X132071429Y-93607143D01*
X131500000Y-94178571D02*
X131500000Y-93035714D01*
D12*
X129518000Y-96037600D02*
X127536800Y-96037600D01*
X129518000Y-98882400D02*
X127536800Y-98882400D01*
X129518000Y-101117600D02*
X127536800Y-101117600D01*
X129518000Y-103962400D02*
X127536800Y-103962400D01*
X129518000Y-94869200D02*
X129518000Y-105130800D01*
X133582000Y-105130800D02*
X133582000Y-94869200D01*
X127536800Y-94869200D02*
X135563200Y-94869200D01*
X135563200Y-94869200D02*
X135563200Y-105130800D01*
X135563200Y-105130800D02*
X127536800Y-105130800D01*
X127536800Y-105130800D02*
X127536800Y-94869200D01*
X139000000Y-110500000D02*
X139000000Y-89500000D01*
X161000000Y-110500000D02*
X139000000Y-110500000D01*
X161000000Y-89500000D02*
X161000000Y-110500000D01*
X139000000Y-89500000D02*
X161000000Y-89500000D01*
D13*
X183002160Y-109299720D02*
X183002160Y-109624840D01*
X183002160Y-109624840D02*
X182501780Y-109624840D01*
X182501780Y-109299720D02*
X182501780Y-109624840D01*
X183002160Y-109299720D02*
X182501780Y-109299720D01*
X183002160Y-108677420D02*
X183002160Y-108827280D01*
X183002160Y-108827280D02*
X182750700Y-108827280D01*
X182750700Y-108677420D02*
X182750700Y-108827280D01*
X183002160Y-108677420D02*
X182750700Y-108677420D01*
X183002160Y-109172720D02*
X183002160Y-109322580D01*
X183002160Y-109322580D02*
X182750700Y-109322580D01*
X182750700Y-109172720D02*
X182750700Y-109322580D01*
X183002160Y-109172720D02*
X182750700Y-109172720D01*
X183002160Y-108801880D02*
X183002160Y-109198120D01*
X183002160Y-109198120D02*
X182826900Y-109198120D01*
X182826900Y-108801880D02*
X182826900Y-109198120D01*
X183002160Y-108801880D02*
X182826900Y-108801880D01*
X184498220Y-109299720D02*
X184498220Y-109624840D01*
X184498220Y-109624840D02*
X183997840Y-109624840D01*
X183997840Y-109299720D02*
X183997840Y-109624840D01*
X184498220Y-109299720D02*
X183997840Y-109299720D01*
X184498220Y-108375160D02*
X184498220Y-108700280D01*
X184498220Y-108700280D02*
X183997840Y-108700280D01*
X183997840Y-108375160D02*
X183997840Y-108700280D01*
X184498220Y-108375160D02*
X183997840Y-108375160D01*
X184249300Y-109172720D02*
X184249300Y-109322580D01*
X184249300Y-109322580D02*
X183997840Y-109322580D01*
X183997840Y-109172720D02*
X183997840Y-109322580D01*
X184249300Y-109172720D02*
X183997840Y-109172720D01*
X184249300Y-108677420D02*
X184249300Y-108827280D01*
X184249300Y-108827280D02*
X183997840Y-108827280D01*
X183997840Y-108677420D02*
X183997840Y-108827280D01*
X184249300Y-108677420D02*
X183997840Y-108677420D01*
X184173100Y-108801880D02*
X184173100Y-109198120D01*
X184173100Y-109198120D02*
X183997840Y-109198120D01*
X183997840Y-108801880D02*
X183997840Y-109198120D01*
X184173100Y-108801880D02*
X183997840Y-108801880D01*
X183500000Y-108900940D02*
X183500000Y-109099060D01*
X183500000Y-109099060D02*
X183301880Y-109099060D01*
X183301880Y-108900940D02*
X183301880Y-109099060D01*
X183500000Y-108900940D02*
X183301880Y-108900940D01*
X183002160Y-108400560D02*
X183002160Y-108700280D01*
X183002160Y-108700280D02*
X182702440Y-108700280D01*
X182702440Y-108400560D02*
X182702440Y-108700280D01*
X183002160Y-108400560D02*
X182702440Y-108400560D01*
X182575440Y-108375160D02*
X182575440Y-108601220D01*
X182575440Y-108601220D02*
X182501780Y-108601220D01*
X182501780Y-108375160D02*
X182501780Y-108601220D01*
X182575440Y-108375160D02*
X182501780Y-108375160D01*
X182976760Y-109574040D02*
X184023240Y-109574040D01*
X183997840Y-108425960D02*
X182575440Y-108425960D01*
X182723482Y-108550420D02*
G75*
G03X182723482Y-108550420I-71842J0D01*
G01*
X182501780Y-108652020D02*
G75*
G02X182501780Y-109347980I0J-347980D01*
G01*
X184498220Y-109347980D02*
G75*
G02X184498220Y-108652020I0J347980D01*
G01*
D12*
X185732000Y-103962400D02*
X187713200Y-103962400D01*
X185732000Y-101117600D02*
X187713200Y-101117600D01*
X185732000Y-98882400D02*
X187713200Y-98882400D01*
X185732000Y-96037600D02*
X187713200Y-96037600D01*
X185732000Y-105130800D02*
X185732000Y-94869200D01*
X181668000Y-94869200D02*
X181668000Y-105130800D01*
X187713200Y-105130800D02*
X179686800Y-105130800D01*
X179686800Y-105130800D02*
X179686800Y-94869200D01*
X179686800Y-94869200D02*
X187713200Y-94869200D01*
X187713200Y-94869200D02*
X187713200Y-105130800D01*
D13*
X184000000Y-107675000D02*
X183000000Y-107675000D01*
X183000000Y-106325000D02*
X184000000Y-106325000D01*
X164650000Y-98750000D02*
X167450000Y-95950000D01*
X175350000Y-95950000D02*
X178150000Y-98750000D01*
X172500000Y-108850000D02*
X170300000Y-108850000D01*
X172750000Y-108800000D02*
X170050000Y-108800000D01*
X169700000Y-108700000D02*
X173100000Y-108700000D01*
X173450000Y-108600000D02*
X169350000Y-108600000D01*
X169100000Y-108500000D02*
X173700000Y-108500000D01*
X173950000Y-108400000D02*
X168850000Y-108400000D01*
X174150000Y-108300000D02*
X168650000Y-108300000D01*
X168450000Y-108200000D02*
X174350000Y-108200000D01*
X174500000Y-108100000D02*
X168300000Y-108100000D01*
X168100000Y-108000000D02*
X174700000Y-108000000D01*
X167950000Y-107900000D02*
X174850000Y-107900000D01*
X167800000Y-107800000D02*
X175000000Y-107800000D01*
X178150000Y-109450000D02*
X164650000Y-109450000D01*
X178150000Y-98750000D02*
X178150000Y-109450000D01*
X167450000Y-95950000D02*
X175350000Y-95950000D01*
X164650000Y-109450000D02*
X164650000Y-98750000D01*
X177650000Y-102700000D02*
G75*
G03X177650000Y-102700000I-6250000J0D01*
G01*
X171400000Y-97750000D02*
X171400000Y-99250000D01*
X170650000Y-98500000D02*
X172150000Y-98500000D01*
X184450000Y-92350000D02*
X184450000Y-93200000D01*
X184450000Y-91650000D02*
X184450000Y-90800000D01*
X183650000Y-92350000D02*
X184450000Y-92350000D01*
X183650000Y-91650000D02*
X183650000Y-92350000D01*
X184450000Y-91650000D02*
X183650000Y-91650000D01*
X184450000Y-93200000D02*
X182850000Y-93200000D01*
X182850000Y-90800000D02*
X184450000Y-90800000D01*
X163800000Y-94450000D02*
X182850000Y-94450000D01*
X163800000Y-89550000D02*
X163800000Y-94450000D01*
X182850000Y-89550000D02*
X163800000Y-89550000D01*
X182850000Y-89550000D02*
X182850000Y-94450000D01*
D12*
X143523810Y-105452381D02*
X143523810Y-104452381D01*
X144095239Y-105452381D02*
X143666667Y-104880952D01*
X144095239Y-104452381D02*
X143523810Y-105023810D01*
X144523810Y-105452381D02*
X144523810Y-104452381D01*
X144952381Y-105404762D02*
X145095238Y-105452381D01*
X145333334Y-105452381D01*
X145428572Y-105404762D01*
X145476191Y-105357143D01*
X145523810Y-105261905D01*
X145523810Y-105166667D01*
X145476191Y-105071429D01*
X145428572Y-105023810D01*
X145333334Y-104976190D01*
X145142857Y-104928571D01*
X145047619Y-104880952D01*
X145000000Y-104833333D01*
X144952381Y-104738095D01*
X144952381Y-104642857D01*
X145000000Y-104547619D01*
X145047619Y-104500000D01*
X145142857Y-104452381D01*
X145380953Y-104452381D01*
X145523810Y-104500000D01*
X145952381Y-105071429D02*
X146714286Y-105071429D01*
X147095238Y-104452381D02*
X147714286Y-104452381D01*
X147380952Y-104833333D01*
X147523810Y-104833333D01*
X147619048Y-104880952D01*
X147666667Y-104928571D01*
X147714286Y-105023810D01*
X147714286Y-105261905D01*
X147666667Y-105357143D01*
X147619048Y-105404762D01*
X147523810Y-105452381D01*
X147238095Y-105452381D01*
X147142857Y-105404762D01*
X147095238Y-105357143D01*
X148714286Y-105452381D02*
X148380952Y-104976190D01*
X148142857Y-105452381D02*
X148142857Y-104452381D01*
X148523810Y-104452381D01*
X148619048Y-104500000D01*
X148666667Y-104547619D01*
X148714286Y-104642857D01*
X148714286Y-104785714D01*
X148666667Y-104880952D01*
X148619048Y-104928571D01*
X148523810Y-104976190D01*
X148142857Y-104976190D01*
X149047619Y-104452381D02*
X149666667Y-104452381D01*
X149333333Y-104833333D01*
X149476191Y-104833333D01*
X149571429Y-104880952D01*
X149619048Y-104928571D01*
X149666667Y-105023810D01*
X149666667Y-105261905D01*
X149619048Y-105357143D01*
X149571429Y-105404762D01*
X149476191Y-105452381D01*
X149190476Y-105452381D01*
X149095238Y-105404762D01*
X149047619Y-105357143D01*
X150000000Y-104452381D02*
X150619048Y-104452381D01*
X150285714Y-104833333D01*
X150428572Y-104833333D01*
X150523810Y-104880952D01*
X150571429Y-104928571D01*
X150619048Y-105023810D01*
X150619048Y-105261905D01*
X150571429Y-105357143D01*
X150523810Y-105404762D01*
X150428572Y-105452381D01*
X150142857Y-105452381D01*
X150047619Y-105404762D01*
X150000000Y-105357143D01*
X151000000Y-105404762D02*
X151142857Y-105452381D01*
X151380953Y-105452381D01*
X151476191Y-105404762D01*
X151523810Y-105357143D01*
X151571429Y-105261905D01*
X151571429Y-105166667D01*
X151523810Y-105071429D01*
X151476191Y-105023810D01*
X151380953Y-104976190D01*
X151190476Y-104928571D01*
X151095238Y-104880952D01*
X151047619Y-104833333D01*
X151000000Y-104738095D01*
X151000000Y-104642857D01*
X151047619Y-104547619D01*
X151095238Y-104500000D01*
X151190476Y-104452381D01*
X151428572Y-104452381D01*
X151571429Y-104500000D01*
X151761905Y-105547619D02*
X152523810Y-105547619D01*
X152761905Y-105452381D02*
X152761905Y-104785714D01*
X152761905Y-104880952D02*
X152809524Y-104833333D01*
X152904762Y-104785714D01*
X153047620Y-104785714D01*
X153142858Y-104833333D01*
X153190477Y-104928571D01*
X153190477Y-105452381D01*
X153190477Y-104928571D02*
X153238096Y-104833333D01*
X153333334Y-104785714D01*
X153476191Y-104785714D01*
X153571429Y-104833333D01*
X153619048Y-104928571D01*
X153619048Y-105452381D01*
X154238095Y-105452381D02*
X154142857Y-105404762D01*
X154095238Y-105357143D01*
X154047619Y-105261905D01*
X154047619Y-104976190D01*
X154095238Y-104880952D01*
X154142857Y-104833333D01*
X154238095Y-104785714D01*
X154380953Y-104785714D01*
X154476191Y-104833333D01*
X154523810Y-104880952D01*
X154571429Y-104976190D01*
X154571429Y-105261905D01*
X154523810Y-105357143D01*
X154476191Y-105404762D01*
X154380953Y-105452381D01*
X154238095Y-105452381D01*
X155428572Y-105452381D02*
X155428572Y-104452381D01*
X155428572Y-105404762D02*
X155333334Y-105452381D01*
X155142857Y-105452381D01*
X155047619Y-105404762D01*
X155000000Y-105357143D01*
X154952381Y-105261905D01*
X154952381Y-104976190D01*
X155000000Y-104880952D01*
X155047619Y-104833333D01*
X155142857Y-104785714D01*
X155333334Y-104785714D01*
X155428572Y-104833333D01*
X155904762Y-105452381D02*
X155904762Y-104785714D01*
X155904762Y-104452381D02*
X155857143Y-104500000D01*
X155904762Y-104547619D01*
X155952381Y-104500000D01*
X155904762Y-104452381D01*
X155904762Y-104547619D01*
X156238095Y-104785714D02*
X156619047Y-104785714D01*
X156380952Y-105452381D02*
X156380952Y-104595238D01*
X156428571Y-104500000D01*
X156523809Y-104452381D01*
X156619047Y-104452381D01*
D13*
X179261905Y-109452381D02*
X179261905Y-108452381D01*
X179500000Y-108452381D01*
X179642858Y-108500000D01*
X179738096Y-108595238D01*
X179785715Y-108690476D01*
X179833334Y-108880952D01*
X179833334Y-109023810D01*
X179785715Y-109214286D01*
X179738096Y-109309524D01*
X179642858Y-109404762D01*
X179500000Y-109452381D01*
X179261905Y-109452381D01*
X180785715Y-109452381D02*
X180214286Y-109452381D01*
X180500000Y-109452381D02*
X180500000Y-108452381D01*
X180404762Y-108595238D01*
X180309524Y-108690476D01*
X180214286Y-108738095D01*
X179833334Y-107452381D02*
X179500000Y-106976190D01*
X179261905Y-107452381D02*
X179261905Y-106452381D01*
X179642858Y-106452381D01*
X179738096Y-106500000D01*
X179785715Y-106547619D01*
X179833334Y-106642857D01*
X179833334Y-106785714D01*
X179785715Y-106880952D01*
X179738096Y-106928571D01*
X179642858Y-106976190D01*
X179261905Y-106976190D01*
X180785715Y-107452381D02*
X180214286Y-107452381D01*
X180500000Y-107452381D02*
X180500000Y-106452381D01*
X180404762Y-106595238D01*
X180309524Y-106690476D01*
X180214286Y-106738095D01*
%LPC*%
D14*
X131550000Y-102540000D03*
X131550000Y-97460000D03*
D15*
X140000000Y-92000000D03*
X140000000Y-102000000D03*
X140000000Y-108000000D03*
X160000000Y-108000000D03*
D16*
X160000000Y-99000000D03*
D15*
X160000000Y-92000000D03*
D17*
X184549020Y-109000000D03*
X182450980Y-109000000D03*
D14*
X183700000Y-97460000D03*
X183700000Y-102540000D03*
D18*
X182400000Y-107000000D03*
X184600000Y-107000000D03*
D19*
X171400000Y-98150000D03*
X171400000Y-107250000D03*
D20*
X166850000Y-90730000D03*
X174470000Y-93270000D03*
X179550000Y-90730000D03*
M02*
