%TF.GenerationSoftware,KiCad,Pcbnew,(2015-04-23 BZR 5622)-product*%
%TF.CreationDate,2015-05-03T17:33:37+02:00*%
%TF.JobID,KIS-3R33S_breakout,4B49532D33523333535F627265616B6F,0.12.d*%
%TF.FileFunction,Legend,Bot*%
%FSLAX46Y46*%
G04 Gerber Fmt 4.6, Leading zero omitted, Abs format (unit mm)*
G04 Created by KiCad (PCBNEW (2015-04-23 BZR 5622)-product) date Sun 03 May 2015 05:33:37 PM CEST*
%MOMM*%
G01*
G04 APERTURE LIST*
%ADD10C,0.100000*%
%ADD11C,0.300000*%
%ADD12C,0.150000*%
%ADD13C,0.002540*%
%ADD14C,0.200000*%
%ADD15C,1.500000*%
%ADD16C,2.000000*%
G04 APERTURE END LIST*
D10*
D11*
X173678570Y-106478571D02*
X173678570Y-104978571D01*
X172821427Y-106478571D02*
X173464284Y-105621429D01*
X172821427Y-104978571D02*
X173678570Y-105835714D01*
X172178570Y-106478571D02*
X172178570Y-104978571D01*
X171535713Y-106407143D02*
X171321427Y-106478571D01*
X170964284Y-106478571D01*
X170821427Y-106407143D01*
X170749998Y-106335714D01*
X170678570Y-106192857D01*
X170678570Y-106050000D01*
X170749998Y-105907143D01*
X170821427Y-105835714D01*
X170964284Y-105764286D01*
X171249998Y-105692857D01*
X171392856Y-105621429D01*
X171464284Y-105550000D01*
X171535713Y-105407143D01*
X171535713Y-105264286D01*
X171464284Y-105121429D01*
X171392856Y-105050000D01*
X171249998Y-104978571D01*
X170892856Y-104978571D01*
X170678570Y-105050000D01*
X170035713Y-105907143D02*
X168892856Y-105907143D01*
X168321427Y-104978571D02*
X167392856Y-104978571D01*
X167892856Y-105550000D01*
X167678570Y-105550000D01*
X167535713Y-105621429D01*
X167464284Y-105692857D01*
X167392856Y-105835714D01*
X167392856Y-106192857D01*
X167464284Y-106335714D01*
X167535713Y-106407143D01*
X167678570Y-106478571D01*
X168107142Y-106478571D01*
X168249999Y-106407143D01*
X168321427Y-106335714D01*
X165892856Y-106478571D02*
X166392856Y-105764286D01*
X166749999Y-106478571D02*
X166749999Y-104978571D01*
X166178571Y-104978571D01*
X166035713Y-105050000D01*
X165964285Y-105121429D01*
X165892856Y-105264286D01*
X165892856Y-105478571D01*
X165964285Y-105621429D01*
X166035713Y-105692857D01*
X166178571Y-105764286D01*
X166749999Y-105764286D01*
X165392856Y-104978571D02*
X164464285Y-104978571D01*
X164964285Y-105550000D01*
X164749999Y-105550000D01*
X164607142Y-105621429D01*
X164535713Y-105692857D01*
X164464285Y-105835714D01*
X164464285Y-106192857D01*
X164535713Y-106335714D01*
X164607142Y-106407143D01*
X164749999Y-106478571D01*
X165178571Y-106478571D01*
X165321428Y-106407143D01*
X165392856Y-106335714D01*
X163964285Y-104978571D02*
X163035714Y-104978571D01*
X163535714Y-105550000D01*
X163321428Y-105550000D01*
X163178571Y-105621429D01*
X163107142Y-105692857D01*
X163035714Y-105835714D01*
X163035714Y-106192857D01*
X163107142Y-106335714D01*
X163178571Y-106407143D01*
X163321428Y-106478571D01*
X163750000Y-106478571D01*
X163892857Y-106407143D01*
X163964285Y-106335714D01*
X162464286Y-106407143D02*
X162250000Y-106478571D01*
X161892857Y-106478571D01*
X161750000Y-106407143D01*
X161678571Y-106335714D01*
X161607143Y-106192857D01*
X161607143Y-106050000D01*
X161678571Y-105907143D01*
X161750000Y-105835714D01*
X161892857Y-105764286D01*
X162178571Y-105692857D01*
X162321429Y-105621429D01*
X162392857Y-105550000D01*
X162464286Y-105407143D01*
X162464286Y-105264286D01*
X162392857Y-105121429D01*
X162321429Y-105050000D01*
X162178571Y-104978571D01*
X161821429Y-104978571D01*
X161607143Y-105050000D01*
X161321429Y-106621429D02*
X160178572Y-106621429D01*
X159821429Y-106478571D02*
X159821429Y-104978571D01*
X159821429Y-105550000D02*
X159678572Y-105478571D01*
X159392858Y-105478571D01*
X159250001Y-105550000D01*
X159178572Y-105621429D01*
X159107143Y-105764286D01*
X159107143Y-106192857D01*
X159178572Y-106335714D01*
X159250001Y-106407143D01*
X159392858Y-106478571D01*
X159678572Y-106478571D01*
X159821429Y-106407143D01*
X158464286Y-106478571D02*
X158464286Y-105478571D01*
X158464286Y-105764286D02*
X158392858Y-105621429D01*
X158321429Y-105550000D01*
X158178572Y-105478571D01*
X158035715Y-105478571D01*
X156964287Y-106407143D02*
X157107144Y-106478571D01*
X157392858Y-106478571D01*
X157535715Y-106407143D01*
X157607144Y-106264286D01*
X157607144Y-105692857D01*
X157535715Y-105550000D01*
X157392858Y-105478571D01*
X157107144Y-105478571D01*
X156964287Y-105550000D01*
X156892858Y-105692857D01*
X156892858Y-105835714D01*
X157607144Y-105978571D01*
X155607144Y-106478571D02*
X155607144Y-105692857D01*
X155678573Y-105550000D01*
X155821430Y-105478571D01*
X156107144Y-105478571D01*
X156250001Y-105550000D01*
X155607144Y-106407143D02*
X155750001Y-106478571D01*
X156107144Y-106478571D01*
X156250001Y-106407143D01*
X156321430Y-106264286D01*
X156321430Y-106121429D01*
X156250001Y-105978571D01*
X156107144Y-105907143D01*
X155750001Y-105907143D01*
X155607144Y-105835714D01*
X154892858Y-106478571D02*
X154892858Y-104978571D01*
X154750001Y-105907143D02*
X154321430Y-106478571D01*
X154321430Y-105478571D02*
X154892858Y-106050000D01*
X153464286Y-106478571D02*
X153607144Y-106407143D01*
X153678572Y-106335714D01*
X153750001Y-106192857D01*
X153750001Y-105764286D01*
X153678572Y-105621429D01*
X153607144Y-105550000D01*
X153464286Y-105478571D01*
X153250001Y-105478571D01*
X153107144Y-105550000D01*
X153035715Y-105621429D01*
X152964286Y-105764286D01*
X152964286Y-106192857D01*
X153035715Y-106335714D01*
X153107144Y-106407143D01*
X153250001Y-106478571D01*
X153464286Y-106478571D01*
X151678572Y-105478571D02*
X151678572Y-106478571D01*
X152321429Y-105478571D02*
X152321429Y-106264286D01*
X152250001Y-106407143D01*
X152107143Y-106478571D01*
X151892858Y-106478571D01*
X151750001Y-106407143D01*
X151678572Y-106335714D01*
X151178572Y-105478571D02*
X150607143Y-105478571D01*
X150964286Y-104978571D02*
X150964286Y-106264286D01*
X150892858Y-106407143D01*
X150750000Y-106478571D01*
X150607143Y-106478571D01*
X149178572Y-104978571D02*
X148678572Y-106478571D01*
X148178572Y-104978571D01*
X147392858Y-104978571D02*
X147250001Y-104978571D01*
X147107144Y-105050000D01*
X147035715Y-105121429D01*
X146964286Y-105264286D01*
X146892858Y-105550000D01*
X146892858Y-105907143D01*
X146964286Y-106192857D01*
X147035715Y-106335714D01*
X147107144Y-106407143D01*
X147250001Y-106478571D01*
X147392858Y-106478571D01*
X147535715Y-106407143D01*
X147607144Y-106335714D01*
X147678572Y-106192857D01*
X147750001Y-105907143D01*
X147750001Y-105550000D01*
X147678572Y-105264286D01*
X147607144Y-105121429D01*
X147535715Y-105050000D01*
X147392858Y-104978571D01*
X146250001Y-106335714D02*
X146178573Y-106407143D01*
X146250001Y-106478571D01*
X146321430Y-106407143D01*
X146250001Y-106335714D01*
X146250001Y-106478571D01*
X144750001Y-106478571D02*
X145607144Y-106478571D01*
X145178572Y-106478571D02*
X145178572Y-104978571D01*
X145321429Y-105192857D01*
X145464287Y-105335714D01*
X145607144Y-105407143D01*
X144178573Y-105121429D02*
X144107144Y-105050000D01*
X143964287Y-104978571D01*
X143607144Y-104978571D01*
X143464287Y-105050000D01*
X143392858Y-105121429D01*
X143321430Y-105264286D01*
X143321430Y-105407143D01*
X143392858Y-105621429D01*
X144250001Y-106478571D01*
X143321430Y-106478571D01*
X142678573Y-106335714D02*
X142607145Y-106407143D01*
X142678573Y-106478571D01*
X142750002Y-106407143D01*
X142678573Y-106335714D01*
X142678573Y-106478571D01*
X141321430Y-106478571D02*
X141321430Y-104978571D01*
X141321430Y-106407143D02*
X141464287Y-106478571D01*
X141750001Y-106478571D01*
X141892859Y-106407143D01*
X141964287Y-106335714D01*
X142035716Y-106192857D01*
X142035716Y-105764286D01*
X141964287Y-105621429D01*
X141892859Y-105550000D01*
X141750001Y-105478571D01*
X141464287Y-105478571D01*
X141321430Y-105550000D01*
X173607143Y-107521429D02*
X173535714Y-107450000D01*
X173392857Y-107378571D01*
X173035714Y-107378571D01*
X172892857Y-107450000D01*
X172821428Y-107521429D01*
X172750000Y-107664286D01*
X172750000Y-107807143D01*
X172821428Y-108021429D01*
X173678571Y-108878571D01*
X172750000Y-108878571D01*
X171821429Y-107378571D02*
X171678572Y-107378571D01*
X171535715Y-107450000D01*
X171464286Y-107521429D01*
X171392857Y-107664286D01*
X171321429Y-107950000D01*
X171321429Y-108307143D01*
X171392857Y-108592857D01*
X171464286Y-108735714D01*
X171535715Y-108807143D01*
X171678572Y-108878571D01*
X171821429Y-108878571D01*
X171964286Y-108807143D01*
X172035715Y-108735714D01*
X172107143Y-108592857D01*
X172178572Y-108307143D01*
X172178572Y-107950000D01*
X172107143Y-107664286D01*
X172035715Y-107521429D01*
X171964286Y-107450000D01*
X171821429Y-107378571D01*
X169892858Y-108878571D02*
X170750001Y-108878571D01*
X170321429Y-108878571D02*
X170321429Y-107378571D01*
X170464286Y-107592857D01*
X170607144Y-107735714D01*
X170750001Y-107807143D01*
X168535715Y-107378571D02*
X169250001Y-107378571D01*
X169321430Y-108092857D01*
X169250001Y-108021429D01*
X169107144Y-107950000D01*
X168750001Y-107950000D01*
X168607144Y-108021429D01*
X168535715Y-108092857D01*
X168464287Y-108235714D01*
X168464287Y-108592857D01*
X168535715Y-108735714D01*
X168607144Y-108807143D01*
X168750001Y-108878571D01*
X169107144Y-108878571D01*
X169250001Y-108807143D01*
X169321430Y-108735714D01*
X166678573Y-108307143D02*
X165535716Y-108307143D01*
X163678573Y-108878571D02*
X163678573Y-107378571D01*
X163678573Y-107950000D02*
X163535716Y-107878571D01*
X163250002Y-107878571D01*
X163107145Y-107950000D01*
X163035716Y-108021429D01*
X162964287Y-108164286D01*
X162964287Y-108592857D01*
X163035716Y-108735714D01*
X163107145Y-108807143D01*
X163250002Y-108878571D01*
X163535716Y-108878571D01*
X163678573Y-108807143D01*
X162107144Y-108878571D02*
X162250002Y-108807143D01*
X162321430Y-108664286D01*
X162321430Y-107378571D01*
X161321430Y-108878571D02*
X161464288Y-108807143D01*
X161535716Y-108735714D01*
X161607145Y-108592857D01*
X161607145Y-108164286D01*
X161535716Y-108021429D01*
X161464288Y-107950000D01*
X161321430Y-107878571D01*
X161107145Y-107878571D01*
X160964288Y-107950000D01*
X160892859Y-108021429D01*
X160821430Y-108164286D01*
X160821430Y-108592857D01*
X160892859Y-108735714D01*
X160964288Y-108807143D01*
X161107145Y-108878571D01*
X161321430Y-108878571D01*
X159535716Y-107878571D02*
X159535716Y-109092857D01*
X159607145Y-109235714D01*
X159678573Y-109307143D01*
X159821430Y-109378571D01*
X160035716Y-109378571D01*
X160178573Y-109307143D01*
X159535716Y-108807143D02*
X159678573Y-108878571D01*
X159964287Y-108878571D01*
X160107145Y-108807143D01*
X160178573Y-108735714D01*
X160250002Y-108592857D01*
X160250002Y-108164286D01*
X160178573Y-108021429D01*
X160107145Y-107950000D01*
X159964287Y-107878571D01*
X159678573Y-107878571D01*
X159535716Y-107950000D01*
X158821430Y-108735714D02*
X158750002Y-108807143D01*
X158821430Y-108878571D01*
X158892859Y-108807143D01*
X158821430Y-108735714D01*
X158821430Y-108878571D01*
X158178573Y-108807143D02*
X158035716Y-108878571D01*
X157750001Y-108878571D01*
X157607144Y-108807143D01*
X157535716Y-108664286D01*
X157535716Y-108592857D01*
X157607144Y-108450000D01*
X157750001Y-108378571D01*
X157964287Y-108378571D01*
X158107144Y-108307143D01*
X158178573Y-108164286D01*
X158178573Y-108092857D01*
X158107144Y-107950000D01*
X157964287Y-107878571D01*
X157750001Y-107878571D01*
X157607144Y-107950000D01*
X156892858Y-107878571D02*
X156892858Y-109378571D01*
X156892858Y-107950000D02*
X156750001Y-107878571D01*
X156464287Y-107878571D01*
X156321430Y-107950000D01*
X156250001Y-108021429D01*
X156178572Y-108164286D01*
X156178572Y-108592857D01*
X156250001Y-108735714D01*
X156321430Y-108807143D01*
X156464287Y-108878571D01*
X156750001Y-108878571D01*
X156892858Y-108807143D01*
X155535715Y-108878571D02*
X155535715Y-107878571D01*
X155535715Y-107378571D02*
X155607144Y-107450000D01*
X155535715Y-107521429D01*
X155464287Y-107450000D01*
X155535715Y-107378571D01*
X155535715Y-107521429D01*
X155035715Y-107878571D02*
X154464286Y-107878571D01*
X154821429Y-107378571D02*
X154821429Y-108664286D01*
X154750001Y-108807143D01*
X154607143Y-108878571D01*
X154464286Y-108878571D01*
X154107143Y-107878571D02*
X153321429Y-107878571D01*
X154107143Y-108878571D01*
X153321429Y-108878571D01*
X152178572Y-108807143D02*
X152321429Y-108878571D01*
X152607143Y-108878571D01*
X152750000Y-108807143D01*
X152821429Y-108664286D01*
X152821429Y-108092857D01*
X152750000Y-107950000D01*
X152607143Y-107878571D01*
X152321429Y-107878571D01*
X152178572Y-107950000D01*
X152107143Y-108092857D01*
X152107143Y-108235714D01*
X152821429Y-108378571D01*
X151464286Y-107878571D02*
X151464286Y-108878571D01*
X151464286Y-108021429D02*
X151392858Y-107950000D01*
X151250000Y-107878571D01*
X151035715Y-107878571D01*
X150892858Y-107950000D01*
X150821429Y-108092857D01*
X150821429Y-108878571D01*
X150107143Y-107878571D02*
X150107143Y-109378571D01*
X150107143Y-107950000D02*
X149964286Y-107878571D01*
X149678572Y-107878571D01*
X149535715Y-107950000D01*
X149464286Y-108021429D01*
X149392857Y-108164286D01*
X149392857Y-108592857D01*
X149464286Y-108735714D01*
X149535715Y-108807143D01*
X149678572Y-108878571D01*
X149964286Y-108878571D01*
X150107143Y-108807143D01*
X148964286Y-107878571D02*
X148392857Y-107878571D01*
X148750000Y-108878571D02*
X148750000Y-107592857D01*
X148678572Y-107450000D01*
X148535714Y-107378571D01*
X148392857Y-107378571D01*
X147321429Y-108807143D02*
X147464286Y-108878571D01*
X147750000Y-108878571D01*
X147892857Y-108807143D01*
X147964286Y-108664286D01*
X147964286Y-108092857D01*
X147892857Y-107950000D01*
X147750000Y-107878571D01*
X147464286Y-107878571D01*
X147321429Y-107950000D01*
X147250000Y-108092857D01*
X147250000Y-108235714D01*
X147964286Y-108378571D01*
X146607143Y-108878571D02*
X146607143Y-107878571D01*
X146607143Y-107378571D02*
X146678572Y-107450000D01*
X146607143Y-107521429D01*
X146535715Y-107450000D01*
X146607143Y-107378571D01*
X146607143Y-107521429D01*
X145678571Y-108878571D02*
X145821429Y-108807143D01*
X145892857Y-108664286D01*
X145892857Y-107378571D01*
X145107143Y-108735714D02*
X145035715Y-108807143D01*
X145107143Y-108878571D01*
X145178572Y-108807143D01*
X145107143Y-108735714D01*
X145107143Y-108878571D01*
X144178571Y-108878571D02*
X144321429Y-108807143D01*
X144392857Y-108735714D01*
X144464286Y-108592857D01*
X144464286Y-108164286D01*
X144392857Y-108021429D01*
X144321429Y-107950000D01*
X144178571Y-107878571D01*
X143964286Y-107878571D01*
X143821429Y-107950000D01*
X143750000Y-108021429D01*
X143678571Y-108164286D01*
X143678571Y-108592857D01*
X143750000Y-108735714D01*
X143821429Y-108807143D01*
X143964286Y-108878571D01*
X144178571Y-108878571D01*
X143035714Y-108878571D02*
X143035714Y-107878571D01*
X143035714Y-108164286D02*
X142964286Y-108021429D01*
X142892857Y-107950000D01*
X142750000Y-107878571D01*
X142607143Y-107878571D01*
X141464286Y-107878571D02*
X141464286Y-109092857D01*
X141535715Y-109235714D01*
X141607143Y-109307143D01*
X141750000Y-109378571D01*
X141964286Y-109378571D01*
X142107143Y-109307143D01*
X141464286Y-108807143D02*
X141607143Y-108878571D01*
X141892857Y-108878571D01*
X142035715Y-108807143D01*
X142107143Y-108735714D01*
X142178572Y-108592857D01*
X142178572Y-108164286D01*
X142107143Y-108021429D01*
X142035715Y-107950000D01*
X141892857Y-107878571D01*
X141607143Y-107878571D01*
X141464286Y-107950000D01*
D10*
G36*
X152508062Y-100334373D02*
X152510293Y-100448042D01*
X152513572Y-100557094D01*
X152520908Y-100720934D01*
X152531682Y-100871238D01*
X152545037Y-100998305D01*
X152560116Y-101092433D01*
X152561360Y-101098199D01*
X152657206Y-101439305D01*
X152789661Y-101767942D01*
X152955639Y-102078887D01*
X152973340Y-102104844D01*
X152973340Y-101794530D01*
X152976909Y-101788194D01*
X152998593Y-101814189D01*
X153034546Y-101867391D01*
X153066098Y-101918007D01*
X153119716Y-102004664D01*
X153169797Y-102080986D01*
X153222475Y-102155215D01*
X153283880Y-102235593D01*
X153360145Y-102330361D01*
X153457401Y-102447763D01*
X153483002Y-102478376D01*
X153549717Y-102558716D01*
X153589854Y-102609235D01*
X153605191Y-102632994D01*
X153597507Y-102633052D01*
X153568580Y-102612467D01*
X153554702Y-102601687D01*
X153501980Y-102553829D01*
X153433344Y-102482465D01*
X153359135Y-102398671D01*
X153311513Y-102341174D01*
X153225601Y-102228182D01*
X153143758Y-102109643D01*
X153071594Y-101994627D01*
X153014717Y-101892199D01*
X152978738Y-101811428D01*
X152973340Y-101794530D01*
X152973340Y-102104844D01*
X153152056Y-102366916D01*
X153375829Y-102626805D01*
X153572819Y-102811240D01*
X153652461Y-102881969D01*
X153702075Y-102933592D01*
X153719430Y-102963654D01*
X153716405Y-102969349D01*
X153685004Y-102978641D01*
X153620924Y-102992524D01*
X153534387Y-103008907D01*
X153462051Y-103021385D01*
X153320627Y-103046664D01*
X153220422Y-103069345D01*
X153159398Y-103090562D01*
X153135514Y-103111447D01*
X153146732Y-103133132D01*
X153191014Y-103156751D01*
X153206966Y-103163073D01*
X153253991Y-103172590D01*
X153337770Y-103180987D01*
X153451647Y-103188158D01*
X153588969Y-103193998D01*
X153743081Y-103198402D01*
X153852820Y-103200314D01*
X153852820Y-102804017D01*
X153863675Y-102793163D01*
X153874530Y-102804017D01*
X153863675Y-102814872D01*
X153852820Y-102804017D01*
X153852820Y-103200314D01*
X153907329Y-103201264D01*
X154075060Y-103202479D01*
X154122221Y-103202325D01*
X154122221Y-102909070D01*
X154135043Y-102904761D01*
X154181505Y-102913090D01*
X154211026Y-102923419D01*
X154234702Y-102937768D01*
X154221880Y-102942077D01*
X154175418Y-102933748D01*
X154145897Y-102923419D01*
X154122221Y-102909070D01*
X154122221Y-103202325D01*
X154239618Y-103201943D01*
X154394350Y-103199549D01*
X154532602Y-103195193D01*
X154647720Y-103188769D01*
X154677778Y-103186332D01*
X154867401Y-103168620D01*
X155032135Y-103151582D01*
X155168447Y-103135671D01*
X155272801Y-103121338D01*
X155341664Y-103109036D01*
X155371502Y-103099216D01*
X155372479Y-103097488D01*
X155352900Y-103086525D01*
X155301574Y-103071823D01*
X155229686Y-103056579D01*
X155113763Y-103030947D01*
X155018862Y-103001569D01*
X154951641Y-102971065D01*
X154918762Y-102942051D01*
X154916581Y-102933492D01*
X154933233Y-102900859D01*
X154972755Y-102861405D01*
X155019493Y-102828342D01*
X155057132Y-102814872D01*
X155081135Y-102801397D01*
X155132428Y-102763877D01*
X155205458Y-102706668D01*
X155294673Y-102634126D01*
X155394521Y-102550608D01*
X155401851Y-102544390D01*
X155583003Y-102392948D01*
X155738613Y-102268703D01*
X155873999Y-102168309D01*
X155994478Y-102088423D01*
X156105368Y-102025698D01*
X156211988Y-101976791D01*
X156319654Y-101938354D01*
X156402809Y-101914769D01*
X156526209Y-101889565D01*
X156645320Y-101880646D01*
X156764454Y-101889712D01*
X156887924Y-101918462D01*
X157020043Y-101968597D01*
X157165122Y-102041816D01*
X157327474Y-102139820D01*
X157511412Y-102264308D01*
X157721247Y-102416980D01*
X157770542Y-102453937D01*
X157939019Y-102578014D01*
X158083406Y-102677642D01*
X158211634Y-102757695D01*
X158331634Y-102823047D01*
X158451338Y-102878572D01*
X158483431Y-102892017D01*
X158560594Y-102925678D01*
X158619465Y-102955112D01*
X158650635Y-102975464D01*
X158653262Y-102979626D01*
X158633004Y-103000420D01*
X158574431Y-103024143D01*
X158482413Y-103049242D01*
X158361822Y-103074161D01*
X158350677Y-103076173D01*
X158250247Y-103097301D01*
X158192528Y-103117209D01*
X158177632Y-103135955D01*
X158205670Y-103153601D01*
X158276757Y-103170204D01*
X158391003Y-103185825D01*
X158548521Y-103200524D01*
X158591628Y-103203835D01*
X158783043Y-103214536D01*
X159004110Y-103221065D01*
X159243017Y-103223512D01*
X159487952Y-103221969D01*
X159727103Y-103216527D01*
X159948657Y-103207276D01*
X160140803Y-103194307D01*
X160170256Y-103191687D01*
X160355916Y-103173641D01*
X160502607Y-103157370D01*
X160614707Y-103142149D01*
X160696593Y-103127250D01*
X160752643Y-103111945D01*
X160787236Y-103095509D01*
X160796890Y-103087628D01*
X160816168Y-103051538D01*
X160795185Y-103021114D01*
X160733022Y-102995816D01*
X160628759Y-102975108D01*
X160597181Y-102970737D01*
X160504138Y-102958327D01*
X160443796Y-102946561D01*
X160416759Y-102931178D01*
X160423628Y-102907918D01*
X160465008Y-102872519D01*
X160541501Y-102820720D01*
X160626154Y-102766047D01*
X160794476Y-102640906D01*
X160962706Y-102485411D01*
X161123509Y-102308579D01*
X161269548Y-102119428D01*
X161393489Y-101926976D01*
X161487998Y-101740242D01*
X161514019Y-101674456D01*
X161555439Y-101551047D01*
X161585806Y-101435994D01*
X161606680Y-101318510D01*
X161619625Y-101187805D01*
X161626201Y-101033092D01*
X161627918Y-100887695D01*
X161626346Y-100735578D01*
X161619713Y-100595120D01*
X161606620Y-100460674D01*
X161585671Y-100326594D01*
X161555467Y-100187230D01*
X161514610Y-100036936D01*
X161461701Y-99870065D01*
X161395344Y-99680968D01*
X161314140Y-99463998D01*
X161216691Y-99213507D01*
X161208104Y-99191730D01*
X161130433Y-98990603D01*
X161063922Y-98809550D01*
X161010287Y-98653547D01*
X160971246Y-98527572D01*
X160949751Y-98442756D01*
X160924972Y-98288189D01*
X160912008Y-98129372D01*
X160911059Y-97978538D01*
X160922324Y-97847919D01*
X160938777Y-97771016D01*
X160969177Y-97670003D01*
X160911640Y-97683907D01*
X160831045Y-97705791D01*
X160785287Y-97726840D01*
X160766338Y-97753141D01*
X160766171Y-97790782D01*
X160766637Y-97793882D01*
X160771247Y-97838640D01*
X160776852Y-97915951D01*
X160782746Y-98014984D01*
X160788221Y-98124905D01*
X160788255Y-98125641D01*
X160801918Y-98313675D01*
X160824779Y-98492854D01*
X160855206Y-98654407D01*
X160891567Y-98789566D01*
X160929330Y-98883990D01*
X160958607Y-98947187D01*
X160999247Y-99042948D01*
X161048020Y-99162945D01*
X161101694Y-99298847D01*
X161157039Y-99442328D01*
X161210824Y-99585058D01*
X161259817Y-99718708D01*
X161300788Y-99834950D01*
X161317308Y-99884103D01*
X161415594Y-100228461D01*
X161476656Y-100551691D01*
X161500174Y-100855544D01*
X161485826Y-101141771D01*
X161433292Y-101412123D01*
X161342249Y-101668351D01*
X161212377Y-101912207D01*
X161043354Y-102145441D01*
X160866970Y-102338330D01*
X160642708Y-102533449D01*
X160400800Y-102691055D01*
X160144252Y-102809568D01*
X159876067Y-102887407D01*
X159794712Y-102902443D01*
X159660151Y-102916434D01*
X159497980Y-102921390D01*
X159321988Y-102917926D01*
X159145965Y-102906657D01*
X158983701Y-102888196D01*
X158848985Y-102863159D01*
X158835128Y-102859690D01*
X158633087Y-102791169D01*
X158410484Y-102685036D01*
X158167124Y-102541188D01*
X157902816Y-102359521D01*
X157901624Y-102358651D01*
X157701112Y-102212995D01*
X157530754Y-102091553D01*
X157386223Y-101992149D01*
X157263191Y-101912611D01*
X157157333Y-101850763D01*
X157064321Y-101804431D01*
X156979829Y-101771441D01*
X156899529Y-101749618D01*
X156819096Y-101736789D01*
X156734201Y-101730778D01*
X156649447Y-101729402D01*
X156521818Y-101733854D01*
X156414481Y-101749487D01*
X156305007Y-101779716D01*
X156293126Y-101783657D01*
X156210366Y-101814346D01*
X156128222Y-101851694D01*
X156042025Y-101898843D01*
X155947107Y-101958935D01*
X155838798Y-102035113D01*
X155712432Y-102130521D01*
X155563338Y-102248299D01*
X155386848Y-102391591D01*
X155372479Y-102403371D01*
X155206558Y-102536243D01*
X155057568Y-102649073D01*
X154929578Y-102738939D01*
X154826656Y-102802921D01*
X154786325Y-102824074D01*
X154710342Y-102860439D01*
X154764615Y-102814147D01*
X155007423Y-102607842D01*
X155221279Y-102428287D01*
X155409589Y-102273282D01*
X155575761Y-102140629D01*
X155723201Y-102028128D01*
X155855316Y-101933579D01*
X155975512Y-101854783D01*
X156087198Y-101789541D01*
X156193778Y-101735653D01*
X156298661Y-101690919D01*
X156405253Y-101653140D01*
X156516961Y-101620117D01*
X156637192Y-101589651D01*
X156675043Y-101580770D01*
X156723865Y-101569067D01*
X156738586Y-101563548D01*
X156716405Y-101563540D01*
X156654519Y-101568369D01*
X156631624Y-101570330D01*
X156498546Y-101588173D01*
X156355573Y-101617852D01*
X156219108Y-101655290D01*
X156105555Y-101696409D01*
X156082777Y-101706735D01*
X156005059Y-101752070D01*
X155897252Y-101827918D01*
X155759804Y-101933926D01*
X155593167Y-102069745D01*
X155397790Y-102235023D01*
X155326977Y-102296063D01*
X155168732Y-102430615D01*
X155034383Y-102538947D01*
X154917323Y-102625736D01*
X154810943Y-102695659D01*
X154708635Y-102753395D01*
X154620457Y-102796147D01*
X154536995Y-102831722D01*
X154472749Y-102850593D01*
X154408536Y-102856324D01*
X154325174Y-102852479D01*
X154319573Y-102852055D01*
X154115106Y-102815097D01*
X153915660Y-102735805D01*
X153720906Y-102613962D01*
X153530515Y-102449349D01*
X153344158Y-102241750D01*
X153288734Y-102170719D01*
X153230739Y-102084923D01*
X153161785Y-101968450D01*
X153086779Y-101831038D01*
X153010628Y-101682427D01*
X152938238Y-101532354D01*
X152874517Y-101390560D01*
X152824372Y-101266782D01*
X152803859Y-101208376D01*
X152777157Y-101121778D01*
X152755138Y-101043030D01*
X152739264Y-100978744D01*
X152730998Y-100935529D01*
X152731803Y-100919995D01*
X152743142Y-100938754D01*
X152745234Y-100943516D01*
X152781386Y-101011001D01*
X152841587Y-101100194D01*
X152927853Y-101213846D01*
X153042200Y-101354706D01*
X153079898Y-101399843D01*
X153171321Y-101510443D01*
X153238229Y-101597228D01*
X153285196Y-101668617D01*
X153316796Y-101733028D01*
X153337602Y-101798879D01*
X153352188Y-101874591D01*
X153357477Y-101910759D01*
X153377771Y-102025244D01*
X153405520Y-102110189D01*
X153446679Y-102179446D01*
X153498027Y-102237715D01*
X153616753Y-102327182D01*
X153679926Y-102351193D01*
X153679926Y-101983380D01*
X153687909Y-101937794D01*
X153720947Y-101907038D01*
X153754431Y-101891115D01*
X153852100Y-101866575D01*
X153966644Y-101861396D01*
X154076075Y-101875579D01*
X154124885Y-101891115D01*
X154175528Y-101917929D01*
X154196464Y-101952224D01*
X154200171Y-102000698D01*
X154180814Y-102081256D01*
X154128521Y-102145008D01*
X154051961Y-102187569D01*
X153959804Y-102204554D01*
X153860718Y-102191577D01*
X153837952Y-102183928D01*
X153766221Y-102139671D01*
X153710209Y-102073895D01*
X153681490Y-102001291D01*
X153679926Y-101983380D01*
X153679926Y-102351193D01*
X153761248Y-102382104D01*
X153930483Y-102402100D01*
X153941671Y-102402181D01*
X154089025Y-102389643D01*
X154208746Y-102349193D01*
X154309191Y-102277210D01*
X154361284Y-102220359D01*
X154394827Y-102176085D01*
X154414231Y-102137295D01*
X154422739Y-102090369D01*
X154423593Y-102021686D01*
X154421840Y-101965987D01*
X154419829Y-101877860D01*
X154423331Y-101821056D01*
X154434824Y-101783583D01*
X154456783Y-101753453D01*
X154468190Y-101741631D01*
X154556731Y-101682331D01*
X154667059Y-101653887D01*
X154790040Y-101656672D01*
X154916537Y-101691064D01*
X154960081Y-101711682D01*
X154960081Y-101383330D01*
X154978339Y-101320977D01*
X155026444Y-101249825D01*
X155094791Y-101179198D01*
X155173774Y-101118424D01*
X155253787Y-101076829D01*
X155285625Y-101067269D01*
X155347122Y-101065021D01*
X155392915Y-101077439D01*
X155428785Y-101117704D01*
X155435393Y-101177615D01*
X155416975Y-101249188D01*
X155377763Y-101324442D01*
X155321992Y-101395393D01*
X155253895Y-101454060D01*
X155177706Y-101492459D01*
X155171822Y-101494288D01*
X155096383Y-101501532D01*
X155026643Y-101483300D01*
X154987137Y-101452697D01*
X154964296Y-101407047D01*
X154960081Y-101383330D01*
X154960081Y-101711682D01*
X154979016Y-101720649D01*
X155099665Y-101764142D01*
X155222966Y-101765813D01*
X155344669Y-101726706D01*
X155460524Y-101647866D01*
X155520550Y-101587563D01*
X155603665Y-101464722D01*
X155654233Y-101327584D01*
X155672022Y-101184756D01*
X155656797Y-101044844D01*
X155608327Y-100916455D01*
X155541236Y-100823262D01*
X155511016Y-100787432D01*
X155510037Y-100762523D01*
X155537156Y-100728479D01*
X155593161Y-100679959D01*
X155669203Y-100630933D01*
X155750636Y-100589237D01*
X155822815Y-100562704D01*
X155857183Y-100557298D01*
X155920889Y-100575839D01*
X155984667Y-100623896D01*
X156035681Y-100689529D01*
X156058129Y-100744270D01*
X156099845Y-100830985D01*
X156175079Y-100901240D01*
X156181922Y-100904693D01*
X156181922Y-100482257D01*
X156193846Y-100419001D01*
X156243115Y-100366545D01*
X156262564Y-100355232D01*
X156331917Y-100333034D01*
X156424067Y-100321255D01*
X156525952Y-100319493D01*
X156624511Y-100327347D01*
X156706683Y-100344416D01*
X156759408Y-100370299D01*
X156759632Y-100370502D01*
X156798424Y-100425530D01*
X156797689Y-100488068D01*
X156758872Y-100561319D01*
X156678073Y-100643285D01*
X156580225Y-100693554D01*
X156475237Y-100709260D01*
X156373020Y-100687538D01*
X156353751Y-100678434D01*
X156263522Y-100617814D01*
X156205697Y-100550475D01*
X156181922Y-100482257D01*
X156181922Y-100904693D01*
X156276135Y-100952236D01*
X156395316Y-100981172D01*
X156524926Y-100985248D01*
X156656346Y-100961932D01*
X156804579Y-100899356D01*
X156925528Y-100807961D01*
X157015098Y-100692268D01*
X157069190Y-100556793D01*
X157080450Y-100494190D01*
X157090201Y-100428873D01*
X157103863Y-100396002D01*
X157128307Y-100384707D01*
X157150246Y-100383758D01*
X157224486Y-100391265D01*
X157315882Y-100410084D01*
X157407445Y-100435737D01*
X157482187Y-100463747D01*
X157510019Y-100478568D01*
X157555114Y-100530551D01*
X157562303Y-100600265D01*
X157531574Y-100684244D01*
X157510855Y-100717850D01*
X157466337Y-100819756D01*
X157458608Y-100933069D01*
X157484794Y-101051527D01*
X157542022Y-101168869D01*
X157627417Y-101278834D01*
X157721686Y-101360872D01*
X157721686Y-100936039D01*
X157732125Y-100840426D01*
X157747635Y-100799810D01*
X157796328Y-100737522D01*
X157857704Y-100716106D01*
X157933162Y-100735327D01*
X157978189Y-100761142D01*
X158028880Y-100798141D01*
X158059895Y-100827433D01*
X158064444Y-100836188D01*
X158083165Y-100852963D01*
X158130027Y-100873293D01*
X158150304Y-100879877D01*
X158255897Y-100925574D01*
X158327908Y-100987174D01*
X158363252Y-101060517D01*
X158358842Y-101141447D01*
X158354272Y-101154741D01*
X158317014Y-101196544D01*
X158248674Y-101227412D01*
X158160538Y-101245902D01*
X158063892Y-101250572D01*
X157970022Y-101239981D01*
X157892312Y-101213770D01*
X157829987Y-101172234D01*
X157778881Y-101122453D01*
X157775951Y-101118591D01*
X157736873Y-101035271D01*
X157721686Y-100936039D01*
X157721686Y-101360872D01*
X157738106Y-101375162D01*
X157841044Y-101437251D01*
X157915704Y-101471159D01*
X157982568Y-101490485D01*
X158059910Y-101499108D01*
X158140878Y-101500904D01*
X158240543Y-101498541D01*
X158313780Y-101488545D01*
X158377356Y-101467676D01*
X158421628Y-101446649D01*
X158492431Y-101401378D01*
X158547842Y-101349962D01*
X158563987Y-101327247D01*
X158606880Y-101271223D01*
X158656565Y-101230624D01*
X158694661Y-101213266D01*
X158730168Y-101212874D01*
X158779543Y-101231118D01*
X158811734Y-101246369D01*
X158919081Y-101321423D01*
X159003645Y-101426398D01*
X159059606Y-101551246D01*
X159081141Y-101685919D01*
X159080893Y-101710946D01*
X159098015Y-101803766D01*
X159152425Y-101886759D01*
X159238001Y-101951034D01*
X159250412Y-101957227D01*
X159264365Y-101962280D01*
X159264365Y-101520878D01*
X159272254Y-101445792D01*
X159276391Y-101435951D01*
X159318730Y-101386035D01*
X159393531Y-101338178D01*
X159489924Y-101297175D01*
X159597038Y-101267820D01*
X159684756Y-101255837D01*
X159817973Y-101247051D01*
X159844213Y-101326559D01*
X159857314Y-101431050D01*
X159831841Y-101533635D01*
X159772050Y-101625295D01*
X159682202Y-101697012D01*
X159664982Y-101706204D01*
X159587293Y-101735900D01*
X159518156Y-101737258D01*
X159444415Y-101708417D01*
X159377863Y-101665632D01*
X159299506Y-101594016D01*
X159264365Y-101520878D01*
X159264365Y-101962280D01*
X159306742Y-101977627D01*
X159373870Y-101987190D01*
X159465405Y-101987427D01*
X159505925Y-101985575D01*
X159679048Y-101960595D01*
X159831954Y-101907262D01*
X159871667Y-101882856D01*
X159871667Y-99935934D01*
X159884868Y-99839623D01*
X159886414Y-99834738D01*
X159918650Y-99768269D01*
X159959933Y-99740899D01*
X160012197Y-99752924D01*
X160077373Y-99804637D01*
X160138913Y-99873320D01*
X160185806Y-99935976D01*
X160206862Y-99982505D01*
X160207752Y-100026653D01*
X160206076Y-100036073D01*
X160164329Y-100142283D01*
X160090111Y-100228931D01*
X160054376Y-100254448D01*
X159993062Y-100281136D01*
X159950154Y-100271062D01*
X159919376Y-100221492D01*
X159909432Y-100191302D01*
X159880106Y-100057044D01*
X159871667Y-99935934D01*
X159871667Y-101882856D01*
X159959749Y-101828726D01*
X160057535Y-101728138D01*
X160120419Y-101608648D01*
X160127630Y-101585461D01*
X160146263Y-101446069D01*
X160131768Y-101294468D01*
X160087207Y-101142438D01*
X160015645Y-101001753D01*
X159954565Y-100920214D01*
X159911605Y-100865414D01*
X159894953Y-100822196D01*
X159898335Y-100773447D01*
X159899190Y-100769238D01*
X159920600Y-100697934D01*
X159956218Y-100641037D01*
X160013903Y-100590630D01*
X160101514Y-100538794D01*
X160154387Y-100512114D01*
X160277924Y-100447191D01*
X160365912Y-100386768D01*
X160424222Y-100322333D01*
X160458728Y-100245369D01*
X160475302Y-100147365D01*
X160479683Y-100040484D01*
X160471894Y-99914265D01*
X160441774Y-99809187D01*
X160383455Y-99710771D01*
X160311881Y-99626385D01*
X160180950Y-99517403D01*
X160027377Y-99444726D01*
X159881262Y-99412851D01*
X159803179Y-99399671D01*
X159759213Y-99377559D01*
X159740075Y-99338668D01*
X159736401Y-99290444D01*
X159745092Y-99228549D01*
X159775132Y-99169140D01*
X159831419Y-99106262D01*
X159918852Y-99033964D01*
X159989683Y-98982614D01*
X160107749Y-98895434D01*
X160190920Y-98820559D01*
X160242813Y-98750244D01*
X160267045Y-98676745D01*
X160267232Y-98592315D01*
X160246992Y-98489210D01*
X160237221Y-98452555D01*
X160202203Y-98348240D01*
X160157388Y-98265295D01*
X160095293Y-98195854D01*
X160008440Y-98132052D01*
X159889345Y-98066022D01*
X159851858Y-98047362D01*
X159737041Y-97987003D01*
X159658606Y-97934082D01*
X159611544Y-97882919D01*
X159590844Y-97827838D01*
X159591499Y-97763160D01*
X159592885Y-97753792D01*
X159598797Y-97699177D01*
X159590354Y-97675047D01*
X159564815Y-97669744D01*
X159532746Y-97684818D01*
X159507355Y-97731561D01*
X159488277Y-97812252D01*
X159475144Y-97929172D01*
X159467589Y-98084601D01*
X159465245Y-98280820D01*
X159465253Y-98288462D01*
X159466007Y-98409273D01*
X159468542Y-98516043D01*
X159473813Y-98614971D01*
X159482776Y-98712257D01*
X159496388Y-98814101D01*
X159515605Y-98926702D01*
X159541384Y-99056261D01*
X159574679Y-99208977D01*
X159585295Y-99255251D01*
X159585295Y-98398796D01*
X159593004Y-98312532D01*
X159609884Y-98253010D01*
X159613312Y-98247116D01*
X159650980Y-98210339D01*
X159695584Y-98209066D01*
X159750866Y-98244598D01*
X159820565Y-98318232D01*
X159821576Y-98319437D01*
X159885856Y-98405615D01*
X159917975Y-98477245D01*
X159920834Y-98545387D01*
X159899432Y-98616151D01*
X159848742Y-98710258D01*
X159791674Y-98771214D01*
X159732927Y-98796792D01*
X159677199Y-98784769D01*
X159634576Y-98741607D01*
X159611398Y-98683208D01*
X159595072Y-98597618D01*
X159586177Y-98498319D01*
X159585295Y-98398796D01*
X159585295Y-99255251D01*
X159616449Y-99391050D01*
X159667648Y-99608680D01*
X159671179Y-99623590D01*
X159726674Y-99860953D01*
X159771385Y-100060808D01*
X159805746Y-100227592D01*
X159830189Y-100365742D01*
X159845147Y-100479696D01*
X159851052Y-100573890D01*
X159848337Y-100652762D01*
X159837435Y-100720748D01*
X159818777Y-100782287D01*
X159792798Y-100841814D01*
X159790413Y-100846628D01*
X159711996Y-100970365D01*
X159612152Y-101077238D01*
X159498632Y-101162205D01*
X159379189Y-101220224D01*
X159261575Y-101246252D01*
X159182090Y-101242300D01*
X159105190Y-101220093D01*
X158997605Y-101177818D01*
X158865423Y-101118487D01*
X158714732Y-101045114D01*
X158551621Y-100960714D01*
X158382180Y-100868300D01*
X158212496Y-100770886D01*
X158129573Y-100721311D01*
X157910395Y-100590222D01*
X157721545Y-100481548D01*
X157557876Y-100392672D01*
X157414239Y-100320975D01*
X157285488Y-100263839D01*
X157166475Y-100218646D01*
X157096287Y-100195771D01*
X157009121Y-100170678D01*
X156933353Y-100153811D01*
X156856094Y-100143612D01*
X156764457Y-100138523D01*
X156645552Y-100136987D01*
X156609914Y-100136975D01*
X156466359Y-100140278D01*
X156335119Y-100151343D01*
X156212583Y-100172435D01*
X156095140Y-100205815D01*
X155979178Y-100253745D01*
X155861087Y-100318489D01*
X155737255Y-100402308D01*
X155604072Y-100507466D01*
X155457926Y-100636225D01*
X155295206Y-100790846D01*
X155112301Y-100973594D01*
X154905600Y-101186730D01*
X154862308Y-101231926D01*
X154762860Y-101334805D01*
X154684686Y-101411992D01*
X154619854Y-101469926D01*
X154560435Y-101515045D01*
X154498498Y-101553788D01*
X154426113Y-101592593D01*
X154404752Y-101603412D01*
X154196439Y-101690449D01*
X153998500Y-101736135D01*
X153808543Y-101740620D01*
X153624177Y-101704054D01*
X153508623Y-101659457D01*
X153418269Y-101604290D01*
X153316150Y-101519809D01*
X153210813Y-101415075D01*
X153110807Y-101299149D01*
X153024681Y-101181089D01*
X152970374Y-101088975D01*
X152883958Y-100903067D01*
X152816981Y-100716866D01*
X152767223Y-100520850D01*
X152732463Y-100305494D01*
X152710480Y-100061276D01*
X152704585Y-99949231D01*
X152688967Y-99591026D01*
X152651268Y-99673911D01*
X152629048Y-99731611D01*
X152600924Y-99817160D01*
X152571466Y-99916270D01*
X152557520Y-99966988D01*
X152537136Y-100046042D01*
X152522721Y-100112596D01*
X152513552Y-100176362D01*
X152508907Y-100247050D01*
X152508062Y-100334373D01*
X152508062Y-100334373D01*
X152508062Y-100334373D01*
G37*
X152508062Y-100334373D02*
X152510293Y-100448042D01*
X152513572Y-100557094D01*
X152520908Y-100720934D01*
X152531682Y-100871238D01*
X152545037Y-100998305D01*
X152560116Y-101092433D01*
X152561360Y-101098199D01*
X152657206Y-101439305D01*
X152789661Y-101767942D01*
X152955639Y-102078887D01*
X152973340Y-102104844D01*
X152973340Y-101794530D01*
X152976909Y-101788194D01*
X152998593Y-101814189D01*
X153034546Y-101867391D01*
X153066098Y-101918007D01*
X153119716Y-102004664D01*
X153169797Y-102080986D01*
X153222475Y-102155215D01*
X153283880Y-102235593D01*
X153360145Y-102330361D01*
X153457401Y-102447763D01*
X153483002Y-102478376D01*
X153549717Y-102558716D01*
X153589854Y-102609235D01*
X153605191Y-102632994D01*
X153597507Y-102633052D01*
X153568580Y-102612467D01*
X153554702Y-102601687D01*
X153501980Y-102553829D01*
X153433344Y-102482465D01*
X153359135Y-102398671D01*
X153311513Y-102341174D01*
X153225601Y-102228182D01*
X153143758Y-102109643D01*
X153071594Y-101994627D01*
X153014717Y-101892199D01*
X152978738Y-101811428D01*
X152973340Y-101794530D01*
X152973340Y-102104844D01*
X153152056Y-102366916D01*
X153375829Y-102626805D01*
X153572819Y-102811240D01*
X153652461Y-102881969D01*
X153702075Y-102933592D01*
X153719430Y-102963654D01*
X153716405Y-102969349D01*
X153685004Y-102978641D01*
X153620924Y-102992524D01*
X153534387Y-103008907D01*
X153462051Y-103021385D01*
X153320627Y-103046664D01*
X153220422Y-103069345D01*
X153159398Y-103090562D01*
X153135514Y-103111447D01*
X153146732Y-103133132D01*
X153191014Y-103156751D01*
X153206966Y-103163073D01*
X153253991Y-103172590D01*
X153337770Y-103180987D01*
X153451647Y-103188158D01*
X153588969Y-103193998D01*
X153743081Y-103198402D01*
X153852820Y-103200314D01*
X153852820Y-102804017D01*
X153863675Y-102793163D01*
X153874530Y-102804017D01*
X153863675Y-102814872D01*
X153852820Y-102804017D01*
X153852820Y-103200314D01*
X153907329Y-103201264D01*
X154075060Y-103202479D01*
X154122221Y-103202325D01*
X154122221Y-102909070D01*
X154135043Y-102904761D01*
X154181505Y-102913090D01*
X154211026Y-102923419D01*
X154234702Y-102937768D01*
X154221880Y-102942077D01*
X154175418Y-102933748D01*
X154145897Y-102923419D01*
X154122221Y-102909070D01*
X154122221Y-103202325D01*
X154239618Y-103201943D01*
X154394350Y-103199549D01*
X154532602Y-103195193D01*
X154647720Y-103188769D01*
X154677778Y-103186332D01*
X154867401Y-103168620D01*
X155032135Y-103151582D01*
X155168447Y-103135671D01*
X155272801Y-103121338D01*
X155341664Y-103109036D01*
X155371502Y-103099216D01*
X155372479Y-103097488D01*
X155352900Y-103086525D01*
X155301574Y-103071823D01*
X155229686Y-103056579D01*
X155113763Y-103030947D01*
X155018862Y-103001569D01*
X154951641Y-102971065D01*
X154918762Y-102942051D01*
X154916581Y-102933492D01*
X154933233Y-102900859D01*
X154972755Y-102861405D01*
X155019493Y-102828342D01*
X155057132Y-102814872D01*
X155081135Y-102801397D01*
X155132428Y-102763877D01*
X155205458Y-102706668D01*
X155294673Y-102634126D01*
X155394521Y-102550608D01*
X155401851Y-102544390D01*
X155583003Y-102392948D01*
X155738613Y-102268703D01*
X155873999Y-102168309D01*
X155994478Y-102088423D01*
X156105368Y-102025698D01*
X156211988Y-101976791D01*
X156319654Y-101938354D01*
X156402809Y-101914769D01*
X156526209Y-101889565D01*
X156645320Y-101880646D01*
X156764454Y-101889712D01*
X156887924Y-101918462D01*
X157020043Y-101968597D01*
X157165122Y-102041816D01*
X157327474Y-102139820D01*
X157511412Y-102264308D01*
X157721247Y-102416980D01*
X157770542Y-102453937D01*
X157939019Y-102578014D01*
X158083406Y-102677642D01*
X158211634Y-102757695D01*
X158331634Y-102823047D01*
X158451338Y-102878572D01*
X158483431Y-102892017D01*
X158560594Y-102925678D01*
X158619465Y-102955112D01*
X158650635Y-102975464D01*
X158653262Y-102979626D01*
X158633004Y-103000420D01*
X158574431Y-103024143D01*
X158482413Y-103049242D01*
X158361822Y-103074161D01*
X158350677Y-103076173D01*
X158250247Y-103097301D01*
X158192528Y-103117209D01*
X158177632Y-103135955D01*
X158205670Y-103153601D01*
X158276757Y-103170204D01*
X158391003Y-103185825D01*
X158548521Y-103200524D01*
X158591628Y-103203835D01*
X158783043Y-103214536D01*
X159004110Y-103221065D01*
X159243017Y-103223512D01*
X159487952Y-103221969D01*
X159727103Y-103216527D01*
X159948657Y-103207276D01*
X160140803Y-103194307D01*
X160170256Y-103191687D01*
X160355916Y-103173641D01*
X160502607Y-103157370D01*
X160614707Y-103142149D01*
X160696593Y-103127250D01*
X160752643Y-103111945D01*
X160787236Y-103095509D01*
X160796890Y-103087628D01*
X160816168Y-103051538D01*
X160795185Y-103021114D01*
X160733022Y-102995816D01*
X160628759Y-102975108D01*
X160597181Y-102970737D01*
X160504138Y-102958327D01*
X160443796Y-102946561D01*
X160416759Y-102931178D01*
X160423628Y-102907918D01*
X160465008Y-102872519D01*
X160541501Y-102820720D01*
X160626154Y-102766047D01*
X160794476Y-102640906D01*
X160962706Y-102485411D01*
X161123509Y-102308579D01*
X161269548Y-102119428D01*
X161393489Y-101926976D01*
X161487998Y-101740242D01*
X161514019Y-101674456D01*
X161555439Y-101551047D01*
X161585806Y-101435994D01*
X161606680Y-101318510D01*
X161619625Y-101187805D01*
X161626201Y-101033092D01*
X161627918Y-100887695D01*
X161626346Y-100735578D01*
X161619713Y-100595120D01*
X161606620Y-100460674D01*
X161585671Y-100326594D01*
X161555467Y-100187230D01*
X161514610Y-100036936D01*
X161461701Y-99870065D01*
X161395344Y-99680968D01*
X161314140Y-99463998D01*
X161216691Y-99213507D01*
X161208104Y-99191730D01*
X161130433Y-98990603D01*
X161063922Y-98809550D01*
X161010287Y-98653547D01*
X160971246Y-98527572D01*
X160949751Y-98442756D01*
X160924972Y-98288189D01*
X160912008Y-98129372D01*
X160911059Y-97978538D01*
X160922324Y-97847919D01*
X160938777Y-97771016D01*
X160969177Y-97670003D01*
X160911640Y-97683907D01*
X160831045Y-97705791D01*
X160785287Y-97726840D01*
X160766338Y-97753141D01*
X160766171Y-97790782D01*
X160766637Y-97793882D01*
X160771247Y-97838640D01*
X160776852Y-97915951D01*
X160782746Y-98014984D01*
X160788221Y-98124905D01*
X160788255Y-98125641D01*
X160801918Y-98313675D01*
X160824779Y-98492854D01*
X160855206Y-98654407D01*
X160891567Y-98789566D01*
X160929330Y-98883990D01*
X160958607Y-98947187D01*
X160999247Y-99042948D01*
X161048020Y-99162945D01*
X161101694Y-99298847D01*
X161157039Y-99442328D01*
X161210824Y-99585058D01*
X161259817Y-99718708D01*
X161300788Y-99834950D01*
X161317308Y-99884103D01*
X161415594Y-100228461D01*
X161476656Y-100551691D01*
X161500174Y-100855544D01*
X161485826Y-101141771D01*
X161433292Y-101412123D01*
X161342249Y-101668351D01*
X161212377Y-101912207D01*
X161043354Y-102145441D01*
X160866970Y-102338330D01*
X160642708Y-102533449D01*
X160400800Y-102691055D01*
X160144252Y-102809568D01*
X159876067Y-102887407D01*
X159794712Y-102902443D01*
X159660151Y-102916434D01*
X159497980Y-102921390D01*
X159321988Y-102917926D01*
X159145965Y-102906657D01*
X158983701Y-102888196D01*
X158848985Y-102863159D01*
X158835128Y-102859690D01*
X158633087Y-102791169D01*
X158410484Y-102685036D01*
X158167124Y-102541188D01*
X157902816Y-102359521D01*
X157901624Y-102358651D01*
X157701112Y-102212995D01*
X157530754Y-102091553D01*
X157386223Y-101992149D01*
X157263191Y-101912611D01*
X157157333Y-101850763D01*
X157064321Y-101804431D01*
X156979829Y-101771441D01*
X156899529Y-101749618D01*
X156819096Y-101736789D01*
X156734201Y-101730778D01*
X156649447Y-101729402D01*
X156521818Y-101733854D01*
X156414481Y-101749487D01*
X156305007Y-101779716D01*
X156293126Y-101783657D01*
X156210366Y-101814346D01*
X156128222Y-101851694D01*
X156042025Y-101898843D01*
X155947107Y-101958935D01*
X155838798Y-102035113D01*
X155712432Y-102130521D01*
X155563338Y-102248299D01*
X155386848Y-102391591D01*
X155372479Y-102403371D01*
X155206558Y-102536243D01*
X155057568Y-102649073D01*
X154929578Y-102738939D01*
X154826656Y-102802921D01*
X154786325Y-102824074D01*
X154710342Y-102860439D01*
X154764615Y-102814147D01*
X155007423Y-102607842D01*
X155221279Y-102428287D01*
X155409589Y-102273282D01*
X155575761Y-102140629D01*
X155723201Y-102028128D01*
X155855316Y-101933579D01*
X155975512Y-101854783D01*
X156087198Y-101789541D01*
X156193778Y-101735653D01*
X156298661Y-101690919D01*
X156405253Y-101653140D01*
X156516961Y-101620117D01*
X156637192Y-101589651D01*
X156675043Y-101580770D01*
X156723865Y-101569067D01*
X156738586Y-101563548D01*
X156716405Y-101563540D01*
X156654519Y-101568369D01*
X156631624Y-101570330D01*
X156498546Y-101588173D01*
X156355573Y-101617852D01*
X156219108Y-101655290D01*
X156105555Y-101696409D01*
X156082777Y-101706735D01*
X156005059Y-101752070D01*
X155897252Y-101827918D01*
X155759804Y-101933926D01*
X155593167Y-102069745D01*
X155397790Y-102235023D01*
X155326977Y-102296063D01*
X155168732Y-102430615D01*
X155034383Y-102538947D01*
X154917323Y-102625736D01*
X154810943Y-102695659D01*
X154708635Y-102753395D01*
X154620457Y-102796147D01*
X154536995Y-102831722D01*
X154472749Y-102850593D01*
X154408536Y-102856324D01*
X154325174Y-102852479D01*
X154319573Y-102852055D01*
X154115106Y-102815097D01*
X153915660Y-102735805D01*
X153720906Y-102613962D01*
X153530515Y-102449349D01*
X153344158Y-102241750D01*
X153288734Y-102170719D01*
X153230739Y-102084923D01*
X153161785Y-101968450D01*
X153086779Y-101831038D01*
X153010628Y-101682427D01*
X152938238Y-101532354D01*
X152874517Y-101390560D01*
X152824372Y-101266782D01*
X152803859Y-101208376D01*
X152777157Y-101121778D01*
X152755138Y-101043030D01*
X152739264Y-100978744D01*
X152730998Y-100935529D01*
X152731803Y-100919995D01*
X152743142Y-100938754D01*
X152745234Y-100943516D01*
X152781386Y-101011001D01*
X152841587Y-101100194D01*
X152927853Y-101213846D01*
X153042200Y-101354706D01*
X153079898Y-101399843D01*
X153171321Y-101510443D01*
X153238229Y-101597228D01*
X153285196Y-101668617D01*
X153316796Y-101733028D01*
X153337602Y-101798879D01*
X153352188Y-101874591D01*
X153357477Y-101910759D01*
X153377771Y-102025244D01*
X153405520Y-102110189D01*
X153446679Y-102179446D01*
X153498027Y-102237715D01*
X153616753Y-102327182D01*
X153679926Y-102351193D01*
X153679926Y-101983380D01*
X153687909Y-101937794D01*
X153720947Y-101907038D01*
X153754431Y-101891115D01*
X153852100Y-101866575D01*
X153966644Y-101861396D01*
X154076075Y-101875579D01*
X154124885Y-101891115D01*
X154175528Y-101917929D01*
X154196464Y-101952224D01*
X154200171Y-102000698D01*
X154180814Y-102081256D01*
X154128521Y-102145008D01*
X154051961Y-102187569D01*
X153959804Y-102204554D01*
X153860718Y-102191577D01*
X153837952Y-102183928D01*
X153766221Y-102139671D01*
X153710209Y-102073895D01*
X153681490Y-102001291D01*
X153679926Y-101983380D01*
X153679926Y-102351193D01*
X153761248Y-102382104D01*
X153930483Y-102402100D01*
X153941671Y-102402181D01*
X154089025Y-102389643D01*
X154208746Y-102349193D01*
X154309191Y-102277210D01*
X154361284Y-102220359D01*
X154394827Y-102176085D01*
X154414231Y-102137295D01*
X154422739Y-102090369D01*
X154423593Y-102021686D01*
X154421840Y-101965987D01*
X154419829Y-101877860D01*
X154423331Y-101821056D01*
X154434824Y-101783583D01*
X154456783Y-101753453D01*
X154468190Y-101741631D01*
X154556731Y-101682331D01*
X154667059Y-101653887D01*
X154790040Y-101656672D01*
X154916537Y-101691064D01*
X154960081Y-101711682D01*
X154960081Y-101383330D01*
X154978339Y-101320977D01*
X155026444Y-101249825D01*
X155094791Y-101179198D01*
X155173774Y-101118424D01*
X155253787Y-101076829D01*
X155285625Y-101067269D01*
X155347122Y-101065021D01*
X155392915Y-101077439D01*
X155428785Y-101117704D01*
X155435393Y-101177615D01*
X155416975Y-101249188D01*
X155377763Y-101324442D01*
X155321992Y-101395393D01*
X155253895Y-101454060D01*
X155177706Y-101492459D01*
X155171822Y-101494288D01*
X155096383Y-101501532D01*
X155026643Y-101483300D01*
X154987137Y-101452697D01*
X154964296Y-101407047D01*
X154960081Y-101383330D01*
X154960081Y-101711682D01*
X154979016Y-101720649D01*
X155099665Y-101764142D01*
X155222966Y-101765813D01*
X155344669Y-101726706D01*
X155460524Y-101647866D01*
X155520550Y-101587563D01*
X155603665Y-101464722D01*
X155654233Y-101327584D01*
X155672022Y-101184756D01*
X155656797Y-101044844D01*
X155608327Y-100916455D01*
X155541236Y-100823262D01*
X155511016Y-100787432D01*
X155510037Y-100762523D01*
X155537156Y-100728479D01*
X155593161Y-100679959D01*
X155669203Y-100630933D01*
X155750636Y-100589237D01*
X155822815Y-100562704D01*
X155857183Y-100557298D01*
X155920889Y-100575839D01*
X155984667Y-100623896D01*
X156035681Y-100689529D01*
X156058129Y-100744270D01*
X156099845Y-100830985D01*
X156175079Y-100901240D01*
X156181922Y-100904693D01*
X156181922Y-100482257D01*
X156193846Y-100419001D01*
X156243115Y-100366545D01*
X156262564Y-100355232D01*
X156331917Y-100333034D01*
X156424067Y-100321255D01*
X156525952Y-100319493D01*
X156624511Y-100327347D01*
X156706683Y-100344416D01*
X156759408Y-100370299D01*
X156759632Y-100370502D01*
X156798424Y-100425530D01*
X156797689Y-100488068D01*
X156758872Y-100561319D01*
X156678073Y-100643285D01*
X156580225Y-100693554D01*
X156475237Y-100709260D01*
X156373020Y-100687538D01*
X156353751Y-100678434D01*
X156263522Y-100617814D01*
X156205697Y-100550475D01*
X156181922Y-100482257D01*
X156181922Y-100904693D01*
X156276135Y-100952236D01*
X156395316Y-100981172D01*
X156524926Y-100985248D01*
X156656346Y-100961932D01*
X156804579Y-100899356D01*
X156925528Y-100807961D01*
X157015098Y-100692268D01*
X157069190Y-100556793D01*
X157080450Y-100494190D01*
X157090201Y-100428873D01*
X157103863Y-100396002D01*
X157128307Y-100384707D01*
X157150246Y-100383758D01*
X157224486Y-100391265D01*
X157315882Y-100410084D01*
X157407445Y-100435737D01*
X157482187Y-100463747D01*
X157510019Y-100478568D01*
X157555114Y-100530551D01*
X157562303Y-100600265D01*
X157531574Y-100684244D01*
X157510855Y-100717850D01*
X157466337Y-100819756D01*
X157458608Y-100933069D01*
X157484794Y-101051527D01*
X157542022Y-101168869D01*
X157627417Y-101278834D01*
X157721686Y-101360872D01*
X157721686Y-100936039D01*
X157732125Y-100840426D01*
X157747635Y-100799810D01*
X157796328Y-100737522D01*
X157857704Y-100716106D01*
X157933162Y-100735327D01*
X157978189Y-100761142D01*
X158028880Y-100798141D01*
X158059895Y-100827433D01*
X158064444Y-100836188D01*
X158083165Y-100852963D01*
X158130027Y-100873293D01*
X158150304Y-100879877D01*
X158255897Y-100925574D01*
X158327908Y-100987174D01*
X158363252Y-101060517D01*
X158358842Y-101141447D01*
X158354272Y-101154741D01*
X158317014Y-101196544D01*
X158248674Y-101227412D01*
X158160538Y-101245902D01*
X158063892Y-101250572D01*
X157970022Y-101239981D01*
X157892312Y-101213770D01*
X157829987Y-101172234D01*
X157778881Y-101122453D01*
X157775951Y-101118591D01*
X157736873Y-101035271D01*
X157721686Y-100936039D01*
X157721686Y-101360872D01*
X157738106Y-101375162D01*
X157841044Y-101437251D01*
X157915704Y-101471159D01*
X157982568Y-101490485D01*
X158059910Y-101499108D01*
X158140878Y-101500904D01*
X158240543Y-101498541D01*
X158313780Y-101488545D01*
X158377356Y-101467676D01*
X158421628Y-101446649D01*
X158492431Y-101401378D01*
X158547842Y-101349962D01*
X158563987Y-101327247D01*
X158606880Y-101271223D01*
X158656565Y-101230624D01*
X158694661Y-101213266D01*
X158730168Y-101212874D01*
X158779543Y-101231118D01*
X158811734Y-101246369D01*
X158919081Y-101321423D01*
X159003645Y-101426398D01*
X159059606Y-101551246D01*
X159081141Y-101685919D01*
X159080893Y-101710946D01*
X159098015Y-101803766D01*
X159152425Y-101886759D01*
X159238001Y-101951034D01*
X159250412Y-101957227D01*
X159264365Y-101962280D01*
X159264365Y-101520878D01*
X159272254Y-101445792D01*
X159276391Y-101435951D01*
X159318730Y-101386035D01*
X159393531Y-101338178D01*
X159489924Y-101297175D01*
X159597038Y-101267820D01*
X159684756Y-101255837D01*
X159817973Y-101247051D01*
X159844213Y-101326559D01*
X159857314Y-101431050D01*
X159831841Y-101533635D01*
X159772050Y-101625295D01*
X159682202Y-101697012D01*
X159664982Y-101706204D01*
X159587293Y-101735900D01*
X159518156Y-101737258D01*
X159444415Y-101708417D01*
X159377863Y-101665632D01*
X159299506Y-101594016D01*
X159264365Y-101520878D01*
X159264365Y-101962280D01*
X159306742Y-101977627D01*
X159373870Y-101987190D01*
X159465405Y-101987427D01*
X159505925Y-101985575D01*
X159679048Y-101960595D01*
X159831954Y-101907262D01*
X159871667Y-101882856D01*
X159871667Y-99935934D01*
X159884868Y-99839623D01*
X159886414Y-99834738D01*
X159918650Y-99768269D01*
X159959933Y-99740899D01*
X160012197Y-99752924D01*
X160077373Y-99804637D01*
X160138913Y-99873320D01*
X160185806Y-99935976D01*
X160206862Y-99982505D01*
X160207752Y-100026653D01*
X160206076Y-100036073D01*
X160164329Y-100142283D01*
X160090111Y-100228931D01*
X160054376Y-100254448D01*
X159993062Y-100281136D01*
X159950154Y-100271062D01*
X159919376Y-100221492D01*
X159909432Y-100191302D01*
X159880106Y-100057044D01*
X159871667Y-99935934D01*
X159871667Y-101882856D01*
X159959749Y-101828726D01*
X160057535Y-101728138D01*
X160120419Y-101608648D01*
X160127630Y-101585461D01*
X160146263Y-101446069D01*
X160131768Y-101294468D01*
X160087207Y-101142438D01*
X160015645Y-101001753D01*
X159954565Y-100920214D01*
X159911605Y-100865414D01*
X159894953Y-100822196D01*
X159898335Y-100773447D01*
X159899190Y-100769238D01*
X159920600Y-100697934D01*
X159956218Y-100641037D01*
X160013903Y-100590630D01*
X160101514Y-100538794D01*
X160154387Y-100512114D01*
X160277924Y-100447191D01*
X160365912Y-100386768D01*
X160424222Y-100322333D01*
X160458728Y-100245369D01*
X160475302Y-100147365D01*
X160479683Y-100040484D01*
X160471894Y-99914265D01*
X160441774Y-99809187D01*
X160383455Y-99710771D01*
X160311881Y-99626385D01*
X160180950Y-99517403D01*
X160027377Y-99444726D01*
X159881262Y-99412851D01*
X159803179Y-99399671D01*
X159759213Y-99377559D01*
X159740075Y-99338668D01*
X159736401Y-99290444D01*
X159745092Y-99228549D01*
X159775132Y-99169140D01*
X159831419Y-99106262D01*
X159918852Y-99033964D01*
X159989683Y-98982614D01*
X160107749Y-98895434D01*
X160190920Y-98820559D01*
X160242813Y-98750244D01*
X160267045Y-98676745D01*
X160267232Y-98592315D01*
X160246992Y-98489210D01*
X160237221Y-98452555D01*
X160202203Y-98348240D01*
X160157388Y-98265295D01*
X160095293Y-98195854D01*
X160008440Y-98132052D01*
X159889345Y-98066022D01*
X159851858Y-98047362D01*
X159737041Y-97987003D01*
X159658606Y-97934082D01*
X159611544Y-97882919D01*
X159590844Y-97827838D01*
X159591499Y-97763160D01*
X159592885Y-97753792D01*
X159598797Y-97699177D01*
X159590354Y-97675047D01*
X159564815Y-97669744D01*
X159532746Y-97684818D01*
X159507355Y-97731561D01*
X159488277Y-97812252D01*
X159475144Y-97929172D01*
X159467589Y-98084601D01*
X159465245Y-98280820D01*
X159465253Y-98288462D01*
X159466007Y-98409273D01*
X159468542Y-98516043D01*
X159473813Y-98614971D01*
X159482776Y-98712257D01*
X159496388Y-98814101D01*
X159515605Y-98926702D01*
X159541384Y-99056261D01*
X159574679Y-99208977D01*
X159585295Y-99255251D01*
X159585295Y-98398796D01*
X159593004Y-98312532D01*
X159609884Y-98253010D01*
X159613312Y-98247116D01*
X159650980Y-98210339D01*
X159695584Y-98209066D01*
X159750866Y-98244598D01*
X159820565Y-98318232D01*
X159821576Y-98319437D01*
X159885856Y-98405615D01*
X159917975Y-98477245D01*
X159920834Y-98545387D01*
X159899432Y-98616151D01*
X159848742Y-98710258D01*
X159791674Y-98771214D01*
X159732927Y-98796792D01*
X159677199Y-98784769D01*
X159634576Y-98741607D01*
X159611398Y-98683208D01*
X159595072Y-98597618D01*
X159586177Y-98498319D01*
X159585295Y-98398796D01*
X159585295Y-99255251D01*
X159616449Y-99391050D01*
X159667648Y-99608680D01*
X159671179Y-99623590D01*
X159726674Y-99860953D01*
X159771385Y-100060808D01*
X159805746Y-100227592D01*
X159830189Y-100365742D01*
X159845147Y-100479696D01*
X159851052Y-100573890D01*
X159848337Y-100652762D01*
X159837435Y-100720748D01*
X159818777Y-100782287D01*
X159792798Y-100841814D01*
X159790413Y-100846628D01*
X159711996Y-100970365D01*
X159612152Y-101077238D01*
X159498632Y-101162205D01*
X159379189Y-101220224D01*
X159261575Y-101246252D01*
X159182090Y-101242300D01*
X159105190Y-101220093D01*
X158997605Y-101177818D01*
X158865423Y-101118487D01*
X158714732Y-101045114D01*
X158551621Y-100960714D01*
X158382180Y-100868300D01*
X158212496Y-100770886D01*
X158129573Y-100721311D01*
X157910395Y-100590222D01*
X157721545Y-100481548D01*
X157557876Y-100392672D01*
X157414239Y-100320975D01*
X157285488Y-100263839D01*
X157166475Y-100218646D01*
X157096287Y-100195771D01*
X157009121Y-100170678D01*
X156933353Y-100153811D01*
X156856094Y-100143612D01*
X156764457Y-100138523D01*
X156645552Y-100136987D01*
X156609914Y-100136975D01*
X156466359Y-100140278D01*
X156335119Y-100151343D01*
X156212583Y-100172435D01*
X156095140Y-100205815D01*
X155979178Y-100253745D01*
X155861087Y-100318489D01*
X155737255Y-100402308D01*
X155604072Y-100507466D01*
X155457926Y-100636225D01*
X155295206Y-100790846D01*
X155112301Y-100973594D01*
X154905600Y-101186730D01*
X154862308Y-101231926D01*
X154762860Y-101334805D01*
X154684686Y-101411992D01*
X154619854Y-101469926D01*
X154560435Y-101515045D01*
X154498498Y-101553788D01*
X154426113Y-101592593D01*
X154404752Y-101603412D01*
X154196439Y-101690449D01*
X153998500Y-101736135D01*
X153808543Y-101740620D01*
X153624177Y-101704054D01*
X153508623Y-101659457D01*
X153418269Y-101604290D01*
X153316150Y-101519809D01*
X153210813Y-101415075D01*
X153110807Y-101299149D01*
X153024681Y-101181089D01*
X152970374Y-101088975D01*
X152883958Y-100903067D01*
X152816981Y-100716866D01*
X152767223Y-100520850D01*
X152732463Y-100305494D01*
X152710480Y-100061276D01*
X152704585Y-99949231D01*
X152688967Y-99591026D01*
X152651268Y-99673911D01*
X152629048Y-99731611D01*
X152600924Y-99817160D01*
X152571466Y-99916270D01*
X152557520Y-99966988D01*
X152537136Y-100046042D01*
X152522721Y-100112596D01*
X152513552Y-100176362D01*
X152508907Y-100247050D01*
X152508062Y-100334373D01*
X152508062Y-100334373D01*
G36*
X157072414Y-101648953D02*
X157078642Y-101658065D01*
X157114637Y-101684307D01*
X157182938Y-101729988D01*
X157250585Y-101774281D01*
X157328518Y-101827175D01*
X157430222Y-101899192D01*
X157545224Y-101982758D01*
X157663051Y-102070301D01*
X157727949Y-102119449D01*
X157942670Y-102280443D01*
X158131155Y-102414351D01*
X158298985Y-102523634D01*
X158451739Y-102610751D01*
X158594997Y-102678164D01*
X158734338Y-102728333D01*
X158875343Y-102763718D01*
X159023592Y-102786779D01*
X159184663Y-102799977D01*
X159280171Y-102803906D01*
X159402431Y-102805708D01*
X159521949Y-102804206D01*
X159625435Y-102799765D01*
X159699601Y-102792752D01*
X159702659Y-102792284D01*
X159986498Y-102727805D01*
X160246112Y-102627481D01*
X160482572Y-102490758D01*
X160696944Y-102317080D01*
X160780158Y-102233509D01*
X160984886Y-101987752D01*
X161147377Y-101732425D01*
X161267575Y-101467647D01*
X161345423Y-101193538D01*
X161377834Y-100959043D01*
X161378955Y-100761286D01*
X161355528Y-100529156D01*
X161307836Y-100263894D01*
X161236165Y-99966743D01*
X161140802Y-99638946D01*
X161022029Y-99281743D01*
X160941624Y-99059146D01*
X160922493Y-99001355D01*
X160895951Y-98912777D01*
X160865269Y-98804707D01*
X160833720Y-98688441D01*
X160828428Y-98668376D01*
X160796139Y-98540143D01*
X160773484Y-98433456D01*
X160758318Y-98333174D01*
X160748495Y-98224157D01*
X160741871Y-98091264D01*
X160740238Y-98046007D01*
X160735142Y-97916934D01*
X160729625Y-97825900D01*
X160722995Y-97767525D01*
X160714558Y-97736431D01*
X160703621Y-97727237D01*
X160699285Y-97728116D01*
X160683483Y-97755769D01*
X160673530Y-97820216D01*
X160669492Y-97915216D01*
X160671434Y-98034532D01*
X160679425Y-98171925D01*
X160693004Y-98316454D01*
X160701489Y-98380040D01*
X160713876Y-98447958D01*
X160731599Y-98525214D01*
X160756092Y-98616815D01*
X160788791Y-98727765D01*
X160831128Y-98863071D01*
X160884538Y-99027738D01*
X160950456Y-99226773D01*
X160974228Y-99297949D01*
X161056178Y-99544770D01*
X161124598Y-99755863D01*
X161180668Y-99936351D01*
X161225567Y-100091358D01*
X161260476Y-100226006D01*
X161286573Y-100345420D01*
X161305038Y-100454723D01*
X161317050Y-100559037D01*
X161323790Y-100663487D01*
X161326437Y-100773195D01*
X161326601Y-100828462D01*
X161322095Y-101016789D01*
X161307934Y-101174327D01*
X161281827Y-101313076D01*
X161241483Y-101445037D01*
X161184611Y-101582209D01*
X161181349Y-101589296D01*
X161075407Y-101785035D01*
X160942598Y-101977202D01*
X160790941Y-102156531D01*
X160628456Y-102313756D01*
X160463162Y-102439613D01*
X160424431Y-102463842D01*
X160188281Y-102587989D01*
X159952076Y-102675891D01*
X159705787Y-102730230D01*
X159439385Y-102753684D01*
X159334444Y-102755074D01*
X159177015Y-102750617D01*
X159032950Y-102737166D01*
X158896888Y-102712420D01*
X158763471Y-102674080D01*
X158627338Y-102619844D01*
X158483131Y-102547411D01*
X158325490Y-102454482D01*
X158149056Y-102338754D01*
X157948469Y-102197928D01*
X157821144Y-102105451D01*
X157635766Y-101972965D01*
X157467819Y-101859732D01*
X157321441Y-101768379D01*
X157200771Y-101701529D01*
X157139105Y-101672883D01*
X157093415Y-101654663D01*
X157072414Y-101648953D01*
X157072414Y-101648953D01*
X157072414Y-101648953D01*
G37*
X157072414Y-101648953D02*
X157078642Y-101658065D01*
X157114637Y-101684307D01*
X157182938Y-101729988D01*
X157250585Y-101774281D01*
X157328518Y-101827175D01*
X157430222Y-101899192D01*
X157545224Y-101982758D01*
X157663051Y-102070301D01*
X157727949Y-102119449D01*
X157942670Y-102280443D01*
X158131155Y-102414351D01*
X158298985Y-102523634D01*
X158451739Y-102610751D01*
X158594997Y-102678164D01*
X158734338Y-102728333D01*
X158875343Y-102763718D01*
X159023592Y-102786779D01*
X159184663Y-102799977D01*
X159280171Y-102803906D01*
X159402431Y-102805708D01*
X159521949Y-102804206D01*
X159625435Y-102799765D01*
X159699601Y-102792752D01*
X159702659Y-102792284D01*
X159986498Y-102727805D01*
X160246112Y-102627481D01*
X160482572Y-102490758D01*
X160696944Y-102317080D01*
X160780158Y-102233509D01*
X160984886Y-101987752D01*
X161147377Y-101732425D01*
X161267575Y-101467647D01*
X161345423Y-101193538D01*
X161377834Y-100959043D01*
X161378955Y-100761286D01*
X161355528Y-100529156D01*
X161307836Y-100263894D01*
X161236165Y-99966743D01*
X161140802Y-99638946D01*
X161022029Y-99281743D01*
X160941624Y-99059146D01*
X160922493Y-99001355D01*
X160895951Y-98912777D01*
X160865269Y-98804707D01*
X160833720Y-98688441D01*
X160828428Y-98668376D01*
X160796139Y-98540143D01*
X160773484Y-98433456D01*
X160758318Y-98333174D01*
X160748495Y-98224157D01*
X160741871Y-98091264D01*
X160740238Y-98046007D01*
X160735142Y-97916934D01*
X160729625Y-97825900D01*
X160722995Y-97767525D01*
X160714558Y-97736431D01*
X160703621Y-97727237D01*
X160699285Y-97728116D01*
X160683483Y-97755769D01*
X160673530Y-97820216D01*
X160669492Y-97915216D01*
X160671434Y-98034532D01*
X160679425Y-98171925D01*
X160693004Y-98316454D01*
X160701489Y-98380040D01*
X160713876Y-98447958D01*
X160731599Y-98525214D01*
X160756092Y-98616815D01*
X160788791Y-98727765D01*
X160831128Y-98863071D01*
X160884538Y-99027738D01*
X160950456Y-99226773D01*
X160974228Y-99297949D01*
X161056178Y-99544770D01*
X161124598Y-99755863D01*
X161180668Y-99936351D01*
X161225567Y-100091358D01*
X161260476Y-100226006D01*
X161286573Y-100345420D01*
X161305038Y-100454723D01*
X161317050Y-100559037D01*
X161323790Y-100663487D01*
X161326437Y-100773195D01*
X161326601Y-100828462D01*
X161322095Y-101016789D01*
X161307934Y-101174327D01*
X161281827Y-101313076D01*
X161241483Y-101445037D01*
X161184611Y-101582209D01*
X161181349Y-101589296D01*
X161075407Y-101785035D01*
X160942598Y-101977202D01*
X160790941Y-102156531D01*
X160628456Y-102313756D01*
X160463162Y-102439613D01*
X160424431Y-102463842D01*
X160188281Y-102587989D01*
X159952076Y-102675891D01*
X159705787Y-102730230D01*
X159439385Y-102753684D01*
X159334444Y-102755074D01*
X159177015Y-102750617D01*
X159032950Y-102737166D01*
X158896888Y-102712420D01*
X158763471Y-102674080D01*
X158627338Y-102619844D01*
X158483131Y-102547411D01*
X158325490Y-102454482D01*
X158149056Y-102338754D01*
X157948469Y-102197928D01*
X157821144Y-102105451D01*
X157635766Y-101972965D01*
X157467819Y-101859732D01*
X157321441Y-101768379D01*
X157200771Y-101701529D01*
X157139105Y-101672883D01*
X157093415Y-101654663D01*
X157072414Y-101648953D01*
X157072414Y-101648953D01*
G36*
X157022393Y-101631710D02*
X157033248Y-101642564D01*
X157044103Y-101631710D01*
X157033248Y-101620855D01*
X157022393Y-101631710D01*
X157022393Y-101631710D01*
X157022393Y-101631710D01*
G37*
X157022393Y-101631710D02*
X157033248Y-101642564D01*
X157044103Y-101631710D01*
X157033248Y-101620855D01*
X157022393Y-101631710D01*
X157022393Y-101631710D01*
G36*
X153115904Y-100084644D02*
X153122818Y-100138117D01*
X153133676Y-100153781D01*
X153152836Y-100149221D01*
X153158120Y-100116062D01*
X153172867Y-100027541D01*
X153215414Y-99914183D01*
X153283221Y-99782211D01*
X153319094Y-99721962D01*
X153394596Y-99596659D01*
X153447670Y-99499768D01*
X153481271Y-99424473D01*
X153498355Y-99363961D01*
X153501876Y-99311416D01*
X153501262Y-99301851D01*
X153491741Y-99250067D01*
X153476603Y-99223075D01*
X153472906Y-99221966D01*
X153445944Y-99240480D01*
X153406308Y-99290576D01*
X153358792Y-99364087D01*
X153308191Y-99452847D01*
X153259299Y-99548686D01*
X153216909Y-99643439D01*
X153200027Y-99686828D01*
X153164687Y-99796580D01*
X153138067Y-99905231D01*
X153121397Y-100004134D01*
X153115904Y-100084644D01*
X153115904Y-100084644D01*
X153115904Y-100084644D01*
G37*
X153115904Y-100084644D02*
X153122818Y-100138117D01*
X153133676Y-100153781D01*
X153152836Y-100149221D01*
X153158120Y-100116062D01*
X153172867Y-100027541D01*
X153215414Y-99914183D01*
X153283221Y-99782211D01*
X153319094Y-99721962D01*
X153394596Y-99596659D01*
X153447670Y-99499768D01*
X153481271Y-99424473D01*
X153498355Y-99363961D01*
X153501876Y-99311416D01*
X153501262Y-99301851D01*
X153491741Y-99250067D01*
X153476603Y-99223075D01*
X153472906Y-99221966D01*
X153445944Y-99240480D01*
X153406308Y-99290576D01*
X153358792Y-99364087D01*
X153308191Y-99452847D01*
X153259299Y-99548686D01*
X153216909Y-99643439D01*
X153200027Y-99686828D01*
X153164687Y-99796580D01*
X153138067Y-99905231D01*
X153121397Y-100004134D01*
X153115904Y-100084644D01*
X153115904Y-100084644D01*
G36*
X151952609Y-99237214D02*
X151953780Y-99262026D01*
X151972879Y-99288117D01*
X152012956Y-99335038D01*
X152044006Y-99390213D01*
X152068248Y-99461252D01*
X152087900Y-99555766D01*
X152105179Y-99681363D01*
X152115652Y-99777973D01*
X152128807Y-99896095D01*
X152141136Y-99976996D01*
X152154194Y-100026811D01*
X152169533Y-100051671D01*
X152186530Y-100057778D01*
X152197356Y-100036670D01*
X152201047Y-99974606D01*
X152197497Y-99873477D01*
X152197151Y-99867821D01*
X152165073Y-99644883D01*
X152125480Y-99510971D01*
X152085773Y-99412367D01*
X152044233Y-99329396D01*
X152005020Y-99268647D01*
X151972296Y-99236710D01*
X151952609Y-99237214D01*
X151952609Y-99237214D01*
X151952609Y-99237214D01*
G37*
X151952609Y-99237214D02*
X151953780Y-99262026D01*
X151972879Y-99288117D01*
X152012956Y-99335038D01*
X152044006Y-99390213D01*
X152068248Y-99461252D01*
X152087900Y-99555766D01*
X152105179Y-99681363D01*
X152115652Y-99777973D01*
X152128807Y-99896095D01*
X152141136Y-99976996D01*
X152154194Y-100026811D01*
X152169533Y-100051671D01*
X152186530Y-100057778D01*
X152197356Y-100036670D01*
X152201047Y-99974606D01*
X152197497Y-99873477D01*
X152197151Y-99867821D01*
X152165073Y-99644883D01*
X152125480Y-99510971D01*
X152085773Y-99412367D01*
X152044233Y-99329396D01*
X152005020Y-99268647D01*
X151972296Y-99236710D01*
X151952609Y-99237214D01*
X151952609Y-99237214D01*
G36*
X158246496Y-95187848D02*
X158249464Y-95195664D01*
X158277599Y-95209048D01*
X158331344Y-95216207D01*
X158347640Y-95216582D01*
X158405496Y-95221656D01*
X158444926Y-95243968D01*
X158484080Y-95294148D01*
X158486628Y-95297992D01*
X158530829Y-95383164D01*
X158567167Y-95494947D01*
X158596801Y-95638235D01*
X158620889Y-95817925D01*
X158629170Y-95900428D01*
X158647814Y-96061283D01*
X158672895Y-96218990D01*
X158702422Y-96364045D01*
X158734408Y-96486947D01*
X158762229Y-96565159D01*
X158762229Y-95988158D01*
X158764710Y-95785913D01*
X158785491Y-95586625D01*
X158824263Y-95400730D01*
X158880722Y-95238661D01*
X158906453Y-95186043D01*
X158961875Y-95104122D01*
X159027629Y-95038278D01*
X159094459Y-94995813D01*
X159153103Y-94984035D01*
X159160768Y-94985402D01*
X159204514Y-94996851D01*
X159273272Y-95015618D01*
X159334444Y-95032672D01*
X159422938Y-95052106D01*
X159520892Y-95061290D01*
X159642752Y-95061333D01*
X159686642Y-95059707D01*
X159793627Y-95053717D01*
X159872178Y-95044382D01*
X159937278Y-95028237D01*
X160003910Y-95001819D01*
X160066556Y-94971867D01*
X160156690Y-94921362D01*
X160244272Y-94862543D01*
X160311085Y-94807703D01*
X160313769Y-94805072D01*
X160345847Y-94773231D01*
X160345847Y-93858643D01*
X160357643Y-93804822D01*
X160402499Y-93739198D01*
X160402619Y-93739056D01*
X160494239Y-93662258D01*
X160608241Y-93619123D01*
X160739908Y-93609388D01*
X160884526Y-93632791D01*
X161037377Y-93689069D01*
X161193747Y-93777960D01*
X161201978Y-93783532D01*
X161281442Y-93844856D01*
X161372693Y-93926413D01*
X161467608Y-94019684D01*
X161558067Y-94116152D01*
X161635947Y-94207298D01*
X161693128Y-94284604D01*
X161714004Y-94320557D01*
X161757346Y-94444612D01*
X161773306Y-94572849D01*
X161760172Y-94689294D01*
X161755263Y-94705742D01*
X161711331Y-94794348D01*
X161644554Y-94879630D01*
X161568125Y-94946325D01*
X161527498Y-94969234D01*
X161423495Y-94995126D01*
X161296847Y-94996108D01*
X161159969Y-94972883D01*
X161066199Y-94943167D01*
X160960490Y-94902102D01*
X160888906Y-94871507D01*
X160844907Y-94846634D01*
X160821956Y-94822733D01*
X160813511Y-94795057D01*
X160813021Y-94759317D01*
X160829621Y-94689180D01*
X160873913Y-94595325D01*
X160909113Y-94535927D01*
X160964887Y-94438978D01*
X160997101Y-94358744D01*
X161011711Y-94280101D01*
X161012250Y-94274011D01*
X161015280Y-94203800D01*
X161005789Y-94157989D01*
X160977943Y-94118076D01*
X160955802Y-94095040D01*
X160920139Y-94063639D01*
X160880158Y-94041023D01*
X160825306Y-94023505D01*
X160745029Y-94007398D01*
X160670538Y-93995370D01*
X160529459Y-93969024D01*
X160429693Y-93938771D01*
X160369177Y-93902635D01*
X160345847Y-93858643D01*
X160345847Y-94773231D01*
X160387350Y-94732035D01*
X160387350Y-94210459D01*
X160402563Y-94151516D01*
X160430769Y-94109402D01*
X160493896Y-94073837D01*
X160571322Y-94070280D01*
X160655096Y-94093453D01*
X160737267Y-94138080D01*
X160809883Y-94198883D01*
X160864994Y-94270586D01*
X160894649Y-94347910D01*
X160893371Y-94416431D01*
X160870375Y-94462925D01*
X160826235Y-94520416D01*
X160771591Y-94577996D01*
X160717085Y-94624756D01*
X160673356Y-94649788D01*
X160664145Y-94651427D01*
X160631877Y-94647344D01*
X160626154Y-94642247D01*
X160637251Y-94619919D01*
X160665237Y-94575161D01*
X160680427Y-94552379D01*
X160726685Y-94455467D01*
X160729926Y-94364396D01*
X160690149Y-94279098D01*
X160672970Y-94258092D01*
X160602632Y-94204500D01*
X160526512Y-94188465D01*
X160453991Y-94211131D01*
X160431049Y-94228550D01*
X160399464Y-94254237D01*
X160388572Y-94245708D01*
X160387350Y-94210459D01*
X160387350Y-94732035D01*
X160403008Y-94716493D01*
X160641879Y-94876088D01*
X160748790Y-94943705D01*
X160860657Y-95008080D01*
X160963834Y-95061705D01*
X161041102Y-95095751D01*
X161211851Y-95144903D01*
X161386790Y-95168631D01*
X161552737Y-95165944D01*
X161673051Y-95143279D01*
X161755655Y-95125825D01*
X161826996Y-95127616D01*
X161890179Y-95152032D01*
X161948307Y-95202451D01*
X162004485Y-95282253D01*
X162061816Y-95394817D01*
X162123405Y-95543520D01*
X162178979Y-95693999D01*
X162214706Y-95796463D01*
X162237421Y-95872109D01*
X162249350Y-95934773D01*
X162252724Y-95998291D01*
X162249770Y-96076500D01*
X162247160Y-96117332D01*
X162217652Y-96371180D01*
X162163414Y-96592020D01*
X162081404Y-96784455D01*
X161968583Y-96953090D01*
X161821911Y-97102528D01*
X161638349Y-97237373D01*
X161430258Y-97354527D01*
X161174832Y-97459929D01*
X160900050Y-97530656D01*
X160613987Y-97565684D01*
X160324718Y-97563992D01*
X160057843Y-97528157D01*
X159834625Y-97466261D01*
X159632410Y-97372703D01*
X159444280Y-97243546D01*
X159265738Y-97077408D01*
X159069399Y-96841804D01*
X158908036Y-96586716D01*
X158867639Y-96508291D01*
X158813386Y-96359782D01*
X158778352Y-96182926D01*
X158762229Y-95988158D01*
X158762229Y-96565159D01*
X158766865Y-96578192D01*
X158774280Y-96593886D01*
X158800197Y-96637803D01*
X158845182Y-96706946D01*
X158902689Y-96791481D01*
X158960224Y-96873268D01*
X159048795Y-97002110D01*
X159111305Y-97109355D01*
X159150369Y-97206012D01*
X159168601Y-97303088D01*
X159168616Y-97411591D01*
X159153026Y-97542528D01*
X159139060Y-97626325D01*
X159116422Y-97780054D01*
X159107436Y-97902240D01*
X159111209Y-97991259D01*
X159126847Y-98045489D01*
X159153455Y-98063305D01*
X159190141Y-98043085D01*
X159236010Y-97983205D01*
X159263922Y-97931669D01*
X159263922Y-97636671D01*
X159264449Y-97569261D01*
X159265708Y-97557494D01*
X159280919Y-97487919D01*
X159306744Y-97421496D01*
X159337594Y-97367987D01*
X159367882Y-97337152D01*
X159391342Y-97338043D01*
X159395765Y-97367372D01*
X159389011Y-97424660D01*
X159373978Y-97496792D01*
X159353564Y-97570652D01*
X159330668Y-97633126D01*
X159322314Y-97650419D01*
X159295966Y-97682358D01*
X159275465Y-97676073D01*
X159263922Y-97636671D01*
X159263922Y-97931669D01*
X159285374Y-97892062D01*
X159329242Y-97806054D01*
X159373072Y-97728052D01*
X159408887Y-97672070D01*
X159415631Y-97663186D01*
X159442790Y-97631770D01*
X159468560Y-97615197D01*
X159505300Y-97611075D01*
X159565367Y-97617008D01*
X159616667Y-97624245D01*
X159870057Y-97656250D01*
X160112842Y-97678215D01*
X160338383Y-97689899D01*
X160540044Y-97691061D01*
X160711185Y-97681460D01*
X160812124Y-97667685D01*
X160910072Y-97644213D01*
X161014707Y-97611172D01*
X161062220Y-97592920D01*
X161215351Y-97540723D01*
X161343079Y-97523621D01*
X161445550Y-97541602D01*
X161479192Y-97558426D01*
X161538299Y-97604121D01*
X161538299Y-97475131D01*
X161594080Y-97438582D01*
X161663402Y-97415498D01*
X161732735Y-97434031D01*
X161797462Y-97492624D01*
X161811317Y-97511759D01*
X161845470Y-97571869D01*
X161887279Y-97659130D01*
X161931994Y-97761882D01*
X161974862Y-97868466D01*
X162011133Y-97967224D01*
X162036054Y-98046496D01*
X162044013Y-98082738D01*
X162055666Y-98131208D01*
X162080062Y-98209926D01*
X162113863Y-98308807D01*
X162153733Y-98417768D01*
X162162548Y-98440943D01*
X162203346Y-98549539D01*
X162239208Y-98648860D01*
X162266748Y-98729249D01*
X162282578Y-98781049D01*
X162284181Y-98787778D01*
X162297916Y-98852906D01*
X162262127Y-98787778D01*
X162218569Y-98725399D01*
X162176503Y-98702777D01*
X162133667Y-98720706D01*
X162087799Y-98779978D01*
X162044461Y-98864066D01*
X162004089Y-98944983D01*
X161975672Y-98984930D01*
X161958385Y-98984435D01*
X161951402Y-98944023D01*
X161951201Y-98923462D01*
X161956826Y-98863184D01*
X161970514Y-98782029D01*
X161983426Y-98722650D01*
X162010229Y-98520836D01*
X161996276Y-98312915D01*
X161942886Y-98103486D01*
X161851382Y-97897146D01*
X161723085Y-97698496D01*
X161670155Y-97632138D01*
X161538299Y-97475131D01*
X161538299Y-97604121D01*
X161569267Y-97628063D01*
X161662643Y-97723151D01*
X161746347Y-97828885D01*
X161807409Y-97930462D01*
X161810002Y-97935957D01*
X161849954Y-98032221D01*
X161877849Y-98127233D01*
X161894905Y-98230512D01*
X161902344Y-98351580D01*
X161901386Y-98499957D01*
X161896907Y-98614103D01*
X161889635Y-98771233D01*
X161884953Y-98891538D01*
X161883113Y-98981552D01*
X161884366Y-99047805D01*
X161888963Y-99096829D01*
X161897157Y-99135156D01*
X161909199Y-99169318D01*
X161919168Y-99192295D01*
X161955776Y-99249707D01*
X161995305Y-99275595D01*
X162029912Y-99266887D01*
X162045797Y-99241900D01*
X162053719Y-99200315D01*
X162058418Y-99135199D01*
X162058974Y-99104028D01*
X162065379Y-99013672D01*
X162082469Y-98936860D01*
X162107056Y-98883565D01*
X162135767Y-98863761D01*
X162156460Y-98883964D01*
X162183698Y-98940572D01*
X162214709Y-99027581D01*
X162221615Y-99049722D01*
X162253368Y-99143789D01*
X162280595Y-99204411D01*
X162301358Y-99227431D01*
X162304339Y-99227236D01*
X162324522Y-99201622D01*
X162346978Y-99143900D01*
X162368941Y-99065087D01*
X162387643Y-98976199D01*
X162400317Y-98888254D01*
X162404198Y-98829710D01*
X162389633Y-98677822D01*
X162343021Y-98535548D01*
X162271265Y-98419547D01*
X162202825Y-98303936D01*
X162175416Y-98213308D01*
X162149088Y-98113258D01*
X162103837Y-97976537D01*
X162040390Y-97805191D01*
X161959470Y-97601269D01*
X161954195Y-97588334D01*
X161930214Y-97526848D01*
X161916243Y-97485466D01*
X161914763Y-97474359D01*
X161931043Y-97489726D01*
X161933381Y-97492305D01*
X161933381Y-97254846D01*
X161933452Y-97199262D01*
X161952456Y-97165189D01*
X161971446Y-97159573D01*
X162004665Y-97178663D01*
X162040775Y-97227507D01*
X162073288Y-97293464D01*
X162095716Y-97363894D01*
X162102036Y-97413977D01*
X162096616Y-97467315D01*
X162078433Y-97482974D01*
X162045553Y-97460497D01*
X161996046Y-97399431D01*
X161987040Y-97386878D01*
X161951494Y-97321024D01*
X161933381Y-97254846D01*
X161933381Y-97492305D01*
X161968098Y-97530607D01*
X162018893Y-97589169D01*
X162036428Y-97609806D01*
X162114699Y-97699602D01*
X162175353Y-97761280D01*
X162219152Y-97793096D01*
X162246860Y-97793303D01*
X162259239Y-97760156D01*
X162257054Y-97691910D01*
X162241067Y-97586819D01*
X162212041Y-97443137D01*
X162177293Y-97287636D01*
X162148255Y-97151971D01*
X162132176Y-97048038D01*
X162129236Y-96966072D01*
X162139613Y-96896307D01*
X162163486Y-96828981D01*
X162186579Y-96781416D01*
X162233465Y-96679786D01*
X162269256Y-96572849D01*
X162295608Y-96452106D01*
X162314178Y-96309058D01*
X162326620Y-96135207D01*
X162330788Y-96041337D01*
X162340991Y-95833645D01*
X162354637Y-95664505D01*
X162372331Y-95529144D01*
X162394677Y-95422790D01*
X162418338Y-95350231D01*
X162443879Y-95298110D01*
X162475228Y-95275704D01*
X162529686Y-95270856D01*
X162531322Y-95270855D01*
X162585872Y-95266655D01*
X162608963Y-95249959D01*
X162612564Y-95227436D01*
X162594342Y-95191578D01*
X162546160Y-95144770D01*
X162477743Y-95093676D01*
X162398814Y-95044961D01*
X162319100Y-95005289D01*
X162256147Y-94983181D01*
X162187543Y-94973274D01*
X162153851Y-94987996D01*
X162154581Y-95028353D01*
X162189238Y-95095352D01*
X162196062Y-95105848D01*
X162235942Y-95179144D01*
X162261807Y-95252407D01*
X162270922Y-95314127D01*
X162260550Y-95352789D01*
X162255708Y-95356859D01*
X162223993Y-95352607D01*
X162179255Y-95314466D01*
X162126195Y-95248186D01*
X162069515Y-95159513D01*
X162022346Y-95071527D01*
X161983561Y-94988411D01*
X161958163Y-94917844D01*
X161942211Y-94843976D01*
X161931766Y-94750957D01*
X161927108Y-94688365D01*
X161905075Y-94497103D01*
X161863953Y-94334184D01*
X161798652Y-94188516D01*
X161704087Y-94049006D01*
X161575168Y-93904564D01*
X161561025Y-93890259D01*
X161458866Y-93794011D01*
X161364476Y-93721282D01*
X161261065Y-93659785D01*
X161212308Y-93635036D01*
X161052137Y-93564252D01*
X160908078Y-93515781D01*
X160785411Y-93490919D01*
X160689417Y-93490966D01*
X160658020Y-93498835D01*
X160554676Y-93529620D01*
X160445653Y-93547315D01*
X160321389Y-93552420D01*
X160172325Y-93545434D01*
X160030026Y-93531614D01*
X159841390Y-93513562D01*
X159685991Y-93506652D01*
X159554928Y-93511548D01*
X159439302Y-93528912D01*
X159330214Y-93559409D01*
X159251173Y-93589681D01*
X159083433Y-93676268D01*
X158953006Y-93780594D01*
X158856337Y-93905730D01*
X158830907Y-93952792D01*
X158802872Y-94014084D01*
X158785005Y-94068647D01*
X158775066Y-94129426D01*
X158770815Y-94209368D01*
X158770000Y-94304787D01*
X158771198Y-94412802D01*
X158776296Y-94490728D01*
X158787552Y-94551860D01*
X158807224Y-94609496D01*
X158830715Y-94662403D01*
X158866882Y-94735016D01*
X158899046Y-94792190D01*
X158899046Y-94332211D01*
X158902574Y-94198538D01*
X158926277Y-94075270D01*
X158946477Y-94021048D01*
X159028930Y-93892568D01*
X159146228Y-93788152D01*
X159296497Y-93708690D01*
X159477866Y-93655072D01*
X159688460Y-93628188D01*
X159779487Y-93625129D01*
X159936985Y-93635975D01*
X160059345Y-93671717D01*
X160146359Y-93732212D01*
X160197821Y-93817322D01*
X160213594Y-93918944D01*
X160202567Y-93984424D01*
X160165425Y-94030000D01*
X160096311Y-94060165D01*
X160007436Y-94077130D01*
X159871166Y-94100363D01*
X159772812Y-94130862D01*
X159706977Y-94172882D01*
X159668264Y-94230681D01*
X159651273Y-94308515D01*
X159649231Y-94359600D01*
X159652437Y-94425281D01*
X159666144Y-94478282D01*
X159696482Y-94534275D01*
X159736068Y-94590247D01*
X159736068Y-94432121D01*
X159744991Y-94397393D01*
X159767453Y-94341494D01*
X159779026Y-94316594D01*
X159838677Y-94230839D01*
X159915399Y-94174155D01*
X160000404Y-94148786D01*
X160084906Y-94156975D01*
X160160118Y-94200966D01*
X160174491Y-94215611D01*
X160217182Y-94274147D01*
X160245857Y-94332781D01*
X160248699Y-94342611D01*
X160268685Y-94399357D01*
X160289274Y-94435043D01*
X160329073Y-94510924D01*
X160326906Y-94583220D01*
X160284164Y-94645987D01*
X160231879Y-94680564D01*
X160124146Y-94713819D01*
X160017140Y-94705285D01*
X159906243Y-94654579D01*
X159904337Y-94653375D01*
X159827747Y-94592404D01*
X159769650Y-94522340D01*
X159738814Y-94454717D01*
X159736068Y-94432121D01*
X159736068Y-94590247D01*
X159743604Y-94600903D01*
X159797521Y-94670620D01*
X159848200Y-94731165D01*
X159884681Y-94769445D01*
X159884715Y-94769476D01*
X159921955Y-94817935D01*
X159928731Y-94863219D01*
X159904257Y-94893777D01*
X159893461Y-94897685D01*
X159832781Y-94906002D01*
X159742709Y-94909459D01*
X159636972Y-94908279D01*
X159529300Y-94902685D01*
X159433420Y-94892901D01*
X159413233Y-94889880D01*
X159259380Y-94851894D01*
X159137129Y-94790176D01*
X159038680Y-94699240D01*
X158956235Y-94573601D01*
X158951867Y-94565300D01*
X158915531Y-94459921D01*
X158899046Y-94332211D01*
X158899046Y-94792190D01*
X158900544Y-94794853D01*
X158921792Y-94825621D01*
X158932357Y-94844294D01*
X158932375Y-94871650D01*
X158919609Y-94914723D01*
X158891820Y-94980546D01*
X158846771Y-95076153D01*
X158833043Y-95104514D01*
X158781498Y-95205895D01*
X158737774Y-95282504D01*
X158705074Y-95329128D01*
X158687692Y-95341134D01*
X158668464Y-95316284D01*
X158649918Y-95263391D01*
X158643159Y-95232920D01*
X158634651Y-95165269D01*
X158642991Y-95117860D01*
X158672171Y-95069461D01*
X158674489Y-95066309D01*
X158705298Y-95016257D01*
X158706708Y-94984641D01*
X158698907Y-94973984D01*
X158661211Y-94962229D01*
X158600298Y-94970265D01*
X158525084Y-94993694D01*
X158444482Y-95028120D01*
X158367407Y-95069145D01*
X158302775Y-95112373D01*
X158259500Y-95153406D01*
X158246496Y-95187848D01*
X158246496Y-95187848D01*
X158246496Y-95187848D01*
G37*
X158246496Y-95187848D02*
X158249464Y-95195664D01*
X158277599Y-95209048D01*
X158331344Y-95216207D01*
X158347640Y-95216582D01*
X158405496Y-95221656D01*
X158444926Y-95243968D01*
X158484080Y-95294148D01*
X158486628Y-95297992D01*
X158530829Y-95383164D01*
X158567167Y-95494947D01*
X158596801Y-95638235D01*
X158620889Y-95817925D01*
X158629170Y-95900428D01*
X158647814Y-96061283D01*
X158672895Y-96218990D01*
X158702422Y-96364045D01*
X158734408Y-96486947D01*
X158762229Y-96565159D01*
X158762229Y-95988158D01*
X158764710Y-95785913D01*
X158785491Y-95586625D01*
X158824263Y-95400730D01*
X158880722Y-95238661D01*
X158906453Y-95186043D01*
X158961875Y-95104122D01*
X159027629Y-95038278D01*
X159094459Y-94995813D01*
X159153103Y-94984035D01*
X159160768Y-94985402D01*
X159204514Y-94996851D01*
X159273272Y-95015618D01*
X159334444Y-95032672D01*
X159422938Y-95052106D01*
X159520892Y-95061290D01*
X159642752Y-95061333D01*
X159686642Y-95059707D01*
X159793627Y-95053717D01*
X159872178Y-95044382D01*
X159937278Y-95028237D01*
X160003910Y-95001819D01*
X160066556Y-94971867D01*
X160156690Y-94921362D01*
X160244272Y-94862543D01*
X160311085Y-94807703D01*
X160313769Y-94805072D01*
X160345847Y-94773231D01*
X160345847Y-93858643D01*
X160357643Y-93804822D01*
X160402499Y-93739198D01*
X160402619Y-93739056D01*
X160494239Y-93662258D01*
X160608241Y-93619123D01*
X160739908Y-93609388D01*
X160884526Y-93632791D01*
X161037377Y-93689069D01*
X161193747Y-93777960D01*
X161201978Y-93783532D01*
X161281442Y-93844856D01*
X161372693Y-93926413D01*
X161467608Y-94019684D01*
X161558067Y-94116152D01*
X161635947Y-94207298D01*
X161693128Y-94284604D01*
X161714004Y-94320557D01*
X161757346Y-94444612D01*
X161773306Y-94572849D01*
X161760172Y-94689294D01*
X161755263Y-94705742D01*
X161711331Y-94794348D01*
X161644554Y-94879630D01*
X161568125Y-94946325D01*
X161527498Y-94969234D01*
X161423495Y-94995126D01*
X161296847Y-94996108D01*
X161159969Y-94972883D01*
X161066199Y-94943167D01*
X160960490Y-94902102D01*
X160888906Y-94871507D01*
X160844907Y-94846634D01*
X160821956Y-94822733D01*
X160813511Y-94795057D01*
X160813021Y-94759317D01*
X160829621Y-94689180D01*
X160873913Y-94595325D01*
X160909113Y-94535927D01*
X160964887Y-94438978D01*
X160997101Y-94358744D01*
X161011711Y-94280101D01*
X161012250Y-94274011D01*
X161015280Y-94203800D01*
X161005789Y-94157989D01*
X160977943Y-94118076D01*
X160955802Y-94095040D01*
X160920139Y-94063639D01*
X160880158Y-94041023D01*
X160825306Y-94023505D01*
X160745029Y-94007398D01*
X160670538Y-93995370D01*
X160529459Y-93969024D01*
X160429693Y-93938771D01*
X160369177Y-93902635D01*
X160345847Y-93858643D01*
X160345847Y-94773231D01*
X160387350Y-94732035D01*
X160387350Y-94210459D01*
X160402563Y-94151516D01*
X160430769Y-94109402D01*
X160493896Y-94073837D01*
X160571322Y-94070280D01*
X160655096Y-94093453D01*
X160737267Y-94138080D01*
X160809883Y-94198883D01*
X160864994Y-94270586D01*
X160894649Y-94347910D01*
X160893371Y-94416431D01*
X160870375Y-94462925D01*
X160826235Y-94520416D01*
X160771591Y-94577996D01*
X160717085Y-94624756D01*
X160673356Y-94649788D01*
X160664145Y-94651427D01*
X160631877Y-94647344D01*
X160626154Y-94642247D01*
X160637251Y-94619919D01*
X160665237Y-94575161D01*
X160680427Y-94552379D01*
X160726685Y-94455467D01*
X160729926Y-94364396D01*
X160690149Y-94279098D01*
X160672970Y-94258092D01*
X160602632Y-94204500D01*
X160526512Y-94188465D01*
X160453991Y-94211131D01*
X160431049Y-94228550D01*
X160399464Y-94254237D01*
X160388572Y-94245708D01*
X160387350Y-94210459D01*
X160387350Y-94732035D01*
X160403008Y-94716493D01*
X160641879Y-94876088D01*
X160748790Y-94943705D01*
X160860657Y-95008080D01*
X160963834Y-95061705D01*
X161041102Y-95095751D01*
X161211851Y-95144903D01*
X161386790Y-95168631D01*
X161552737Y-95165944D01*
X161673051Y-95143279D01*
X161755655Y-95125825D01*
X161826996Y-95127616D01*
X161890179Y-95152032D01*
X161948307Y-95202451D01*
X162004485Y-95282253D01*
X162061816Y-95394817D01*
X162123405Y-95543520D01*
X162178979Y-95693999D01*
X162214706Y-95796463D01*
X162237421Y-95872109D01*
X162249350Y-95934773D01*
X162252724Y-95998291D01*
X162249770Y-96076500D01*
X162247160Y-96117332D01*
X162217652Y-96371180D01*
X162163414Y-96592020D01*
X162081404Y-96784455D01*
X161968583Y-96953090D01*
X161821911Y-97102528D01*
X161638349Y-97237373D01*
X161430258Y-97354527D01*
X161174832Y-97459929D01*
X160900050Y-97530656D01*
X160613987Y-97565684D01*
X160324718Y-97563992D01*
X160057843Y-97528157D01*
X159834625Y-97466261D01*
X159632410Y-97372703D01*
X159444280Y-97243546D01*
X159265738Y-97077408D01*
X159069399Y-96841804D01*
X158908036Y-96586716D01*
X158867639Y-96508291D01*
X158813386Y-96359782D01*
X158778352Y-96182926D01*
X158762229Y-95988158D01*
X158762229Y-96565159D01*
X158766865Y-96578192D01*
X158774280Y-96593886D01*
X158800197Y-96637803D01*
X158845182Y-96706946D01*
X158902689Y-96791481D01*
X158960224Y-96873268D01*
X159048795Y-97002110D01*
X159111305Y-97109355D01*
X159150369Y-97206012D01*
X159168601Y-97303088D01*
X159168616Y-97411591D01*
X159153026Y-97542528D01*
X159139060Y-97626325D01*
X159116422Y-97780054D01*
X159107436Y-97902240D01*
X159111209Y-97991259D01*
X159126847Y-98045489D01*
X159153455Y-98063305D01*
X159190141Y-98043085D01*
X159236010Y-97983205D01*
X159263922Y-97931669D01*
X159263922Y-97636671D01*
X159264449Y-97569261D01*
X159265708Y-97557494D01*
X159280919Y-97487919D01*
X159306744Y-97421496D01*
X159337594Y-97367987D01*
X159367882Y-97337152D01*
X159391342Y-97338043D01*
X159395765Y-97367372D01*
X159389011Y-97424660D01*
X159373978Y-97496792D01*
X159353564Y-97570652D01*
X159330668Y-97633126D01*
X159322314Y-97650419D01*
X159295966Y-97682358D01*
X159275465Y-97676073D01*
X159263922Y-97636671D01*
X159263922Y-97931669D01*
X159285374Y-97892062D01*
X159329242Y-97806054D01*
X159373072Y-97728052D01*
X159408887Y-97672070D01*
X159415631Y-97663186D01*
X159442790Y-97631770D01*
X159468560Y-97615197D01*
X159505300Y-97611075D01*
X159565367Y-97617008D01*
X159616667Y-97624245D01*
X159870057Y-97656250D01*
X160112842Y-97678215D01*
X160338383Y-97689899D01*
X160540044Y-97691061D01*
X160711185Y-97681460D01*
X160812124Y-97667685D01*
X160910072Y-97644213D01*
X161014707Y-97611172D01*
X161062220Y-97592920D01*
X161215351Y-97540723D01*
X161343079Y-97523621D01*
X161445550Y-97541602D01*
X161479192Y-97558426D01*
X161538299Y-97604121D01*
X161538299Y-97475131D01*
X161594080Y-97438582D01*
X161663402Y-97415498D01*
X161732735Y-97434031D01*
X161797462Y-97492624D01*
X161811317Y-97511759D01*
X161845470Y-97571869D01*
X161887279Y-97659130D01*
X161931994Y-97761882D01*
X161974862Y-97868466D01*
X162011133Y-97967224D01*
X162036054Y-98046496D01*
X162044013Y-98082738D01*
X162055666Y-98131208D01*
X162080062Y-98209926D01*
X162113863Y-98308807D01*
X162153733Y-98417768D01*
X162162548Y-98440943D01*
X162203346Y-98549539D01*
X162239208Y-98648860D01*
X162266748Y-98729249D01*
X162282578Y-98781049D01*
X162284181Y-98787778D01*
X162297916Y-98852906D01*
X162262127Y-98787778D01*
X162218569Y-98725399D01*
X162176503Y-98702777D01*
X162133667Y-98720706D01*
X162087799Y-98779978D01*
X162044461Y-98864066D01*
X162004089Y-98944983D01*
X161975672Y-98984930D01*
X161958385Y-98984435D01*
X161951402Y-98944023D01*
X161951201Y-98923462D01*
X161956826Y-98863184D01*
X161970514Y-98782029D01*
X161983426Y-98722650D01*
X162010229Y-98520836D01*
X161996276Y-98312915D01*
X161942886Y-98103486D01*
X161851382Y-97897146D01*
X161723085Y-97698496D01*
X161670155Y-97632138D01*
X161538299Y-97475131D01*
X161538299Y-97604121D01*
X161569267Y-97628063D01*
X161662643Y-97723151D01*
X161746347Y-97828885D01*
X161807409Y-97930462D01*
X161810002Y-97935957D01*
X161849954Y-98032221D01*
X161877849Y-98127233D01*
X161894905Y-98230512D01*
X161902344Y-98351580D01*
X161901386Y-98499957D01*
X161896907Y-98614103D01*
X161889635Y-98771233D01*
X161884953Y-98891538D01*
X161883113Y-98981552D01*
X161884366Y-99047805D01*
X161888963Y-99096829D01*
X161897157Y-99135156D01*
X161909199Y-99169318D01*
X161919168Y-99192295D01*
X161955776Y-99249707D01*
X161995305Y-99275595D01*
X162029912Y-99266887D01*
X162045797Y-99241900D01*
X162053719Y-99200315D01*
X162058418Y-99135199D01*
X162058974Y-99104028D01*
X162065379Y-99013672D01*
X162082469Y-98936860D01*
X162107056Y-98883565D01*
X162135767Y-98863761D01*
X162156460Y-98883964D01*
X162183698Y-98940572D01*
X162214709Y-99027581D01*
X162221615Y-99049722D01*
X162253368Y-99143789D01*
X162280595Y-99204411D01*
X162301358Y-99227431D01*
X162304339Y-99227236D01*
X162324522Y-99201622D01*
X162346978Y-99143900D01*
X162368941Y-99065087D01*
X162387643Y-98976199D01*
X162400317Y-98888254D01*
X162404198Y-98829710D01*
X162389633Y-98677822D01*
X162343021Y-98535548D01*
X162271265Y-98419547D01*
X162202825Y-98303936D01*
X162175416Y-98213308D01*
X162149088Y-98113258D01*
X162103837Y-97976537D01*
X162040390Y-97805191D01*
X161959470Y-97601269D01*
X161954195Y-97588334D01*
X161930214Y-97526848D01*
X161916243Y-97485466D01*
X161914763Y-97474359D01*
X161931043Y-97489726D01*
X161933381Y-97492305D01*
X161933381Y-97254846D01*
X161933452Y-97199262D01*
X161952456Y-97165189D01*
X161971446Y-97159573D01*
X162004665Y-97178663D01*
X162040775Y-97227507D01*
X162073288Y-97293464D01*
X162095716Y-97363894D01*
X162102036Y-97413977D01*
X162096616Y-97467315D01*
X162078433Y-97482974D01*
X162045553Y-97460497D01*
X161996046Y-97399431D01*
X161987040Y-97386878D01*
X161951494Y-97321024D01*
X161933381Y-97254846D01*
X161933381Y-97492305D01*
X161968098Y-97530607D01*
X162018893Y-97589169D01*
X162036428Y-97609806D01*
X162114699Y-97699602D01*
X162175353Y-97761280D01*
X162219152Y-97793096D01*
X162246860Y-97793303D01*
X162259239Y-97760156D01*
X162257054Y-97691910D01*
X162241067Y-97586819D01*
X162212041Y-97443137D01*
X162177293Y-97287636D01*
X162148255Y-97151971D01*
X162132176Y-97048038D01*
X162129236Y-96966072D01*
X162139613Y-96896307D01*
X162163486Y-96828981D01*
X162186579Y-96781416D01*
X162233465Y-96679786D01*
X162269256Y-96572849D01*
X162295608Y-96452106D01*
X162314178Y-96309058D01*
X162326620Y-96135207D01*
X162330788Y-96041337D01*
X162340991Y-95833645D01*
X162354637Y-95664505D01*
X162372331Y-95529144D01*
X162394677Y-95422790D01*
X162418338Y-95350231D01*
X162443879Y-95298110D01*
X162475228Y-95275704D01*
X162529686Y-95270856D01*
X162531322Y-95270855D01*
X162585872Y-95266655D01*
X162608963Y-95249959D01*
X162612564Y-95227436D01*
X162594342Y-95191578D01*
X162546160Y-95144770D01*
X162477743Y-95093676D01*
X162398814Y-95044961D01*
X162319100Y-95005289D01*
X162256147Y-94983181D01*
X162187543Y-94973274D01*
X162153851Y-94987996D01*
X162154581Y-95028353D01*
X162189238Y-95095352D01*
X162196062Y-95105848D01*
X162235942Y-95179144D01*
X162261807Y-95252407D01*
X162270922Y-95314127D01*
X162260550Y-95352789D01*
X162255708Y-95356859D01*
X162223993Y-95352607D01*
X162179255Y-95314466D01*
X162126195Y-95248186D01*
X162069515Y-95159513D01*
X162022346Y-95071527D01*
X161983561Y-94988411D01*
X161958163Y-94917844D01*
X161942211Y-94843976D01*
X161931766Y-94750957D01*
X161927108Y-94688365D01*
X161905075Y-94497103D01*
X161863953Y-94334184D01*
X161798652Y-94188516D01*
X161704087Y-94049006D01*
X161575168Y-93904564D01*
X161561025Y-93890259D01*
X161458866Y-93794011D01*
X161364476Y-93721282D01*
X161261065Y-93659785D01*
X161212308Y-93635036D01*
X161052137Y-93564252D01*
X160908078Y-93515781D01*
X160785411Y-93490919D01*
X160689417Y-93490966D01*
X160658020Y-93498835D01*
X160554676Y-93529620D01*
X160445653Y-93547315D01*
X160321389Y-93552420D01*
X160172325Y-93545434D01*
X160030026Y-93531614D01*
X159841390Y-93513562D01*
X159685991Y-93506652D01*
X159554928Y-93511548D01*
X159439302Y-93528912D01*
X159330214Y-93559409D01*
X159251173Y-93589681D01*
X159083433Y-93676268D01*
X158953006Y-93780594D01*
X158856337Y-93905730D01*
X158830907Y-93952792D01*
X158802872Y-94014084D01*
X158785005Y-94068647D01*
X158775066Y-94129426D01*
X158770815Y-94209368D01*
X158770000Y-94304787D01*
X158771198Y-94412802D01*
X158776296Y-94490728D01*
X158787552Y-94551860D01*
X158807224Y-94609496D01*
X158830715Y-94662403D01*
X158866882Y-94735016D01*
X158899046Y-94792190D01*
X158899046Y-94332211D01*
X158902574Y-94198538D01*
X158926277Y-94075270D01*
X158946477Y-94021048D01*
X159028930Y-93892568D01*
X159146228Y-93788152D01*
X159296497Y-93708690D01*
X159477866Y-93655072D01*
X159688460Y-93628188D01*
X159779487Y-93625129D01*
X159936985Y-93635975D01*
X160059345Y-93671717D01*
X160146359Y-93732212D01*
X160197821Y-93817322D01*
X160213594Y-93918944D01*
X160202567Y-93984424D01*
X160165425Y-94030000D01*
X160096311Y-94060165D01*
X160007436Y-94077130D01*
X159871166Y-94100363D01*
X159772812Y-94130862D01*
X159706977Y-94172882D01*
X159668264Y-94230681D01*
X159651273Y-94308515D01*
X159649231Y-94359600D01*
X159652437Y-94425281D01*
X159666144Y-94478282D01*
X159696482Y-94534275D01*
X159736068Y-94590247D01*
X159736068Y-94432121D01*
X159744991Y-94397393D01*
X159767453Y-94341494D01*
X159779026Y-94316594D01*
X159838677Y-94230839D01*
X159915399Y-94174155D01*
X160000404Y-94148786D01*
X160084906Y-94156975D01*
X160160118Y-94200966D01*
X160174491Y-94215611D01*
X160217182Y-94274147D01*
X160245857Y-94332781D01*
X160248699Y-94342611D01*
X160268685Y-94399357D01*
X160289274Y-94435043D01*
X160329073Y-94510924D01*
X160326906Y-94583220D01*
X160284164Y-94645987D01*
X160231879Y-94680564D01*
X160124146Y-94713819D01*
X160017140Y-94705285D01*
X159906243Y-94654579D01*
X159904337Y-94653375D01*
X159827747Y-94592404D01*
X159769650Y-94522340D01*
X159738814Y-94454717D01*
X159736068Y-94432121D01*
X159736068Y-94590247D01*
X159743604Y-94600903D01*
X159797521Y-94670620D01*
X159848200Y-94731165D01*
X159884681Y-94769445D01*
X159884715Y-94769476D01*
X159921955Y-94817935D01*
X159928731Y-94863219D01*
X159904257Y-94893777D01*
X159893461Y-94897685D01*
X159832781Y-94906002D01*
X159742709Y-94909459D01*
X159636972Y-94908279D01*
X159529300Y-94902685D01*
X159433420Y-94892901D01*
X159413233Y-94889880D01*
X159259380Y-94851894D01*
X159137129Y-94790176D01*
X159038680Y-94699240D01*
X158956235Y-94573601D01*
X158951867Y-94565300D01*
X158915531Y-94459921D01*
X158899046Y-94332211D01*
X158899046Y-94792190D01*
X158900544Y-94794853D01*
X158921792Y-94825621D01*
X158932357Y-94844294D01*
X158932375Y-94871650D01*
X158919609Y-94914723D01*
X158891820Y-94980546D01*
X158846771Y-95076153D01*
X158833043Y-95104514D01*
X158781498Y-95205895D01*
X158737774Y-95282504D01*
X158705074Y-95329128D01*
X158687692Y-95341134D01*
X158668464Y-95316284D01*
X158649918Y-95263391D01*
X158643159Y-95232920D01*
X158634651Y-95165269D01*
X158642991Y-95117860D01*
X158672171Y-95069461D01*
X158674489Y-95066309D01*
X158705298Y-95016257D01*
X158706708Y-94984641D01*
X158698907Y-94973984D01*
X158661211Y-94962229D01*
X158600298Y-94970265D01*
X158525084Y-94993694D01*
X158444482Y-95028120D01*
X158367407Y-95069145D01*
X158302775Y-95112373D01*
X158259500Y-95153406D01*
X158246496Y-95187848D01*
X158246496Y-95187848D01*
G36*
X160760367Y-93031906D02*
X160765695Y-93055109D01*
X160809694Y-93093188D01*
X160877015Y-93136571D01*
X160954122Y-93184972D01*
X161047741Y-93247223D01*
X161139630Y-93311147D01*
X161153784Y-93321317D01*
X161253204Y-93390188D01*
X161323972Y-93431819D01*
X161369744Y-93447977D01*
X161394174Y-93440428D01*
X161395691Y-93438266D01*
X161393034Y-93405016D01*
X161363238Y-93354783D01*
X161313695Y-93296899D01*
X161251801Y-93240697D01*
X161221109Y-93217904D01*
X161148722Y-93173409D01*
X161060660Y-93126927D01*
X160968539Y-93083723D01*
X160883977Y-93049062D01*
X160818589Y-93028209D01*
X160794402Y-93024519D01*
X160760367Y-93031906D01*
X160760367Y-93031906D01*
X160760367Y-93031906D01*
G37*
X160760367Y-93031906D02*
X160765695Y-93055109D01*
X160809694Y-93093188D01*
X160877015Y-93136571D01*
X160954122Y-93184972D01*
X161047741Y-93247223D01*
X161139630Y-93311147D01*
X161153784Y-93321317D01*
X161253204Y-93390188D01*
X161323972Y-93431819D01*
X161369744Y-93447977D01*
X161394174Y-93440428D01*
X161395691Y-93438266D01*
X161393034Y-93405016D01*
X161363238Y-93354783D01*
X161313695Y-93296899D01*
X161251801Y-93240697D01*
X161221109Y-93217904D01*
X161148722Y-93173409D01*
X161060660Y-93126927D01*
X160968539Y-93083723D01*
X160883977Y-93049062D01*
X160818589Y-93028209D01*
X160794402Y-93024519D01*
X160760367Y-93031906D01*
X160760367Y-93031906D01*
G36*
X159388718Y-93427305D02*
X159394319Y-93450974D01*
X159414730Y-93453612D01*
X159455359Y-93433126D01*
X159521617Y-93387418D01*
X159554578Y-93363046D01*
X159633613Y-93300359D01*
X159710651Y-93232983D01*
X159780200Y-93166614D01*
X159836766Y-93106951D01*
X159874856Y-93059689D01*
X159888979Y-93030527D01*
X159881536Y-93023932D01*
X159826565Y-93038194D01*
X159753275Y-93076493D01*
X159669893Y-93132096D01*
X159584645Y-93198268D01*
X159505756Y-93268279D01*
X159441452Y-93335394D01*
X159399960Y-93392882D01*
X159388718Y-93427305D01*
X159388718Y-93427305D01*
X159388718Y-93427305D01*
G37*
X159388718Y-93427305D02*
X159394319Y-93450974D01*
X159414730Y-93453612D01*
X159455359Y-93433126D01*
X159521617Y-93387418D01*
X159554578Y-93363046D01*
X159633613Y-93300359D01*
X159710651Y-93232983D01*
X159780200Y-93166614D01*
X159836766Y-93106951D01*
X159874856Y-93059689D01*
X159888979Y-93030527D01*
X159881536Y-93023932D01*
X159826565Y-93038194D01*
X159753275Y-93076493D01*
X159669893Y-93132096D01*
X159584645Y-93198268D01*
X159505756Y-93268279D01*
X159441452Y-93335394D01*
X159399960Y-93392882D01*
X159388718Y-93427305D01*
X159388718Y-93427305D01*
G36*
X159977683Y-96492221D02*
X159978203Y-96534620D01*
X159994095Y-96592296D01*
X160021312Y-96654620D01*
X160055807Y-96710966D01*
X160093534Y-96750707D01*
X160103772Y-96757223D01*
X160156271Y-96776846D01*
X160206564Y-96770914D01*
X160271007Y-96737918D01*
X160331156Y-96696973D01*
X160351074Y-96671723D01*
X160330823Y-96661683D01*
X160280120Y-96665004D01*
X160173362Y-96666893D01*
X160090677Y-96642960D01*
X160037256Y-96595914D01*
X160018291Y-96528463D01*
X160018291Y-96528450D01*
X160010661Y-96488399D01*
X159996581Y-96475727D01*
X159977683Y-96492221D01*
X159977683Y-96492221D01*
X159977683Y-96492221D01*
G37*
X159977683Y-96492221D02*
X159978203Y-96534620D01*
X159994095Y-96592296D01*
X160021312Y-96654620D01*
X160055807Y-96710966D01*
X160093534Y-96750707D01*
X160103772Y-96757223D01*
X160156271Y-96776846D01*
X160206564Y-96770914D01*
X160271007Y-96737918D01*
X160331156Y-96696973D01*
X160351074Y-96671723D01*
X160330823Y-96661683D01*
X160280120Y-96665004D01*
X160173362Y-96666893D01*
X160090677Y-96642960D01*
X160037256Y-96595914D01*
X160018291Y-96528463D01*
X160018291Y-96528450D01*
X160010661Y-96488399D01*
X159996581Y-96475727D01*
X159977683Y-96492221D01*
X159977683Y-96492221D01*
G36*
X160913594Y-96664772D02*
X160929580Y-96672899D01*
X160966539Y-96683157D01*
X161043542Y-96694513D01*
X161119640Y-96692838D01*
X161125470Y-96691934D01*
X161243011Y-96656238D01*
X161324631Y-96596771D01*
X161369584Y-96515222D01*
X161377119Y-96413276D01*
X161346490Y-96292624D01*
X161324791Y-96242438D01*
X161298170Y-96195872D01*
X161276138Y-96172453D01*
X161273415Y-96171795D01*
X161259816Y-96177431D01*
X161257898Y-96199984D01*
X161268529Y-96247924D01*
X161288056Y-96314883D01*
X161314861Y-96423192D01*
X161316915Y-96502534D01*
X161290162Y-96558622D01*
X161230543Y-96597164D01*
X161134001Y-96623871D01*
X161059763Y-96636149D01*
X160974127Y-96648695D01*
X160926924Y-96657470D01*
X160913594Y-96664772D01*
X160913594Y-96664772D01*
X160913594Y-96664772D01*
G37*
X160913594Y-96664772D02*
X160929580Y-96672899D01*
X160966539Y-96683157D01*
X161043542Y-96694513D01*
X161119640Y-96692838D01*
X161125470Y-96691934D01*
X161243011Y-96656238D01*
X161324631Y-96596771D01*
X161369584Y-96515222D01*
X161377119Y-96413276D01*
X161346490Y-96292624D01*
X161324791Y-96242438D01*
X161298170Y-96195872D01*
X161276138Y-96172453D01*
X161273415Y-96171795D01*
X161259816Y-96177431D01*
X161257898Y-96199984D01*
X161268529Y-96247924D01*
X161288056Y-96314883D01*
X161314861Y-96423192D01*
X161316915Y-96502534D01*
X161290162Y-96558622D01*
X161230543Y-96597164D01*
X161134001Y-96623871D01*
X161059763Y-96636149D01*
X160974127Y-96648695D01*
X160926924Y-96657470D01*
X160913594Y-96664772D01*
X160913594Y-96664772D01*
G36*
X160096648Y-96425548D02*
X160119169Y-96498364D01*
X160169594Y-96572401D01*
X160175487Y-96578847D01*
X160210267Y-96611252D01*
X160242371Y-96622077D01*
X160284252Y-96610698D01*
X160348363Y-96576495D01*
X160360214Y-96569621D01*
X160427034Y-96519304D01*
X160451251Y-96469828D01*
X160433575Y-96419043D01*
X160416546Y-96399476D01*
X160354685Y-96356438D01*
X160279801Y-96330446D01*
X160204642Y-96322885D01*
X160141952Y-96335137D01*
X160105889Y-96365758D01*
X160096648Y-96425548D01*
X160096648Y-96425548D01*
X160096648Y-96425548D01*
G37*
X160096648Y-96425548D02*
X160119169Y-96498364D01*
X160169594Y-96572401D01*
X160175487Y-96578847D01*
X160210267Y-96611252D01*
X160242371Y-96622077D01*
X160284252Y-96610698D01*
X160348363Y-96576495D01*
X160360214Y-96569621D01*
X160427034Y-96519304D01*
X160451251Y-96469828D01*
X160433575Y-96419043D01*
X160416546Y-96399476D01*
X160354685Y-96356438D01*
X160279801Y-96330446D01*
X160204642Y-96322885D01*
X160141952Y-96335137D01*
X160105889Y-96365758D01*
X160096648Y-96425548D01*
X160096648Y-96425548D01*
G36*
X160870833Y-96407767D02*
X160905672Y-96455631D01*
X160978902Y-96491748D01*
X161034437Y-96505349D01*
X161082757Y-96510248D01*
X161110980Y-96494976D01*
X161134954Y-96449703D01*
X161138782Y-96440629D01*
X161163585Y-96346612D01*
X161155176Y-96275269D01*
X161119620Y-96230840D01*
X161062977Y-96217568D01*
X160991312Y-96239694D01*
X160922966Y-96289636D01*
X160876045Y-96351366D01*
X160870833Y-96407767D01*
X160870833Y-96407767D01*
X160870833Y-96407767D01*
G37*
X160870833Y-96407767D02*
X160905672Y-96455631D01*
X160978902Y-96491748D01*
X161034437Y-96505349D01*
X161082757Y-96510248D01*
X161110980Y-96494976D01*
X161134954Y-96449703D01*
X161138782Y-96440629D01*
X161163585Y-96346612D01*
X161155176Y-96275269D01*
X161119620Y-96230840D01*
X161062977Y-96217568D01*
X160991312Y-96239694D01*
X160922966Y-96289636D01*
X160876045Y-96351366D01*
X160870833Y-96407767D01*
X160870833Y-96407767D01*
G36*
X160018291Y-96294562D02*
X160030703Y-96300342D01*
X160064806Y-96274018D01*
X160071013Y-96267937D01*
X160100911Y-96232354D01*
X160100719Y-96220643D01*
X160072875Y-96238088D01*
X160061709Y-96247778D01*
X160029704Y-96279184D01*
X160018291Y-96294562D01*
X160018291Y-96294562D01*
X160018291Y-96294562D01*
G37*
X160018291Y-96294562D02*
X160030703Y-96300342D01*
X160064806Y-96274018D01*
X160071013Y-96267937D01*
X160100911Y-96232354D01*
X160100719Y-96220643D01*
X160072875Y-96238088D01*
X160061709Y-96247778D01*
X160029704Y-96279184D01*
X160018291Y-96294562D01*
X160018291Y-96294562D01*
G36*
X159536060Y-95383170D02*
X159566269Y-95387687D01*
X159584103Y-95387731D01*
X159653904Y-95381985D01*
X159714359Y-95369956D01*
X159774870Y-95347022D01*
X159843838Y-95314609D01*
X159907542Y-95279942D01*
X159952263Y-95250245D01*
X159963825Y-95238601D01*
X159971136Y-95225777D01*
X159968986Y-95219866D01*
X159950524Y-95222362D01*
X159908896Y-95234752D01*
X159837248Y-95258530D01*
X159774049Y-95279879D01*
X159656805Y-95320712D01*
X159579367Y-95350796D01*
X159539772Y-95371244D01*
X159536060Y-95383170D01*
X159536060Y-95383170D01*
X159536060Y-95383170D01*
G37*
X159536060Y-95383170D02*
X159566269Y-95387687D01*
X159584103Y-95387731D01*
X159653904Y-95381985D01*
X159714359Y-95369956D01*
X159774870Y-95347022D01*
X159843838Y-95314609D01*
X159907542Y-95279942D01*
X159952263Y-95250245D01*
X159963825Y-95238601D01*
X159971136Y-95225777D01*
X159968986Y-95219866D01*
X159950524Y-95222362D01*
X159908896Y-95234752D01*
X159837248Y-95258530D01*
X159774049Y-95279879D01*
X159656805Y-95320712D01*
X159579367Y-95350796D01*
X159539772Y-95371244D01*
X159536060Y-95383170D01*
X159536060Y-95383170D01*
G36*
X161075815Y-95213023D02*
X161092906Y-95217827D01*
X161151124Y-95225177D01*
X161239194Y-95230732D01*
X161343562Y-95233813D01*
X161418547Y-95234139D01*
X161517767Y-95232991D01*
X161576689Y-95230913D01*
X161598430Y-95227463D01*
X161586108Y-95222194D01*
X161548803Y-95215583D01*
X161485555Y-95208253D01*
X161408435Y-95203000D01*
X161324968Y-95199787D01*
X161242681Y-95198577D01*
X161169096Y-95199333D01*
X161111741Y-95202017D01*
X161078138Y-95206593D01*
X161075815Y-95213023D01*
X161075815Y-95213023D01*
X161075815Y-95213023D01*
G37*
X161075815Y-95213023D02*
X161092906Y-95217827D01*
X161151124Y-95225177D01*
X161239194Y-95230732D01*
X161343562Y-95233813D01*
X161418547Y-95234139D01*
X161517767Y-95232991D01*
X161576689Y-95230913D01*
X161598430Y-95227463D01*
X161586108Y-95222194D01*
X161548803Y-95215583D01*
X161485555Y-95208253D01*
X161408435Y-95203000D01*
X161324968Y-95199787D01*
X161242681Y-95198577D01*
X161169096Y-95199333D01*
X161111741Y-95202017D01*
X161078138Y-95206593D01*
X161075815Y-95213023D01*
X161075815Y-95213023D01*
G36*
X159399873Y-95211560D02*
X159401044Y-95218962D01*
X159432106Y-95232847D01*
X159494243Y-95236549D01*
X159576494Y-95230771D01*
X159667903Y-95216214D01*
X159746923Y-95196787D01*
X159836610Y-95168285D01*
X159913385Y-95140149D01*
X159970331Y-95115424D01*
X160000534Y-95097152D01*
X159997080Y-95088376D01*
X159993883Y-95088096D01*
X159951532Y-95093883D01*
X159890551Y-95110455D01*
X159874482Y-95115853D01*
X159804290Y-95135119D01*
X159715339Y-95152575D01*
X159660085Y-95160420D01*
X159542278Y-95175070D01*
X159462896Y-95187741D01*
X159417056Y-95199537D01*
X159399873Y-95211560D01*
X159399873Y-95211560D01*
X159399873Y-95211560D01*
G37*
X159399873Y-95211560D02*
X159401044Y-95218962D01*
X159432106Y-95232847D01*
X159494243Y-95236549D01*
X159576494Y-95230771D01*
X159667903Y-95216214D01*
X159746923Y-95196787D01*
X159836610Y-95168285D01*
X159913385Y-95140149D01*
X159970331Y-95115424D01*
X160000534Y-95097152D01*
X159997080Y-95088376D01*
X159993883Y-95088096D01*
X159951532Y-95093883D01*
X159890551Y-95110455D01*
X159874482Y-95115853D01*
X159804290Y-95135119D01*
X159715339Y-95152575D01*
X159660085Y-95160420D01*
X159542278Y-95175070D01*
X159462896Y-95187741D01*
X159417056Y-95199537D01*
X159399873Y-95211560D01*
X159399873Y-95211560D01*
G36*
X159866325Y-94436593D02*
X159885818Y-94482137D01*
X159935525Y-94521314D01*
X160002289Y-94549777D01*
X160072953Y-94563180D01*
X160134359Y-94557174D01*
X160167469Y-94536094D01*
X160189126Y-94494315D01*
X160205002Y-94440416D01*
X160207846Y-94387605D01*
X160182770Y-94351984D01*
X160161808Y-94336931D01*
X160098106Y-94314481D01*
X160024490Y-94315927D01*
X159953336Y-94337095D01*
X159897019Y-94373811D01*
X159867913Y-94421902D01*
X159866325Y-94436593D01*
X159866325Y-94436593D01*
X159866325Y-94436593D01*
G37*
X159866325Y-94436593D02*
X159885818Y-94482137D01*
X159935525Y-94521314D01*
X160002289Y-94549777D01*
X160072953Y-94563180D01*
X160134359Y-94557174D01*
X160167469Y-94536094D01*
X160189126Y-94494315D01*
X160205002Y-94440416D01*
X160207846Y-94387605D01*
X160182770Y-94351984D01*
X160161808Y-94336931D01*
X160098106Y-94314481D01*
X160024490Y-94315927D01*
X159953336Y-94337095D01*
X159897019Y-94373811D01*
X159867913Y-94421902D01*
X159866325Y-94436593D01*
X159866325Y-94436593D01*
D12*
X175240000Y-93270000D02*
G75*
G03X175240000Y-93270000I-1270000J0D01*
G01*
D13*
G36*
X180967160Y-109623820D02*
X180890960Y-109613660D01*
X180822380Y-109590800D01*
X180791900Y-109575560D01*
X180728400Y-109529840D01*
X180677600Y-109476500D01*
X180639500Y-109413000D01*
X180614100Y-109344420D01*
X180601400Y-109270760D01*
X180603940Y-109197100D01*
X180621720Y-109123440D01*
X180654740Y-109052320D01*
X180677600Y-109021840D01*
X180708080Y-108988820D01*
X180743640Y-108955800D01*
X180774120Y-108932940D01*
X180784280Y-108925320D01*
X180850320Y-108894840D01*
X180916360Y-108879600D01*
X180992560Y-108877060D01*
X181017960Y-108877060D01*
X181058600Y-108882140D01*
X181094160Y-108892300D01*
X181134800Y-108910080D01*
X181177980Y-108932940D01*
X181238940Y-108981200D01*
X181287200Y-109042160D01*
X181325300Y-109110740D01*
X181335460Y-109141220D01*
X181345620Y-109179320D01*
X181350700Y-109207260D01*
X181350700Y-109212340D01*
X181350700Y-109212340D01*
X181353240Y-109197100D01*
X181353240Y-109194560D01*
X181365940Y-109146300D01*
X181383720Y-109098040D01*
X181406580Y-109054860D01*
X181447220Y-108998980D01*
X181505640Y-108945640D01*
X181571680Y-108907540D01*
X181645340Y-108882140D01*
X181724080Y-108874520D01*
X181744400Y-108874520D01*
X181802820Y-108882140D01*
X181861240Y-108897380D01*
X181871400Y-108902460D01*
X181934900Y-108938020D01*
X181990780Y-108983740D01*
X182039040Y-109042160D01*
X182072060Y-109103120D01*
X182092380Y-109171700D01*
X182094920Y-109174240D01*
X182097460Y-109192020D01*
X182100000Y-109199640D01*
X182100000Y-109199640D01*
X182102540Y-109189480D01*
X182107620Y-109171700D01*
X182107620Y-109164080D01*
X182130480Y-109098040D01*
X182166040Y-109034540D01*
X182214300Y-108978660D01*
X182260020Y-108940560D01*
X182323520Y-108905000D01*
X182397180Y-108882140D01*
X182475920Y-108874520D01*
X182531800Y-108879600D01*
X182605460Y-108897380D01*
X182674040Y-108932940D01*
X182735000Y-108978660D01*
X182783260Y-109039620D01*
X182790880Y-109047240D01*
X182806120Y-109075180D01*
X182818820Y-109098040D01*
X182823900Y-109115820D01*
X182836600Y-109148840D01*
X182844220Y-109181860D01*
X182846760Y-109207260D01*
X182846760Y-109212340D01*
X182849300Y-109212340D01*
X182851840Y-109194560D01*
X182859460Y-109153920D01*
X182879780Y-109103120D01*
X182900100Y-109057400D01*
X182945820Y-108996440D01*
X183004240Y-108945640D01*
X183070280Y-108907540D01*
X183143940Y-108882140D01*
X183220140Y-108874520D01*
X183291260Y-108879600D01*
X183364920Y-108899920D01*
X183430960Y-108938020D01*
X183491920Y-108988820D01*
X183522400Y-109021840D01*
X183550340Y-109062480D01*
X183573200Y-109110740D01*
X183585900Y-109148840D01*
X183598600Y-109225040D01*
X183596060Y-109298700D01*
X183580820Y-109367280D01*
X183550340Y-109433320D01*
X183509700Y-109491740D01*
X183458900Y-109542540D01*
X183397940Y-109583180D01*
X183329360Y-109608580D01*
X183253160Y-109621280D01*
X183245540Y-109623820D01*
X183169340Y-109621280D01*
X183098220Y-109603500D01*
X183029640Y-109570480D01*
X183004240Y-109552700D01*
X182955980Y-109509520D01*
X182910260Y-109456180D01*
X182879780Y-109400300D01*
X182872160Y-109379980D01*
X182862000Y-109346960D01*
X182854380Y-109313940D01*
X182849300Y-109288540D01*
X182849300Y-109273300D01*
X182846760Y-109288540D01*
X182846760Y-109301240D01*
X182839140Y-109334260D01*
X182828980Y-109372360D01*
X182816280Y-109402840D01*
X182798500Y-109438400D01*
X182752780Y-109499360D01*
X182694360Y-109550160D01*
X182628320Y-109590800D01*
X182554660Y-109616200D01*
X182541960Y-109618740D01*
X182491160Y-109623820D01*
X182435280Y-109621280D01*
X182387020Y-109613660D01*
X182336220Y-109598420D01*
X182267640Y-109562860D01*
X182204140Y-109512060D01*
X182201600Y-109506980D01*
X182158420Y-109453640D01*
X182125400Y-109390140D01*
X182107620Y-109326640D01*
X182105080Y-109324100D01*
X182102540Y-109306320D01*
X182100000Y-109298700D01*
X182097460Y-109303780D01*
X182094920Y-109319020D01*
X182094920Y-109324100D01*
X182084760Y-109362200D01*
X182066980Y-109405380D01*
X182044120Y-109446020D01*
X182011100Y-109491740D01*
X181955220Y-109545080D01*
X181889180Y-109585720D01*
X181815520Y-109613660D01*
X181802820Y-109616200D01*
X181752020Y-109621280D01*
X181696140Y-109621280D01*
X181647880Y-109616200D01*
X181607240Y-109603500D01*
X181536120Y-109573020D01*
X181475160Y-109527300D01*
X181421820Y-109468880D01*
X181383720Y-109402840D01*
X181376100Y-109382520D01*
X181363400Y-109346960D01*
X181355780Y-109313940D01*
X181353240Y-109288540D01*
X181353240Y-109286000D01*
X181350700Y-109286000D01*
X181348160Y-109301240D01*
X181348160Y-109303780D01*
X181338000Y-109349500D01*
X181317680Y-109400300D01*
X181297360Y-109443480D01*
X181287200Y-109458720D01*
X181238940Y-109517140D01*
X181177980Y-109562860D01*
X181114480Y-109598420D01*
X181043360Y-109618740D01*
X180967160Y-109623820D01*
X180967160Y-109623820D01*
G37*
X180967160Y-109623820D02*
X180890960Y-109613660D01*
X180822380Y-109590800D01*
X180791900Y-109575560D01*
X180728400Y-109529840D01*
X180677600Y-109476500D01*
X180639500Y-109413000D01*
X180614100Y-109344420D01*
X180601400Y-109270760D01*
X180603940Y-109197100D01*
X180621720Y-109123440D01*
X180654740Y-109052320D01*
X180677600Y-109021840D01*
X180708080Y-108988820D01*
X180743640Y-108955800D01*
X180774120Y-108932940D01*
X180784280Y-108925320D01*
X180850320Y-108894840D01*
X180916360Y-108879600D01*
X180992560Y-108877060D01*
X181017960Y-108877060D01*
X181058600Y-108882140D01*
X181094160Y-108892300D01*
X181134800Y-108910080D01*
X181177980Y-108932940D01*
X181238940Y-108981200D01*
X181287200Y-109042160D01*
X181325300Y-109110740D01*
X181335460Y-109141220D01*
X181345620Y-109179320D01*
X181350700Y-109207260D01*
X181350700Y-109212340D01*
X181350700Y-109212340D01*
X181353240Y-109197100D01*
X181353240Y-109194560D01*
X181365940Y-109146300D01*
X181383720Y-109098040D01*
X181406580Y-109054860D01*
X181447220Y-108998980D01*
X181505640Y-108945640D01*
X181571680Y-108907540D01*
X181645340Y-108882140D01*
X181724080Y-108874520D01*
X181744400Y-108874520D01*
X181802820Y-108882140D01*
X181861240Y-108897380D01*
X181871400Y-108902460D01*
X181934900Y-108938020D01*
X181990780Y-108983740D01*
X182039040Y-109042160D01*
X182072060Y-109103120D01*
X182092380Y-109171700D01*
X182094920Y-109174240D01*
X182097460Y-109192020D01*
X182100000Y-109199640D01*
X182100000Y-109199640D01*
X182102540Y-109189480D01*
X182107620Y-109171700D01*
X182107620Y-109164080D01*
X182130480Y-109098040D01*
X182166040Y-109034540D01*
X182214300Y-108978660D01*
X182260020Y-108940560D01*
X182323520Y-108905000D01*
X182397180Y-108882140D01*
X182475920Y-108874520D01*
X182531800Y-108879600D01*
X182605460Y-108897380D01*
X182674040Y-108932940D01*
X182735000Y-108978660D01*
X182783260Y-109039620D01*
X182790880Y-109047240D01*
X182806120Y-109075180D01*
X182818820Y-109098040D01*
X182823900Y-109115820D01*
X182836600Y-109148840D01*
X182844220Y-109181860D01*
X182846760Y-109207260D01*
X182846760Y-109212340D01*
X182849300Y-109212340D01*
X182851840Y-109194560D01*
X182859460Y-109153920D01*
X182879780Y-109103120D01*
X182900100Y-109057400D01*
X182945820Y-108996440D01*
X183004240Y-108945640D01*
X183070280Y-108907540D01*
X183143940Y-108882140D01*
X183220140Y-108874520D01*
X183291260Y-108879600D01*
X183364920Y-108899920D01*
X183430960Y-108938020D01*
X183491920Y-108988820D01*
X183522400Y-109021840D01*
X183550340Y-109062480D01*
X183573200Y-109110740D01*
X183585900Y-109148840D01*
X183598600Y-109225040D01*
X183596060Y-109298700D01*
X183580820Y-109367280D01*
X183550340Y-109433320D01*
X183509700Y-109491740D01*
X183458900Y-109542540D01*
X183397940Y-109583180D01*
X183329360Y-109608580D01*
X183253160Y-109621280D01*
X183245540Y-109623820D01*
X183169340Y-109621280D01*
X183098220Y-109603500D01*
X183029640Y-109570480D01*
X183004240Y-109552700D01*
X182955980Y-109509520D01*
X182910260Y-109456180D01*
X182879780Y-109400300D01*
X182872160Y-109379980D01*
X182862000Y-109346960D01*
X182854380Y-109313940D01*
X182849300Y-109288540D01*
X182849300Y-109273300D01*
X182846760Y-109288540D01*
X182846760Y-109301240D01*
X182839140Y-109334260D01*
X182828980Y-109372360D01*
X182816280Y-109402840D01*
X182798500Y-109438400D01*
X182752780Y-109499360D01*
X182694360Y-109550160D01*
X182628320Y-109590800D01*
X182554660Y-109616200D01*
X182541960Y-109618740D01*
X182491160Y-109623820D01*
X182435280Y-109621280D01*
X182387020Y-109613660D01*
X182336220Y-109598420D01*
X182267640Y-109562860D01*
X182204140Y-109512060D01*
X182201600Y-109506980D01*
X182158420Y-109453640D01*
X182125400Y-109390140D01*
X182107620Y-109326640D01*
X182105080Y-109324100D01*
X182102540Y-109306320D01*
X182100000Y-109298700D01*
X182097460Y-109303780D01*
X182094920Y-109319020D01*
X182094920Y-109324100D01*
X182084760Y-109362200D01*
X182066980Y-109405380D01*
X182044120Y-109446020D01*
X182011100Y-109491740D01*
X181955220Y-109545080D01*
X181889180Y-109585720D01*
X181815520Y-109613660D01*
X181802820Y-109616200D01*
X181752020Y-109621280D01*
X181696140Y-109621280D01*
X181647880Y-109616200D01*
X181607240Y-109603500D01*
X181536120Y-109573020D01*
X181475160Y-109527300D01*
X181421820Y-109468880D01*
X181383720Y-109402840D01*
X181376100Y-109382520D01*
X181363400Y-109346960D01*
X181355780Y-109313940D01*
X181353240Y-109288540D01*
X181353240Y-109286000D01*
X181350700Y-109286000D01*
X181348160Y-109301240D01*
X181348160Y-109303780D01*
X181338000Y-109349500D01*
X181317680Y-109400300D01*
X181297360Y-109443480D01*
X181287200Y-109458720D01*
X181238940Y-109517140D01*
X181177980Y-109562860D01*
X181114480Y-109598420D01*
X181043360Y-109618740D01*
X180967160Y-109623820D01*
G36*
X183997380Y-108874520D02*
X183951660Y-108871980D01*
X183908480Y-108869440D01*
X183857680Y-108856740D01*
X183789100Y-108823720D01*
X183725600Y-108780540D01*
X183674800Y-108724660D01*
X183634160Y-108658620D01*
X183608760Y-108587500D01*
X183598600Y-108511300D01*
X183603680Y-108435100D01*
X183624000Y-108363980D01*
X183657020Y-108297940D01*
X183705280Y-108236980D01*
X183766240Y-108186180D01*
X183784020Y-108176020D01*
X183857680Y-108143000D01*
X183931340Y-108125220D01*
X184010080Y-108125220D01*
X184086280Y-108140460D01*
X184147240Y-108165860D01*
X184213280Y-108209040D01*
X184266620Y-108264920D01*
X184309800Y-108330960D01*
X184337740Y-108407160D01*
X184345360Y-108445260D01*
X184347900Y-108493520D01*
X184347900Y-108541780D01*
X184340280Y-108582420D01*
X184337740Y-108595120D01*
X184307260Y-108671320D01*
X184264080Y-108737360D01*
X184205660Y-108793240D01*
X184137080Y-108836420D01*
X184106600Y-108849120D01*
X184063420Y-108864360D01*
X184022780Y-108871980D01*
X183997380Y-108874520D01*
X183997380Y-108874520D01*
G37*
X183997380Y-108874520D02*
X183951660Y-108871980D01*
X183908480Y-108869440D01*
X183857680Y-108856740D01*
X183789100Y-108823720D01*
X183725600Y-108780540D01*
X183674800Y-108724660D01*
X183634160Y-108658620D01*
X183608760Y-108587500D01*
X183598600Y-108511300D01*
X183603680Y-108435100D01*
X183624000Y-108363980D01*
X183657020Y-108297940D01*
X183705280Y-108236980D01*
X183766240Y-108186180D01*
X183784020Y-108176020D01*
X183857680Y-108143000D01*
X183931340Y-108125220D01*
X184010080Y-108125220D01*
X184086280Y-108140460D01*
X184147240Y-108165860D01*
X184213280Y-108209040D01*
X184266620Y-108264920D01*
X184309800Y-108330960D01*
X184337740Y-108407160D01*
X184345360Y-108445260D01*
X184347900Y-108493520D01*
X184347900Y-108541780D01*
X184340280Y-108582420D01*
X184337740Y-108595120D01*
X184307260Y-108671320D01*
X184264080Y-108737360D01*
X184205660Y-108793240D01*
X184137080Y-108836420D01*
X184106600Y-108849120D01*
X184063420Y-108864360D01*
X184022780Y-108871980D01*
X183997380Y-108874520D01*
G36*
X180217860Y-108874520D02*
X180141660Y-108864360D01*
X180065460Y-108838960D01*
X179996880Y-108795780D01*
X179981640Y-108783080D01*
X179930840Y-108729740D01*
X179890200Y-108663700D01*
X179862260Y-108590040D01*
X179854640Y-108551940D01*
X179852100Y-108503680D01*
X179852100Y-108455420D01*
X179859720Y-108417320D01*
X179864800Y-108399540D01*
X179892740Y-108323340D01*
X179935920Y-108259840D01*
X179991800Y-108206500D01*
X180055300Y-108165860D01*
X180126420Y-108137920D01*
X180205160Y-108125220D01*
X180233100Y-108122680D01*
X180309300Y-108132840D01*
X180380420Y-108155700D01*
X180443920Y-108193800D01*
X180499800Y-108242060D01*
X180542980Y-108300480D01*
X180576000Y-108366520D01*
X180596320Y-108437640D01*
X180598860Y-108516380D01*
X180596320Y-108562100D01*
X180586160Y-108602740D01*
X180570920Y-108645920D01*
X180540440Y-108704340D01*
X180492180Y-108762760D01*
X180433760Y-108811020D01*
X180367720Y-108846580D01*
X180294060Y-108866900D01*
X180217860Y-108874520D01*
X180217860Y-108874520D01*
G37*
X180217860Y-108874520D02*
X180141660Y-108864360D01*
X180065460Y-108838960D01*
X179996880Y-108795780D01*
X179981640Y-108783080D01*
X179930840Y-108729740D01*
X179890200Y-108663700D01*
X179862260Y-108590040D01*
X179854640Y-108551940D01*
X179852100Y-108503680D01*
X179852100Y-108455420D01*
X179859720Y-108417320D01*
X179864800Y-108399540D01*
X179892740Y-108323340D01*
X179935920Y-108259840D01*
X179991800Y-108206500D01*
X180055300Y-108165860D01*
X180126420Y-108137920D01*
X180205160Y-108125220D01*
X180233100Y-108122680D01*
X180309300Y-108132840D01*
X180380420Y-108155700D01*
X180443920Y-108193800D01*
X180499800Y-108242060D01*
X180542980Y-108300480D01*
X180576000Y-108366520D01*
X180596320Y-108437640D01*
X180598860Y-108516380D01*
X180596320Y-108562100D01*
X180586160Y-108602740D01*
X180570920Y-108645920D01*
X180540440Y-108704340D01*
X180492180Y-108762760D01*
X180433760Y-108811020D01*
X180367720Y-108846580D01*
X180294060Y-108866900D01*
X180217860Y-108874520D01*
G36*
X184744140Y-108122680D02*
X184690800Y-108122680D01*
X184645080Y-108115060D01*
X184591740Y-108099820D01*
X184523160Y-108064260D01*
X184459660Y-108013460D01*
X184419020Y-107967740D01*
X184380920Y-107901700D01*
X184358060Y-107828040D01*
X184352980Y-107800100D01*
X184350440Y-107754380D01*
X184350440Y-107708660D01*
X184355520Y-107670560D01*
X184363140Y-107647700D01*
X184391080Y-107574040D01*
X184434260Y-107510540D01*
X184490140Y-107454660D01*
X184558720Y-107414020D01*
X184584120Y-107401320D01*
X184632380Y-107383540D01*
X184680640Y-107375920D01*
X184736520Y-107375920D01*
X184772080Y-107378460D01*
X184812720Y-107383540D01*
X184850820Y-107393700D01*
X184891460Y-107414020D01*
X184914320Y-107426720D01*
X184977820Y-107472440D01*
X185028620Y-107530860D01*
X185069260Y-107599440D01*
X185092120Y-107675640D01*
X185094660Y-107693420D01*
X185099740Y-107736600D01*
X185097200Y-107782320D01*
X185092120Y-107822960D01*
X185087040Y-107848360D01*
X185056560Y-107922020D01*
X185013380Y-107988060D01*
X184960040Y-108041400D01*
X184891460Y-108084580D01*
X184817800Y-108112520D01*
X184794940Y-108117600D01*
X184744140Y-108122680D01*
X184744140Y-108122680D01*
G37*
X184744140Y-108122680D02*
X184690800Y-108122680D01*
X184645080Y-108115060D01*
X184591740Y-108099820D01*
X184523160Y-108064260D01*
X184459660Y-108013460D01*
X184419020Y-107967740D01*
X184380920Y-107901700D01*
X184358060Y-107828040D01*
X184352980Y-107800100D01*
X184350440Y-107754380D01*
X184350440Y-107708660D01*
X184355520Y-107670560D01*
X184363140Y-107647700D01*
X184391080Y-107574040D01*
X184434260Y-107510540D01*
X184490140Y-107454660D01*
X184558720Y-107414020D01*
X184584120Y-107401320D01*
X184632380Y-107383540D01*
X184680640Y-107375920D01*
X184736520Y-107375920D01*
X184772080Y-107378460D01*
X184812720Y-107383540D01*
X184850820Y-107393700D01*
X184891460Y-107414020D01*
X184914320Y-107426720D01*
X184977820Y-107472440D01*
X185028620Y-107530860D01*
X185069260Y-107599440D01*
X185092120Y-107675640D01*
X185094660Y-107693420D01*
X185099740Y-107736600D01*
X185097200Y-107782320D01*
X185092120Y-107822960D01*
X185087040Y-107848360D01*
X185056560Y-107922020D01*
X185013380Y-107988060D01*
X184960040Y-108041400D01*
X184891460Y-108084580D01*
X184817800Y-108112520D01*
X184794940Y-108117600D01*
X184744140Y-108122680D01*
G36*
X181734240Y-108122680D02*
X181660580Y-108117600D01*
X181589460Y-108097280D01*
X181546280Y-108079500D01*
X181482780Y-108033780D01*
X181429440Y-107977900D01*
X181388800Y-107911860D01*
X181363400Y-107840740D01*
X181358320Y-107822960D01*
X181350700Y-107764540D01*
X181353240Y-107706120D01*
X181368480Y-107640080D01*
X181398960Y-107566420D01*
X181442140Y-107502920D01*
X181498020Y-107452120D01*
X181564060Y-107411480D01*
X181640260Y-107383540D01*
X181688520Y-107370840D01*
X181663120Y-107368300D01*
X181658040Y-107368300D01*
X181604700Y-107353060D01*
X181548820Y-107327660D01*
X181495480Y-107294640D01*
X181487860Y-107287020D01*
X181434520Y-107233680D01*
X181391340Y-107170180D01*
X181365940Y-107099060D01*
X181353240Y-107027940D01*
X181353240Y-106954280D01*
X181371020Y-106880620D01*
X181404040Y-106809500D01*
X181404040Y-106806960D01*
X181452300Y-106746000D01*
X181508180Y-106695200D01*
X181571680Y-106659640D01*
X181640260Y-106636780D01*
X181711380Y-106626620D01*
X181785040Y-106631700D01*
X181856160Y-106649480D01*
X181922200Y-106682500D01*
X181985700Y-106728220D01*
X182016180Y-106763780D01*
X182054280Y-106819660D01*
X182082220Y-106878080D01*
X182094920Y-106933960D01*
X182097460Y-106946660D01*
X182100000Y-106954280D01*
X182102540Y-106949200D01*
X182105080Y-106933960D01*
X182117780Y-106883160D01*
X182140640Y-106829820D01*
X182171120Y-106779020D01*
X182191440Y-106756160D01*
X182247320Y-106702820D01*
X182313360Y-106662180D01*
X182384480Y-106636780D01*
X182460680Y-106626620D01*
X182536880Y-106631700D01*
X182582600Y-106641860D01*
X182656260Y-106672340D01*
X182717220Y-106715520D01*
X182770560Y-106771400D01*
X182811200Y-106837440D01*
X182839140Y-106911100D01*
X182844220Y-106949200D01*
X182849300Y-107025400D01*
X182834060Y-107099060D01*
X182808660Y-107170180D01*
X182765480Y-107233680D01*
X182712140Y-107287020D01*
X182646100Y-107332740D01*
X182615620Y-107345440D01*
X182580060Y-107358140D01*
X182549580Y-107365760D01*
X182524180Y-107370840D01*
X182521640Y-107370840D01*
X182521640Y-107373380D01*
X182539420Y-107378460D01*
X182574980Y-107388620D01*
X182625780Y-107406400D01*
X182668960Y-107426720D01*
X182691820Y-107444500D01*
X182742620Y-107487680D01*
X182785800Y-107541020D01*
X182818820Y-107596900D01*
X182839140Y-107660400D01*
X182849300Y-107726440D01*
X182846760Y-107792480D01*
X182844220Y-107805180D01*
X182823900Y-107883920D01*
X182788340Y-107952500D01*
X182737540Y-108013460D01*
X182696900Y-108051560D01*
X182628320Y-108092200D01*
X182554660Y-108115060D01*
X182526720Y-108120140D01*
X182486080Y-108122680D01*
X182442900Y-108120140D01*
X182402260Y-108117600D01*
X182371780Y-108109980D01*
X182346380Y-108102360D01*
X182275260Y-108066800D01*
X182211760Y-108018540D01*
X182160960Y-107957580D01*
X182143180Y-107927100D01*
X182120320Y-107876300D01*
X182107620Y-107825500D01*
X182105080Y-107822960D01*
X182102540Y-107805180D01*
X182100000Y-107797560D01*
X182100000Y-107797560D01*
X182100000Y-107698500D01*
X182100000Y-107698500D01*
X182102540Y-107690880D01*
X182107620Y-107670560D01*
X182107620Y-107665480D01*
X182130480Y-107599440D01*
X182166040Y-107535940D01*
X182214300Y-107480060D01*
X182270180Y-107434340D01*
X182333680Y-107401320D01*
X182338760Y-107398780D01*
X182371780Y-107388620D01*
X182402260Y-107381000D01*
X182437820Y-107373380D01*
X182404800Y-107368300D01*
X182359080Y-107355600D01*
X182293040Y-107327660D01*
X182232080Y-107284480D01*
X182178740Y-107231140D01*
X182138100Y-107170180D01*
X182125400Y-107137160D01*
X182112700Y-107099060D01*
X182105080Y-107066040D01*
X182102540Y-107053340D01*
X182100000Y-107045720D01*
X182097460Y-107050800D01*
X182094920Y-107066040D01*
X182089840Y-107093980D01*
X182077140Y-107132080D01*
X182061900Y-107170180D01*
X182036500Y-107208280D01*
X181988240Y-107266700D01*
X181929820Y-107312420D01*
X181863780Y-107347980D01*
X181795200Y-107368300D01*
X181762180Y-107373380D01*
X181795200Y-107381000D01*
X181800280Y-107381000D01*
X181833300Y-107388620D01*
X181866320Y-107401320D01*
X181871400Y-107403860D01*
X181934900Y-107436880D01*
X181990780Y-107485140D01*
X182039040Y-107541020D01*
X182072060Y-107604520D01*
X182092380Y-107670560D01*
X182094920Y-107673100D01*
X182097460Y-107690880D01*
X182100000Y-107698500D01*
X182100000Y-107797560D01*
X182100000Y-107797560D01*
X182097460Y-107807720D01*
X182092380Y-107825500D01*
X182079680Y-107876300D01*
X182049200Y-107942340D01*
X182003480Y-108000760D01*
X181947600Y-108051560D01*
X181881560Y-108089660D01*
X181881560Y-108089660D01*
X181810440Y-108115060D01*
X181734240Y-108122680D01*
X181734240Y-108122680D01*
G37*
X181734240Y-108122680D02*
X181660580Y-108117600D01*
X181589460Y-108097280D01*
X181546280Y-108079500D01*
X181482780Y-108033780D01*
X181429440Y-107977900D01*
X181388800Y-107911860D01*
X181363400Y-107840740D01*
X181358320Y-107822960D01*
X181350700Y-107764540D01*
X181353240Y-107706120D01*
X181368480Y-107640080D01*
X181398960Y-107566420D01*
X181442140Y-107502920D01*
X181498020Y-107452120D01*
X181564060Y-107411480D01*
X181640260Y-107383540D01*
X181688520Y-107370840D01*
X181663120Y-107368300D01*
X181658040Y-107368300D01*
X181604700Y-107353060D01*
X181548820Y-107327660D01*
X181495480Y-107294640D01*
X181487860Y-107287020D01*
X181434520Y-107233680D01*
X181391340Y-107170180D01*
X181365940Y-107099060D01*
X181353240Y-107027940D01*
X181353240Y-106954280D01*
X181371020Y-106880620D01*
X181404040Y-106809500D01*
X181404040Y-106806960D01*
X181452300Y-106746000D01*
X181508180Y-106695200D01*
X181571680Y-106659640D01*
X181640260Y-106636780D01*
X181711380Y-106626620D01*
X181785040Y-106631700D01*
X181856160Y-106649480D01*
X181922200Y-106682500D01*
X181985700Y-106728220D01*
X182016180Y-106763780D01*
X182054280Y-106819660D01*
X182082220Y-106878080D01*
X182094920Y-106933960D01*
X182097460Y-106946660D01*
X182100000Y-106954280D01*
X182102540Y-106949200D01*
X182105080Y-106933960D01*
X182117780Y-106883160D01*
X182140640Y-106829820D01*
X182171120Y-106779020D01*
X182191440Y-106756160D01*
X182247320Y-106702820D01*
X182313360Y-106662180D01*
X182384480Y-106636780D01*
X182460680Y-106626620D01*
X182536880Y-106631700D01*
X182582600Y-106641860D01*
X182656260Y-106672340D01*
X182717220Y-106715520D01*
X182770560Y-106771400D01*
X182811200Y-106837440D01*
X182839140Y-106911100D01*
X182844220Y-106949200D01*
X182849300Y-107025400D01*
X182834060Y-107099060D01*
X182808660Y-107170180D01*
X182765480Y-107233680D01*
X182712140Y-107287020D01*
X182646100Y-107332740D01*
X182615620Y-107345440D01*
X182580060Y-107358140D01*
X182549580Y-107365760D01*
X182524180Y-107370840D01*
X182521640Y-107370840D01*
X182521640Y-107373380D01*
X182539420Y-107378460D01*
X182574980Y-107388620D01*
X182625780Y-107406400D01*
X182668960Y-107426720D01*
X182691820Y-107444500D01*
X182742620Y-107487680D01*
X182785800Y-107541020D01*
X182818820Y-107596900D01*
X182839140Y-107660400D01*
X182849300Y-107726440D01*
X182846760Y-107792480D01*
X182844220Y-107805180D01*
X182823900Y-107883920D01*
X182788340Y-107952500D01*
X182737540Y-108013460D01*
X182696900Y-108051560D01*
X182628320Y-108092200D01*
X182554660Y-108115060D01*
X182526720Y-108120140D01*
X182486080Y-108122680D01*
X182442900Y-108120140D01*
X182402260Y-108117600D01*
X182371780Y-108109980D01*
X182346380Y-108102360D01*
X182275260Y-108066800D01*
X182211760Y-108018540D01*
X182160960Y-107957580D01*
X182143180Y-107927100D01*
X182120320Y-107876300D01*
X182107620Y-107825500D01*
X182105080Y-107822960D01*
X182102540Y-107805180D01*
X182100000Y-107797560D01*
X182100000Y-107797560D01*
X182100000Y-107698500D01*
X182100000Y-107698500D01*
X182102540Y-107690880D01*
X182107620Y-107670560D01*
X182107620Y-107665480D01*
X182130480Y-107599440D01*
X182166040Y-107535940D01*
X182214300Y-107480060D01*
X182270180Y-107434340D01*
X182333680Y-107401320D01*
X182338760Y-107398780D01*
X182371780Y-107388620D01*
X182402260Y-107381000D01*
X182437820Y-107373380D01*
X182404800Y-107368300D01*
X182359080Y-107355600D01*
X182293040Y-107327660D01*
X182232080Y-107284480D01*
X182178740Y-107231140D01*
X182138100Y-107170180D01*
X182125400Y-107137160D01*
X182112700Y-107099060D01*
X182105080Y-107066040D01*
X182102540Y-107053340D01*
X182100000Y-107045720D01*
X182097460Y-107050800D01*
X182094920Y-107066040D01*
X182089840Y-107093980D01*
X182077140Y-107132080D01*
X182061900Y-107170180D01*
X182036500Y-107208280D01*
X181988240Y-107266700D01*
X181929820Y-107312420D01*
X181863780Y-107347980D01*
X181795200Y-107368300D01*
X181762180Y-107373380D01*
X181795200Y-107381000D01*
X181800280Y-107381000D01*
X181833300Y-107388620D01*
X181866320Y-107401320D01*
X181871400Y-107403860D01*
X181934900Y-107436880D01*
X181990780Y-107485140D01*
X182039040Y-107541020D01*
X182072060Y-107604520D01*
X182092380Y-107670560D01*
X182094920Y-107673100D01*
X182097460Y-107690880D01*
X182100000Y-107698500D01*
X182100000Y-107797560D01*
X182100000Y-107797560D01*
X182097460Y-107807720D01*
X182092380Y-107825500D01*
X182079680Y-107876300D01*
X182049200Y-107942340D01*
X182003480Y-108000760D01*
X181947600Y-108051560D01*
X181881560Y-108089660D01*
X181881560Y-108089660D01*
X181810440Y-108115060D01*
X181734240Y-108122680D01*
G36*
X179504120Y-108122680D02*
X179443160Y-108122680D01*
X179387280Y-108112520D01*
X179351720Y-108102360D01*
X179280600Y-108069340D01*
X179219640Y-108023620D01*
X179168840Y-107967740D01*
X179133280Y-107901700D01*
X179110420Y-107828040D01*
X179100260Y-107749300D01*
X179102800Y-107718820D01*
X179115500Y-107640080D01*
X179145980Y-107568960D01*
X179194240Y-107500380D01*
X179206940Y-107487680D01*
X179260280Y-107441960D01*
X179321240Y-107406400D01*
X179387280Y-107383540D01*
X179389820Y-107383540D01*
X179445700Y-107375920D01*
X179506660Y-107375920D01*
X179562540Y-107383540D01*
X179582860Y-107388620D01*
X179653980Y-107419100D01*
X179717480Y-107462280D01*
X179768280Y-107513080D01*
X179808920Y-107576580D01*
X179836860Y-107642620D01*
X179849560Y-107716280D01*
X179849560Y-107792480D01*
X179831780Y-107868680D01*
X179806380Y-107924560D01*
X179763200Y-107988060D01*
X179707320Y-108043940D01*
X179643820Y-108084580D01*
X179570160Y-108112520D01*
X179562540Y-108115060D01*
X179504120Y-108122680D01*
X179504120Y-108122680D01*
G37*
X179504120Y-108122680D02*
X179443160Y-108122680D01*
X179387280Y-108112520D01*
X179351720Y-108102360D01*
X179280600Y-108069340D01*
X179219640Y-108023620D01*
X179168840Y-107967740D01*
X179133280Y-107901700D01*
X179110420Y-107828040D01*
X179100260Y-107749300D01*
X179102800Y-107718820D01*
X179115500Y-107640080D01*
X179145980Y-107568960D01*
X179194240Y-107500380D01*
X179206940Y-107487680D01*
X179260280Y-107441960D01*
X179321240Y-107406400D01*
X179387280Y-107383540D01*
X179389820Y-107383540D01*
X179445700Y-107375920D01*
X179506660Y-107375920D01*
X179562540Y-107383540D01*
X179582860Y-107388620D01*
X179653980Y-107419100D01*
X179717480Y-107462280D01*
X179768280Y-107513080D01*
X179808920Y-107576580D01*
X179836860Y-107642620D01*
X179849560Y-107716280D01*
X179849560Y-107792480D01*
X179831780Y-107868680D01*
X179806380Y-107924560D01*
X179763200Y-107988060D01*
X179707320Y-108043940D01*
X179643820Y-108084580D01*
X179570160Y-108112520D01*
X179562540Y-108115060D01*
X179504120Y-108122680D01*
G36*
X183212520Y-105877320D02*
X183138860Y-105867160D01*
X183065200Y-105841760D01*
X183032180Y-105823980D01*
X182999160Y-105801120D01*
X182963600Y-105768100D01*
X182925500Y-105727460D01*
X182884860Y-105663960D01*
X182859460Y-105590300D01*
X182854380Y-105569980D01*
X182849300Y-105521720D01*
X182849300Y-105468380D01*
X182856920Y-105422660D01*
X182877240Y-105359160D01*
X182910260Y-105293120D01*
X182955980Y-105237240D01*
X182963600Y-105229620D01*
X182999160Y-105201680D01*
X183039800Y-105173740D01*
X183077900Y-105155960D01*
X183090600Y-105150880D01*
X183121080Y-105140720D01*
X183151560Y-105133100D01*
X183174420Y-105128020D01*
X183187120Y-105128020D01*
X183171880Y-105125480D01*
X183154100Y-105120400D01*
X183131240Y-105115320D01*
X183103300Y-105107700D01*
X183047420Y-105079760D01*
X182991540Y-105046740D01*
X182948360Y-105006100D01*
X182940740Y-104995940D01*
X182895020Y-104932440D01*
X182864540Y-104861320D01*
X182849300Y-104787660D01*
X182849300Y-104711460D01*
X182851840Y-104693680D01*
X182874700Y-104617480D01*
X182907720Y-104548900D01*
X182961060Y-104485400D01*
X183006780Y-104447300D01*
X183070280Y-104409200D01*
X183143940Y-104383800D01*
X183159180Y-104381260D01*
X183207440Y-104376180D01*
X183260780Y-104378720D01*
X183309040Y-104386340D01*
X183352220Y-104399040D01*
X183420800Y-104432060D01*
X183481760Y-104477780D01*
X183530020Y-104536200D01*
X183568120Y-104599700D01*
X183590980Y-104673360D01*
X183593520Y-104680980D01*
X183598600Y-104698760D01*
X183601140Y-104706380D01*
X183603680Y-104696220D01*
X183603680Y-104680980D01*
X183611300Y-104650500D01*
X183624000Y-104617480D01*
X183636700Y-104587000D01*
X183649400Y-104564140D01*
X183695120Y-104500640D01*
X183751000Y-104447300D01*
X183817040Y-104409200D01*
X183890700Y-104386340D01*
X183971980Y-104376180D01*
X184032940Y-104381260D01*
X184104060Y-104399040D01*
X184170100Y-104432060D01*
X184208200Y-104457460D01*
X184264080Y-104513340D01*
X184304720Y-104576840D01*
X184335200Y-104645420D01*
X184347900Y-104719080D01*
X184347900Y-104795280D01*
X184330120Y-104863860D01*
X184299640Y-104937520D01*
X184253920Y-104998480D01*
X184198040Y-105051820D01*
X184129460Y-105092460D01*
X184053260Y-105117860D01*
X184010080Y-105128020D01*
X184035480Y-105130560D01*
X184050720Y-105133100D01*
X184111680Y-105150880D01*
X184170100Y-105181360D01*
X184225980Y-105222000D01*
X184269160Y-105267720D01*
X184294560Y-105308360D01*
X184319960Y-105359160D01*
X184337740Y-105409960D01*
X184345360Y-105448060D01*
X184347900Y-105496320D01*
X184347900Y-105544580D01*
X184340280Y-105582680D01*
X184327580Y-105628400D01*
X184292020Y-105699520D01*
X184243760Y-105760480D01*
X184185340Y-105811280D01*
X184116760Y-105849380D01*
X184038020Y-105872240D01*
X184017700Y-105874780D01*
X183971980Y-105874780D01*
X183923720Y-105872240D01*
X183880540Y-105864620D01*
X183850060Y-105854460D01*
X183778940Y-105821440D01*
X183717980Y-105775720D01*
X183667180Y-105717300D01*
X183629080Y-105651260D01*
X183606220Y-105575060D01*
X183603680Y-105569980D01*
X183601140Y-105552200D01*
X183598600Y-105554740D01*
X183598600Y-105450600D01*
X183601140Y-105448060D01*
X183603680Y-105432820D01*
X183606220Y-105427740D01*
X183618920Y-105379480D01*
X183641780Y-105326140D01*
X183672260Y-105277880D01*
X183695120Y-105249940D01*
X183753540Y-105196600D01*
X183822120Y-105158500D01*
X183898320Y-105133100D01*
X183933880Y-105125480D01*
X183908480Y-105120400D01*
X183885620Y-105115320D01*
X183862760Y-105110240D01*
X183847520Y-105105160D01*
X183778940Y-105072140D01*
X183717980Y-105023880D01*
X183667180Y-104968000D01*
X183631620Y-104901960D01*
X183606220Y-104830840D01*
X183603680Y-104813060D01*
X183598600Y-104802900D01*
X183596060Y-104807980D01*
X183590980Y-104830840D01*
X183590980Y-104833380D01*
X183578280Y-104874020D01*
X183560500Y-104917200D01*
X183537640Y-104957840D01*
X183517320Y-104983240D01*
X183484300Y-105018800D01*
X183446200Y-105051820D01*
X183410640Y-105077220D01*
X183408100Y-105077220D01*
X183349680Y-105102620D01*
X183288720Y-105120400D01*
X183263320Y-105125480D01*
X183293800Y-105133100D01*
X183359840Y-105150880D01*
X183425880Y-105186440D01*
X183486840Y-105232160D01*
X183535100Y-105288040D01*
X183545260Y-105308360D01*
X183563040Y-105343920D01*
X183580820Y-105382020D01*
X183590980Y-105417580D01*
X183593520Y-105442980D01*
X183593520Y-105442980D01*
X183598600Y-105450600D01*
X183598600Y-105554740D01*
X183596060Y-105554740D01*
X183593520Y-105572520D01*
X183588440Y-105592840D01*
X183580820Y-105615700D01*
X183565580Y-105653800D01*
X183527480Y-105719840D01*
X183479220Y-105775720D01*
X183420800Y-105818900D01*
X183354760Y-105851920D01*
X183286180Y-105872240D01*
X183212520Y-105877320D01*
X183212520Y-105877320D01*
G37*
X183212520Y-105877320D02*
X183138860Y-105867160D01*
X183065200Y-105841760D01*
X183032180Y-105823980D01*
X182999160Y-105801120D01*
X182963600Y-105768100D01*
X182925500Y-105727460D01*
X182884860Y-105663960D01*
X182859460Y-105590300D01*
X182854380Y-105569980D01*
X182849300Y-105521720D01*
X182849300Y-105468380D01*
X182856920Y-105422660D01*
X182877240Y-105359160D01*
X182910260Y-105293120D01*
X182955980Y-105237240D01*
X182963600Y-105229620D01*
X182999160Y-105201680D01*
X183039800Y-105173740D01*
X183077900Y-105155960D01*
X183090600Y-105150880D01*
X183121080Y-105140720D01*
X183151560Y-105133100D01*
X183174420Y-105128020D01*
X183187120Y-105128020D01*
X183171880Y-105125480D01*
X183154100Y-105120400D01*
X183131240Y-105115320D01*
X183103300Y-105107700D01*
X183047420Y-105079760D01*
X182991540Y-105046740D01*
X182948360Y-105006100D01*
X182940740Y-104995940D01*
X182895020Y-104932440D01*
X182864540Y-104861320D01*
X182849300Y-104787660D01*
X182849300Y-104711460D01*
X182851840Y-104693680D01*
X182874700Y-104617480D01*
X182907720Y-104548900D01*
X182961060Y-104485400D01*
X183006780Y-104447300D01*
X183070280Y-104409200D01*
X183143940Y-104383800D01*
X183159180Y-104381260D01*
X183207440Y-104376180D01*
X183260780Y-104378720D01*
X183309040Y-104386340D01*
X183352220Y-104399040D01*
X183420800Y-104432060D01*
X183481760Y-104477780D01*
X183530020Y-104536200D01*
X183568120Y-104599700D01*
X183590980Y-104673360D01*
X183593520Y-104680980D01*
X183598600Y-104698760D01*
X183601140Y-104706380D01*
X183603680Y-104696220D01*
X183603680Y-104680980D01*
X183611300Y-104650500D01*
X183624000Y-104617480D01*
X183636700Y-104587000D01*
X183649400Y-104564140D01*
X183695120Y-104500640D01*
X183751000Y-104447300D01*
X183817040Y-104409200D01*
X183890700Y-104386340D01*
X183971980Y-104376180D01*
X184032940Y-104381260D01*
X184104060Y-104399040D01*
X184170100Y-104432060D01*
X184208200Y-104457460D01*
X184264080Y-104513340D01*
X184304720Y-104576840D01*
X184335200Y-104645420D01*
X184347900Y-104719080D01*
X184347900Y-104795280D01*
X184330120Y-104863860D01*
X184299640Y-104937520D01*
X184253920Y-104998480D01*
X184198040Y-105051820D01*
X184129460Y-105092460D01*
X184053260Y-105117860D01*
X184010080Y-105128020D01*
X184035480Y-105130560D01*
X184050720Y-105133100D01*
X184111680Y-105150880D01*
X184170100Y-105181360D01*
X184225980Y-105222000D01*
X184269160Y-105267720D01*
X184294560Y-105308360D01*
X184319960Y-105359160D01*
X184337740Y-105409960D01*
X184345360Y-105448060D01*
X184347900Y-105496320D01*
X184347900Y-105544580D01*
X184340280Y-105582680D01*
X184327580Y-105628400D01*
X184292020Y-105699520D01*
X184243760Y-105760480D01*
X184185340Y-105811280D01*
X184116760Y-105849380D01*
X184038020Y-105872240D01*
X184017700Y-105874780D01*
X183971980Y-105874780D01*
X183923720Y-105872240D01*
X183880540Y-105864620D01*
X183850060Y-105854460D01*
X183778940Y-105821440D01*
X183717980Y-105775720D01*
X183667180Y-105717300D01*
X183629080Y-105651260D01*
X183606220Y-105575060D01*
X183603680Y-105569980D01*
X183601140Y-105552200D01*
X183598600Y-105554740D01*
X183598600Y-105450600D01*
X183601140Y-105448060D01*
X183603680Y-105432820D01*
X183606220Y-105427740D01*
X183618920Y-105379480D01*
X183641780Y-105326140D01*
X183672260Y-105277880D01*
X183695120Y-105249940D01*
X183753540Y-105196600D01*
X183822120Y-105158500D01*
X183898320Y-105133100D01*
X183933880Y-105125480D01*
X183908480Y-105120400D01*
X183885620Y-105115320D01*
X183862760Y-105110240D01*
X183847520Y-105105160D01*
X183778940Y-105072140D01*
X183717980Y-105023880D01*
X183667180Y-104968000D01*
X183631620Y-104901960D01*
X183606220Y-104830840D01*
X183603680Y-104813060D01*
X183598600Y-104802900D01*
X183596060Y-104807980D01*
X183590980Y-104830840D01*
X183590980Y-104833380D01*
X183578280Y-104874020D01*
X183560500Y-104917200D01*
X183537640Y-104957840D01*
X183517320Y-104983240D01*
X183484300Y-105018800D01*
X183446200Y-105051820D01*
X183410640Y-105077220D01*
X183408100Y-105077220D01*
X183349680Y-105102620D01*
X183288720Y-105120400D01*
X183263320Y-105125480D01*
X183293800Y-105133100D01*
X183359840Y-105150880D01*
X183425880Y-105186440D01*
X183486840Y-105232160D01*
X183535100Y-105288040D01*
X183545260Y-105308360D01*
X183563040Y-105343920D01*
X183580820Y-105382020D01*
X183590980Y-105417580D01*
X183593520Y-105442980D01*
X183593520Y-105442980D01*
X183598600Y-105450600D01*
X183598600Y-105554740D01*
X183596060Y-105554740D01*
X183593520Y-105572520D01*
X183588440Y-105592840D01*
X183580820Y-105615700D01*
X183565580Y-105653800D01*
X183527480Y-105719840D01*
X183479220Y-105775720D01*
X183420800Y-105818900D01*
X183354760Y-105851920D01*
X183286180Y-105872240D01*
X183212520Y-105877320D01*
G36*
X180957000Y-105877320D02*
X180883340Y-105864620D01*
X180812220Y-105839220D01*
X180748720Y-105798580D01*
X180695380Y-105747780D01*
X180649660Y-105686820D01*
X180619180Y-105615700D01*
X180611560Y-105592840D01*
X180606480Y-105572520D01*
X180606480Y-105567440D01*
X180601400Y-105552200D01*
X180601400Y-105552200D01*
X180601400Y-105448060D01*
X180606480Y-105437900D01*
X180611560Y-105412500D01*
X180624260Y-105369320D01*
X180657280Y-105300740D01*
X180703000Y-105242320D01*
X180761420Y-105194060D01*
X180827460Y-105155960D01*
X180901120Y-105133100D01*
X180936680Y-105125480D01*
X180911280Y-105120400D01*
X180908740Y-105120400D01*
X180847780Y-105102620D01*
X180789360Y-105077220D01*
X180766500Y-105061980D01*
X180728400Y-105028960D01*
X180690300Y-104993400D01*
X180662360Y-104957840D01*
X180644580Y-104924820D01*
X180621720Y-104876560D01*
X180609020Y-104833380D01*
X180606480Y-104813060D01*
X180601400Y-104802900D01*
X180598860Y-104807980D01*
X180593780Y-104830840D01*
X180578540Y-104879100D01*
X180545520Y-104950220D01*
X180494720Y-105011180D01*
X180438840Y-105059440D01*
X180370260Y-105097540D01*
X180291520Y-105120400D01*
X180266120Y-105125480D01*
X180301680Y-105133100D01*
X180337240Y-105143260D01*
X180408360Y-105173740D01*
X180471860Y-105219460D01*
X180525200Y-105277880D01*
X180542980Y-105298200D01*
X180560760Y-105333760D01*
X180578540Y-105371860D01*
X180588700Y-105399800D01*
X180593780Y-105427740D01*
X180593780Y-105430280D01*
X180598860Y-105445520D01*
X180601400Y-105448060D01*
X180601400Y-105552200D01*
X180598860Y-105554740D01*
X180593780Y-105575060D01*
X180588700Y-105600460D01*
X180565840Y-105656340D01*
X180537900Y-105709680D01*
X180515040Y-105737620D01*
X180459160Y-105793500D01*
X180393120Y-105836680D01*
X180316920Y-105864620D01*
X180283900Y-105872240D01*
X180233100Y-105874780D01*
X180179760Y-105872240D01*
X180134040Y-105864620D01*
X180128960Y-105864620D01*
X180052760Y-105834140D01*
X179986720Y-105790960D01*
X179933380Y-105735080D01*
X179890200Y-105669040D01*
X179862260Y-105592840D01*
X179854640Y-105559820D01*
X179852100Y-105506480D01*
X179854640Y-105455680D01*
X179862260Y-105409960D01*
X179874960Y-105369320D01*
X179900360Y-105315980D01*
X179930840Y-105267720D01*
X179966400Y-105232160D01*
X180012120Y-105194060D01*
X180060380Y-105163580D01*
X180078160Y-105155960D01*
X180113720Y-105143260D01*
X180149280Y-105133100D01*
X180174680Y-105128020D01*
X180177220Y-105128020D01*
X180169600Y-105125480D01*
X180146740Y-105117860D01*
X180103560Y-105105160D01*
X180055300Y-105084840D01*
X180014660Y-105061980D01*
X180004500Y-105054360D01*
X179956240Y-105011180D01*
X179913060Y-104957840D01*
X179882580Y-104901960D01*
X179869880Y-104874020D01*
X179854640Y-104800360D01*
X179852100Y-104721620D01*
X179864800Y-104647960D01*
X179869880Y-104630180D01*
X179902900Y-104561600D01*
X179948620Y-104500640D01*
X180004500Y-104447300D01*
X180070540Y-104409200D01*
X180146740Y-104383800D01*
X180156900Y-104381260D01*
X180207700Y-104376180D01*
X180263580Y-104378720D01*
X180311840Y-104386340D01*
X180324540Y-104388880D01*
X180398200Y-104416820D01*
X180464240Y-104460000D01*
X180520120Y-104518420D01*
X180563300Y-104587000D01*
X180573460Y-104607320D01*
X180583620Y-104640340D01*
X180593780Y-104673360D01*
X180596320Y-104696220D01*
X180596320Y-104701300D01*
X180598860Y-104703840D01*
X180603940Y-104693680D01*
X180609020Y-104673360D01*
X180621720Y-104622560D01*
X180654740Y-104556520D01*
X180700460Y-104498100D01*
X180756340Y-104447300D01*
X180822380Y-104409200D01*
X180822380Y-104409200D01*
X180890960Y-104386340D01*
X180967160Y-104376180D01*
X181043360Y-104381260D01*
X181114480Y-104401580D01*
X181155120Y-104421900D01*
X181218620Y-104465080D01*
X181271960Y-104520960D01*
X181312600Y-104587000D01*
X181340540Y-104660660D01*
X181343080Y-104675900D01*
X181353240Y-104736860D01*
X181348160Y-104795280D01*
X181332920Y-104863860D01*
X181302440Y-104934980D01*
X181256720Y-104998480D01*
X181200840Y-105051820D01*
X181132260Y-105092460D01*
X181056060Y-105117860D01*
X181040820Y-105122940D01*
X181025580Y-105128020D01*
X181025580Y-105128020D01*
X181048440Y-105130560D01*
X181091620Y-105143260D01*
X181137340Y-105163580D01*
X181183060Y-105188980D01*
X181223700Y-105219460D01*
X181277040Y-105277880D01*
X181317680Y-105346460D01*
X181322760Y-105356620D01*
X181345620Y-105430280D01*
X181350700Y-105506480D01*
X181343080Y-105585220D01*
X181317680Y-105656340D01*
X181299900Y-105691900D01*
X181277040Y-105724920D01*
X181244020Y-105760480D01*
X181244020Y-105763020D01*
X181183060Y-105813820D01*
X181114480Y-105849380D01*
X181040820Y-105869700D01*
X181033200Y-105872240D01*
X180957000Y-105877320D01*
X180957000Y-105877320D01*
G37*
X180957000Y-105877320D02*
X180883340Y-105864620D01*
X180812220Y-105839220D01*
X180748720Y-105798580D01*
X180695380Y-105747780D01*
X180649660Y-105686820D01*
X180619180Y-105615700D01*
X180611560Y-105592840D01*
X180606480Y-105572520D01*
X180606480Y-105567440D01*
X180601400Y-105552200D01*
X180601400Y-105552200D01*
X180601400Y-105448060D01*
X180606480Y-105437900D01*
X180611560Y-105412500D01*
X180624260Y-105369320D01*
X180657280Y-105300740D01*
X180703000Y-105242320D01*
X180761420Y-105194060D01*
X180827460Y-105155960D01*
X180901120Y-105133100D01*
X180936680Y-105125480D01*
X180911280Y-105120400D01*
X180908740Y-105120400D01*
X180847780Y-105102620D01*
X180789360Y-105077220D01*
X180766500Y-105061980D01*
X180728400Y-105028960D01*
X180690300Y-104993400D01*
X180662360Y-104957840D01*
X180644580Y-104924820D01*
X180621720Y-104876560D01*
X180609020Y-104833380D01*
X180606480Y-104813060D01*
X180601400Y-104802900D01*
X180598860Y-104807980D01*
X180593780Y-104830840D01*
X180578540Y-104879100D01*
X180545520Y-104950220D01*
X180494720Y-105011180D01*
X180438840Y-105059440D01*
X180370260Y-105097540D01*
X180291520Y-105120400D01*
X180266120Y-105125480D01*
X180301680Y-105133100D01*
X180337240Y-105143260D01*
X180408360Y-105173740D01*
X180471860Y-105219460D01*
X180525200Y-105277880D01*
X180542980Y-105298200D01*
X180560760Y-105333760D01*
X180578540Y-105371860D01*
X180588700Y-105399800D01*
X180593780Y-105427740D01*
X180593780Y-105430280D01*
X180598860Y-105445520D01*
X180601400Y-105448060D01*
X180601400Y-105552200D01*
X180598860Y-105554740D01*
X180593780Y-105575060D01*
X180588700Y-105600460D01*
X180565840Y-105656340D01*
X180537900Y-105709680D01*
X180515040Y-105737620D01*
X180459160Y-105793500D01*
X180393120Y-105836680D01*
X180316920Y-105864620D01*
X180283900Y-105872240D01*
X180233100Y-105874780D01*
X180179760Y-105872240D01*
X180134040Y-105864620D01*
X180128960Y-105864620D01*
X180052760Y-105834140D01*
X179986720Y-105790960D01*
X179933380Y-105735080D01*
X179890200Y-105669040D01*
X179862260Y-105592840D01*
X179854640Y-105559820D01*
X179852100Y-105506480D01*
X179854640Y-105455680D01*
X179862260Y-105409960D01*
X179874960Y-105369320D01*
X179900360Y-105315980D01*
X179930840Y-105267720D01*
X179966400Y-105232160D01*
X180012120Y-105194060D01*
X180060380Y-105163580D01*
X180078160Y-105155960D01*
X180113720Y-105143260D01*
X180149280Y-105133100D01*
X180174680Y-105128020D01*
X180177220Y-105128020D01*
X180169600Y-105125480D01*
X180146740Y-105117860D01*
X180103560Y-105105160D01*
X180055300Y-105084840D01*
X180014660Y-105061980D01*
X180004500Y-105054360D01*
X179956240Y-105011180D01*
X179913060Y-104957840D01*
X179882580Y-104901960D01*
X179869880Y-104874020D01*
X179854640Y-104800360D01*
X179852100Y-104721620D01*
X179864800Y-104647960D01*
X179869880Y-104630180D01*
X179902900Y-104561600D01*
X179948620Y-104500640D01*
X180004500Y-104447300D01*
X180070540Y-104409200D01*
X180146740Y-104383800D01*
X180156900Y-104381260D01*
X180207700Y-104376180D01*
X180263580Y-104378720D01*
X180311840Y-104386340D01*
X180324540Y-104388880D01*
X180398200Y-104416820D01*
X180464240Y-104460000D01*
X180520120Y-104518420D01*
X180563300Y-104587000D01*
X180573460Y-104607320D01*
X180583620Y-104640340D01*
X180593780Y-104673360D01*
X180596320Y-104696220D01*
X180596320Y-104701300D01*
X180598860Y-104703840D01*
X180603940Y-104693680D01*
X180609020Y-104673360D01*
X180621720Y-104622560D01*
X180654740Y-104556520D01*
X180700460Y-104498100D01*
X180756340Y-104447300D01*
X180822380Y-104409200D01*
X180822380Y-104409200D01*
X180890960Y-104386340D01*
X180967160Y-104376180D01*
X181043360Y-104381260D01*
X181114480Y-104401580D01*
X181155120Y-104421900D01*
X181218620Y-104465080D01*
X181271960Y-104520960D01*
X181312600Y-104587000D01*
X181340540Y-104660660D01*
X181343080Y-104675900D01*
X181353240Y-104736860D01*
X181348160Y-104795280D01*
X181332920Y-104863860D01*
X181302440Y-104934980D01*
X181256720Y-104998480D01*
X181200840Y-105051820D01*
X181132260Y-105092460D01*
X181056060Y-105117860D01*
X181040820Y-105122940D01*
X181025580Y-105128020D01*
X181025580Y-105128020D01*
X181048440Y-105130560D01*
X181091620Y-105143260D01*
X181137340Y-105163580D01*
X181183060Y-105188980D01*
X181223700Y-105219460D01*
X181277040Y-105277880D01*
X181317680Y-105346460D01*
X181322760Y-105356620D01*
X181345620Y-105430280D01*
X181350700Y-105506480D01*
X181343080Y-105585220D01*
X181317680Y-105656340D01*
X181299900Y-105691900D01*
X181277040Y-105724920D01*
X181244020Y-105760480D01*
X181244020Y-105763020D01*
X181183060Y-105813820D01*
X181114480Y-105849380D01*
X181040820Y-105869700D01*
X181033200Y-105872240D01*
X180957000Y-105877320D01*
G36*
X134118640Y-109694940D02*
X134085620Y-109677160D01*
X134017040Y-109633980D01*
X133915440Y-109567940D01*
X133798600Y-109489200D01*
X133679220Y-109407920D01*
X133580160Y-109341880D01*
X133511580Y-109298700D01*
X133483640Y-109283460D01*
X133468400Y-109288540D01*
X133412520Y-109316480D01*
X133331240Y-109359660D01*
X133282980Y-109382520D01*
X133206780Y-109415540D01*
X133171220Y-109423160D01*
X133163600Y-109413000D01*
X133135660Y-109354580D01*
X133092480Y-109255520D01*
X133036600Y-109125980D01*
X132970560Y-108973580D01*
X132901980Y-108808480D01*
X132833400Y-108640840D01*
X132767360Y-108483360D01*
X132706400Y-108338580D01*
X132660680Y-108221740D01*
X132630200Y-108140460D01*
X132617500Y-108104900D01*
X132622580Y-108097280D01*
X132658140Y-108061720D01*
X132724180Y-108013460D01*
X132866420Y-107896620D01*
X133006120Y-107721360D01*
X133092480Y-107523240D01*
X133120420Y-107302260D01*
X133097560Y-107099060D01*
X133016280Y-106903480D01*
X132879120Y-106725680D01*
X132711480Y-106593600D01*
X132518440Y-106512320D01*
X132300000Y-106484380D01*
X132091720Y-106507240D01*
X131891060Y-106585980D01*
X131713260Y-106720600D01*
X131639600Y-106806960D01*
X131535460Y-106987300D01*
X131477040Y-107177800D01*
X131471960Y-107226060D01*
X131479580Y-107436880D01*
X131543080Y-107640080D01*
X131652300Y-107820420D01*
X131807240Y-107967740D01*
X131827560Y-107982980D01*
X131898680Y-108036320D01*
X131946940Y-108071880D01*
X131985040Y-108102360D01*
X131715800Y-108750060D01*
X131672620Y-108851660D01*
X131598960Y-109026920D01*
X131535460Y-109179320D01*
X131482120Y-109301240D01*
X131446560Y-109382520D01*
X131431320Y-109415540D01*
X131428780Y-109415540D01*
X131405920Y-109420620D01*
X131357660Y-109402840D01*
X131266220Y-109359660D01*
X131207800Y-109329180D01*
X131139220Y-109296160D01*
X131108740Y-109283460D01*
X131080800Y-109296160D01*
X131014760Y-109339340D01*
X130920780Y-109405380D01*
X130803940Y-109481580D01*
X130694720Y-109557780D01*
X130593120Y-109623820D01*
X130519460Y-109672080D01*
X130483900Y-109689860D01*
X130478820Y-109689860D01*
X130445800Y-109672080D01*
X130387380Y-109623820D01*
X130301020Y-109540000D01*
X130176560Y-109418080D01*
X130156240Y-109400300D01*
X130054640Y-109296160D01*
X129970820Y-109207260D01*
X129914940Y-109146300D01*
X129894620Y-109118360D01*
X129894620Y-109118360D01*
X129914940Y-109082800D01*
X129960660Y-109009140D01*
X130026700Y-108907540D01*
X130107980Y-108785620D01*
X130323880Y-108475740D01*
X130204500Y-108183640D01*
X130168940Y-108092200D01*
X130123220Y-107982980D01*
X130090200Y-107906780D01*
X130072420Y-107871220D01*
X130039400Y-107861060D01*
X129960660Y-107840740D01*
X129843820Y-107817880D01*
X129704120Y-107792480D01*
X129572040Y-107767080D01*
X129452660Y-107744220D01*
X129366300Y-107728980D01*
X129328200Y-107721360D01*
X129318040Y-107713740D01*
X129310420Y-107695960D01*
X129305340Y-107655320D01*
X129302800Y-107581660D01*
X129300260Y-107467360D01*
X129300260Y-107302260D01*
X129300260Y-107284480D01*
X129302800Y-107127000D01*
X129305340Y-107002540D01*
X129310420Y-106921260D01*
X129315500Y-106888240D01*
X129315500Y-106888240D01*
X129353600Y-106878080D01*
X129437420Y-106860300D01*
X129556800Y-106837440D01*
X129699040Y-106809500D01*
X129709200Y-106809500D01*
X129851440Y-106781560D01*
X129968280Y-106756160D01*
X130052100Y-106738380D01*
X130087660Y-106725680D01*
X130095280Y-106715520D01*
X130123220Y-106659640D01*
X130163860Y-106573280D01*
X130212120Y-106466600D01*
X130257840Y-106354840D01*
X130298480Y-106253240D01*
X130323880Y-106179580D01*
X130331500Y-106144020D01*
X130331500Y-106144020D01*
X130311180Y-106111000D01*
X130262920Y-106037340D01*
X130191800Y-105935740D01*
X130110520Y-105813820D01*
X130102900Y-105803660D01*
X130021620Y-105684280D01*
X129955580Y-105582680D01*
X129912400Y-105511560D01*
X129894620Y-105478540D01*
X129894620Y-105476000D01*
X129922560Y-105440440D01*
X129983520Y-105371860D01*
X130072420Y-105280420D01*
X130176560Y-105176280D01*
X130209580Y-105143260D01*
X130326420Y-105028960D01*
X130407700Y-104955300D01*
X130458500Y-104914660D01*
X130481360Y-104904500D01*
X130483900Y-104907040D01*
X130519460Y-104927360D01*
X130595660Y-104978160D01*
X130697260Y-105046740D01*
X130819180Y-105130560D01*
X130826800Y-105135640D01*
X130948720Y-105216920D01*
X131047780Y-105285500D01*
X131118900Y-105331220D01*
X131149380Y-105349000D01*
X131154460Y-105349000D01*
X131202720Y-105336300D01*
X131289080Y-105305820D01*
X131393220Y-105265180D01*
X131504980Y-105222000D01*
X131606580Y-105178820D01*
X131680240Y-105143260D01*
X131715800Y-105122940D01*
X131718340Y-105122940D01*
X131731040Y-105079760D01*
X131751360Y-104988320D01*
X131776760Y-104866400D01*
X131804700Y-104719080D01*
X131809780Y-104696220D01*
X131835180Y-104551440D01*
X131858040Y-104434600D01*
X131875820Y-104353320D01*
X131883440Y-104317760D01*
X131903760Y-104315220D01*
X131974880Y-104310140D01*
X132081560Y-104305060D01*
X132211100Y-104305060D01*
X132345720Y-104305060D01*
X132477800Y-104307600D01*
X132589560Y-104312680D01*
X132670840Y-104317760D01*
X132706400Y-104325380D01*
X132706400Y-104327920D01*
X132719100Y-104371100D01*
X132739420Y-104460000D01*
X132764820Y-104584460D01*
X132792760Y-104731780D01*
X132797840Y-104759720D01*
X132823240Y-104901960D01*
X132848640Y-105018800D01*
X132866420Y-105097540D01*
X132874040Y-105130560D01*
X132886740Y-105135640D01*
X132945160Y-105163580D01*
X133041680Y-105201680D01*
X133161060Y-105249940D01*
X133435380Y-105361700D01*
X133770660Y-105130560D01*
X133801140Y-105110240D01*
X133923060Y-105026420D01*
X134022120Y-104960380D01*
X134093240Y-104917200D01*
X134121180Y-104899420D01*
X134123720Y-104901960D01*
X134156740Y-104929900D01*
X134222780Y-104993400D01*
X134314220Y-105082300D01*
X134420900Y-105186440D01*
X134499640Y-105265180D01*
X134591080Y-105359160D01*
X134649500Y-105422660D01*
X134682520Y-105463300D01*
X134695220Y-105488700D01*
X134690140Y-105506480D01*
X134669820Y-105539500D01*
X134619020Y-105613160D01*
X134550440Y-105717300D01*
X134469160Y-105834140D01*
X134400580Y-105935740D01*
X134326920Y-106047500D01*
X134281200Y-106128780D01*
X134263420Y-106166880D01*
X134268500Y-106184660D01*
X134291360Y-106250700D01*
X134332000Y-106349760D01*
X134382800Y-106469140D01*
X134499640Y-106735840D01*
X134674900Y-106768860D01*
X134779040Y-106789180D01*
X134928900Y-106817120D01*
X135071140Y-106845060D01*
X135292120Y-106888240D01*
X135299740Y-107698500D01*
X135264180Y-107713740D01*
X135231160Y-107723900D01*
X135149880Y-107741680D01*
X135033040Y-107764540D01*
X134895880Y-107789940D01*
X134776500Y-107812800D01*
X134659660Y-107835660D01*
X134573300Y-107850900D01*
X134535200Y-107858520D01*
X134527580Y-107871220D01*
X134497100Y-107929640D01*
X134453920Y-108021080D01*
X134408200Y-108130300D01*
X134359940Y-108244600D01*
X134319300Y-108348740D01*
X134288820Y-108430020D01*
X134278660Y-108470660D01*
X134293900Y-108501140D01*
X134339620Y-108572260D01*
X134405660Y-108671320D01*
X134484400Y-108788160D01*
X134565680Y-108907540D01*
X134634260Y-109006600D01*
X134682520Y-109080260D01*
X134700300Y-109113280D01*
X134690140Y-109136140D01*
X134644420Y-109192020D01*
X134555520Y-109283460D01*
X134423440Y-109415540D01*
X134400580Y-109435860D01*
X134296440Y-109537460D01*
X134207540Y-109618740D01*
X134146580Y-109674620D01*
X134118640Y-109694940D01*
X134118640Y-109694940D01*
G37*
X134118640Y-109694940D02*
X134085620Y-109677160D01*
X134017040Y-109633980D01*
X133915440Y-109567940D01*
X133798600Y-109489200D01*
X133679220Y-109407920D01*
X133580160Y-109341880D01*
X133511580Y-109298700D01*
X133483640Y-109283460D01*
X133468400Y-109288540D01*
X133412520Y-109316480D01*
X133331240Y-109359660D01*
X133282980Y-109382520D01*
X133206780Y-109415540D01*
X133171220Y-109423160D01*
X133163600Y-109413000D01*
X133135660Y-109354580D01*
X133092480Y-109255520D01*
X133036600Y-109125980D01*
X132970560Y-108973580D01*
X132901980Y-108808480D01*
X132833400Y-108640840D01*
X132767360Y-108483360D01*
X132706400Y-108338580D01*
X132660680Y-108221740D01*
X132630200Y-108140460D01*
X132617500Y-108104900D01*
X132622580Y-108097280D01*
X132658140Y-108061720D01*
X132724180Y-108013460D01*
X132866420Y-107896620D01*
X133006120Y-107721360D01*
X133092480Y-107523240D01*
X133120420Y-107302260D01*
X133097560Y-107099060D01*
X133016280Y-106903480D01*
X132879120Y-106725680D01*
X132711480Y-106593600D01*
X132518440Y-106512320D01*
X132300000Y-106484380D01*
X132091720Y-106507240D01*
X131891060Y-106585980D01*
X131713260Y-106720600D01*
X131639600Y-106806960D01*
X131535460Y-106987300D01*
X131477040Y-107177800D01*
X131471960Y-107226060D01*
X131479580Y-107436880D01*
X131543080Y-107640080D01*
X131652300Y-107820420D01*
X131807240Y-107967740D01*
X131827560Y-107982980D01*
X131898680Y-108036320D01*
X131946940Y-108071880D01*
X131985040Y-108102360D01*
X131715800Y-108750060D01*
X131672620Y-108851660D01*
X131598960Y-109026920D01*
X131535460Y-109179320D01*
X131482120Y-109301240D01*
X131446560Y-109382520D01*
X131431320Y-109415540D01*
X131428780Y-109415540D01*
X131405920Y-109420620D01*
X131357660Y-109402840D01*
X131266220Y-109359660D01*
X131207800Y-109329180D01*
X131139220Y-109296160D01*
X131108740Y-109283460D01*
X131080800Y-109296160D01*
X131014760Y-109339340D01*
X130920780Y-109405380D01*
X130803940Y-109481580D01*
X130694720Y-109557780D01*
X130593120Y-109623820D01*
X130519460Y-109672080D01*
X130483900Y-109689860D01*
X130478820Y-109689860D01*
X130445800Y-109672080D01*
X130387380Y-109623820D01*
X130301020Y-109540000D01*
X130176560Y-109418080D01*
X130156240Y-109400300D01*
X130054640Y-109296160D01*
X129970820Y-109207260D01*
X129914940Y-109146300D01*
X129894620Y-109118360D01*
X129894620Y-109118360D01*
X129914940Y-109082800D01*
X129960660Y-109009140D01*
X130026700Y-108907540D01*
X130107980Y-108785620D01*
X130323880Y-108475740D01*
X130204500Y-108183640D01*
X130168940Y-108092200D01*
X130123220Y-107982980D01*
X130090200Y-107906780D01*
X130072420Y-107871220D01*
X130039400Y-107861060D01*
X129960660Y-107840740D01*
X129843820Y-107817880D01*
X129704120Y-107792480D01*
X129572040Y-107767080D01*
X129452660Y-107744220D01*
X129366300Y-107728980D01*
X129328200Y-107721360D01*
X129318040Y-107713740D01*
X129310420Y-107695960D01*
X129305340Y-107655320D01*
X129302800Y-107581660D01*
X129300260Y-107467360D01*
X129300260Y-107302260D01*
X129300260Y-107284480D01*
X129302800Y-107127000D01*
X129305340Y-107002540D01*
X129310420Y-106921260D01*
X129315500Y-106888240D01*
X129315500Y-106888240D01*
X129353600Y-106878080D01*
X129437420Y-106860300D01*
X129556800Y-106837440D01*
X129699040Y-106809500D01*
X129709200Y-106809500D01*
X129851440Y-106781560D01*
X129968280Y-106756160D01*
X130052100Y-106738380D01*
X130087660Y-106725680D01*
X130095280Y-106715520D01*
X130123220Y-106659640D01*
X130163860Y-106573280D01*
X130212120Y-106466600D01*
X130257840Y-106354840D01*
X130298480Y-106253240D01*
X130323880Y-106179580D01*
X130331500Y-106144020D01*
X130331500Y-106144020D01*
X130311180Y-106111000D01*
X130262920Y-106037340D01*
X130191800Y-105935740D01*
X130110520Y-105813820D01*
X130102900Y-105803660D01*
X130021620Y-105684280D01*
X129955580Y-105582680D01*
X129912400Y-105511560D01*
X129894620Y-105478540D01*
X129894620Y-105476000D01*
X129922560Y-105440440D01*
X129983520Y-105371860D01*
X130072420Y-105280420D01*
X130176560Y-105176280D01*
X130209580Y-105143260D01*
X130326420Y-105028960D01*
X130407700Y-104955300D01*
X130458500Y-104914660D01*
X130481360Y-104904500D01*
X130483900Y-104907040D01*
X130519460Y-104927360D01*
X130595660Y-104978160D01*
X130697260Y-105046740D01*
X130819180Y-105130560D01*
X130826800Y-105135640D01*
X130948720Y-105216920D01*
X131047780Y-105285500D01*
X131118900Y-105331220D01*
X131149380Y-105349000D01*
X131154460Y-105349000D01*
X131202720Y-105336300D01*
X131289080Y-105305820D01*
X131393220Y-105265180D01*
X131504980Y-105222000D01*
X131606580Y-105178820D01*
X131680240Y-105143260D01*
X131715800Y-105122940D01*
X131718340Y-105122940D01*
X131731040Y-105079760D01*
X131751360Y-104988320D01*
X131776760Y-104866400D01*
X131804700Y-104719080D01*
X131809780Y-104696220D01*
X131835180Y-104551440D01*
X131858040Y-104434600D01*
X131875820Y-104353320D01*
X131883440Y-104317760D01*
X131903760Y-104315220D01*
X131974880Y-104310140D01*
X132081560Y-104305060D01*
X132211100Y-104305060D01*
X132345720Y-104305060D01*
X132477800Y-104307600D01*
X132589560Y-104312680D01*
X132670840Y-104317760D01*
X132706400Y-104325380D01*
X132706400Y-104327920D01*
X132719100Y-104371100D01*
X132739420Y-104460000D01*
X132764820Y-104584460D01*
X132792760Y-104731780D01*
X132797840Y-104759720D01*
X132823240Y-104901960D01*
X132848640Y-105018800D01*
X132866420Y-105097540D01*
X132874040Y-105130560D01*
X132886740Y-105135640D01*
X132945160Y-105163580D01*
X133041680Y-105201680D01*
X133161060Y-105249940D01*
X133435380Y-105361700D01*
X133770660Y-105130560D01*
X133801140Y-105110240D01*
X133923060Y-105026420D01*
X134022120Y-104960380D01*
X134093240Y-104917200D01*
X134121180Y-104899420D01*
X134123720Y-104901960D01*
X134156740Y-104929900D01*
X134222780Y-104993400D01*
X134314220Y-105082300D01*
X134420900Y-105186440D01*
X134499640Y-105265180D01*
X134591080Y-105359160D01*
X134649500Y-105422660D01*
X134682520Y-105463300D01*
X134695220Y-105488700D01*
X134690140Y-105506480D01*
X134669820Y-105539500D01*
X134619020Y-105613160D01*
X134550440Y-105717300D01*
X134469160Y-105834140D01*
X134400580Y-105935740D01*
X134326920Y-106047500D01*
X134281200Y-106128780D01*
X134263420Y-106166880D01*
X134268500Y-106184660D01*
X134291360Y-106250700D01*
X134332000Y-106349760D01*
X134382800Y-106469140D01*
X134499640Y-106735840D01*
X134674900Y-106768860D01*
X134779040Y-106789180D01*
X134928900Y-106817120D01*
X135071140Y-106845060D01*
X135292120Y-106888240D01*
X135299740Y-107698500D01*
X135264180Y-107713740D01*
X135231160Y-107723900D01*
X135149880Y-107741680D01*
X135033040Y-107764540D01*
X134895880Y-107789940D01*
X134776500Y-107812800D01*
X134659660Y-107835660D01*
X134573300Y-107850900D01*
X134535200Y-107858520D01*
X134527580Y-107871220D01*
X134497100Y-107929640D01*
X134453920Y-108021080D01*
X134408200Y-108130300D01*
X134359940Y-108244600D01*
X134319300Y-108348740D01*
X134288820Y-108430020D01*
X134278660Y-108470660D01*
X134293900Y-108501140D01*
X134339620Y-108572260D01*
X134405660Y-108671320D01*
X134484400Y-108788160D01*
X134565680Y-108907540D01*
X134634260Y-109006600D01*
X134682520Y-109080260D01*
X134700300Y-109113280D01*
X134690140Y-109136140D01*
X134644420Y-109192020D01*
X134555520Y-109283460D01*
X134423440Y-109415540D01*
X134400580Y-109435860D01*
X134296440Y-109537460D01*
X134207540Y-109618740D01*
X134146580Y-109674620D01*
X134118640Y-109694940D01*
D14*
X167873810Y-92722381D02*
X167540477Y-93722381D01*
X167207143Y-92722381D01*
X166730953Y-93722381D02*
X166826191Y-93674762D01*
X166873810Y-93627143D01*
X166921429Y-93531905D01*
X166921429Y-93246190D01*
X166873810Y-93150952D01*
X166826191Y-93103333D01*
X166730953Y-93055714D01*
X166588095Y-93055714D01*
X166492857Y-93103333D01*
X166445238Y-93150952D01*
X166397619Y-93246190D01*
X166397619Y-93531905D01*
X166445238Y-93627143D01*
X166492857Y-93674762D01*
X166588095Y-93722381D01*
X166730953Y-93722381D01*
X165540476Y-93055714D02*
X165540476Y-93722381D01*
X165969048Y-93055714D02*
X165969048Y-93579524D01*
X165921429Y-93674762D01*
X165826191Y-93722381D01*
X165683333Y-93722381D01*
X165588095Y-93674762D01*
X165540476Y-93627143D01*
X165207143Y-93055714D02*
X164826191Y-93055714D01*
X165064286Y-92722381D02*
X165064286Y-93579524D01*
X165016667Y-93674762D01*
X164921429Y-93722381D01*
X164826191Y-93722381D01*
X179811904Y-92770000D02*
X179907142Y-92722381D01*
X180049999Y-92722381D01*
X180192857Y-92770000D01*
X180288095Y-92865238D01*
X180335714Y-92960476D01*
X180383333Y-93150952D01*
X180383333Y-93293810D01*
X180335714Y-93484286D01*
X180288095Y-93579524D01*
X180192857Y-93674762D01*
X180049999Y-93722381D01*
X179954761Y-93722381D01*
X179811904Y-93674762D01*
X179764285Y-93627143D01*
X179764285Y-93293810D01*
X179954761Y-93293810D01*
X179335714Y-93722381D02*
X179335714Y-92722381D01*
X178764285Y-93722381D01*
X178764285Y-92722381D01*
X178288095Y-93722381D02*
X178288095Y-92722381D01*
X178050000Y-92722381D01*
X177907142Y-92770000D01*
X177811904Y-92865238D01*
X177764285Y-92960476D01*
X177716666Y-93150952D01*
X177716666Y-93293810D01*
X177764285Y-93484286D01*
X177811904Y-93579524D01*
X177907142Y-93674762D01*
X178050000Y-93722381D01*
X178288095Y-93722381D01*
X176208095Y-91182381D02*
X176017619Y-91182381D01*
X175922380Y-91134762D01*
X175874761Y-91087143D01*
X175779523Y-90944286D01*
X175731904Y-90753810D01*
X175731904Y-90372857D01*
X175779523Y-90277619D01*
X175827142Y-90230000D01*
X175922380Y-90182381D01*
X176112857Y-90182381D01*
X176208095Y-90230000D01*
X176255714Y-90277619D01*
X176303333Y-90372857D01*
X176303333Y-90610952D01*
X176255714Y-90706190D01*
X176208095Y-90753810D01*
X176112857Y-90801429D01*
X175922380Y-90801429D01*
X175827142Y-90753810D01*
X175779523Y-90706190D01*
X175731904Y-90610952D01*
X175350952Y-90277619D02*
X175303333Y-90230000D01*
X175208095Y-90182381D01*
X174969999Y-90182381D01*
X174874761Y-90230000D01*
X174827142Y-90277619D01*
X174779523Y-90372857D01*
X174779523Y-90468095D01*
X174827142Y-90610952D01*
X175398571Y-91182381D01*
X174779523Y-91182381D01*
X173874761Y-90182381D02*
X174350952Y-90182381D01*
X174398571Y-90658571D01*
X174350952Y-90610952D01*
X174255714Y-90563333D01*
X174017618Y-90563333D01*
X173922380Y-90610952D01*
X173874761Y-90658571D01*
X173827142Y-90753810D01*
X173827142Y-90991905D01*
X173874761Y-91087143D01*
X173922380Y-91134762D01*
X174017618Y-91182381D01*
X174255714Y-91182381D01*
X174350952Y-91134762D01*
X174398571Y-91087143D01*
X173398571Y-91182381D02*
X173398571Y-90515714D01*
X173398571Y-90610952D02*
X173350952Y-90563333D01*
X173255714Y-90515714D01*
X173112856Y-90515714D01*
X173017618Y-90563333D01*
X172969999Y-90658571D01*
X172969999Y-91182381D01*
X172969999Y-90658571D02*
X172922380Y-90563333D01*
X172827142Y-90515714D01*
X172684285Y-90515714D01*
X172589047Y-90563333D01*
X172541428Y-90658571D01*
X172541428Y-91182381D01*
X172208095Y-90182381D02*
X171874762Y-91182381D01*
X171541428Y-90182381D01*
%LPC*%
D15*
X166350000Y-90730000D03*
X173970000Y-93270000D03*
X179050000Y-90730000D03*
D16*
X181450000Y-97460000D03*
X181450000Y-102540000D03*
X132550000Y-102540000D03*
X132550000Y-97460000D03*
M02*
