%TF.GenerationSoftware,KiCad,Pcbnew,(2015-07-20 BZR 5967, Git 8482637)-product*%
%TF.CreationDate,2015-07-23T15:05:17+02:00*%
%TF.JobID,KIS-3R33S_breakout,4B49532D33523333535F627265616B6F,0.12.d*%
%TF.FileFunction,Copper,L1,Top,Signal*%
%FSLAX46Y46*%
G04 Gerber Fmt 4.6, Leading zero omitted, Abs format (unit mm)*
G04 Created by KiCad (PCBNEW (2015-07-20 BZR 5967, Git 8482637)-product) date Thu 23 Jul 2015 03:05:17 PM CEST*
%MOMM*%
G01*
G04 APERTURE LIST*
%ADD10C,0.100000*%
%ADD11R,2.500000X6.300000*%
%ADD12R,2.500000X2.500000*%
%ADD13R,2.500000X3.000000*%
%ADD14C,1.500000*%
%ADD15R,1.200000X0.900000*%
%ADD16C,2.000000*%
%ADD17R,6.000000X3.500000*%
%ADD18R,6.000000X5.000000*%
%ADD19R,1.198880X1.198880*%
%ADD20C,0.500000*%
%ADD21C,4.000000*%
G04 APERTURE END LIST*
D10*
D11*
X170150000Y-98000000D03*
X170150000Y-107400000D03*
D12*
X170150000Y-100160000D03*
X170150000Y-105240000D03*
D13*
X170150000Y-98890000D03*
X170150000Y-106510000D03*
D14*
X166350000Y-90730000D03*
X173970000Y-93270000D03*
X179050000Y-90730000D03*
D15*
X175200000Y-93700000D03*
X177400000Y-93700000D03*
X175200000Y-92000000D03*
X177400000Y-92000000D03*
X175200000Y-90300000D03*
X177400000Y-90300000D03*
X168900000Y-93700000D03*
X171100000Y-93700000D03*
X168900000Y-92000000D03*
X171100000Y-92000000D03*
D16*
X181450000Y-97460000D03*
X181450000Y-102540000D03*
X132550000Y-102540000D03*
X132550000Y-97460000D03*
D17*
X140000000Y-92000000D03*
X140000000Y-102000000D03*
X140000000Y-108000000D03*
X160000000Y-108000000D03*
D18*
X160000000Y-99000000D03*
D17*
X160000000Y-92000000D03*
D19*
X183299020Y-109000000D03*
X181200980Y-109000000D03*
D15*
X181150000Y-107000000D03*
X183350000Y-107000000D03*
X168900000Y-90300000D03*
X171100000Y-90300000D03*
D14*
X164400000Y-90800000D03*
D20*
X184398460Y-109000000D02*
X184750000Y-108648460D01*
X183299020Y-109000000D02*
X184398460Y-109000000D01*
X184750000Y-100760000D02*
X181450000Y-97460000D01*
X184750000Y-108648460D02*
X184750000Y-100760000D01*
X168900000Y-90300000D02*
X168900000Y-92000000D01*
X168900000Y-92000000D02*
X168900000Y-93700000D01*
X168470000Y-90730000D02*
X168900000Y-90300000D01*
X166350000Y-90730000D02*
X168470000Y-90730000D01*
D21*
X170150000Y-98150000D02*
X176050000Y-98150000D01*
X176740000Y-97460000D02*
X181450000Y-97460000D01*
X176050000Y-98150000D02*
X176740000Y-97460000D01*
X160000000Y-99000000D02*
X165100000Y-99000000D01*
X165950000Y-98150000D02*
X170150000Y-98150000D01*
X165100000Y-99000000D02*
X165950000Y-98150000D01*
D20*
X166350000Y-97750000D02*
X166350000Y-90730000D01*
X165950000Y-98150000D02*
X166350000Y-97750000D01*
X181200980Y-107050980D02*
X181150000Y-107000000D01*
X181200980Y-109000000D02*
X181200980Y-107050980D01*
D21*
X135460000Y-97460000D02*
X140000000Y-102000000D01*
X135460000Y-97460000D02*
X132550000Y-97460000D01*
D20*
X183350000Y-104440000D02*
X181450000Y-102540000D01*
X183350000Y-107000000D02*
X183350000Y-104440000D01*
X179000000Y-90780000D02*
X179050000Y-90730000D01*
X177400000Y-90300000D02*
X177400000Y-92000000D01*
X177400000Y-92000000D02*
X177400000Y-93700000D01*
X178620000Y-90300000D02*
X179050000Y-90730000D01*
X177400000Y-90300000D02*
X178620000Y-90300000D01*
D21*
X169400000Y-108000000D02*
X170150000Y-107250000D01*
X181450000Y-102540000D02*
X178660000Y-102540000D01*
X175400000Y-107250000D02*
X170150000Y-107250000D01*
X178660000Y-103990000D02*
X175400000Y-107250000D01*
X178660000Y-102540000D02*
X178660000Y-103990000D01*
X169400000Y-108000000D02*
X160000000Y-108000000D01*
X133000000Y-108000000D02*
X140000000Y-108000000D01*
X132550000Y-107550000D02*
X133000000Y-108000000D01*
X132550000Y-102540000D02*
X132550000Y-107550000D01*
X140000000Y-108000000D02*
X160000000Y-108000000D01*
D20*
X173540000Y-93700000D02*
X173970000Y-93270000D01*
X173970000Y-93270000D02*
X174770000Y-93270000D01*
X164100000Y-90939340D02*
X164239340Y-90800000D01*
X164239340Y-90800000D02*
X164400000Y-90800000D01*
X174770000Y-93270000D02*
X175200000Y-93700000D01*
X175200000Y-93700000D02*
X175200000Y-92000000D01*
X175200000Y-92000000D02*
X175200000Y-90300000D01*
X171100000Y-93700000D02*
X173540000Y-93700000D01*
X171100000Y-92000000D02*
X171100000Y-93700000D01*
X171100000Y-92000000D02*
X171100000Y-90300000D01*
X161200000Y-90800000D02*
X160000000Y-92000000D01*
X164400000Y-90800000D02*
X161200000Y-90800000D01*
M02*
